<svg width="480" height="113" viewBox="0 0 480 113" xmlns="http://www.w3.org/2000/svg" xmlns:xlink="http://www.w3.org/1999/xlink"><title>branding/gladney-logo-white</title><defs><path id="a" d="M91.74.307H0v87.27h91.74V.306z"/><path id="c" d="M43.333 45.589V.62H.806V45.59z"/></defs><g fill="none" fill-rule="evenodd"><g transform="translate(0 .526)"><mask id="b" fill="#fff"><use xlink:href="#a"/></mask><path d="M22.844 50.413a16.326 16.326 0 0 1-.908-.984c-2.23 5.762-.828 12.502 3.538 16.87a15.778 15.778 0 0 0 9.443 4.513c.332-1.071.501-2.174.501-3.28a2.673 2.673 0 0 0-1.865-2.519 10.307 10.307 0 0 1-4.237-2.556c-2.212-2.21-3.31-5.389-2.95-8.518l-3.522-3.526zM55.11 20.88c-2.48 0-4.865.57-7.09 1.69-.262.132-.53.28-.824.454l-.18.104c-.213.12-.423.243-.625.377-.86.57-1.678 1.24-2.432 1.992l-.359.358a.19.19 0 0 1-.05.036L32.64 36.765a2.652 2.652 0 0 0 0 3.741l1.972 1.97 13.181-13.133a10.303 10.303 0 0 1 3.407-2.265 9.67 9.67 0 0 1 1.066-.362c.36-.105.742-.19 1.16-.254.592-.1 1.143-.148 1.684-.148 2.766 0 5.364 1.076 7.318 3.032 2.213 2.21 3.31 5.39 2.949 8.518l3.505 3.505c.286.285.592.617.928 1.006 2.23-5.761.828-12.5-3.54-16.87a15.678 15.678 0 0 0-11.16-4.624zm22.506-7.783C68.518 4.362 56.57-.159 43.964.345 32.638.807 21.901 5.486 13.732 13.523 5.562 21.562.71 32.221.073 43.537c-1.03 18.263 8.874 35.388 25.23 43.63.66.33 1.408.455 2.103.35a20.028 20.028 0 0 0 11.213-5.678 20.137 20.137 0 0 0 5.435-9.986 3.01 3.01 0 0 1 .056-.228c.023-.09.032-.122.037-.155.029-.142.048-.282.068-.424l.053-.386c.016-.094.029-.176.038-.259l.04-.265c.027-.175.047-.296.06-.42l.012-.1c.011-.11.023-.214.03-.319a4.16 4.16 0 0 0 .018-.326l.02-.42c.013-.214.024-.416.03-.612a20.412 20.412 0 0 0-.46-4.724 20.62 20.62 0 0 0-.606-2.166l-.07-.208c-.078-.237-.157-.473-.25-.708-.074-.19-.16-.38-.244-.573l-.126-.277a20.077 20.077 0 0 0-3.64-5.496l-.844-.837a.85.85 0 0 1-.23-.255l-8.73-8.713c-.22-.218-.436-.46-.663-.733l-.197-.253a12.884 12.884 0 0 1-.383-.523 7.984 7.984 0 0 1-.119-.184l-.078-.122a16.65 16.65 0 0 1-.307-.52 12.708 12.708 0 0 1-.176-.335c-.09-.184-.173-.362-.25-.54l-.133-.314c-.082-.213-.148-.41-.214-.608l-.03-.102a2.657 2.657 0 0 1-.065-.194 11.597 11.597 0 0 1-.223-.914c-.01-.05-.02-.114-.028-.18l-.018-.131a10.227 10.227 0 0 1-.138-1.579 9.427 9.427 0 0 1 .225-2.216c.349-1.565.966-2.939 1.838-4.085 1.994-2.627 5.01-4.134 8.276-4.134.388 0 .784.024 1.208.079l3.498-3.5c.314-.315.648-.623 1.014-.935-2.799-1.1-5.787-1.358-8.886-.774-1.27.24-2.488.644-3.62 1.201-6.06 2.988-9.556 9.201-8.91 15.83.02.198.051.393.084.59l.043.273c.044.298.09.582.15.867l.018.129c.066.308.157.669.263 1.03l.076.229a16.153 16.153 0 0 0 .974 2.42l.157.314.007.018c.05.094.105.188.16.282l.13.225c.13.221.259.442.4.657l.194.284c.225.327.446.627.656.892l.264.337c.345.411.661.759.964 1.063l9.24 9.237c.07.041.136.093.193.152.087.09.173.185.26.28l.194.22a14.627 14.627 0 0 1 2.498 3.877c.114.258.216.517.312.782l.027.067c.11.295.215.584.3.876.026.087.05.177.068.27l.033.134a14.932 14.932 0 0 1 .51 3.812c-.001 1.544-.245 3.08-.728 4.569-.121.383-.234.698-.353.994-.145.354-.31.692-.457.99a14.763 14.763 0 0 1-2.796 3.91 14.696 14.696 0 0 1-7.586 4.051l-.086.014a.959.959 0 0 1-.69-.093c-13.13-7.162-21.29-20.877-21.29-35.792 0-22.466 18.277-40.742 40.742-40.742 22.466 0 40.743 18.276 40.743 40.742 0 14.815-8.085 28.488-21.1 35.678l-.172.105c-.134.068-.235.074-.284.078a.777.777 0 0 1-.35.024 14.73 14.73 0 0 1-7.652-4.065 14.736 14.736 0 0 1-2.793-3.9c-.122-.243-.3-.611-.458-.994a13.765 13.765 0 0 1-.355-.996 14.827 14.827 0 0 1-.729-4.572 14.915 14.915 0 0 1 .543-3.946l.018-.08c.018-.077.033-.133.049-.185.09-.307.202-.612.318-.924a14.724 14.724 0 0 1 3.407-5.33.888.888 0 0 1 .09-.117l4.174-4.177a6.304 6.304 0 0 0-.397-.866l-.047-.079a7.242 7.242 0 0 0-.399-.614l-.127-.175a6.88 6.88 0 0 0-.53-.605l-1.92-1.919-4.684 4.71c-.622.62-1.223 1.325-1.895 2.22a20.178 20.178 0 0 0-2.647 4.746c-.118.3-.223.603-.324.908-.24.711-.436 1.415-.584 2.096a20.466 20.466 0 0 0-.458 3.93l.006.123a10.813 10.813 0 0 1 0 .56l-.006.17c.003.085.01.21.018.339l.029.584c.007.207.011.318.022.431l.03.35c.014.14.039.289.062.435l.077.493.044.323c.031.242.052.406.085.567.01.047.023.098.036.146l.016.06c.019.07.031.118.041.168.838 3.855 2.688 7.301 5.353 9.96a20.008 20.008 0 0 0 11.404 5.712 2.939 2.939 0 0 0 1.735-.293c15.718-7.833 25.482-23.572 25.482-41.076 0-12.588-5.016-24.335-14.123-33.08zm-6.74 42.193l.004-.255a16.061 16.061 0 0 0-.063-1.303l-.028-.258a16.21 16.21 0 0 0-.192-1.348 17.285 17.285 0 0 0-.326-1.336l-.073-.252c-.123-.413-.27-.83-.431-1.238l-.073-.172a15.31 15.31 0 0 0-.49-1.079l-.065-.134a2.61 2.61 0 0 0-.052-.11c-.111-.207-.223-.4-.334-.59a15.27 15.27 0 0 0-.386-.627l-.147-.23c-.25-.371-.52-.739-.803-1.09l-.174-.21c-.36-.43-.669-.773-.973-1.078l-11.385-11.29a2.623 2.623 0 0 0-1.867-.77c-.71 0-1.373.274-1.872.772l-1.97 1.97 13.252 13.159a10.01 10.01 0 0 1 1 1.177l.065.09c.185.255.36.525.524.803l.042.067c.044.072.088.146.128.22.183.334.352.69.501 1.054l.09.238c.115.303.208.62.268.832l.045.141a9.002 9.002 0 0 1 .2.956l.027.158.017.099.028.174a.209.209 0 0 1 0 .05 10.468 10.468 0 0 1-.448 4.496l-.03.095c-.227.669-.537 1.333-.923 1.98-.051.085-.104.169-.158.253a10.184 10.184 0 0 1-1.382 1.752 10.196 10.196 0 0 1-1.954 1.529c-.073.045-.154.078-.234.112a.683.683 0 0 0-.098.042c-.75.42-1.353.69-1.952.873a2.673 2.673 0 0 0-1.865 2.521c0 1.103.17 2.205.501 3.277.492-.063.987-.17 1.466-.276l.18-.037c.118-.028.24-.045.36-.064.152-.022.265-.039.374-.069.67-.177 1.338-.452 1.926-.697.112-.044.223-.081.334-.118.108-.036.215-.07.318-.117a15.676 15.676 0 0 0 4.493-3.134c.49-.491.972-1.056 1.47-1.727.07-.094.133-.191.196-.288.064-.1.112-.175.163-.25.348-.509.61-.931.826-1.331.115-.21.216-.424.317-.639l.055-.11c.218-.46.395-.876.543-1.271.103-.275.197-.55.284-.83.03-.09.062-.179.095-.266.034-.092.068-.185.094-.28.079-.286.15-.573.212-.862.014-.069.026-.142.038-.215l.113-.648c.012-.069.03-.13.05-.185.028-.22.059-.474.084-.734.022-.246.03-.505.038-.767l.007-.163c0-.018.003-.033.007-.05a.165.165 0 0 1-.003-.045l.008-.168c.005-.06.008-.117.009-.179z" fill="#FFF" mask="url(#b)"/></g><path d="M120.268 44.593v-.128c0-12.334 9.057-23.256 22.548-23.256 7.58 0 12.27 2.185 16.766 5.975l-3.275 3.854c-3.47-3.019-7.324-5.14-13.683-5.14-9.958 0-17.089 8.416-17.089 18.437v.13c0 10.727 6.874 18.692 17.794 18.692 5.14 0 9.894-1.99 12.978-4.495V47.483h-13.683v-4.56h18.564v17.922c-4.175 3.726-10.471 6.874-18.052 6.874-14.132 0-22.868-10.278-22.868-23.126M177.755 21.98h5.076V62.26h25.31v4.689h-30.386zM252.588 50.502l-10.214-22.934-10.279 22.934h20.493zM240.062 21.66h4.753l20.493 45.287h-5.46l-5.268-11.883h-24.475l-5.332 11.883h-5.204l20.493-45.287zM295.531 62.258c11.37 0 18.63-7.708 18.63-17.665v-.129c0-9.957-7.26-17.794-18.63-17.794h-10.535v35.588h10.535zm-15.61-40.278h15.61c14.133 0 23.897 9.7 23.897 22.355v.13c0 12.654-9.764 22.483-23.897 22.483h-15.61V21.98zM336.271 21.98h4.753l28.33 36.039V21.98h4.947v44.968h-4.048l-29.035-36.873v36.873h-4.947zM393.54 21.98h32.505v4.626h-27.43v15.352h24.54v4.626h-24.54v15.739h27.752v4.625H393.54z" fill="#FFF"/><g transform="translate(436.667 21.36)"><mask id="d" fill="#fff"><use xlink:href="#c"/></mask><path fill="#FFF" mask="url(#d)" d="M19.5 27.794L.806.62h6.168l15.16 22.485L37.424.62h5.91L24.639 27.73v17.859H19.5z"/></g><path d="M123.245 101.354c0-6.16 4.522-11.813 10.23-11.813 2.234 0 3.986.792 5.031 2.29l1.074-2.204h1.498l-1.696 6.895h-1.3c-.197-4.07-2.062-5.455-4.69-5.455-4.974 0-7.603 5.737-7.603 10.316 0 3.759 1.866 5.878 4.918 5.878 3.334 0 5.228-2.77 6.668-5.935l1.357.566c-1.497 3.757-4.012 6.952-8.336 6.952-4.89 0-7.15-3.363-7.15-7.49M143.577 102.174c4.805-.65 6.274-2.289 6.274-4.042 0-.904-.565-1.526-1.526-1.526-2.262 0-4.098 2.94-4.748 5.568m-.198 1.046c-.056.283-.056.566-.056.819 0 2.289 1.102 3.306 2.656 3.306s2.94-1.045 4.183-2.854l.875.565c-1.356 2.065-3.023 3.618-5.651 3.618-2.544 0-4.324-1.809-4.324-4.747 0-4.325 3.956-8.45 7.686-8.45 2.035 0 3.137 1.13 3.137 2.6 0 2.486-2.684 4.522-8.506 5.143M165.273 107.006c.679 0 1.385-1.186 2.092-3.136l.99.31c-1.216 3.534-2.46 4.494-3.703 4.494-1.159 0-2.063-.848-2.063-2.486.029-2.63 2.007-5.513 2.007-7.8 0-.623-.255-1.16-.99-1.16-1.61 0-4.295 2.996-6.528 11.192h-2.289l2.374-8.902c.593-2.176.311-2.6-.226-2.6-.791 0-1.554 1.412-2.43 3.193l-.962-.424c1.158-2.63 2.318-4.154 3.872-4.154 1.13 0 1.78.82 1.78 2.317 0 .99-.282 2.261-.621 3.306l.197.086c1.81-3.76 3.759-5.766 5.681-5.766 1.413 0 2.346 1.131 2.346 2.827 0 2.402-2.12 6.018-2.12 7.997 0 .34.113.706.593.706M174.996 97.172l-1.838 6.67c-.282 1.101-.367 1.64-.367 2.006 0 .79.452 1.102 1.045 1.102 1.16 0 2.064-1.469 2.912-3.306l.989.31c-1.499 3.985-3.307 4.72-4.523 4.72-1.723 0-2.627-1.018-2.627-2.458 0-.792.31-1.978.509-2.77l1.723-6.274h-2.571l.31-1.243h2.572l.962-3.533 2.26-.283-1.045 3.816h3.871l-.34 1.243h-3.842zM182.471 102.174c4.805-.65 6.274-2.289 6.274-4.042 0-.904-.565-1.526-1.527-1.526-2.26 0-4.097 2.94-4.746 5.568m-.199 1.046c-.057.283-.057.566-.057.819 0 2.289 1.103 3.306 2.657 3.306s2.939-1.045 4.183-2.854l.875.565c-1.356 2.065-3.024 3.618-5.651 3.618-2.544 0-4.325-1.809-4.325-4.747 0-4.325 3.957-8.45 7.687-8.45 2.035 0 3.137 1.13 3.137 2.6 0 2.486-2.684 4.522-8.506 5.143M196.056 99.518c.594-2.175.311-2.6-.226-2.6-.791 0-1.555 1.412-2.43 3.193l-.961-.424c1.158-2.629 2.317-4.154 3.871-4.154 1.13 0 1.78.819 1.78 2.317 0 .99-.282 2.26-.621 3.307l.227.085c1.723-3.617 3.107-5.766 4.803-5.766.933 0 1.612.65 1.612 1.64 0 1.102-.708 2.006-1.555 2.006-.763 0-1.272-.594-1.186-1.611-1.16.537-3.562 4.042-5.399 10.91h-2.289l2.374-8.903zM206.88 111.472c0-.82.565-1.583 1.44-1.583.765 0 1.132.565 1.132 1.103 0 .394-.142.82-.367 1.074.96 0 1.412-.708 2.317-4.975l2.091-9.919h-2.77l.34-1.243h2.684c.99-4.833 3.194-7.038 5.85-7.066 1.893-.028 2.826 1.018 2.826 2.092s-.677 2.007-1.581 2.007c-.708 0-1.188-.453-1.188-1.244 0-.509.226-1.13.678-1.526-.17-.141-.481-.227-.82-.227-1.95 0-2.713 1.866-3.39 5.002l-.228.962h3.59l-.338 1.243h-3.505l-1.922 9.128c-1.074 5.144-2.94 6.726-4.917 6.726-1.329 0-1.922-.735-1.922-1.554M226.182 96.607c-2.882 0-4.578 4.635-4.578 7.743 0 2.205 1.046 3.166 2.46 3.166 2.882 0 4.577-4.635 4.577-7.744 0-2.205-1.046-3.165-2.459-3.165m4.692 4.097c0 4.24-3.137 7.97-6.783 7.97-2.995 0-4.691-2.204-4.691-5.228 0-4.24 3.137-7.97 6.782-7.97 2.968 0 4.692 2.204 4.692 5.228M236.388 99.518c.594-2.175.311-2.6-.226-2.6-.791 0-1.555 1.412-2.43 3.193l-.961-.424c1.158-2.629 2.317-4.154 3.872-4.154 1.13 0 1.78.819 1.78 2.317 0 .99-.283 2.26-.621 3.307l.226.085c1.724-3.617 3.108-5.766 4.803-5.766.933 0 1.612.65 1.612 1.64 0 1.102-.707 2.006-1.555 2.006-.763 0-1.272-.594-1.186-1.611-1.16.537-3.562 4.042-5.399 10.91h-2.289l2.374-8.903zM262.134 100.45l-.82-8.026h-.084l-4.805 8.026h5.709zm.707 6.5l-.566-5.171h-6.642l-3.08 5.171h2.487l-.367 1.47h-6.387l.368-1.47h1.978l10.57-17.098h2.062l1.978 17.098h2.374l-.339 1.47h-7.715l.368-1.47h2.911zM278.68 99.347c0-1.497-.565-2.6-2.006-2.6-2.74 0-4.663 4.55-4.663 7.49 0 1.837.735 2.798 1.922 2.798 2.487 0 4.748-4.917 4.748-7.688zm4.438 4.834c-1.188 3.532-2.403 4.492-3.702 4.492-1.074 0-1.95-.734-1.95-2.288 0-.254.028-.508.056-.707l-.198-.085c-1.159 1.98-2.628 3.08-4.182 3.08-1.979 0-3.364-1.667-3.364-4.266 0-2.77 1.131-5.314 2.742-6.924 1.215-1.215 2.657-2.007 4.07-2.007 1.356 0 2.345.735 2.684 2.232l1.951-7.177h-2.657l.395-1.526h4.804l-4.012 14.837c-.31 1.158-.425 1.807-.425 2.317 0 .368.114.847.68.847.762 0 1.413-1.186 2.148-3.136l.96.31zM291.825 96.607c-2.883 0-4.578 4.635-4.578 7.743 0 2.205 1.045 3.166 2.458 3.166 2.883 0 4.578-4.635 4.578-7.744 0-2.205-1.046-3.165-2.458-3.165m4.691 4.097c0 4.24-3.137 7.97-6.783 7.97-2.995 0-4.691-2.204-4.691-5.228 0-4.24 3.138-7.97 6.783-7.97 2.968 0 4.691 2.204 4.691 5.228M302.878 104.549c0 1.383.679 2.627 2.234 2.627 2.684 0 4.464-4.606 4.464-7.433 0-1.78-.678-2.684-1.837-2.684-2.516 0-4.86 4.833-4.86 7.49m-1.16-7.377c-.763 0-1.299.847-2.345 2.939l-.96-.424c1.271-2.883 2.43-4.153 3.899-4.153 1.187 0 1.78.874 1.78 2.203a5.3 5.3 0 0 1-.055.763l.196.085c1.188-1.978 2.657-3.109 4.184-3.109 2.035 0 3.419 1.696 3.419 4.324 0 4.579-3.279 8.648-6.529 8.648-1.385 0-2.6-.734-2.995-1.978l-1.271 4.72h2.826l-.424 1.469h-7.009l.396-1.469h2.092l3.079-11.559c.452-1.668.339-2.46-.283-2.46M318.787 97.172l-1.837 6.67c-.283 1.101-.368 1.64-.368 2.006 0 .79.451 1.102 1.045 1.102 1.16 0 2.064-1.469 2.912-3.306l.988.31c-1.498 3.985-3.306 4.72-4.522 4.72-1.723 0-2.628-1.018-2.628-2.458 0-.792.311-1.978.51-2.77l1.724-6.274h-2.573l.311-1.243h2.573l.96-3.533 2.261-.283-1.046 3.816h3.872l-.34 1.243h-3.842zM329.483 93.159c-.678 0-1.271-.48-1.271-1.357 0-.904.65-1.978 1.724-1.978.79 0 1.328.538 1.328 1.385 0 .875-.678 1.95-1.78 1.95m-2.092 13.112c0 .368.17.735.65.735.706 0 1.385-1.074 2.176-3.136l.961.311c-1.187 3.475-2.46 4.493-3.787 4.493-1.244 0-2.148-.847-2.12-2.431.029-2.655 2.46-6.274 2.46-8.534 0-.395-.114-.791-.538-.791-.904 0-1.724 1.44-2.628 3.193l-.961-.424c1.187-2.572 2.402-4.21 4.042-4.21 1.271 0 2.119.988 2.119 2.712 0 2.346-2.374 6.218-2.374 8.082M340.057 96.607c-2.883 0-4.58 4.635-4.58 7.743 0 2.205 1.047 3.166 2.46 3.166 2.882 0 4.577-4.635 4.577-7.744 0-2.205-1.045-3.165-2.457-3.165m4.69 4.097c0 4.24-3.137 7.97-6.782 7.97-2.995 0-4.691-2.204-4.691-5.228 0-4.24 3.137-7.97 6.783-7.97 2.967 0 4.69 2.204 4.69 5.228M358.372 107.006c.678 0 1.385-1.186 2.091-3.136l.99.31c-1.216 3.534-2.46 4.494-3.703 4.494-1.158 0-2.063-.848-2.063-2.486.028-2.63 2.007-5.513 2.007-7.8 0-.623-.255-1.16-.99-1.16-1.61 0-4.295 2.996-6.527 11.192h-2.29l2.375-8.902c.592-2.176.31-2.6-.227-2.6-.79 0-1.554 1.412-2.43 3.193l-.96-.424c1.157-2.63 2.317-4.154 3.87-4.154 1.132 0 1.782.82 1.782 2.317 0 .99-.284 2.261-.622 3.306l.197.086c1.808-3.76 3.759-5.766 5.681-5.766 1.412 0 2.345 1.131 2.345 2.827 0 2.402-2.12 6.018-2.12 7.997 0 .34.114.706.594.706" fill="#FFF"/></g></svg>