<svg width="111" height="109" viewBox="0 0 111 109" xmlns="http://www.w3.org/2000/svg" xmlns:xlink="http://www.w3.org/1999/xlink"><title>branding/gladney-icon-white</title><defs><path id="a" d="M0 104.722h110.087V0H0v104.722z"/></defs><g transform="translate(0 2)" fill="none" fill-rule="evenodd"><mask id="b" fill="#fff"><use xlink:href="#a"/></mask><path d="M27.413 60.126c-.345-.343-.705-.73-1.09-1.18-2.675 6.914-.993 15.002 4.246 20.244A18.934 18.934 0 0 0 41.9 84.605c.4-1.285.602-2.608.602-3.935a3.208 3.208 0 0 0-2.238-3.023 12.368 12.368 0 0 1-5.085-3.068c-2.654-2.652-3.972-6.466-3.539-10.22l-4.227-4.233zm38.72-35.438a18.75 18.75 0 0 0-8.508 2.027c-.315.16-.638.337-.99.546l-.216.124c-.256.145-.508.292-.75.453a19.13 19.13 0 0 0-2.918 2.39l-.43.43a.228.228 0 0 1-.06.043L39.168 43.75a3.183 3.183 0 0 0 0 4.49l2.365 2.363 15.818-15.759a12.364 12.364 0 0 1 4.088-2.718c.418-.17.848-.316 1.28-.435.432-.126.89-.227 1.392-.305.71-.12 1.371-.178 2.02-.178 3.32 0 6.437 1.292 8.781 3.64 2.656 2.652 3.973 6.467 3.54 10.221l4.205 4.206c.344.342.711.74 1.114 1.207 2.676-6.914.994-15-4.247-20.245a18.813 18.813 0 0 0-13.393-5.548zm27.006-9.339C82.221 4.865 67.885-.56 52.757.045 39.165.6 26.281 6.215 16.478 15.86 6.675 25.504.853 38.296.088 51.874-1.148 73.79 10.736 94.34 30.363 104.23c.792.398 1.69.547 2.524.421a24.034 24.034 0 0 0 13.456-6.814 24.165 24.165 0 0 0 6.522-11.983c.018-.089.041-.182.067-.273.027-.109.038-.147.044-.186.035-.17.058-.339.082-.509l.064-.464c.02-.112.034-.21.045-.31l.048-.318c.033-.21.057-.355.073-.504l.013-.12c.014-.133.028-.257.037-.383.014-.139.018-.266.021-.39l.024-.505c.016-.257.03-.499.035-.735a24.494 24.494 0 0 0-.553-5.669 24.743 24.743 0 0 0-.725-2.598l-.083-.25c-.095-.285-.19-.568-.3-.85-.09-.228-.192-.456-.294-.688l-.15-.332a24.092 24.092 0 0 0-4.368-6.595l-1.014-1.005a1.02 1.02 0 0 1-.276-.306L35.18 52.408a12.698 12.698 0 0 1-.796-.879l-.236-.304a15.46 15.46 0 0 1-.46-.628 9.581 9.581 0 0 1-.142-.22l-.094-.147a19.98 19.98 0 0 1-.368-.623 15.25 15.25 0 0 1-.21-.403 14.228 14.228 0 0 1-.302-.649l-.159-.376a15.098 15.098 0 0 1-.257-.73l-.037-.122a3.188 3.188 0 0 1-.077-.233 13.916 13.916 0 0 1-.267-1.097 2.547 2.547 0 0 1-.034-.216l-.022-.157a12.272 12.272 0 0 1-.165-1.894c-.009-.957.074-1.776.27-2.66.418-1.877 1.16-3.526 2.205-4.902 2.393-3.152 6.013-4.96 9.932-4.96.465 0 .94.03 1.45.094l4.197-4.199c.376-.379.777-.748 1.217-1.123-3.359-1.319-6.945-1.629-10.664-.929a16.962 16.962 0 0 0-4.344 1.442c-7.272 3.585-11.467 11.041-10.69 18.995.023.238.06.472.1.71l.051.326c.053.358.108.7.18 1.041l.021.154c.08.37.19.803.316 1.236l.091.275a19.384 19.384 0 0 0 1.17 2.904l.187.377.01.022c.058.113.125.225.191.338l.155.27c.156.266.311.531.48.79l.233.34c.27.392.536.752.788 1.07l.316.404c.415.494.794.911 1.157 1.276L41.66 68.105c.085.05.163.112.232.182.104.108.208.223.312.337l.233.264a17.553 17.553 0 0 1 2.997 4.652c.137.31.26.621.375.94l.032.08c.131.353.258.7.36 1.05.031.104.06.213.082.325l.04.16a15 15 0 0 1 .165.658c.295 1.313.445 2.632.445 3.917 0 1.852-.293 3.696-.872 5.482-.146.46-.28.838-.424 1.193-.174.425-.372.83-.548 1.188a17.715 17.715 0 0 1-3.356 4.692 17.636 17.636 0 0 1-9.103 4.861l-.103.017a1.15 1.15 0 0 1-.829-.112C15.942 89.397 6.152 72.94 6.152 55.041c0-26.959 21.932-48.89 48.89-48.89 26.96 0 48.891 21.931 48.891 48.89 0 17.778-9.702 34.185-25.32 42.815l-.206.124c-.16.082-.282.09-.34.094a.933.933 0 0 1-.422.03 17.676 17.676 0 0 1-9.182-4.879 17.683 17.683 0 0 1-3.35-4.68 18.467 18.467 0 0 1-.55-1.193 16.518 16.518 0 0 1-.427-1.195 17.793 17.793 0 0 1-.874-5.487 17.898 17.898 0 0 1 .651-4.735l.022-.095c.021-.093.04-.16.058-.223.108-.368.243-.734.382-1.108a17.67 17.67 0 0 1 4.088-6.395c.03-.048.067-.096.108-.142l5.01-5.012a7.565 7.565 0 0 0-.477-1.04l-.056-.094a8.69 8.69 0 0 0-.479-.737l-.153-.21a8.257 8.257 0 0 0-.635-.726l-2.305-2.303-5.62 5.652c-.747.744-1.468 1.59-2.275 2.664a24.214 24.214 0 0 0-3.176 5.695c-.14.36-.268.724-.389 1.09a23.362 23.362 0 0 0-.7 2.515 24.56 24.56 0 0 0-.55 4.717l.007.147a12.976 12.976 0 0 1 0 .672l-.007.203c.004.103.012.253.021.407l.035.701c.01.25.014.382.027.518l.035.42c.018.168.047.346.075.521l.092.592c.02.131.036.26.053.388.038.29.063.487.102.68.012.056.028.118.044.175l.02.073c.021.083.036.141.048.201 1.005 4.626 3.226 8.761 6.424 11.952 3.737 3.74 8.47 6.11 13.684 6.854a3.526 3.526 0 0 0 2.082-.352c18.862-9.399 30.58-28.286 30.58-49.29 0-15.106-6.02-29.203-16.949-39.696zM85.052 65.98l.004-.306a19.273 19.273 0 0 0-.076-1.563l-.033-.31a19.452 19.452 0 0 0-.23-1.618 20.742 20.742 0 0 0-.392-1.603l-.087-.303a18.298 18.298 0 0 0-.518-1.485l-.087-.206a18.372 18.372 0 0 0-.589-1.295l-.077-.16a3.131 3.131 0 0 0-.063-.132c-.133-.25-.267-.48-.4-.709a18.323 18.323 0 0 0-.464-.753l-.176-.275a18.342 18.342 0 0 0-.964-1.309l-.209-.252a19.84 19.84 0 0 0-1.167-1.293L65.862 38.861a3.147 3.147 0 0 0-2.24-.926 3.16 3.16 0 0 0-2.247.927l-2.365 2.365 15.903 15.79a12.012 12.012 0 0 1 1.201 1.413l.078.107c.221.307.432.63.628.964l.051.081c.052.086.105.175.153.263.22.402.423.83.602 1.265l.108.286c.138.364.25.745.321.998l.054.17a10.91 10.91 0 0 1 .239 1.147l.033.19.021.118.033.21a.25.25 0 0 1 .001.06 12.561 12.561 0 0 1-.538 5.394l-.037.114c-.272.803-.643 1.6-1.107 2.376-.06.102-.125.203-.189.304a12.22 12.22 0 0 1-1.659 2.102 12.235 12.235 0 0 1-2.344 1.835c-.088.054-.185.094-.28.134a.819.819 0 0 0-.119.051c-.9.503-1.623.827-2.342 1.048a3.208 3.208 0 0 0-2.238 3.025c0 1.323.203 2.646.601 3.932.59-.075 1.184-.205 1.76-.33l.214-.046c.143-.033.288-.054.434-.076.182-.027.317-.047.448-.083.805-.213 1.606-.543 2.311-.836.134-.053.268-.098.401-.142.13-.043.258-.085.382-.14a18.81 18.81 0 0 0 5.391-3.76 18.844 18.844 0 0 0 1.765-2.074c.084-.113.16-.229.234-.345.077-.12.135-.21.196-.3.417-.61.731-1.118.991-1.598.138-.252.26-.508.381-.766l.066-.133c.261-.552.474-1.05.651-1.525.124-.33.237-.66.341-.995a6.73 6.73 0 0 1 .114-.32c.041-.11.082-.222.113-.336.094-.343.18-.687.254-1.034.017-.083.031-.17.046-.258l.135-.778c.015-.082.036-.155.06-.222.034-.263.071-.569.101-.88.027-.296.037-.607.046-.92l.008-.197a.29.29 0 0 1 .01-.059c-.005-.017-.006-.036-.005-.055l.01-.2c.005-.074.01-.14.01-.216z" fill="#FFF" mask="url(#b)"/></g></svg>