<?xml version="1.0" encoding="utf-8"?>
<!-- Generator: Adobe Illustrator 21.1.0, SVG Export Plug-In . SVG Version: 6.00 Build 0)  -->
<svg version="1.1" id="Layer_1" xmlns="http://www.w3.org/2000/svg" xmlns:xlink="http://www.w3.org/1999/xlink" x="0px" y="0px"
	 viewBox="0 0 133.2 54.4" style="enable-background:new 0 0 133.2 54.4;" xml:space="preserve">
<style type="text/css">
	.st0{fill:#58595B;}
</style>
<g>
	<path class="st0" d="M4,44c-2.2,0-4,1.8-4,3.9c0,2.1,1.8,3.9,3.9,3.9c1.1,0,2.1-0.5,2.8-1.3c0.7-0.8,0.8-1.6,0.8-2.7H4.3v0.8h2.3
		c0,1.4-1.4,2.4-2.7,2.4c-0.8,0-1.6-0.4-2.2-1c-0.6-0.6-0.9-1.3-0.9-2.1c0-1.7,1.4-3.2,3.1-3.2c1.1,0,2,0.5,2.6,1.4l0.6-0.6
		C6.4,44.6,5.3,44,4,44"/>
	<rect x="8.9" y="43.4" class="st0" width="0.8" height="8.3"/>
	<path class="st0" d="M13.4,46.9c-1.4,0-2.3,1.2-2.3,2.5c0,1.3,0.9,2.5,2.3,2.5c0.7,0,1.2-0.3,1.6-0.8h0v0.7h0.8V47H15v0.7h0
		C14.6,47.2,14,46.9,13.4,46.9 M13.5,51.1c-1,0-1.5-0.9-1.5-1.8c0-0.9,0.6-1.7,1.5-1.7c1,0,1.6,0.8,1.6,1.7
		C15,50.3,14.5,51.1,13.5,51.1"/>
	<path class="st0" d="M21.9,43.4H21v4.2h0c-0.4-0.5-1-0.8-1.6-0.8c-1.4,0-2.3,1.2-2.3,2.5c0,1.3,0.9,2.5,2.3,2.5
		c0.6,0,1.2-0.3,1.6-0.8h0v0.7h0.8V43.4z M19.5,51.1c-1,0-1.5-0.9-1.5-1.8c0-0.9,0.6-1.7,1.5-1.7c1,0,1.6,0.8,1.6,1.7
		C21.1,50.3,20.5,51.1,19.5,51.1"/>
	<path class="st0" d="M25.8,46.9c-0.6,0-1,0.3-1.3,0.7h0V47h-0.8v4.7h0.8v-2.2c0-0.8,0.1-1.9,1.2-1.9c0.9,0,1,0.7,1,1.4v2.7h0.8
		v-2.8C27.4,47.8,27.1,46.9,25.8,46.9"/>
	<path class="st0" d="M31,46.9c-1.5,0-2.3,1.2-2.3,2.6c0,1.4,0.9,2.4,2.3,2.4c1,0,1.7-0.5,2.2-1.3l-0.7-0.4c-0.3,0.6-0.8,1-1.4,1
		c-0.9,0-1.5-0.7-1.5-1.6h3.7C33.3,48.1,32.5,46.9,31,46.9 M29.6,48.8c0.1-0.7,0.7-1.2,1.4-1.2c0.7,0,1.3,0.6,1.4,1.2H29.6z"/>
	<polygon class="st0" points="38,47 36.4,50.4 34.8,47 33.8,47 36,51.3 34.5,54.4 35.4,54.4 38.9,47 	"/>
	<path class="st0" d="M46.7,44c-2.2,0-4,1.8-4,4c0,2.2,1.8,3.9,4,3.9c0.8,0,1.6-0.3,2.3-0.7v-1c-0.6,0.6-1.4,1-2.3,1
		c-1.7,0-3.1-1.5-3.1-3.1c0-1.7,1.4-3.1,3.1-3.1c0.9,0,1.7,0.4,2.3,1v-1C48.3,44.2,47.6,44,46.7,44"/>
	<path class="st0" d="M52.6,46.9c-1.5,0-2.3,1.2-2.3,2.6c0,1.4,0.9,2.4,2.3,2.4c1,0,1.7-0.5,2.2-1.3l-0.7-0.4c-0.3,0.6-0.8,1-1.4,1
		c-0.9,0-1.5-0.7-1.5-1.6h3.7C54.9,48.1,54.1,46.9,52.6,46.9 M51.1,48.8c0.1-0.7,0.7-1.2,1.4-1.2c0.7,0,1.3,0.6,1.4,1.2H51.1z"/>
	<path class="st0" d="M58.3,46.9c-0.6,0-1,0.3-1.3,0.7h0V47h-0.8v4.7H57v-2.2c0-0.8,0.1-1.9,1.2-1.9c0.9,0,1,0.7,1,1.4v2.7h0.8v-2.8
		C59.9,47.8,59.6,46.9,58.3,46.9"/>
	<polygon class="st0" points="62.6,45.3 61.8,45.3 61.8,47 61.3,47 61.3,47.7 61.8,47.7 61.8,51.7 62.6,51.7 62.6,47.7 63.4,47.7 
		63.4,47 62.6,47 	"/>
	<path class="st0" d="M66.2,46.9c-1.5,0-2.3,1.2-2.3,2.6c0,1.4,0.9,2.4,2.3,2.4c1,0,1.7-0.5,2.2-1.3l-0.7-0.4c-0.3,0.6-0.8,1-1.4,1
		c-0.9,0-1.5-0.7-1.5-1.6h3.7C68.6,48.1,67.8,46.9,66.2,46.9 M64.8,48.8c0.1-0.7,0.7-1.2,1.4-1.2c0.7,0,1.3,0.6,1.4,1.2H64.8z"/>
	<path class="st0" d="M71.7,46.9c-0.5,0-0.8,0.3-1,0.6h0V47h-0.8v4.7h0.8v-2.4c0-0.6,0-1.8,0.9-1.8c0.2,0,0.3,0.1,0.5,0.2l0.4-0.7
		C72.2,46.9,72,46.9,71.7,46.9"/>
	<path class="st0" d="M79.7,43.3c-0.5,0-1,0.2-1.3,0.6c-0.3,0.3-0.3,0.8-0.4,1.2L77.6,47h-0.4l-0.1,0.7h0.4l-0.6,4h0.8l0.6-4h1.2
		l0.1-0.7h-1.2l0.3-1.6c0.1-0.8,0.2-1.3,0.9-1.3c0.2,0,0.4,0.1,0.5,0.1l0.1-0.8C80,43.3,79.8,43.3,79.7,43.3"/>
	<path class="st0" d="M82.7,46.9c-1.4,0-2.7,1.1-2.9,2.5c-0.2,1.4,0.7,2.5,2.1,2.5s2.7-1.1,2.9-2.5C85,48,84.1,46.9,82.7,46.9
		 M82,51.1c-1,0-1.6-0.8-1.4-1.8c0.2-1,1-1.8,2-1.8c1,0,1.6,0.8,1.4,1.8C83.8,50.3,83,51.1,82,51.1"/>
	<path class="st0" d="M88.3,46.9c-0.5,0-0.8,0.3-1.1,0.6h0l0.1-0.5h-0.8l-0.7,4.7h0.8l0.4-2.4c0.1-0.6,0.3-1.8,1.2-1.8
		c0.2,0,0.3,0.1,0.4,0.2l0.5-0.7C88.8,46.9,88.6,46.9,88.3,46.9"/>
	<path class="st0" d="M95.5,43.8L92,51.7h0.9l0.9-2.2h3.2l0.9,2.2h0.9L95.5,43.8z M94.2,48.8l1.3-3l1.3,3H94.2z"/>
	<path class="st0" d="M104.3,43.4h-0.8v4.2h0c-0.4-0.5-1-0.8-1.6-0.8c-1.4,0-2.3,1.2-2.3,2.5c0,1.3,0.9,2.5,2.3,2.5
		c0.6,0,1.2-0.3,1.6-0.8h0v0.7h0.8V43.4z M102,51.1c-1,0-1.5-0.9-1.5-1.8c0-0.9,0.6-1.7,1.5-1.7c1,0,1.6,0.8,1.6,1.7
		C103.5,50.3,103,51.1,102,51.1"/>
	<path class="st0" d="M108.1,46.9c-1.4,0-2.5,1.1-2.5,2.5c0,1.4,1.1,2.5,2.5,2.5c1.4,0,2.5-1.1,2.5-2.5
		C110.6,48,109.5,46.9,108.1,46.9 M108.1,51.1c-1,0-1.7-0.8-1.7-1.8c0-1,0.7-1.8,1.7-1.8c1,0,1.7,0.8,1.7,1.8
		C109.8,50.3,109.1,51.1,108.1,51.1"/>
	<path class="st0" d="M114.3,46.9c-0.7,0-1.2,0.3-1.6,0.8h0V47h-0.8v7.4h0.8V51h0c0.4,0.5,1,0.8,1.6,0.8c1.4,0,2.3-1.1,2.3-2.5
		C116.6,48.1,115.7,46.9,114.3,46.9 M114.2,51.1c-1,0-1.5-0.9-1.5-1.8c0-0.9,0.6-1.7,1.5-1.7c1,0,1.6,0.8,1.6,1.7
		C115.8,50.3,115.2,51.1,114.2,51.1"/>
	<polygon class="st0" points="118.8,45.3 118,45.3 118,47 117.5,47 117.5,47.7 118,47.7 118,51.7 118.8,51.7 118.8,47.7 119.7,47.7 
		119.7,47 118.8,47 	"/>
	<path class="st0" d="M121.2,44.6c-0.3,0-0.6,0.3-0.6,0.6c0,0.3,0.3,0.6,0.6,0.6c0.3,0,0.6-0.3,0.6-0.6
		C121.8,44.9,121.5,44.6,121.2,44.6 M121.6,47h-0.8v4.7h0.8V47z"/>
	<path class="st0" d="M125.6,46.9c-1.4,0-2.5,1.1-2.5,2.5c0,1.4,1.1,2.5,2.5,2.5c1.4,0,2.5-1.1,2.5-2.5
		C128.1,48,127,46.9,125.6,46.9 M125.6,51.1c-1,0-1.7-0.8-1.7-1.8c0-1,0.7-1.8,1.7-1.8c1,0,1.7,0.8,1.7,1.8
		C127.3,50.3,126.6,51.1,125.6,51.1"/>
	<path class="st0" d="M131.6,46.9c-0.6,0-1,0.3-1.3,0.7h0V47h-0.8v4.7h0.8v-2.2c0-0.8,0.1-1.9,1.2-1.9c0.9,0,1,0.7,1,1.4v2.7h0.8
		v-2.8C133.2,47.8,132.9,46.9,131.6,46.9"/>
	<path class="st0" d="M66.5,0L51.2,11.7h1.4v16.1h27.9V11.7H82L66.5,0z M55,25.6V11.7l11.4-8.6L78,11.7v13.9h-7.4v-0.5
		c0,0,4.2-1.4,3.7-6.4c0,0,2.6-1.3,0.8-3.5c0,0-0.8,1.2-1.1,1.3c0,0-0.3-1-0.3-1.2c-0.3,0.4-0.6,0.9-0.8,1.4c-0.6,1.3-0.4,2.7-1.2,4
		c-0.7,1.1-1.8,1.7-3,1.7c-0.1,0-0.3,0-0.4,0c0,0,0.3-0.8,1.1-1.7h-0.1c0.4-0.6,0.6-1.3,0.6-2.1c0-2-1.5-3.6-3.4-3.6
		c-1.9,0-3.4,1.6-3.4,3.6c0,0.8,0.2,1.5,0.6,2.1h-0.1c0.8,0.9,1.1,1.7,1.1,1.7c-0.1,0-0.3,0-0.4,0c-1.2,0-2.3-0.6-3-1.7
		c-0.8-1.3-0.6-2.7-1.2-4c-0.2-0.5-0.5-0.9-0.8-1.4c0,0.2-0.3,1.2-0.3,1.2c-0.4,0-1.1-1.3-1.1-1.3c-1.9,2.3,0.8,3.5,0.8,3.5
		c-0.5,5,3.7,6.4,3.7,6.4v0.5H55z"/>
</g>
</svg>
