<?xml version="1.0" encoding="utf-8"?>
<!-- Generator: Adobe Illustrator 21.1.0, SVG Export Plug-In . SVG Version: 6.00 Build 0)  -->
<svg version="1.1" id="Layer_1" xmlns="http://www.w3.org/2000/svg" xmlns:xlink="http://www.w3.org/1999/xlink" x="0px" y="0px"
	 viewBox="0 0 45 45" style="enable-background:new 0 0 45 45;" xml:space="preserve">
<style type="text/css">
	.st0{clip-path:url(#SVGID_2_);fill:#FC8766;}
	.st1{fill:#FC8766;}
	.st2{clip-path:url(#SVGID_4_);fill:#FC8766;}
	.st3{clip-path:url(#SVGID_6_);fill:#FC8766;}
</style>
<g>
	<defs>
		<rect id="SVGID_1_" width="45" height="45"/>
	</defs>
	<clipPath id="SVGID_2_">
		<use xlink:href="#SVGID_1_"  style="overflow:visible;"/>
	</clipPath>
	<path class="st0" d="M22.5,2.1c-11.2,0-20.4,9.1-20.4,20.4s9.1,20.4,20.4,20.4s20.4-9.1,20.4-20.4S33.7,2.1,22.5,2.1 M22.5,45
		C10.1,45,0,34.9,0,22.5S10.1,0,22.5,0C34.9,0,45,10.1,45,22.5S34.9,45,22.5,45"/>
	<path class="st0" d="M33.2,4.6C33.2,4.6,33.2,4.6,33.2,4.6C33.2,4.6,33.2,4.6,33.2,4.6"/>
	<path class="st0" d="M11.8,4.6C11.8,4.6,11.8,4.6,11.8,4.6C11.8,4.6,11.8,4.6,11.8,4.6"/>
	<path class="st0" d="M10.5,5.5c0.1-0.1,0.2-0.2,0.4-0.2C10.7,5.3,10.6,5.4,10.5,5.5"/>
	<path class="st0" d="M33.7,4.9C33.7,4.9,33.7,4.9,33.7,4.9C33.7,4.9,33.7,4.9,33.7,4.9"/>
	<path class="st0" d="M11.3,5C11.3,4.9,11.3,4.9,11.3,5C11.3,4.9,11.3,4.9,11.3,5"/>
	<path class="st0" d="M20.4,44.9c-3.2-0.3-6.2-1.3-8.9-2.8C14.2,43.6,17.2,44.6,20.4,44.9"/>
	<path class="st0" d="M10.4,3.6c0.2-0.1,0.4-0.2,0.5-0.3C10.7,3.3,10.5,3.4,10.4,3.6"/>
	<path class="st0" d="M10,5.8c0.1-0.1,0.3-0.2,0.4-0.3C10.3,5.6,10.2,5.7,10,5.8"/>
	<path class="st0" d="M34.1,5.2c0.1,0.1,0.2,0.2,0.4,0.3C34.4,5.4,34.3,5.3,34.1,5.2"/>
	<path class="st0" d="M21.7,45c-0.2,0-0.3,0-0.5,0C21.4,45,21.5,45,21.7,45"/>
	<path class="st0" d="M38.9,9.7C38.9,9.7,38.9,9.7,38.9,9.7c-1.3-1.6-2.7-3-4.4-4.2C36.2,6.7,37.7,8.1,38.9,9.7"/>
	<path class="st0" d="M9.9,3.9c0.1-0.1,0.2-0.1,0.3-0.2C10.1,3.8,10,3.8,9.9,3.9"/>
	<path class="st0" d="M24,0c0.2,0,0.4,0,0.6,0C24.3,0.1,24.1,0.1,24,0"/>
	<path class="st0" d="M24.6,0.1c3.4,0.3,6.6,1.4,9.5,3.1C31.3,1.5,28,0.4,24.6,0.1"/>
	<path class="st0" d="M23.3,0c0.2,0,0.3,0,0.5,0C23.6,0,23.5,0,23.3,0"/>
	<path class="st0" d="M22.5,0c0.2,0,0.4,0,0.6,0C22.9,0,22.7,0,22.5,0"/>
	<path class="st0" d="M34.1,3.2c0.2,0.1,0.4,0.2,0.5,0.3C34.5,3.4,34.3,3.3,34.1,3.2"/>
	<path class="st0" d="M34.9,3.7c0.1,0.1,0.2,0.1,0.3,0.2C35,3.8,34.9,3.8,34.9,3.7"/>
	<path class="st0" d="M20.5,0.1c0.2,0,0.4,0,0.6,0C20.9,0.1,20.7,0.1,20.5,0.1"/>
	<path class="st0" d="M21.9,0c0.2,0,0.4,0,0.6,0C22.3,0,22.1,0,21.9,0"/>
	<path class="st0" d="M10.9,3.2c0.2-0.1,0.4-0.2,0.6-0.3C11.3,3,11.1,3.1,10.9,3.2"/>
	<path class="st0" d="M11.5,2.9c2.7-1.5,5.8-2.5,8.9-2.8C17.2,0.4,14.2,1.4,11.5,2.9"/>
	<path class="st0" d="M35.5,4.1c0,0,0.1,0,0.1,0.1C35.5,4.2,35.5,4.1,35.5,4.1"/>
	<path class="st0" d="M21.2,0c0.2,0,0.3,0,0.5,0C21.5,0,21.4,0,21.2,0"/>
	<path class="st0" d="M9.5,40.9c0,0-0.1-0.1-0.1-0.1C9.5,40.8,9.5,40.9,9.5,40.9"/>
	<path class="st0" d="M34.5,39.5c-0.1,0.1-0.2,0.2-0.4,0.3C34.3,39.7,34.4,39.6,34.5,39.5"/>
	<path class="st0" d="M11.3,40.1C11.3,40.1,11.3,40.1,11.3,40.1C11.3,40.1,11.3,40.1,11.3,40.1"/>
	<path class="st0" d="M11.8,40.4C11.8,40.4,11.8,40.4,11.8,40.4C11.8,40.4,11.8,40.4,11.8,40.4"/>
	<path class="st0" d="M11.5,42.1c-0.2-0.1-0.4-0.2-0.6-0.3C11.1,41.9,11.3,42,11.5,42.1"/>
	<path class="st0" d="M10.9,39.8c-0.1-0.1-0.2-0.2-0.4-0.2C10.6,39.6,10.7,39.7,10.9,39.8"/>
	<path class="st0" d="M10.9,41.8c-0.2-0.1-0.4-0.2-0.5-0.3C10.5,41.6,10.7,41.7,10.9,41.8"/>
	<path class="st0" d="M33.7,40C33.7,40.1,33.7,40.1,33.7,40C33.7,40.1,33.7,40.1,33.7,40"/>
	<path class="st0" d="M33.2,40.4C33.2,40.4,33.2,40.4,33.2,40.4C33.2,40.4,33.2,40.4,33.2,40.4"/>
	<path class="st0" d="M10.4,39.5c-0.1-0.1-0.3-0.2-0.4-0.3C10.2,39.3,10.3,39.4,10.4,39.5"/>
	<path class="st0" d="M9.4,4.2c0,0,0.1-0.1,0.1-0.1C9.5,4.1,9.5,4.2,9.4,4.2"/>
	<path class="st0" d="M10.1,41.3c-0.1-0.1-0.2-0.1-0.3-0.2C10,41.2,10.1,41.2,10.1,41.3"/>
	<path class="st0" d="M21,45c-0.2,0-0.4,0-0.6,0C20.7,44.9,20.9,44.9,21,45"/>
	<path class="st0" d="M23.8,45c-0.2,0-0.3,0-0.5,0C23.5,45,23.6,45,23.8,45"/>
	<path class="st0" d="M0.8,21.7h0.9c0.2-3.9,1.4-7.5,3.4-10.5c-0.2-0.1-0.4-0.1-0.6-0.2c-0.2-0.1-0.4-0.3-0.5-0.5
		C3.8,10.2,3.9,10,4,9.8c-2.5,3.6-4,8-4,12.7C0,22,0.4,21.7,0.8,21.7"/>
	<path class="st0" d="M35.6,40.8C35.5,40.8,35.5,40.9,35.6,40.8C35.5,40.9,35.5,40.8,35.6,40.8"/>
	<path class="st0" d="M34.6,41.4c-0.2,0.1-0.4,0.2-0.5,0.3C34.3,41.7,34.5,41.6,34.6,41.4"/>
	<path class="st0" d="M10,5.8c-1.5,1.1-2.8,2.4-4,3.9c0,0,0,0,0,0C7.2,8.2,8.5,6.9,10,5.8"/>
	<path class="st0" d="M35.1,41.1c-0.1,0.1-0.2,0.1-0.2,0.2C35,41.2,35,41.2,35.1,41.1"/>
	<path class="st0" d="M6.1,35.3C6.1,35.3,6.1,35.3,6.1,35.3c1.2,1.5,2.5,2.8,4,3.9C8.5,38.1,7.2,36.8,6.1,35.3"/>
	<path class="st0" d="M33.5,42.1c-2.7,1.5-5.8,2.5-8.9,2.8C27.8,44.6,30.8,43.6,33.5,42.1"/>
	<path class="st0" d="M34.6,39.5c1.6-1.2,3.1-2.6,4.4-4.2c0,0,0,0,0,0C37.7,36.9,36.2,38.3,34.6,39.5"/>
	<path class="st0" d="M41.1,10.4c-0.1,0.2-0.3,0.4-0.5,0.5c-0.2,0.1-0.4,0.1-0.6,0.2c2,3.1,3.2,6.7,3.4,10.5h0.9
		c0.5,0,0.8,0.4,0.8,0.8c0-4.7-1.5-9.1-4-12.7C41.1,10,41.2,10.2,41.1,10.4"/>
	<path class="st0" d="M44.2,23.3h-0.9c-0.2,3.9-1.4,7.5-3.4,10.5c0.2,0.1,0.4,0.1,0.6,0.2c0.2,0.1,0.4,0.3,0.5,0.5
		c0.1,0.2,0,0.4-0.1,0.6c2.5-3.6,4-8,4-12.7C45,23,44.6,23.3,44.2,23.3"/>
	<path class="st0" d="M3.9,34.6c0.1-0.2,0.3-0.4,0.5-0.5C4.6,34,4.8,33.9,5,33.9c-2-3.1-3.2-6.7-3.4-10.5H0.8C0.4,23.3,0,23,0,22.5
		c0,4.7,1.5,9.1,4,12.7C3.9,35,3.8,34.8,3.9,34.6"/>
	<path class="st0" d="M34.1,41.8c-0.2,0.1-0.4,0.2-0.6,0.3C33.7,42,33.9,41.9,34.1,41.8"/>
	<path class="st0" d="M24.5,44.9c-0.2,0-0.4,0-0.6,0C24.1,44.9,24.3,44.9,24.5,44.9"/>
	<path class="st0" d="M32.1,21.7h1.7c-0.1-3.1-0.4-6.1-1-8.8c-0.6,0.1-1.1,0.2-1.7,0.3C31.7,15.7,32,18.6,32.1,21.7"/>
	<path class="st0" d="M14,13.1c-0.6-0.1-1.1-0.2-1.7-0.3c-0.6,2.7-1,5.6-1,8.8h1.7C13,18.6,13.3,15.7,14,13.1"/>
	<path class="st0" d="M32.3,33.7c-0.6-0.1-1.1-0.2-1.7-0.2c-1.6,5.4-4.2,9.2-7.3,9.8v0.1c0.1,0,0.2,0,0.3,0c0,0,0.1,0,0.1,0
		c0.2,0,0.3,0,0.5,0c0,0,0.1,0,0.1,0c0.2,0,0.4,0,0.5-0.1c0,0,0,0,0,0c0.9-0.1,1.8-0.3,2.6-0.5C29.5,40.7,31.2,37.6,32.3,33.7"/>
	<path class="st0" d="M21.7,43.2c-3-0.6-5.7-4.4-7.3-9.8c-0.6,0.1-1.1,0.2-1.7,0.2c1.1,3.9,2.8,7,4.8,9c0.9,0.2,1.7,0.4,2.6,0.5
		c0,0,0,0,0,0c0.2,0,0.4,0,0.5,0.1c0,0,0.1,0,0.1,0c0.2,0,0.3,0,0.5,0c0,0,0.1,0,0.1,0C21.4,43.3,21.6,43.3,21.7,43.2L21.7,43.2z"/>
	<path class="st0" d="M23.3,1.8c3,0.6,5.7,4.4,7.3,9.8c0.6-0.1,1.1-0.2,1.7-0.2c-1.1-3.9-2.8-7-4.8-9c-0.9-0.2-1.7-0.4-2.6-0.5
		c0,0,0,0,0,0c-0.2,0-0.4,0-0.5-0.1c0,0-0.1,0-0.1,0c-0.2,0-0.3,0-0.5,0c0,0-0.1,0-0.1,0C23.6,1.7,23.4,1.7,23.3,1.8L23.3,1.8z"/>
	<path class="st0" d="M12.7,11.3c0.6,0.1,1.1,0.2,1.7,0.2c1.6-5.4,4.2-9.2,7.3-9.8V1.7c-0.1,0-0.2,0-0.3,0c0,0-0.1,0-0.1,0
		c-0.2,0-0.3,0-0.5,0c0,0-0.1,0-0.1,0c-0.2,0-0.4,0-0.5,0.1c0,0,0,0,0,0c-0.9,0.1-1.8,0.3-2.6,0.5C15.5,4.3,13.8,7.4,12.7,11.3"/>
	<path class="st0" d="M31,31.9c0.6,0.1,1.1,0.2,1.7,0.3c0.6-2.7,1-5.6,1-8.8h-1.7C32,26.4,31.7,29.3,31,31.9"/>
	<path class="st0" d="M12.9,23.3h-1.7c0.1,3.1,0.4,6.1,1,8.8c0.6-0.1,1.1-0.2,1.7-0.3C13.3,29.3,13,26.4,12.9,23.3"/>
	<polyline class="st0" points="24.9,1.8 24.9,1.8 24.9,1.8 	"/>
	<polyline class="st0" points="20.1,1.8 20.1,1.8 20.1,1.8 	"/>
	<path class="st0" d="M24.3,1.7C24.3,1.7,24.3,1.7,24.3,1.7C24.3,1.7,24.3,1.7,24.3,1.7"/>
	<path class="st0" d="M21.2,1.7c0,0,0.1,0,0.1,0C21.3,1.7,21.3,1.7,21.2,1.7"/>
	<path class="st0" d="M20.7,1.7C20.7,1.7,20.7,1.7,20.7,1.7C20.7,1.7,20.7,1.7,20.7,1.7"/>
	<path class="st0" d="M23.7,1.7c0,0,0.1,0,0.1,0C23.7,1.7,23.7,1.7,23.7,1.7"/>
	<path class="st0" d="M24.3,43.3C24.3,43.3,24.3,43.3,24.3,43.3C24.3,43.3,24.3,43.3,24.3,43.3"/>
	<path class="st0" d="M23.8,43.3c0,0-0.1,0-0.1,0C23.7,43.3,23.7,43.3,23.8,43.3"/>
	<polyline class="st0" points="20.1,43.2 20.1,43.2 20.1,43.2 	"/>
	<path class="st0" d="M21.3,43.3c0,0-0.1,0-0.1,0C21.3,43.3,21.3,43.3,21.3,43.3"/>
	<path class="st0" d="M20.7,43.3C20.7,43.3,20.7,43.3,20.7,43.3C20.7,43.3,20.7,43.3,20.7,43.3"/>
	<polyline class="st0" points="24.9,43.2 24.9,43.2 24.9,43.2 	"/>
	<path class="st0" d="M21.7,23.3v8c0.3,0,0.6,0,0.8,0c0.3,0,0.6,0,0.8,0v-8H21.7z"/>
	<path class="st0" d="M21.7,12c0.3,0,0.6,0,0.8,0c0.3,0,0.6,0,0.8,0V1.7c-0.3-0.1-0.6-0.1-0.8-0.1c-0.3,0-0.6,0-0.8,0.1V12z"/>
	<path class="st0" d="M23.3,33c-0.3,0-0.6,0-0.8,0c-0.3,0-0.6,0-0.8,0v10.3c0.3,0.1,0.6,0.1,0.8,0.1c0.3,0,0.6,0,0.8-0.1V33z"/>
	<path class="st0" d="M23.3,1.7c0,0-0.1,0-0.1,0c0,0-0.1,0-0.1,0c-0.2,0-0.4,0-0.6,0C22.8,1.7,23.1,1.7,23.3,1.7L23.3,1.7z"/>
	<path class="st0" d="M21.7,1.8c0.3-0.1,0.6-0.1,0.8-0.1c-0.2,0-0.4,0-0.6,0c0,0-0.1,0-0.1,0C21.7,1.7,21.7,1.7,21.7,1.8L21.7,1.8z"
		/>
	<path class="st0" d="M21.7,43.3c0,0,0.1,0,0.1,0c0,0,0.1,0,0.1,0c0.2,0,0.4,0,0.6,0C22.2,43.3,21.9,43.3,21.7,43.3L21.7,43.3z"/>
	<path class="st0" d="M23.3,43.2c-0.3,0.1-0.6,0.1-0.8,0.1c0.2,0,0.4,0,0.6,0c0,0,0.1,0,0.1,0C23.3,43.3,23.3,43.3,23.3,43.2
		L23.3,43.2z"/>
	<path class="st0" d="M23.2,43.3c0,0-0.1,0-0.1,0C23.1,43.3,23.2,43.3,23.2,43.3"/>
	<path class="st0" d="M21.8,1.7c0,0,0.1,0,0.1,0C21.9,1.7,21.8,1.7,21.8,1.7"/>
	<path class="st0" d="M23.1,1.7c0,0,0.1,0,0.1,0C23.2,1.7,23.1,1.7,23.1,1.7"/>
	<path class="st0" d="M21.9,43.3c0,0-0.1,0-0.1,0C21.8,43.3,21.9,43.3,21.9,43.3"/>
	<path class="st0" d="M33.8,22.5c0,0.3,0,0.6,0,0.8h9.6c0-0.3,0-0.6,0-0.8c0-0.3,0-0.6,0-0.8h-9.6C33.8,21.9,33.8,22.2,33.8,22.5"/>
	<path class="st0" d="M11.2,22.5c0-0.3,0-0.6,0-0.8H1.7c0,0.3,0,0.6,0,0.8c0,0.3,0,0.6,0,0.8h9.6C11.2,23.1,11.2,22.8,11.2,22.5"/>
	<path class="st0" d="M23.3,23.3h8.8c0-0.3,0-0.6,0-0.8c0-0.3,0-0.6,0-0.8h-8.8V23.3z"/>
	<path class="st0" d="M21.7,21.7h-8.8c0,0.3,0,0.6,0,0.8c0,0.3,0,0.6,0,0.8h8.8V21.7z"/>
	<path class="st0" d="M0.8,23.3h0.9c0-0.3,0-0.6,0-0.8c0-0.3,0-0.6,0-0.8H0.8C0.4,21.7,0,22,0,22.5C0,23,0.4,23.3,0.8,23.3"/>
	<path class="st0" d="M44.2,21.7h-0.9c0,0.3,0,0.6,0,0.8c0,0.3,0,0.6,0,0.8h0.9c0.5,0,0.8-0.4,0.8-0.8C45,22,44.6,21.7,44.2,21.7"/>
	<path class="st0" d="M33.8,21.7h-1.7c0,0.3,0,0.6,0,0.8c0,0.3,0,0.6,0,0.8h1.7c0-0.3,0-0.6,0-0.8C33.8,22.2,33.8,21.9,33.8,21.7"/>
	<path class="st0" d="M12.9,22.5c0-0.3,0-0.6,0-0.8h-1.7c0,0.3,0,0.6,0,0.8c0,0.3,0,0.6,0,0.8h1.7C12.9,23.1,12.9,22.8,12.9,22.5"/>
</g>
<rect x="21.7" y="21.7" class="st1" width="1.7" height="1.7"/>
<g>
	<defs>
		<rect id="SVGID_3_" width="45" height="45"/>
	</defs>
	<clipPath id="SVGID_4_">
		<use xlink:href="#SVGID_3_"  style="overflow:visible;"/>
	</clipPath>
	<path class="st2" d="M10.1,3.7c0.1,0,0.1-0.1,0.2-0.1C10.3,3.6,10.2,3.7,10.1,3.7"/>
	<path class="st2" d="M21.7,0c0.1,0,0.1,0,0.2,0C21.8,0,21.7,0,21.7,0"/>
	<path class="st2" d="M34.6,3.6c0.1,0,0.1,0.1,0.2,0.1C34.8,3.7,34.7,3.6,34.6,3.6"/>
	<path class="st2" d="M33.2,4.6c-1.7-1-3.6-1.8-5.7-2.3c0,0,0,0,0,0C29.5,2.8,31.4,3.6,33.2,4.6"/>
	<path class="st2" d="M12.7,11.3c-2.4-0.4-4.6-0.9-6.6-1.5c-0.4,0.5-0.7,0.9-1,1.4c2.2,0.7,4.6,1.3,7.2,1.7
		C12.4,12.3,12.5,11.8,12.7,11.3"/>
	<path class="st2" d="M23.8,0c0,0,0.1,0,0.1,0C23.9,0,23.9,0,23.8,0"/>
	<path class="st2" d="M24.5,0.1C24.5,0.1,24.6,0.1,24.5,0.1C24.6,0.1,24.5,0.1,24.5,0.1"/>
	<path class="st2" d="M10.9,3.2C10.9,3.2,10.9,3.2,10.9,3.2C10.9,3.2,10.9,3.2,10.9,3.2"/>
	<path class="st2" d="M31,13.1c-0.1-0.6-0.3-1.1-0.4-1.6c-2.3,0.3-4.8,0.5-7.3,0.5v1.7C26,13.7,28.6,13.5,31,13.1"/>
	<path class="st2" d="M21.7,13.7V12c-2.5,0-4.9-0.2-7.3-0.5c-0.2,0.5-0.3,1.1-0.4,1.6C16.4,13.5,19,13.7,21.7,13.7"/>
	<path class="st2" d="M17.5,2.3c-2,0.5-3.9,1.3-5.7,2.3C13.6,3.6,15.5,2.8,17.5,2.3C17.5,2.3,17.5,2.3,17.5,2.3"/>
	<path class="st2" d="M41,9.8C41,9.7,41,9.7,41,9.8c-1.6-2.2-3.4-4.1-5.5-5.6C37.7,5.7,39.5,7.6,41,9.8"/>
	<path class="st2" d="M9.5,4.1C9.7,4,9.8,4,9.9,3.9C9.8,4,9.7,4,9.5,4.1"/>
	<path class="st2" d="M34.1,3.2C34.1,3.2,34.1,3.2,34.1,3.2C34.1,3.2,34.1,3.2,34.1,3.2"/>
	<path class="st2" d="M33.7,5C33.9,5,34,5.1,34.1,5.2C34,5.1,33.9,5,33.7,5"/>
	<path class="st2" d="M9.4,4.2C7.4,5.7,5.5,7.5,4,9.7c0,0,0,0.1-0.1,0.1C5.5,7.6,7.3,5.7,9.4,4.2"/>
	<path class="st2" d="M32.7,12.9c2.6-0.4,5-1,7.2-1.7c-0.3-0.5-0.7-1-1-1.4c-2,0.6-4.3,1.2-6.6,1.5C32.5,11.8,32.6,12.3,32.7,12.9"
		/>
	<path class="st2" d="M20.4,0.1C20.4,0.1,20.5,0.1,20.4,0.1C20.5,0.1,20.4,0.1,20.4,0.1"/>
	<path class="st2" d="M35.1,3.9C35.2,4,35.3,4,35.5,4.1C35.3,4,35.2,4,35.1,3.9"/>
	<path class="st2" d="M34.5,5.5C34.5,5.5,34.5,5.5,34.5,5.5C34.5,5.5,34.5,5.5,34.5,5.5"/>
	<path class="st2" d="M21,0c0,0,0.1,0,0.1,0C21.1,0,21.1,0,21,0"/>
	<polyline class="st2" points="11.5,2.9 11.5,2.9 11.5,2.9 	"/>
	<polyline class="st2" points="10,5.8 10,5.8 10,5.8 	"/>
	<path class="st2" d="M10.4,5.5C10.5,5.5,10.5,5.5,10.4,5.5C10.5,5.5,10.5,5.5,10.4,5.5"/>
	<path class="st2" d="M23.1,0c0.1,0,0.1,0,0.2,0C23.3,0,23.2,0,23.1,0"/>
	<path class="st2" d="M10.9,5.2C11,5.1,11.1,5,11.3,5C11.1,5,11,5.1,10.9,5.2"/>
	<path class="st2" d="M33.2,4.6c0.2,0.1,0.3,0.2,0.5,0.3C33.5,4.8,33.4,4.7,33.2,4.6"/>
	<path class="st2" d="M11.3,4.9c0.2-0.1,0.3-0.2,0.5-0.3C11.6,4.7,11.5,4.8,11.3,4.9"/>
	<path class="st2" d="M33.2,4.6C33.2,4.6,33.2,4.6,33.2,4.6c0.2,0.1,0.3,0.2,0.5,0.3c0,0,0,0,0,0C33.9,5,34,5.1,34.1,5.2
		c0.1,0.1,0.2,0.2,0.4,0.3c0,0,0,0,0.1,0c1.6,1.2,3.1,2.6,4.4,4.2c0,0,0,0,0,0c0.4,0.5,0.7,0.9,1,1.4c0.2-0.1,0.4-0.1,0.6-0.2
		c0.2-0.1,0.4-0.3,0.5-0.5c0.1-0.2,0-0.4-0.1-0.6c-1.5-2.2-3.3-4-5.5-5.6c0,0-0.1,0-0.1-0.1C35.3,4,35.2,4,35.1,3.9
		c-0.1-0.1-0.2-0.1-0.3-0.2c-0.1,0-0.1-0.1-0.2-0.1c-0.2-0.1-0.4-0.2-0.5-0.3c0,0,0,0,0,0c-2.9-1.7-6.1-2.8-9.5-3.1c0,0,0,0-0.1,0
		c-0.2,0-0.4,0-0.6,0c0,0-0.1,0-0.1,0c-0.2,0-0.3,0-0.5,0c-0.1,0-0.1,0-0.2,0c-0.2,0-0.4,0-0.6,0c1.8,0,3.5,0.8,5,2.3
		C29.5,2.8,31.5,3.6,33.2,4.6"/>
	<path class="st2" d="M3.9,10.4c0.1,0.2,0.3,0.4,0.5,0.5C4.6,11,4.8,11.1,5,11.1c0.3-0.5,0.7-1,1-1.4c0,0,0,0,0,0
		c1.2-1.5,2.5-2.8,4-3.9c0,0,0,0,0,0c0.1-0.1,0.3-0.2,0.4-0.3c0,0,0,0,0.1,0c0.1-0.1,0.2-0.2,0.4-0.2C11,5.1,11.1,5,11.3,5
		c0,0,0,0,0,0c0.2-0.1,0.3-0.2,0.5-0.3c0,0,0,0,0,0c1.7-1,3.6-1.8,5.7-2.3C19,0.8,20.7,0,22.5,0c-0.2,0-0.4,0-0.6,0
		c-0.1,0-0.1,0-0.2,0c-0.2,0-0.3,0-0.5,0c0,0-0.1,0-0.1,0c-0.2,0-0.4,0-0.6,0c0,0,0,0-0.1,0c-3.2,0.3-6.2,1.3-8.9,2.8c0,0,0,0,0,0
		c-0.2,0.1-0.4,0.2-0.6,0.3c0,0,0,0,0,0c-0.2,0.1-0.4,0.2-0.5,0.3c-0.1,0-0.1,0.1-0.2,0.1C10.1,3.8,10,3.8,9.9,3.9
		C9.8,4,9.7,4,9.5,4.1c0,0-0.1,0.1-0.1,0.1C7.3,5.7,5.5,7.6,4,9.8C3.9,10,3.8,10.2,3.9,10.4"/>
	<path class="st2" d="M14.4,11.5c-0.6-0.1-1.1-0.2-1.7-0.2c-0.1,0.5-0.3,1.1-0.4,1.6c0.6,0.1,1.1,0.2,1.7,0.3
		C14.1,12.6,14.2,12,14.4,11.5"/>
	<path class="st2" d="M23.8,1.7c0.2,0,0.3,0,0.5,0C24.1,1.7,23.9,1.7,23.8,1.7"/>
	<path class="st2" d="M20.7,1.7c0.2,0,0.3,0,0.5,0C21.1,1.7,20.9,1.7,20.7,1.7"/>
	<path class="st2" d="M21.7,1.7c-0.1,0-0.2,0-0.3,0C21.4,1.7,21.6,1.7,21.7,1.7L21.7,1.7z"/>
	<path class="st2" d="M24.3,1.7c0.2,0,0.4,0,0.5,0.1C24.7,1.8,24.5,1.8,24.3,1.7"/>
	<path class="st2" d="M20.1,1.8c0.2,0,0.4,0,0.5-0.1C20.5,1.8,20.3,1.8,20.1,1.8"/>
	<path class="st2" d="M27.5,2.3c-0.9-0.2-1.7-0.4-2.6-0.5C25.8,1.9,26.7,2.1,27.5,2.3C27.5,2.3,27.5,2.3,27.5,2.3"/>
	<path class="st2" d="M20.1,1.8c-0.9,0.1-1.8,0.3-2.6,0.5c0,0,0,0,0,0C18.3,2.1,19.2,1.9,20.1,1.8"/>
	<path class="st2" d="M23.7,1.7c-0.1,0-0.2,0-0.3,0v0C23.4,1.7,23.6,1.7,23.7,1.7"/>
	<path class="st2" d="M32.7,12.9c-0.1-0.6-0.3-1.1-0.4-1.6c-0.6,0.1-1.1,0.2-1.7,0.2c0.2,0.5,0.3,1.1,0.4,1.6
		C31.6,13.1,32.2,13,32.7,12.9"/>
	<path class="st2" d="M20.1,1.8C20.1,1.8,20.1,1.8,20.1,1.8c0.2,0,0.4,0,0.6-0.1c0,0,0.1,0,0.1,0c0.2,0,0.3,0,0.5,0c0,0,0.1,0,0.1,0
		c0.1,0,0.2,0,0.3,0V0.8C21.7,0.4,22,0,22.5,0c-1.8,0-3.5,0.8-5,2.3C18.3,2.1,19.2,1.9,20.1,1.8"/>
	<path class="st2" d="M23.3,0.8v0.9c0.1,0,0.2,0,0.3,0c0,0,0.1,0,0.1,0c0.2,0,0.3,0,0.5,0c0,0,0.1,0,0.1,0c0.2,0,0.4,0,0.5,0.1
		c0,0,0,0,0,0c0.9,0.1,1.8,0.3,2.6,0.5C26,0.8,24.3,0,22.5,0C23,0,23.3,0.4,23.3,0.8"/>
	<path class="st2" d="M22.5,13.7c0.3,0,0.6,0,0.8,0V12c-0.3,0-0.6,0-0.8,0c-0.3,0-0.6,0-0.8,0v1.7C21.9,13.7,22.2,13.7,22.5,13.7"/>
	<path class="st2" d="M21.9,1.7c0.2,0,0.4,0,0.6,0C22.3,1.7,22.1,1.7,21.9,1.7"/>
	<path class="st2" d="M22.5,1.7c0.2,0,0.4,0,0.6,0C22.9,1.7,22.7,1.7,22.5,1.7"/>
	<path class="st2" d="M23.3,1.7c0,0-0.1,0-0.1,0C23.3,1.7,23.3,1.7,23.3,1.7L23.3,1.7z"/>
	<path class="st2" d="M21.8,1.7c0,0-0.1,0-0.1,0C21.7,1.7,21.7,1.7,21.8,1.7"/>
	<path class="st2" d="M21.7,0.8v0.9c0,0,0.1,0,0.1,0c0,0,0.1,0,0.1,0c0.2,0,0.4,0,0.6,0c0.2,0,0.4,0,0.6,0c0,0,0.1,0,0.1,0
		c0,0,0.1,0,0.1,0V0.8C23.3,0.4,23,0,22.5,0C22,0,21.7,0.4,21.7,0.8"/>
	<path class="st2" d="M21.2,45c-0.1,0-0.1,0-0.1,0C21.1,45,21.1,45,21.2,45"/>
	<path class="st2" d="M34.9,41.3c-0.1,0.1-0.2,0.1-0.2,0.2C34.7,41.4,34.8,41.3,34.9,41.3"/>
	<path class="st2" d="M35.5,40.9c-0.1,0.1-0.2,0.2-0.4,0.2C35.2,41,35.3,41,35.5,40.9"/>
	<path class="st2" d="M20.5,44.9C20.5,44.9,20.4,44.9,20.5,44.9C20.4,44.9,20.5,44.9,20.5,44.9"/>
	<path class="st2" d="M10.4,41.4c-0.1,0-0.1-0.1-0.2-0.1C10.2,41.3,10.3,41.4,10.4,41.4"/>
	<polyline class="st2" points="33.5,42.1 33.5,42.1 33.5,42.1 	"/>
	<path class="st2" d="M9.9,41.1C9.8,41,9.7,41,9.5,40.9C9.7,41,9.8,41,9.9,41.1"/>
	<path class="st2" d="M10.9,41.8C10.9,41.8,10.9,41.8,10.9,41.8C10.9,41.8,10.9,41.8,10.9,41.8"/>
	<path class="st2" d="M34.1,41.8C34.1,41.8,34.1,41.8,34.1,41.8C34.1,41.8,34.1,41.8,34.1,41.8"/>
	<path class="st2" d="M24,45c-0.1,0-0.1,0-0.1,0C23.9,45,23.9,45,24,45"/>
</g>
<path class="st1" d="M11.5,42.1L11.5,42.1L11.5,42.1z"/>
<g>
	<defs>
		<rect id="SVGID_5_" width="45" height="45"/>
	</defs>
	<clipPath id="SVGID_6_">
		<use xlink:href="#SVGID_5_"  style="overflow:visible;"/>
	</clipPath>
	<path class="st3" d="M24.6,44.9C24.6,44.9,24.5,44.9,24.6,44.9C24.5,44.9,24.6,44.9,24.6,44.9"/>
	<path class="st3" d="M33.7,40.1c-0.2,0.1-0.3,0.2-0.5,0.3C33.4,40.3,33.5,40.2,33.7,40.1"/>
	<path class="st3" d="M23.3,31.3V33c2.5,0,4.9,0.2,7.3,0.5c0.2-0.5,0.3-1.1,0.4-1.6C28.6,31.5,26,31.3,23.3,31.3"/>
	<path class="st3" d="M12.3,32.1c-2.6,0.4-5,1-7.2,1.7c0.3,0.5,0.7,1,1,1.4c2-0.6,4.3-1.2,6.6-1.5C12.5,33.2,12.4,32.7,12.3,32.1"/>
	<path class="st3" d="M14,31.9c0.1,0.6,0.3,1.1,0.4,1.6c2.3-0.3,4.8-0.5,7.3-0.5v-1.7C19,31.3,16.4,31.5,14,31.9"/>
	<path class="st3" d="M10.5,39.5C10.5,39.5,10.5,39.5,10.5,39.5C10.5,39.5,10.5,39.5,10.5,39.5"/>
	<polyline class="st3" points="10,39.2 10,39.2 10,39.2 	"/>
	<path class="st3" d="M11.8,40.4c1.7,1,3.6,1.8,5.7,2.3c0,0,0,0,0,0C15.5,42.2,13.6,41.4,11.8,40.4"/>
	<path class="st3" d="M34.6,39.5C34.5,39.5,34.5,39.5,34.6,39.5C34.5,39.5,34.5,39.5,34.6,39.5"/>
	<path class="st3" d="M4,35.2C4,35.3,4,35.3,4,35.2c1.5,2.2,3.4,4.1,5.5,5.6C7.3,39.3,5.5,37.4,4,35.2"/>
	<path class="st3" d="M27.5,42.7c2-0.5,3.9-1.3,5.7-2.3C31.4,41.4,29.5,42.2,27.5,42.7C27.5,42.7,27.5,42.7,27.5,42.7"/>
	<path class="st3" d="M32.3,33.7c2.4,0.4,4.6,0.9,6.6,1.5c0.4-0.5,0.7-0.9,1-1.4c-2.2-0.7-4.6-1.3-7.2-1.7
		C32.6,32.7,32.5,33.2,32.3,33.7"/>
	<path class="st3" d="M35.6,40.8c2.1-1.5,3.9-3.3,5.4-5.5c0,0,0-0.1,0.1-0.1C39.5,37.4,37.7,39.3,35.6,40.8"/>
	<path class="st3" d="M11.8,40.4c-0.2-0.1-0.3-0.2-0.5-0.3C11.5,40.2,11.6,40.3,11.8,40.4"/>
	<path class="st3" d="M11.3,40.1c-0.1-0.1-0.3-0.2-0.4-0.3C11,39.9,11.1,40,11.3,40.1"/>
	<path class="st3" d="M34.1,39.8C34,39.9,33.9,40,33.7,40C33.9,40,34,39.9,34.1,39.8"/>
	<path class="st3" d="M11.8,40.4C11.8,40.4,11.8,40.4,11.8,40.4c-0.2-0.1-0.3-0.2-0.5-0.3c0,0,0,0,0,0c-0.1-0.1-0.3-0.2-0.4-0.3
		c-0.1-0.1-0.2-0.2-0.4-0.2c0,0,0,0-0.1,0c-0.1-0.1-0.3-0.2-0.4-0.3c0,0,0,0,0,0c-1.5-1.1-2.8-2.4-4-3.9c0,0,0,0,0,0
		c-0.4-0.5-0.7-0.9-1-1.4c-0.2,0.1-0.4,0.1-0.6,0.2c-0.2,0.1-0.4,0.3-0.5,0.5c-0.1,0.2,0,0.5,0.1,0.6c1.5,2.2,3.3,4,5.5,5.6
		c0,0,0.1,0.1,0.1,0.1C9.7,41,9.8,41,9.9,41.1c0.1,0.1,0.2,0.1,0.3,0.2c0.1,0,0.1,0.1,0.2,0.1c0.2,0.1,0.4,0.2,0.5,0.3c0,0,0,0,0,0
		c0.2,0.1,0.4,0.2,0.6,0.3l0,0c2.7,1.5,5.8,2.5,8.9,2.8c0,0,0,0,0.1,0c0.2,0,0.4,0,0.6,0c0,0,0.1,0,0.1,0c0.2,0,0.3,0,0.5,0
		c0.1,0,0.1,0,0.2,0c0.2,0,0.4,0,0.6,0c-1.8,0-3.5-0.8-5-2.3C15.5,42.2,13.6,41.4,11.8,40.4"/>
	<path class="st3" d="M41,35.2c0.1-0.2,0.1-0.4,0.1-0.6c-0.1-0.2-0.3-0.4-0.5-0.5c-0.2-0.1-0.4-0.1-0.6-0.2c-0.3,0.5-0.7,1-1,1.4
		c0,0,0,0,0,0c-1.3,1.6-2.7,3-4.4,4.2c0,0,0,0-0.1,0c-0.1,0.1-0.2,0.2-0.4,0.3c-0.1,0.1-0.3,0.2-0.4,0.3c0,0,0,0,0,0
		c-0.2,0.1-0.3,0.2-0.5,0.3c0,0,0,0,0,0c-1.7,1-3.6,1.8-5.7,2.3c-1.5,1.5-3.2,2.3-5,2.3c0.2,0,0.4,0,0.6,0c0.1,0,0.1,0,0.2,0
		c0.2,0,0.3,0,0.5,0c0,0,0.1,0,0.1,0c0.2,0,0.4,0,0.6,0c0,0,0,0,0.1,0c3.2-0.3,6.2-1.3,8.9-2.8c0,0,0,0,0,0c0.2-0.1,0.4-0.2,0.6-0.3
		c0,0,0,0,0,0c0.2-0.1,0.4-0.2,0.5-0.3c0.1-0.1,0.2-0.1,0.2-0.2c0.1-0.1,0.2-0.1,0.2-0.2c0.1-0.1,0.2-0.2,0.4-0.2c0,0,0.1,0,0.1-0.1
		C37.7,39.3,39.5,37.4,41,35.2"/>
	<path class="st3" d="M21.3,43.3c0.1,0,0.2,0,0.3,0C21.6,43.3,21.4,43.3,21.3,43.3"/>
	<path class="st3" d="M24.9,43.2c0.9-0.1,1.8-0.3,2.6-0.5c0,0,0,0,0,0C26.7,42.9,25.8,43.1,24.9,43.2"/>
	<path class="st3" d="M24.9,43.2c-0.2,0-0.4,0-0.5,0.1C24.5,43.2,24.7,43.2,24.9,43.2"/>
	<path class="st3" d="M24.3,43.3c-0.2,0-0.3,0-0.5,0C23.9,43.3,24.1,43.3,24.3,43.3"/>
	<path class="st3" d="M23.3,43.3c0.1,0,0.2,0,0.3,0C23.6,43.3,23.4,43.3,23.3,43.3z"/>
	<path class="st3" d="M20.7,43.3c-0.2,0-0.4,0-0.5-0.1C20.3,43.2,20.5,43.2,20.7,43.3"/>
	<path class="st3" d="M30.6,33.5c0.6,0.1,1.1,0.2,1.7,0.2c0.1-0.5,0.3-1.1,0.4-1.6c-0.6-0.1-1.1-0.2-1.7-0.3
		C30.9,32.4,30.8,33,30.6,33.5"/>
	<path class="st3" d="M12.3,32.1c0.1,0.6,0.3,1.1,0.4,1.6c0.6-0.1,1.1-0.2,1.7-0.2c-0.2-0.5-0.3-1.1-0.4-1.6
		C13.4,31.9,12.8,32,12.3,32.1"/>
	<path class="st3" d="M21.2,43.3c-0.2,0-0.3,0-0.5,0C20.9,43.3,21.1,43.3,21.2,43.3"/>
	<path class="st3" d="M17.5,42.7c0.9,0.2,1.7,0.4,2.6,0.5C19.2,43.1,18.3,42.9,17.5,42.7C17.5,42.7,17.5,42.7,17.5,42.7"/>
	<path class="st3" d="M21.7,44.2v-0.9c-0.1,0-0.2,0-0.3,0c0,0-0.1,0-0.1,0c-0.2,0-0.3,0-0.5,0c0,0-0.1,0-0.1,0c-0.2,0-0.4,0-0.5-0.1
		c0,0,0,0,0,0c-0.9-0.1-1.8-0.3-2.6-0.5c1.5,1.5,3.2,2.3,5,2.3C22,45,21.7,44.6,21.7,44.2"/>
	<path class="st3" d="M24.9,43.2C24.9,43.2,24.9,43.2,24.9,43.2c-0.2,0-0.4,0-0.6,0.1c0,0-0.1,0-0.1,0c-0.2,0-0.3,0-0.5,0
		c0,0-0.1,0-0.1,0c-0.1,0-0.2,0-0.3,0v0.9c0,0.5-0.4,0.8-0.8,0.8c1.8,0,3.5-0.8,5-2.3C26.7,42.9,25.8,43.1,24.9,43.2"/>
	<path class="st3" d="M22.5,31.3c-0.3,0-0.6,0-0.8,0V33c0.3,0,0.6,0,0.8,0c0.3,0,0.6,0,0.8,0v-1.7C23.1,31.3,22.8,31.3,22.5,31.3"/>
	<path class="st3" d="M23.2,43.3c0,0,0.1,0,0.1,0C23.3,43.3,23.3,43.3,23.2,43.3"/>
	<path class="st3" d="M22.5,43.3c-0.2,0-0.4,0-0.6,0C22.1,43.3,22.3,43.3,22.5,43.3"/>
	<path class="st3" d="M21.7,43.3c0,0,0.1,0,0.1,0C21.7,43.3,21.7,43.3,21.7,43.3z"/>
	<path class="st3" d="M23.1,43.3c-0.2,0-0.4,0-0.6,0C22.7,43.3,22.9,43.3,23.1,43.3"/>
	<path class="st3" d="M23.3,44.2v-0.9c0,0-0.1,0-0.1,0c0,0-0.1,0-0.1,0c-0.2,0-0.4,0-0.6,0c-0.2,0-0.4,0-0.6,0c0,0-0.1,0-0.1,0
		c0,0-0.1,0-0.1,0v0.9c0,0.5,0.4,0.8,0.8,0.8C23,45,23.3,44.6,23.3,44.2"/>
	<path class="st3" d="M25.3,17.8c-1.5,1.4-2.7,1.9-2.7,1.9l-0.1,0c0,0-1.3-0.5-2.8-2c-1.5-1.4-0.1-3.2,1.1-3.3
		c1.2-0.1,1.7,0.7,1.7,0.7h0c0,0,0.6-0.8,1.7-0.7C25.4,14.6,26.8,16.4,25.3,17.8 M22.5,9.6c-3.7,0-6.7,3-6.7,6.7
		c0,4.9,6.2,11.5,6.4,11.8c0.1,0.1,0.2,0.1,0.3,0.1c0.1,0,0.2,0,0.3-0.1c0.3-0.3,6.4-6.9,6.4-11.8C29.2,12.6,26.2,9.6,22.5,9.6"/>
</g>
</svg>
