<svg width="184" height="171" viewBox="0 0 184 171" xmlns="http://www.w3.org/2000/svg"><title>building</title><path d="M.986 36.47v12.16H13.15a5.64 5.64 0 0 0 1.948 4.28 6.559 6.559 0 0 0 4.607 1.8h144.979a6.565 6.565 0 0 0 4.608-1.8 5.647 5.647 0 0 0 1.948-4.28h12.161V36.47L92.193-.01.986 36.47zm24.322 97.29h-5.606a6.525 6.525 0 0 0-4.607 1.81 5.635 5.635 0 0 0-1.948 4.27v6.08H171.24v-6.08a5.642 5.642 0 0 0-1.948-4.27 6.53 6.53 0 0 0-4.608-1.81h-5.605V60.8h-24.322v72.96h-12.161V60.8H98.274v72.96H86.113V60.8H61.791v72.96H49.63V60.8H25.308v72.96zM7.541 152a6.525 6.525 0 0 0-4.607 1.81 5.635 5.635 0 0 0-1.948 4.27v12.16h182.415v-12.16a5.642 5.642 0 0 0-1.948-4.27 6.53 6.53 0 0 0-4.608-1.81H7.541z" fill="#FC8766" fill-rule="evenodd"/></svg>