<svg id="Layer_1" xmlns="http://www.w3.org/2000/svg" viewBox="0 0 141.3 134.8"><style>.st0{fill:#2bb36b}.st1{fill:#c3db6a}.st2{fill:#fff}</style><g id="XMLID_6269_"><path id="XMLID_6274_" class="st0" d="M139.6 20.4c-1.9-.8-5.3-1.1-10.2-.9l-60.6 3c-5 .3-8.4-.1-10.2-.9l5.7 20.1L130.8 24c4.2-1.2 7.2-2.4 8.8-3.6z"/><path id="XMLID_6273_" class="st0" d="M58.7 17.7c1.9.8 5.3 1.1 10.1.9l36.5-1.8V4L67.5 14.1c-4.3 1.2-7.2 2.4-8.8 3.6z"/><path id="XMLID_6272_" class="st0" d="M130.8 28L3.2 62.2c-1.9.5-3.2 2.2-3.2 4.1v46.1c.4-1.7 3.8-3.7 10.5-5.5l127.6-34.2c1.9-.5 3.2-2.2 3.2-4.1v-46c-.5 1.6-3.9 3.6-10.5 5.4z"/><path id="XMLID_6271_" class="st0" d="M82.6 117.1c-1.9-.8-5.3-1.1-10.1-.9L36 118.1v12.7l37.8-10.1c4.2-1.1 7.1-2.4 8.8-3.6z"/><path id="XMLID_6270_" class="st0" d="M1.7 114.4c1.9.8 5.3 1.1 10.2.9l60.6-3c5-.3 8.4.1 10.3.9L77.1 93l-66.6 17.9c-4.2 1.1-7.2 2.4-8.8 3.5z"/></g><g id="XMLID_6262_"><path id="XMLID_6268_" class="st1" d="M58.7 17.7c1.7-1.2 4.6-2.4 8.8-3.6L105.3 4V0L67.5 10.1c-7.9 2.1-11.3 4.7-10.3 6.4L57 16l.2.6c.2.4.7.8 1.5 1.1z"/><path id="XMLID_6267_" class="st1" d="M129.4 15.5l-24.2 1.2-36.5 1.8c-4.9.3-8.3-.1-10.1-.9-.8-.3-1.3-.7-1.5-1.1l1.4 5.1c1.8.8 5.3 1.2 10.2.9l60.6-3c4.9-.3 8.3.1 10.2.9.9-.7 1.5-1.3 1.6-1.9v-.7c-.3-1.6-4.3-2.7-11.7-2.3z"/><path id="XMLID_6266_" class="st1" d="M139.6 20.4c-1.7 1.2-4.6 2.4-8.8 3.6L3.2 58.2c-1.9.5-3.2 2.2-3.2 4.1v4c0-1.9 1.3-3.6 3.2-4.1L130.8 28c6.6-1.8 10-3.8 10.5-5.5v-4c-.2.6-.7 1.2-1.7 1.9z"/><path id="XMLID_6265_" class="st1" d="M138.1 72.7L10.5 106.9C3.8 108.7.4 110.8 0 112.4v4c.1-.6.7-1.3 1.7-2 1.7-1.2 4.6-2.4 8.8-3.6l127.6-34.2c1.9-.5 3.2-2.2 3.2-4.1v-4c0 2-1.3 3.7-3.2 4.2z"/><path id="XMLID_6264_" class="st1" d="M82.6 117.1c-1.7 1.2-4.6 2.4-8.8 3.6L36 130.8v4l37.8-10.1c7.9-2.1 11.3-4.7 10.3-6.4l.2.6-.2-.6c-.2-.4-.7-.8-1.5-1.2z"/><path id="XMLID_6263_" class="st1" d="M82.7 113.2c-1.8-.8-5.3-1.2-10.3-.9l-60.6 3c-4.9.3-8.3-.1-10.2-.9-1 .7-1.5 1.3-1.7 2v.6c.4 1.7 4.4 2.7 11.8 2.3l24.2-1.2 36.5-1.8c4.9-.3 8.3.1 10.1.9.8.3 1.3.7 1.5 1.1l-1.3-5.1z"/></g><g id="XMLID_6238_"><path id="XMLID_6260_" class="st2" d="M13.1 95.1l-2.3.6c-.1 0-.3-.1-.3-.2V71.4c0-.1.1-.2.2-.2l2.3-.6c.1 0 .3.1.3.2v24.1c0 .1-.1.2-.2.2z"/><path id="XMLID_6257_" class="st2" d="M28.3 90.8l-.5-3.5c0-.1-.1-.2-.3-.2l-4 1.1c-.1 0-.1.1-.2.2l-.5 4c0 .1-.1.2-.2.2l-2.1.6c-.1 0-.3-.1-.3-.2l3.6-25.1c0-.1.1-.2.2-.2l3.1-.8c.1 0 .2 0 .3.2l3.6 23c0 .1-.1.2-.2.2l-2.2.7c-.2 0-.3-.1-.3-.2zM24 85.5l3.2-.9c.1 0 .2-.1.2-.2l-1.6-11.3c0-.2-.4-.2-.4 0l-1.6 12.2c-.1.2.1.3.2.2z"/><path id="XMLID_6255_" class="st2" d="M47.5 61.7v24.1c0 .1-.1.2-.2.2l-2.2.6c-.1 0-.3-.1-.3-.2V69.1c0-.3-.4-.3-.4 0l-2.8 18.2c0 .1-.1.2-.2.2l-2.4.6c-.1 0-.2 0-.3-.2L36 71.4c0-.3-.4-.2-.4 0v17.5c0 .1-.1.2-.2.2l-2.1.6c-.1 0-.3-.1-.3-.2V65.4c0-.1.1-.2.2-.2l3.9-1c.1 0 .2 0 .3.2l2.7 16.9c0 .2.4.2.4 0l2.8-18.6c0-.1.1-.2.2-.2l3.8-1c.1-.1.2 0 .2.2z"/><path id="XMLID_6253_" class="st2" d="M60 71.8v-2.1c0-.1.1-.2.2-.2l4.4-1.2c.1 0 .3.1.3.2v8.2c0 2.8-1.9 5.2-4.6 5.9l-.6.2c-2.6.7-4.7-.9-4.7-3.6V63.9c0-2.8 1.9-5.2 4.6-5.9l.9-.2c2.9-.8 4.3.3 4.3 3.3v3.2c0 .1-.1.2-.2.2l-2.2.5c-.1 0-.3-.1-.3-.2v-2.9c0-1.2-.9-1.9-2.1-1.6l-.4.1c-1.2.3-2 1.4-2 2.5v15.7c0 1.2.9 1.9 2.1 1.6l.4-.1c1.2-.3 2-1.4 2-2.5v-5.8c0-.1-.1-.2-.3-.2l-1.5.4c-.1 0-.3-.1-.3-.2z"/><path id="XMLID_6251_" class="st2" d="M70.2 55.6V77c0 .1.1.2.3.2l3.9-1.1c.1 0 .3.1.3.2v2.1c0 .1-.1.2-.2.2l-6.7 1.8c-.1 0-.3-.1-.3-.2v-24c0-.1.1-.2.2-.2l2.3-.6c0-.1.2 0 .2.2z"/><path id="XMLID_6248_" class="st2" d="M83.4 76l-.5-3.5c0-.1-.1-.2-.3-.2l-4 1.1c-.1 0-.1.1-.2.2l-.5 4c0 .1-.1.2-.2.2l-2.1.6c-.1 0-.3-.1-.3-.2L79 53c0-.1.1-.2.2-.2l3.1-.8c.1 0 .2 0 .3.2l3.6 23.2c0 .1-.1.2-.2.2l-2.3.6c-.1 0-.2-.1-.3-.2zm-4.2-5.2l3.2-.9c.1 0 .2-.1.2-.2L81 58.4c0-.2-.4-.2-.4 0L79 70.6c-.1.1 0 .2.2.2z"/><path id="XMLID_6245_" class="st2" d="M87.7 50.6l4-1.1c3-.8 5.5 1.1 5.5 4.2V67c0 3.3-2.2 6.2-5.4 7l-4 1.1c-.1 0-.3-.1-.3-.2V50.8c0-.1.1-.2.2-.2zm2.8 21.2l1.1-.3c1.7-.5 2.9-2 2.9-3.8V54.4c0-1.7-1.3-2.7-2.9-2.3l-1.2.3c-.1 0-.2.1-.2.2v18.9c0 .2.1.3.3.3z"/><path id="XMLID_6243_" class="st2" d="M101.8 54v17.2c0 .1-.1.2-.2.2l-2.1.6c-.1 0-.3-.1-.3-.2V47.7c0-.1.1-.2.2-.2l3.3-.9c.1 0 .2 0 .3.2l3.4 14.6c.1.2.4.2.4 0V45.6c0-.1.1-.2.2-.2l2.1-.6c.1 0 .3.1.3.2v24.1c0 .1-.1.2-.2.2l-3 .8c-.1 0-.2 0-.3-.2l-3.8-16c.1-.2-.3-.2-.3.1z"/><path id="XMLID_6241_" class="st2" d="M119.6 42.3v2.1c0 .1-.1.2-.2.2l-4.4 1.2c-.1 0-.2.1-.2.2v7.7c0 .1.1.2.3.2l4-1.1c.1 0 .3.1.3.2v2.1c0 .1-.1.2-.2.2l-4.2 1.1c-.1 0-.2.1-.2.2V65c0 .1.1.2.3.2l4.3-1.1c.1 0 .3.1.3.2v2.1c0 .1-.1.2-.2.2l-7.1 1.9c-.1 0-.3-.1-.3-.2V44.2c0-.1.1-.2.2-.2l7-1.9c.2 0 .3.1.3.2z"/><path id="XMLID_6239_" class="st2" d="M126.9 56v8.4c0 .1-.1.2-.2.2l-2.3.6c-.1 0-.3-.1-.3-.2v-8-.1L120.5 42c0-.1 0-.2.2-.3l2.3-.6c.1 0 .2 0 .3.2l2.1 10.1c0 .2.4.2.4 0l2.3-11.5c0-.1.1-.1.2-.2l2.2-.6c.2 0 .3.1.3.3L126.9 56z"/></g></svg>