<svg width="62" height="92" viewBox="0 0 62 92" xmlns="http://www.w3.org/2000/svg" xmlns:xlink="http://www.w3.org/1999/xlink"><title>map-marker</title><defs><path id="a" d="M0 .126h59.84v89.762H0V.126z"/></defs><g fill="none" fill-rule="evenodd"><g transform="translate(1 1.098)"><mask id="b" fill="#fff"><use xlink:href="#a"/></mask><path d="M59.841 30.047c0 4.246-.643 7.734-1.929 10.46L36.641 85.74a7.096 7.096 0 0 1-2.776 3.038 7.511 7.511 0 0 1-3.944 1.11 7.513 7.513 0 0 1-3.945-1.11 6.736 6.736 0 0 1-2.718-3.038L1.928 40.507C.644 37.781 0 34.293 0 30.047c0-8.26 2.922-15.311 8.766-21.155C14.61 3.048 21.66.126 29.92.126c8.258 0 15.31 2.922 21.154 8.766 5.844 5.844 8.766 12.896 8.766 21.155" fill="#37A87F" mask="url(#b)"/></g><path d="M22.39 32.165a6.064 6.064 0 0 1-.337-.365c-.826 2.135-.306 4.632 1.311 6.25a5.847 5.847 0 0 0 3.498 1.673c.124-.397.186-.806.186-1.215a.99.99 0 0 0-.69-.933 3.817 3.817 0 0 1-1.57-.948 3.862 3.862 0 0 1-1.093-3.155l-1.305-1.307zm11.954-10.941a5.786 5.786 0 0 0-2.932.794l-.067.038c-.079.045-.157.09-.231.14a5.88 5.88 0 0 0-.901.738l-.133.133a.079.079 0 0 1-.019.013l-4.042 4.028a.983.983 0 0 0 0 1.387l.73.73 4.885-4.866a3.818 3.818 0 0 1 1.656-.973c.134-.04.275-.07.43-.095a3.807 3.807 0 0 1 3.335 1.069 3.86 3.86 0 0 1 1.093 3.156l1.298 1.299c.107.105.22.227.344.372.826-2.135.307-4.632-1.31-6.25a5.807 5.807 0 0 0-4.136-1.713zm8.338-2.884c-3.37-3.237-7.797-4.912-12.468-4.725-4.196.171-8.174 1.905-11.2 4.882-3.027 2.978-4.825 6.928-5.06 11.12A17.025 17.025 0 0 0 23.3 45.781c.245.123.522.17.78.13a7.463 7.463 0 0 0 6.168-5.804.979.979 0 0 1 .02-.083c.01-.034.012-.046.014-.058.01-.053.018-.105.025-.157l.02-.143.014-.096.015-.098c.01-.065.018-.11.022-.156l.004-.037a3.441 3.441 0 0 0 .018-.239l.008-.155c.005-.08.009-.155.01-.227a7.58 7.58 0 0 0-.17-1.75 7.611 7.611 0 0 0-.224-.803l-.026-.077a5.277 5.277 0 0 0-.092-.262 5.11 5.11 0 0 0-.091-.213l-.046-.102a7.443 7.443 0 0 0-1.349-2.036l-.313-.31a.316.316 0 0 1-.085-.095l-3.235-3.228a3.92 3.92 0 0 1-.245-.272l-.073-.093a5.02 5.02 0 0 1-.142-.194l-.044-.068-.029-.046a4.992 4.992 0 0 1-.179-.316 4.489 4.489 0 0 1-.093-.2l-.049-.117c-.03-.079-.055-.152-.08-.225l-.01-.038-.025-.072a4.235 4.235 0 0 1-.092-.405l-.007-.048a3.837 3.837 0 0 1-.051-.585 3.5 3.5 0 0 1 .083-.822c.13-.58.358-1.088.68-1.513a3.825 3.825 0 0 1 3.515-1.503l1.296-1.296c.116-.117.24-.23.376-.346-1.037-.408-2.144-.504-3.293-.287-.47.088-.921.238-1.34.445-2.246 1.107-3.542 3.409-3.302 5.864.008.074.019.146.031.22l.016.1c.017.11.033.216.056.322l.006.047c.025.114.059.248.098.382l.028.085c.04.132.088.267.14.4.018.048.037.093.056.14.05.118.105.238.165.356l.058.117.003.007c.018.034.038.069.059.104l.048.083c.048.082.096.164.148.244l.072.105c.083.121.165.232.243.33l.098.125c.128.153.245.282.357.394l3.423 3.422c.026.016.05.035.072.056l.096.104.072.082a5.432 5.432 0 0 1 1.041 1.726l.01.025c.04.11.08.216.111.325.01.031.019.065.026.1l.012.049a5.533 5.533 0 0 1 .189 1.413c0 .571-.091 1.14-.27 1.692a4.995 4.995 0 0 1-.13.368 5.74 5.74 0 0 1-.17.367A5.466 5.466 0 0 1 24 43.885l-.031.005a.356.356 0 0 1-.256-.035 15.104 15.104 0 0 1-7.888-13.26c0-8.324 6.772-15.095 15.095-15.095 8.324 0 15.095 6.771 15.095 15.095 0 5.489-2.995 10.554-7.817 13.219l-.064.038c-.05.025-.087.028-.105.029a.287.287 0 0 1-.13.009 5.456 5.456 0 0 1-3.87-2.951 5.592 5.592 0 0 1-.17-.368 5.086 5.086 0 0 1-.131-.37 5.492 5.492 0 0 1-.27-1.693 5.524 5.524 0 0 1 .2-1.462l.008-.03a.92.92 0 0 1 .018-.068c.033-.114.075-.227.118-.343a5.46 5.46 0 0 1 1.262-1.974c.009-.015.02-.03.033-.044l1.547-1.547a2.376 2.376 0 0 0-.147-.321l-.018-.03a2.65 2.65 0 0 0-.148-.227l-.047-.065a2.548 2.548 0 0 0-.196-.224l-.711-.711-1.736 1.745a7.49 7.49 0 0 0-.702.823 7.462 7.462 0 0 0-1.317 2.87c-.103.477-.16.968-.17 1.457l.002.046a4.15 4.15 0 0 1 0 .207l-.002.063.006.126.011.216c.003.077.005.118.009.16l.01.13c.006.052.015.106.024.16l.028.183.017.12c.011.09.02.15.031.21a.834.834 0 0 0 .014.054l.006.022.015.063c.31 1.428.996 2.704 1.983 3.69a7.41 7.41 0 0 0 4.225 2.116c.215.032.442-.008.643-.109 5.823-2.902 9.44-8.733 9.44-15.218 0-4.664-1.857-9.016-5.232-12.256zm-2.497 15.632l.002-.094a5.948 5.948 0 0 0-.024-.483l-.01-.096a6.101 6.101 0 0 0-.071-.5 6.394 6.394 0 0 0-.12-.494l-.028-.094a5.606 5.606 0 0 0-.16-.458l-.027-.064a5.62 5.62 0 0 0-.181-.4l-.024-.05a5.867 5.867 0 0 0-.286-.492l-.055-.084a5.74 5.74 0 0 0-.297-.404l-.065-.078a6.137 6.137 0 0 0-.36-.4L34.26 25.6a.97.97 0 0 0-.691-.286.974.974 0 0 0-.694.287l-.73.73 4.91 4.875a3.71 3.71 0 0 1 .37.436l.025.033c.068.095.133.195.194.298l.016.025.047.081c.068.124.13.256.186.39l.033.089c.043.112.077.23.1.308l.016.053a3.03 3.03 0 0 1 .074.354l.01.058.007.037.01.064v.02a3.895 3.895 0 0 1-.166 1.664l-.012.036a3.834 3.834 0 0 1-.4.827 3.76 3.76 0 0 1-.512.65 3.799 3.799 0 0 1-.724.566.651.651 0 0 1-.086.041.303.303 0 0 0-.037.016c-.278.155-.5.255-.723.324a.99.99 0 0 0-.691.933c0 .409.063.817.186 1.214.182-.023.365-.063.543-.102l.066-.014c.044-.01.089-.016.134-.023.056-.008.098-.015.138-.026.249-.066.496-.168.714-.258.041-.017.083-.03.124-.044.04-.013.08-.026.118-.043a5.818 5.818 0 0 0 1.664-1.161c.182-.183.36-.392.545-.64.026-.035.05-.071.072-.107a4.67 4.67 0 0 1 .06-.093c.13-.188.226-.345.307-.493.042-.077.08-.157.117-.236l.02-.042a5.965 5.965 0 0 0 .307-.777 2.46 2.46 0 0 1 .035-.1c.013-.033.025-.068.035-.103.03-.106.056-.212.079-.32l.014-.079.041-.24a.421.421 0 0 1 .019-.069c.01-.08.022-.175.031-.272a4.76 4.76 0 0 0 .014-.283l.003-.061c0-.006 0-.012.003-.018a.053.053 0 0 1-.002-.017l.003-.062a.935.935 0 0 0 .003-.067z" fill="#FEFEFE"/></g></svg>