<svg width="172" height="146" viewBox="0 0 172 146" xmlns="http://www.w3.org/2000/svg"><title>megaphone</title><path d="M159.08 12.15c-.09-6.678-5.482-12.07-12.16-12.16-29.2 24.32-57.577 36.48-85.13 36.48h-45.6c-8.388.025-15.18 6.822-15.2 15.21v18.24c.025 8.384 6.816 15.175 15.2 15.2h11.59a48.73 48.73 0 0 0-2.09 10.5 74.988 74.988 0 0 0-.33 9.35 52.42 52.42 0 0 0 1.42 9.6c.86 3.74 1.58 6.56 2.19 8.46.61 1.9 1.61 4.89 3.04 8.97 1.43 4.08 2.35 6.86 2.8 8.32 2.91 2.66 7.09 4.417 12.54 5.27a35.5 35.5 0 0 0 16.01-1.09c5.22-1.59 8.75-4.22 10.59-7.89-2.41-1.9-4.35-3.5-5.84-4.8a40.282 40.282 0 0 1-4.56-4.75 17.614 17.614 0 0 1-3.18-5.22 12.886 12.886 0 0 1-.57-5.51c.24-2.213.986-4.341 2.18-6.22a12.9 12.9 0 0 1-3.8-8.79 15.268 15.268 0 0 1 2.95-9.55 16.478 16.478 0 0 1 8.64-6.27c25.02 2.09 50.737 14.123 77.15 36.1 6.678-.09 12.07-5.482 12.16-12.16V72.96c6.716 0 12.16-5.444 12.16-12.16s-5.444-12.16-12.16-12.16V12.15zM73.95 73.62V47.97c23.69-2.6 48.013-13.463 72.97-32.59v90.64c-24.77-18.94-49.093-29.74-72.97-32.4z" fill="#88CCBA" fill-rule="evenodd"/></svg>