<svg version="1" xmlns="http://www.w3.org/2000/svg" width="1365.333" height="1365.333" viewBox="0 0 1024.000000 1024.000000"><path d="M480.8 15.5c-.1.1-4.1.6-8.8.9-8.7.7-10.2.8-25 2.6-10.4 1.3-14.1 1.8-20.5 3-2.7.5-6.6 1.2-8.5 1.5-1.9.3-7.5 1.5-12.5 2.6-4.9 1.1-9.9 2.2-10.9 2.4-1 .3-5.5 1.4-10 2.6-4.5 1.1-8.5 2.2-9.1 2.3-9.3 2.2-33.6 10.4-50.7 17.2-49.2 19.5-96.1 47.2-136.8 80.8-4.7 3.9-9 7.5-9.6 8.1-.6.5-4.4 3.9-8.5 7.5-16.3 14.5-39.5 38.8-53.4 56.1-3.3 4.1-6.2 7.6-6.5 7.9-.3.3-3.7 4.8-7.6 10-24.5 32.7-45.4 69.1-60.3 104.6-3.5 8.2-6.9 16.2-7.6 17.9-3.2 7.4-13.8 40.5-17.5 55-5.1 20.1-7.7 33.1-10.5 52-.4 2.2-.8 5.1-1.1 6.5-.2 1.4-.6 5-.9 8-.4 3-.8 6.6-1 8-3.1 20.6-2.6 87.8.9 112.5.3 2.2 1 7.6 1.6 12 2.5 18.1 4.7 29.4 9.1 47.5 5.8 24.1 17.5 60.2 24 74.5 1 2.2 3 6.9 4.5 10.5 5.3 12.9 17.7 37.2 29.3 57.5 7.2 12.6 31.4 47.2 41 58.8 19.3 23.1 42.7 47.6 60.6 63.3 8.9 7.9 31.8 26.1 40.1 32 24.3 17.2 61.6 39.1 73.9 43.3 6.9 2.4 13.8 2.5 24.2.6 4.8-.9 9.8-1.9 10.9-2.1 1.2-.2 6.1-1.5 10.9-2.9 56.4-16.4 104.2-54 133.2-105 12.3-21.7 22.9-51.1 25.8-72 .3-2.2.8-4.7 1-5.5 2.2-8.4 2.7-49.2.8-63-6-41.8-20.7-77-46.1-110-3.6-4.7-33.2-35.3-66.8-69-33.1-33.3-62-62.8-64.2-65.5-9.5-12.2-17.2-28.3-21.1-44-3.9-15.6-3.5-40.5.9-56 9.4-32.9 30.7-59 60-73.6 10.2-5.1 16.2-7 31.5-10.5 1.7-.4 9.9-.8 18.4-1l15.4-.2 24.3-24.3c13.4-13.3 24.4-24.5 24.4-24.8 0-1.2-21.6-7.7-30.3-9.1-15.6-2.6-37.9-3.4-53.2-1.8-26.9 2.8-53.4 12.6-76.9 28.3-14.1 9.5-28.6 22.8-38.8 35.5-3.3 4.1-6.5 8.2-7.1 9-7.7 9.5-22.6 40.1-25.1 51.5-.2.5-.8 2.8-1.4 5-4.1 14.9-5.7 28.9-5.6 48 .1 12 .6 17.1 2.9 31 3 18.2 14.1 45.5 25.2 62.5 9.5 14.5 18 23.5 76.2 81.8 32.3 32.3 60.5 60.9 62.7 63.7 10.2 12.6 19.7 29.5 25.7 45.6 3.5 9.4 5.1 15.2 7.2 25.9.3 1.4.7 3.6 1 4.9 1.9 9.5 2.4 33 1 44.6-7.7 64.3-51.8 118.1-113 138-5.5 1.8-13 3.8-16.7 4.5-6.7 1.2-6.8 1.2-13-2-12-6.3-34.1-20.3-49.8-31.7-24.2-17.6-53.6-45-75.5-70.4-23.6-27.3-44.7-59.2-61.6-93.1-4.4-8.7-7.9-16-7.9-16.2 0-.3-1.1-2.9-2.4-5.8-7.4-16.4-20.7-54.8-23.1-66.8-.2-.8-1-4.2-1.8-7.5s-1.8-7.8-2.3-10c-.4-2.2-.8-4.5-1-5-1-4.7-3.5-18.9-4-23-.3-2.7-.7-5.5-.9-6.2-.2-.7-.7-4.5-1-8.5-.4-4-.8-7.9-1-8.5-2.5-7.6-2.5-74.1-.1-88.8.3-1.7.8-5.5 1.1-8.5.7-7.5 1.4-13 2.1-16.2.3-1.5.7-3.9.9-5.5.5-3.8 1.4-9 2.5-13.8.5-2.2 1.2-5.6 1.5-7.5.3-1.9 1.5-7.1 2.6-11.5 20.8-82.7 60.7-153.3 120.4-213 52-52 113.1-89.4 182-111.5 12.1-3.9 21.6-6.7 25.1-7.5 1.1-.2 6.6-1.5 12.4-2.9 5.8-1.4 11.9-2.7 13.5-3 1.7-.2 7.1-1.1 12-2 8.8-1.5 11.8-2 22-3.2 2.8-.3 6.1-.7 7.5-1 11.6-1.8 62.9-2.5 79-1 4.7.4 10.8 1 13.5 1.2 2.8.2 6.4.6 8 .9 1.7.2 5 .7 7.5 1 2.5.3 7 1 10 1.5s6.9 1.2 8.5 1.4c6.6 1.1 22.9 4.7 30.7 6.7 4.6 1.1 9 2.2 9.8 2.4 1.7.4 21 6.5 28.5 9 52.7 17.9 112.4 53.4 154.5 92 14.2 12.9 36.6 36.3 44.6 46.4 1 1.3 3.1 3.8 4.5 5.5 22.1 26.4 48.6 70.3 63.5 104.7 13.8 32.1 26.7 75.7 30.9 104.4.3 2.2.8 5.3 1.1 7 .8 4.5 1.3 8.3 1.9 16 .4 3.8.8 7.6 1.1 8.3 2.3 7.5 2.3 71.9-.1 88.7-.2 1.6-.7 5.5-1 8.5-3.9 36.3-15.5 81.7-29.5 115.5-2.3 5.5-4.6 11.2-5.2 12.8-.5 1.5-4.3 9.5-8.4 17.8-26 52.8-64.2 103-106.9 140.4-4.4 3.8-8.2 7.2-8.5 7.5-2.4 2.4-22.6 17.9-32.2 24.7-7.2 5.1-32.8 21.3-35.8 22.6-.8.4-2.8 1.5-4.5 2.5-5.3 3.3-8 3.4-18.7.6C683.4 916 659 902 637 880c-13.6-13.6-22.7-26.1-30.9-42.5-23.3-46.7-23.4-100.1-.2-147.3 9.4-19.1 18.9-30.9 50.9-63.1 14.9-15.1 27.2-27.9 27.2-28.4 0-1.6-6.9-13.8-10.3-18.2-1.7-2.2-8.7-9.6-15.4-16.4l-12.4-12.3-26.7 26.9c-38.1 38.4-41.5 42.3-53.9 60.8-16.2 24.2-28.9 55.3-33.7 83-.3 1.6-.8 4.1-1.1 5.4-2 10.2-2.8 49.2-1.2 61.6.4 3.3 1 8 1.3 10.5 1.4 11.4 9.8 40.9 14.9 52.6 12.8 29.2 26.1 49 47 70 18.5 18.7 35.2 31 57.3 42.3 26.2 13.2 60.9 23 77.7 21.8 6-.4 8.4-1.2 19-6.7 10.3-5.3 36-19.9 39-22.2.6-.4 6.2-4.2 12.5-8.4 39-26.1 75.4-58.7 105.1-93.9 6.9-8.3 24.1-30.5 28.2-36.5 35.7-52.8 57.2-98.6 73.5-156.5 3.6-12.7 10.5-43.8 11.6-52.6.3-1.9.7-5.7 1.1-8.4.3-2.8.8-5.7 1-6.5.3-.8.7-4.4 1-8 .4-3.6.8-7.5 1-8.8 2.7-16.5 2.7-78.7.1-103.2-2.1-19.3-2.4-22.2-4.2-32-.2-1.4-.9-5.4-1.5-9-.5-3.6-1.5-8.5-2-11-.6-2.5-1.3-5.6-1.5-7-1-4.8-4.5-19.6-5.4-22.5-.5-1.7-2.8-9.3-5.1-17-14.7-50.2-40.9-103-73.7-148.5-6.5-8.9-21.5-28.4-23.2-30-.3-.3-3.4-3.9-7-8-7.9-9.3-39-40.4-48.4-48.5-43.7-37.9-90.1-66.8-140.6-87.7-13.1-5.5-39.5-15.1-44.9-16.4-.9-.2-5.4-1.5-10.1-2.9-4.7-1.4-9.4-2.7-10.6-2.9-1.1-.2-5.6-1.3-10-2.5-12.1-3.2-38.7-8.2-50.9-9.6-2.7-.3-5.9-.8-7-1-1.1-.2-5.6-.7-10-1-4.4-.4-9.6-.9-11.5-1.2-4-.6-71.6-1.3-72.2-.8z"/><path d="M589 246.1c-29.6 4.4-59.1 17.1-82.8 35.6-4.7 3.7-39.1 37.1-76.5 74.2-50.4 50.2-68.6 68.9-70.5 72.6-2.3 4.3-2.7 6.3-2.7 13.5 0 7.5.3 9.1 2.8 13.6 1.6 2.8 8.2 10.4 15 17.2l12.2 12.1 73.3-72.9c40.4-40.1 75.9-75.2 78.9-78 15.5-14.2 37.7-24.7 57.8-27.5 2.2-.3 5-.8 6.3-1.1 3.2-.7 20.8-.6 26.2.1 25.5 3.5 49.1 15.2 67 33.4 22.5 22.7 33 48 33.5 80.4l.2 14.8 24.6 24.8 24.7 24.8 3.1-9.5c5.9-18.5 8.2-33.2 8.2-53.2 0-14.9-.7-21.7-3.8-37.2-12.3-60.5-55.4-109.7-114-130.1-8.4-2.9-18.9-5.7-23-6.3-1-.1-4.4-.7-11-2-1.6-.3-10.6-.7-20-.9-12.8-.2-20.1.2-29.5 1.6z"/><path d="M582.5 368.4c-6.3 2.4-9.3 4.8-21.4 17l-12.5 12.5 27.5 27.1c81.9 80.9 126.8 126.4 132.2 133.7 14.5 20.2 21.7 43.5 21.2 68.8-.2 6.6-.6 13.6-.9 15.5-5.2 29.7-19.1 53.8-41.7 72.5-7.8 6.6-23.3 15-34.7 19-12.1 4.3-17.7 9.3-21.8 19.4-3.2 8-2.7 20.3 2 41.8 1.1 5.2 1.1 5.2 15.6 2.3 15.9-3.2 15.8-3.2 28-7.7 24.8-9.3 42.4-20.1 60.2-37.1 25.4-24.3 44.7-59.9 51.4-94.7 2.5-13.1 2.4-12.8 2.8-28.5 1-39.8-10.8-77.2-34.2-108.9-7.4-10.1-7.7-10.4-59.7-62.2-81-80.6-87.1-86.5-92.2-88.9-5.5-2.7-16.9-3.5-21.8-1.6zM242.1 571.4c-3.1 9.7-4.7 16.1-5.6 22.3-.4 2.1-.8 4.5-1 5.3-.8 3-1.8 17.7-1.8 26.5 0 8.9 1.1 25.4 1.8 26.5.2.3.6 2.6 1 5 1.7 11.9 7.7 30.9 14.1 44.6 22 47.2 65.4 82.5 116.5 94.9 5.6 1.3 12.7 2.7 15.8 3.1 3.1.3 5.9.8 6.3 1 2.2 1.4 6.7-24.6 6.3-36.4-.3-8.9-2.9-15.3-8.6-21-2.9-2.9-11.9-8.4-13.4-8.2-1.4.3-12.7-4.5-19.4-8.2-28.2-15.4-48.8-42.1-56.5-73.3-2.6-10.4-2.8-12.7-3-27.3l-.3-14.2-24.6-24.9-24.6-24.8-3 9.1z"/></svg>