<?xml version="1.0" encoding="UTF-8"?>
<svg width="16px" height="16px" viewBox="0 0 16 16" version="1.1" xmlns="http://www.w3.org/2000/svg" xmlns:xlink="http://www.w3.org/1999/xlink">
    <!-- Generator: sketchtool 49.1 (51147) - http://www.bohemiancoding.com/sketch -->
    <title>icons/close-circle</title>
    <desc>Created with sketchtool.</desc>
    <defs></defs>
    <g id="Page-1" stroke="none" stroke-width="1" fill="none" fill-rule="evenodd">
        <g id="icons/close-cirlce" transform="translate(-1.000000, -1.000000)" fill="#FFFFFF">
            <path d="M12.96875,11.3541667 C12.96875,11.1736102 12.9027784,11.0173618 12.7708333,10.8854167 L10.8854167,9 L12.7708333,7.11458333 C12.9027784,6.98263823 12.96875,6.82638979 12.96875,6.64583333 C12.96875,6.4583324 12.9027784,6.29861177 12.7708333,6.16666667 L11.8333333,5.22916667 C11.7013882,5.09722156 11.5416676,5.03125 11.3541667,5.03125 C11.1736102,5.03125 11.0173618,5.09722156 10.8854167,5.22916667 L9,7.11458333 L7.11458333,5.22916667 C6.98263823,5.09722156 6.82638979,5.03125 6.64583333,5.03125 C6.4583324,5.03125 6.29861177,5.09722156 6.16666667,5.22916667 L5.22916667,6.16666667 C5.09722156,6.29861177 5.03125,6.4583324 5.03125,6.64583333 C5.03125,6.82638979 5.09722156,6.98263823 5.22916667,7.11458333 L7.11458333,9 L5.22916667,10.8854167 C5.09722156,11.0173618 5.03125,11.1736102 5.03125,11.3541667 C5.03125,11.5416676 5.09722156,11.7013882 5.22916667,11.8333333 L6.16666667,12.7708333 C6.29861177,12.9027784 6.4583324,12.96875 6.64583333,12.96875 C6.82638979,12.96875 6.98263823,12.9027784 7.11458333,12.7708333 L9,10.8854167 L10.8854167,12.7708333 C11.0173618,12.9027784 11.1736102,12.96875 11.3541667,12.96875 C11.5416676,12.96875 11.7013882,12.9027784 11.8333333,12.7708333 L12.7708333,11.8333333 C12.9027784,11.7013882 12.96875,11.5416676 12.96875,11.3541667 Z M17,9 C17,10.4513961 16.6423647,11.7899244 15.9270833,13.015625 C15.211802,14.2413256 14.2413256,15.211802 13.015625,15.9270833 C11.7899244,16.6423647 10.4513961,17 9,17 C7.54860385,17 6.21007557,16.6423647 4.984375,15.9270833 C3.75867443,15.211802 2.78819802,14.2413256 2.07291667,13.015625 C1.35763531,11.7899244 1,10.4513961 1,9 C1,7.54860385 1.35763531,6.21007557 2.07291667,4.984375 C2.78819802,3.75867443 3.75867443,2.78819802 4.984375,2.07291667 C6.21007557,1.35763531 7.54860385,1 9,1 C10.4513961,1 11.7899244,1.35763531 13.015625,2.07291667 C14.2413256,2.78819802 15.211802,3.75867443 15.9270833,4.984375 C16.6423647,6.21007557 17,7.54860385 17,9 Z" id="ï—"></path>
        </g>
    </g>
</svg>