<?xml version="1.0" encoding="UTF-8"?>
<svg width="10px" height="18px" viewBox="0 0 10 18" version="1.1" xmlns="http://www.w3.org/2000/svg" xmlns:xlink="http://www.w3.org/1999/xlink">
    <!-- Generator: sketchtool 49.1 (51147) - http://www.bohemiancoding.com/sketch -->
    <title>icons/dollar</title>
    <desc>Created with sketchtool.</desc>
    <defs></defs>
    <g id="Page-1" stroke="none" stroke-width="1" fill="none" fill-rule="evenodd">
        <g id="icons/dollar" transform="translate(-4.000000, 0.000000)" fill="#000000">
            <path d="M13.3719661,11.9029018 C13.3719661,12.9274605 13.0388221,13.8097061 12.3725241,14.5496652 C11.7062261,15.2896242 10.8407214,15.7466509 9.77598394,15.9207589 L9.77598394,17.6785714 C9.77598394,17.7723219 9.74585031,17.8493301 9.68558215,17.9095982 C9.62531399,17.9698664 9.54830583,18 9.45455537,18 L8.09852858,18 C8.01147457,18 7.9361405,17.9681923 7.87252412,17.9045759 C7.80890773,17.8409595 7.77710001,17.7656254 7.77710001,17.6785714 L7.77710001,15.9207589 C7.33513351,15.8604908 6.90824046,15.7566972 6.49640804,15.609375 C6.08457563,15.4620528 5.74473528,15.3130588 5.47687679,15.1623884 C5.20901831,15.011718 4.96125293,14.8510053 4.73357322,14.6802455 C4.50589351,14.5094858 4.35020311,14.383929 4.26649733,14.3035714 C4.18279155,14.2232139 4.12419839,14.1629466 4.09071608,14.1227679 C3.97687622,13.9821422 3.97017986,13.8448667 4.07062679,13.7109375 L5.10522501,12.3549107 C5.15210024,12.2879461 5.2291084,12.2477679 5.33625179,12.234375 C5.43669872,12.2209821 5.51705506,12.2511157 5.57732322,12.3247768 L5.59741251,12.3448661 C6.35411272,13.0078158 7.16772066,13.4263384 8.03826072,13.6004464 C8.28602982,13.6540181 8.5337952,13.6808036 8.78156429,13.6808036 C9.32397772,13.6808036 9.80109348,13.5368318 10.2129259,13.2488839 C10.6247583,12.9609361 10.8306714,12.552458 10.8306714,12.0234375 C10.8306714,11.8359366 10.7804487,11.658483 10.6800018,11.4910714 C10.5795549,11.3236599 10.4673908,11.1830363 10.3435063,11.0691964 C10.2196217,10.9553566 10.0237531,10.8297998 9.75589465,10.6925223 C9.48803617,10.5552448 9.26705624,10.4481031 9.09294822,10.3710938 C8.91884021,10.2940844 8.65098574,10.1852686 8.28937679,10.0446429 C8.02821477,9.93749946 7.82230165,9.85379494 7.67163126,9.79352679 C7.52096086,9.73325863 7.31504774,9.64453184 7.05388572,9.52734375 C6.7927237,9.41015566 6.5834624,9.30636206 6.42609554,9.21595982 C6.26872869,9.12555758 6.07955647,9.00669717 5.85857322,8.859375 C5.63758997,8.71205283 5.4584623,8.56975515 5.32118483,8.43247768 C5.18390736,8.29520021 5.03826149,8.13113935 4.88424287,7.94029018 C4.73022424,7.74944101 4.61136382,7.55524652 4.52765804,7.35770089 C4.44395227,7.16015526 4.37364047,6.93750124 4.31672054,6.68973214 C4.25980062,6.44196305 4.23134108,6.18080494 4.23134108,5.90625 C4.23134108,4.98213824 4.5594628,4.17187848 5.21571608,3.47544643 C5.87196936,2.77901438 6.72575547,2.33035815 7.77710001,2.12946429 L7.77710001,0.321428571 C7.77710001,0.234374565 7.80890773,0.159040497 7.87252412,0.0954241071 C7.9361405,0.0318077176 8.01147457,-1.99840144e-15 8.09852858,0 L9.45455537,0 C9.54830583,-1.99840144e-15 9.62531399,0.0301336272 9.68558215,0.0904017857 C9.74585031,0.150669944 9.77598394,0.227678103 9.77598394,0.321428571 L9.77598394,2.08928571 C10.1576823,2.12946449 10.5276563,2.20647265 10.885917,2.3203125 C11.2441777,2.43415235 11.5354694,2.54631641 11.7598009,2.65680804 C11.9841324,2.76729966 12.1967419,2.89285644 12.3976357,3.03348214 C12.5985296,3.17410785 12.7291086,3.27120509 12.7893768,3.32477679 C12.849645,3.37834848 12.8998677,3.42522301 12.9400464,3.46540179 C13.0538863,3.5859381 13.0706272,3.71316897 12.9902697,3.84709821 L12.1766536,5.31361607 C12.1230819,5.414063 12.0460737,5.4676339 11.9456268,5.47433036 C11.8518763,5.49441974 11.7614754,5.47098248 11.6744214,5.40401786 C11.6543321,5.38392847 11.6057834,5.3437503 11.5287741,5.28348214 C11.4517648,5.22321398 11.3211858,5.13448719 11.137033,5.01729911 C10.9528803,4.90011102 10.7570118,4.79296924 10.5494214,4.69587054 C10.3418311,4.59877184 10.0923916,4.51171914 9.80109554,4.43470982 C9.50979944,4.35770051 9.22352999,4.31919643 8.94227858,4.31919643 C8.30611468,4.31919643 7.78714666,4.4631682 7.38535894,4.75111607 C6.98357121,5.03906394 6.78268037,5.41071201 6.78268037,5.86607143 C6.78268037,6.04017944 6.8111399,6.20089212 6.86805983,6.34821429 C6.92497976,6.49553645 7.02375109,6.63448595 7.16437679,6.76506696 C7.3050025,6.89564797 7.43725564,7.00613794 7.56114019,7.09654018 C7.68502473,7.18694242 7.87252286,7.29073602 8.12364019,7.40792411 C8.37475751,7.52511219 8.57732245,7.61551307 8.73134108,7.67912946 C8.88535971,7.74274585 9.11973236,7.83482083 9.43446608,7.95535714 C9.78937857,8.08928638 10.0605812,8.19475408 10.2480822,8.27176339 C10.4355831,8.34877271 10.6900448,8.46595903 11.011475,8.62332589 C11.3329052,8.78069275 11.5856928,8.92299044 11.7698455,9.05022321 C11.9539983,9.17745599 12.1615855,9.34486503 12.3926134,9.55245536 C12.6236413,9.76004568 12.8010949,9.97265516 12.9249795,10.1902902 C13.048864,10.4079252 13.1543317,10.664061 13.2413857,10.9587054 C13.3284397,11.2533497 13.3719661,11.5680787 13.3719661,11.9029018 Z" id=""></path>
        </g>
    </g>
</svg>