<?xml version="1.0" encoding="UTF-8"?>
<svg width="16px" height="12px" viewBox="0 0 16 12" version="1.1" xmlns="http://www.w3.org/2000/svg" xmlns:xlink="http://www.w3.org/1999/xlink">
    <!-- Generator: sketchtool 49.1 (51147) - http://www.bohemiancoding.com/sketch -->
    <title>icons/email</title>
    <desc>Created with sketchtool.</desc>
    <defs></defs>
    <g id="Page-1" stroke="none" stroke-width="1" fill="none" fill-rule="evenodd">
        <g id="icons/email" transform="translate(-1.000000, -3.000000)" fill="#000000">
            <path d="M15.8571429,13.6363636 L15.8571429,7.09090909 C15.6666657,7.29545557 15.4613106,7.48295369 15.2410714,7.65340909 C13.6458254,8.82386949 12.3779809,9.78408716 11.4375,10.5340909 C11.1339271,10.7784103 10.8869057,10.9687493 10.6964286,11.1051136 C10.5059514,11.241478 10.2485135,11.3792607 9.92410714,11.5184659 C9.59970076,11.6576712 9.29464429,11.7272727 9.00892857,11.7272727 L8.99107143,11.7272727 C8.70535571,11.7272727 8.40029924,11.6576712 8.07589286,11.5184659 C7.75148647,11.3792607 7.49404857,11.241478 7.30357143,11.1051136 C7.11309429,10.9687493 6.86607295,10.7784103 6.5625,10.5340909 C5.62201911,9.78408716 4.35417464,8.82386949 2.75892857,7.65340909 C2.53868938,7.48295369 2.33333429,7.29545557 2.14285714,7.09090909 L2.14285714,13.6363636 C2.14285714,13.7102276 2.17113067,13.7741475 2.22767857,13.828125 C2.28422647,13.8821025 2.35119009,13.9090909 2.42857143,13.9090909 L15.5714286,13.9090909 C15.6488099,13.9090909 15.7157735,13.8821025 15.7723214,13.828125 C15.8288693,13.7741475 15.8571429,13.7102276 15.8571429,13.6363636 Z M15.8571429,4.67897727 L15.8571429,4.47017045 C15.8571429,4.44460214 15.8556548,4.4076707 15.8526786,4.359375 C15.8497024,4.3110793 15.8407739,4.2755683 15.8258929,4.25284091 C15.8110118,4.23011352 15.7946429,4.2045456 15.7767857,4.17613636 C15.7589285,4.14772713 15.732143,4.12642053 15.6964286,4.11221591 C15.6607141,4.09801129 15.6190479,4.09090909 15.5714286,4.09090909 L2.42857143,4.09090909 C2.35119009,4.09090909 2.28422647,4.11789746 2.22767857,4.171875 C2.17113067,4.22585254 2.14285714,4.28977236 2.14285714,4.36363636 C2.14285714,5.31818659 2.58035277,6.1249967 3.45535714,6.78409091 C4.60417241,7.64773159 5.79761286,8.54829077 7.03571429,9.48579545 C7.07142875,9.51420469 7.17559438,9.59801067 7.34821429,9.73721591 C7.5208342,9.87642115 7.65773759,9.98295418 7.75892857,10.0568182 C7.86011955,10.1306822 7.99255871,10.2201699 8.15625,10.3252841 C8.31994129,10.4303983 8.47023741,10.5085225 8.60714286,10.5596591 C8.7440483,10.6107957 8.87202321,10.6363636 8.99107143,10.6363636 L9.00892857,10.6363636 C9.12797679,10.6363636 9.2559517,10.6107957 9.39285714,10.5596591 C9.52976259,10.5085225 9.68005871,10.4303983 9.84375,10.3252841 C10.0074413,10.2201699 10.1398804,10.1306822 10.2410714,10.0568182 C10.3422624,9.98295418 10.4791658,9.87642115 10.6517857,9.73721591 C10.8244056,9.59801067 10.9285713,9.51420469 10.9642857,9.48579545 C12.2023871,8.54829077 13.3958276,7.64773159 14.5446429,6.78409091 C14.866073,6.53977151 15.1651772,6.21164979 15.4419643,5.79971591 C15.7187514,5.38778203 15.8571429,5.01420622 15.8571429,4.67897727 Z M17,4.36363636 L17,13.6363636 C17,14.0113655 16.8601204,14.332385 16.5803571,14.5994318 C16.3005938,14.8664786 15.9642877,15 15.5714286,15 L2.42857143,15 C2.03571232,15 1.69940616,14.8664786 1.41964286,14.5994318 C1.13987955,14.332385 1,14.0113655 1,13.6363636 L1,4.36363636 C1,3.98863449 1.13987955,3.66761497 1.41964286,3.40056818 C1.69940616,3.13352139 2.03571232,3 2.42857143,3 L15.5714286,3 C15.9642877,3 16.3005938,3.13352139 16.5803571,3.40056818 C16.8601204,3.66761497 17,3.98863449 17,4.36363636 Z" id=""></path>
        </g>
    </g>
</svg>