<?xml version="1.0" encoding="UTF-8"?>
<svg width="16px" height="16px" viewBox="0 0 16 16" version="1.1" xmlns="http://www.w3.org/2000/svg" xmlns:xlink="http://www.w3.org/1999/xlink">
    <!-- Generator: sketchtool 49.1 (51147) - http://www.bohemiancoding.com/sketch -->
    <title>icons/facebook-square</title>
    <desc>Created with sketchtool.</desc>
    <defs></defs>
    <g id="Page-1" stroke="none" stroke-width="1" fill="none" fill-rule="evenodd">
        <g id="icons/facebook-square" transform="translate(-1.000000, -1.000000)" fill="#000000">
            <path d="M14,1 C14.826393,1 15.5329832,1.29339984 16.1197917,1.88020833 C16.7066002,2.46701682 17,3.17360698 17,4 L17,14 C17,14.826393 16.7066002,15.5329832 16.1197917,16.1197917 C15.5329832,16.7066002 14.826393,17 14,17 L12.0416667,17 L12.0416667,10.8020833 L14.1145833,10.8020833 L14.4270833,8.38541667 L12.0416667,8.38541667 L12.0416667,6.84375 C12.0416667,6.45485917 12.1232631,6.16319542 12.2864583,5.96875 C12.4496536,5.77430458 12.7673587,5.67708333 13.2395833,5.67708333 L14.5104167,5.66666667 L14.5104167,3.51041667 C14.0729145,3.44791635 13.4548651,3.41666667 12.65625,3.41666667 C11.7118008,3.41666667 10.9566001,3.69444167 10.390625,4.25 C9.82464995,4.80555833 9.54166667,5.59027271 9.54166667,6.60416667 L9.54166667,8.38541667 L7.45833333,8.38541667 L7.45833333,10.8020833 L9.54166667,10.8020833 L9.54166667,17 L4,17 C3.17360698,17 2.46701682,16.7066002 1.88020833,16.1197917 C1.29339984,15.5329832 1,14.826393 1,14 L1,4 C1,3.17360698 1.29339984,2.46701682 1.88020833,1.88020833 C2.46701682,1.29339984 3.17360698,1 4,1 L14,1 Z" id=""></path>
        </g>
    </g>
</svg>