<?xml version="1.0" encoding="UTF-8"?>
<svg width="16px" height="16px" viewBox="0 0 16 16" version="1.1" xmlns="http://www.w3.org/2000/svg" xmlns:xlink="http://www.w3.org/1999/xlink">
    <!-- Generator: sketchtool 49.1 (51147) - http://www.bohemiancoding.com/sketch -->
    <title>icons/googleplus</title>
    <desc>Created with sketchtool.</desc>
    <defs></defs>
    <g id="Page-1" stroke="none" stroke-width="1" fill="none" fill-rule="evenodd">
        <g id="icons/googleplus" transform="translate(-1.000000, -1.000000)" fill="#000000">
            <path d="M4.3671875,13.015625 C3.609375,13.015625 2.9296875,13.1640625 2.3125,13.40625 C1.484375,12.1328125 1,10.6328125 1,9 C1,8.8515625 1,8.71875 1.015625,8.5703125 C1.40625,9.9296875 2.6484375,10.90625 4.3515625,10.90625 L4.7578125,10.90625 C4.6328125,11.1640625 4.5390625,11.4453125 4.5390625,11.7578125 C4.5390625,12.2578125 4.8125,12.6640625 5.1484375,13.015625 L4.3671875,13.015625 Z M2.515625,7.59375 C2.3125,6.0546875 3.09375,4.8671875 4.2578125,4.90625 C5.4453125,4.9453125 6.5546875,6.1875 6.7578125,7.71875 C6.9609375,9.2578125 6.1640625,10.484375 5,10.4453125 C3.8359375,10.40625 2.71875,9.1328125 2.515625,7.59375 Z M7.8515625,15.8671875 C7.8515625,16.2421875 7.796875,16.5703125 7.6484375,16.890625 C5.6640625,16.5546875 3.9453125,15.5 2.7421875,14 C3.3359375,13.6484375 4.0703125,13.4296875 4.8515625,13.4453125 C5.2578125,13.4453125 5.6328125,13.515625 5.984375,13.6328125 C6.9296875,14.28125 7.609375,14.6484375 7.796875,15.40625 C7.8359375,15.5546875 7.8515625,15.71875 7.8515625,15.8671875 Z M9,1 C13.4296875,1 17,4.5703125 17,9 C17,13.4296875 13.4296875,17 9,17 L8.6875,17 C8.90625,16.5703125 9.0390625,16.1328125 9.0390625,15.6875 C9.0390625,14.3671875 8.6328125,13.59375 7.4296875,12.7421875 C7.015625,12.4453125 6.2421875,11.7421875 6.2421875,11.3125 C6.2421875,10.8359375 6.3671875,10.59375 7.109375,10.015625 C7.8671875,9.4296875 8.390625,8.59375 8.390625,7.6328125 C8.390625,6.484375 7.890625,5.3671875 6.9296875,5 L8.3671875,5 L9.390625,4.2578125 L4.8359375,4.2578125 C3.6640625,4.2578125 2.5390625,4.78125 1.78125,5.5546875 C3.0703125,2.8515625 5.8125,1 9,1 Z M15,7 L15,6 L13,6 L13,4 L12,4 L12,6 L10,6 L10,7 L12,7 L12,9 L13,9 L13,7 L15,7 Z" id="googleplus"></path>
        </g>
    </g>
</svg>