<?xml version="1.0" encoding="UTF-8"?>
<svg width="16px" height="15px" viewBox="0 0 16 15" version="1.1" xmlns="http://www.w3.org/2000/svg" xmlns:xlink="http://www.w3.org/1999/xlink">
    <!-- Generator: sketchtool 49.1 (51147) - http://www.bohemiancoding.com/sketch -->
    <title>icons/group</title>
    <desc>Created with sketchtool.</desc>
    <defs></defs>
    <g id="Page-1" stroke="none" stroke-width="1" fill="none" fill-rule="evenodd">
        <g id="icons/group" transform="translate(-1.000000, -2.000000)" fill="#000000">
            <path d="M5.94166667,9.46666667 C5.04166217,9.49444458 4.30555842,9.84999658 3.73333333,10.5333333 L2.61666667,10.5333333 C2.16110883,10.5333333 1.77777933,10.4208345 1.46666667,10.1958333 C1.155554,9.97083221 1,9.64166883 1,9.20833333 C1,7.24721242 1.344441,6.26666667 2.03333333,6.26666667 C2.06666683,6.26666667 2.18749896,6.32499942 2.39583333,6.44166667 C2.60416771,6.55833392 2.87499833,6.67638829 3.20833333,6.79583333 C3.54166833,6.91527837 3.87222058,6.975 4.2,6.975 C4.57222408,6.975 4.94166483,6.91111175 5.30833333,6.78333333 C5.28055542,6.98888992 5.26666667,7.17222142 5.26666667,7.33333333 C5.26666667,8.10555942 5.49166442,8.81666342 5.94166667,9.46666667 Z M14.8666667,14.775 C14.8666667,15.44167 14.6638909,15.9680536 14.2583333,16.3541667 C13.8527757,16.7402797 13.3138922,16.9333333 12.6416667,16.9333333 L5.35833333,16.9333333 C4.68610775,16.9333333 4.14722425,16.7402797 3.74166667,16.3541667 C3.33610908,15.9680536 3.13333333,15.44167 3.13333333,14.775 C3.13333333,14.4805541 3.14305546,14.193057 3.1625,13.9125 C3.18194454,13.631943 3.22083304,13.3291683 3.27916667,13.0041667 C3.33750029,12.679165 3.41111067,12.3777792 3.5,12.1 C3.58888933,11.8222208 3.70833258,11.5513902 3.85833333,11.2875 C4.00833408,11.0236098 4.18055458,10.798612 4.375,10.6125 C4.56944542,10.426388 4.80694304,10.2777783 5.0875,10.1666667 C5.36805696,10.055555 5.67777608,10 6.01666667,10 C6.0722225,10 6.19166575,10.0597216 6.375,10.1791667 C6.55833425,10.2986117 6.76111,10.4319437 6.98333333,10.5791667 C7.20555667,10.7263896 7.50277592,10.8597216 7.875,10.9791667 C8.24722408,11.0986117 8.62222033,11.1583333 9,11.1583333 C9.37777967,11.1583333 9.75277592,11.0986117 10.125,10.9791667 C10.4972241,10.8597216 10.7944433,10.7263896 11.0166667,10.5791667 C11.23889,10.4319437 11.4416658,10.2986117 11.625,10.1791667 C11.8083343,10.0597216 11.9277775,10 11.9833333,10 C12.3222239,10 12.631943,10.055555 12.9125,10.1666667 C13.193057,10.2777783 13.4305546,10.426388 13.625,10.6125 C13.8194454,10.798612 13.9916659,11.0236098 14.1416667,11.2875 C14.2916674,11.5513902 14.4111107,11.8222208 14.5,12.1 C14.5888893,12.3777792 14.6624997,12.679165 14.7208333,13.0041667 C14.779167,13.3291683 14.8180555,13.631943 14.8375,13.9125 C14.8569445,14.193057 14.8666667,14.4805541 14.8666667,14.775 Z M6.33333333,4.13333333 C6.33333333,4.72222517 6.12500208,5.22499792 5.70833333,5.64166667 C5.29166458,6.05833542 4.78889183,6.26666667 4.2,6.26666667 C3.61110817,6.26666667 3.10833542,6.05833542 2.69166667,5.64166667 C2.27499792,5.22499792 2.06666667,4.72222517 2.06666667,4.13333333 C2.06666667,3.5444415 2.27499792,3.04166875 2.69166667,2.625 C3.10833542,2.20833125 3.61110817,2 4.2,2 C4.78889183,2 5.29166458,2.20833125 5.70833333,2.625 C6.12500208,3.04166875 6.33333333,3.5444415 6.33333333,4.13333333 Z M12.2,7.33333333 C12.2,8.21667108 11.8875031,8.97083021 11.2625,9.59583333 C10.6374969,10.2208365 9.88333775,10.5333333 9,10.5333333 C8.11666225,10.5333333 7.36250312,10.2208365 6.7375,9.59583333 C6.11249688,8.97083021 5.8,8.21667108 5.8,7.33333333 C5.8,6.44999558 6.11249688,5.69583646 6.7375,5.07083333 C7.36250312,4.44583021 8.11666225,4.13333333 9,4.13333333 C9.88333775,4.13333333 10.6374969,4.44583021 11.2625,5.07083333 C11.8875031,5.69583646 12.2,6.44999558 12.2,7.33333333 Z M17,9.20833333 C17,9.64166883 16.844446,9.97083221 16.5333333,10.1958333 C16.2222207,10.4208345 15.8388912,10.5333333 15.3833333,10.5333333 L14.2666667,10.5333333 C13.6944416,9.84999658 12.9583378,9.49444458 12.0583333,9.46666667 C12.5083356,8.81666342 12.7333333,8.10555942 12.7333333,7.33333333 C12.7333333,7.17222142 12.7194446,6.98888992 12.6916667,6.78333333 C13.0583352,6.91111175 13.4277759,6.975 13.8,6.975 C14.1277794,6.975 14.4583317,6.91527837 14.7916667,6.79583333 C15.1250017,6.67638829 15.3958323,6.55833392 15.6041667,6.44166667 C15.812501,6.32499942 15.9333332,6.26666667 15.9666667,6.26666667 C16.655559,6.26666667 17,7.24721242 17,9.20833333 Z M15.9333333,4.13333333 C15.9333333,4.72222517 15.7250021,5.22499792 15.3083333,5.64166667 C14.8916646,6.05833542 14.3888918,6.26666667 13.8,6.26666667 C13.2111082,6.26666667 12.7083354,6.05833542 12.2916667,5.64166667 C11.8749979,5.22499792 11.6666667,4.72222517 11.6666667,4.13333333 C11.6666667,3.5444415 11.8749979,3.04166875 12.2916667,2.625 C12.7083354,2.20833125 13.2111082,2 13.8,2 C14.3888918,2 14.8916646,2.20833125 15.3083333,2.625 C15.7250021,3.04166875 15.9333333,3.5444415 15.9333333,4.13333333 Z" id=""></path>
        </g>
    </g>
</svg>