<?xml version="1.0" encoding="UTF-8"?>
<svg width="16px" height="14px" viewBox="0 0 16 14" version="1.1" xmlns="http://www.w3.org/2000/svg" xmlns:xlink="http://www.w3.org/1999/xlink">
    <!-- Generator: sketchtool 49.1 (51147) - http://www.bohemiancoding.com/sketch -->
    <title>icons/heart</title>
    <desc>Created with sketchtool.</desc>
    <defs></defs>
    <g id="Page-1" stroke="none" stroke-width="1" fill="none" fill-rule="evenodd">
        <g id="icons/heart" transform="translate(-1.000000, -3.000000)" fill="#000000">
            <path d="M9,16.7142857 C8.84523732,16.7142857 8.71428625,16.6607148 8.60714286,16.5535714 L3.03571429,11.1785714 C2.97619018,11.1309521 2.89434576,11.053572 2.79017857,10.9464286 C2.68601138,10.8392852 2.52083446,10.6443467 2.29464286,10.3616071 C2.06845125,10.0788676 1.86607232,9.78869196 1.6875,9.49107143 C1.50892768,9.19345089 1.34970308,8.83333545 1.20982143,8.41071429 C1.06993978,7.98809312 1,7.57738295 1,7.17857143 C1,5.86904107 1.37797241,4.84524179 2.13392857,4.10714286 C2.88988473,3.36904393 3.93451714,3 5.26785714,3 C5.63690661,3 6.01339094,3.06398746 6.39732143,3.19196429 C6.78125192,3.31994112 7.13839121,3.49255844 7.46875,3.70982143 C7.79910879,3.92708442 8.08333214,4.13095143 8.32142857,4.32142857 C8.559525,4.51190571 8.78571321,4.71428464 9,4.92857143 C9.21428679,4.71428464 9.440475,4.51190571 9.67857143,4.32142857 C9.91666786,4.13095143 10.2008912,3.92708442 10.53125,3.70982143 C10.8616088,3.49255844 11.2187481,3.31994112 11.6026786,3.19196429 C11.9866091,3.06398746 12.3630934,3 12.7321429,3 C14.0654829,3 15.1101153,3.36904393 15.8660714,4.10714286 C16.6220276,4.84524179 17,5.86904107 17,7.17857143 C17,8.4940542 16.3184592,9.83332652 14.9553571,11.1964286 L9.39285714,16.5535714 C9.28571375,16.6607148 9.15476268,16.7142857 9,16.7142857 Z" id=""></path>
        </g>
    </g>
</svg>