<svg class="icon-domestic" xmlns="http://www.w3.org/2000/svg" width="152" height="152" viewBox="0 0 152 152">
  <path class="bg" d="M76,151A75,75,0,1,1,151,76,75.0845,75.0845,0,0,1,76,151Z" style="fill: none"/>
  <circle class="ring" cx="76" cy="76" r="72.4836" style="fill: none;stroke-miterlimit: 10;stroke-width: 5.032698506262987px"/>
  <g class="icon">
    <path d="M104.75,79.1632a1.4826,1.4826,0,0,0-.64-1.2956.8069.8069,0,0,1-.3821-1.0035,2.1494,2.1494,0,0,0-.1609-1.6029,4.7259,4.7259,0,0,1-.3427-1.09,6.66,6.66,0,0,1-.7318.1657c-.3275.0381-.47-.1233-.5067-.4657a1.6823,1.6823,0,0,0-.8612-1.4547,1.2254,1.2254,0,0,1-.4058-.5491c-.1273-.2558-.2654-.3634-.5552-.24-.1824.0775-.3937.0841-.5856.1433-.0991.0306-.23.0847-.2685.1654-.4808,1.0174-1.4523,1.5769-2.1855,2.3571-.1651.1757-.287.3041-.2091.5942a2.1793,2.1793,0,0,1-.069.7848c-.0421.3243-.092.6475-.137.9608a1.3443,1.3443,0,0,1,.9938,1.4859c-.0252.3478-.2659.3979-.5192.4152-.2408.0165-.5251.0841-.5392-.3315-.0116-.3407-.0845-.6793-.1373-1.071-.2377.3028-.5017.5956-.9139.4438a.8558.8558,0,0,1-.4593-.3718c-.4225-.9165-.7816-1.8627-1.2165-2.7728a4.9634,4.9634,0,0,1-.6137-2.282c-.2687,0-.5178-.0051-.7666.0013-.3275.0084-.6086-.1528-.6188-.45-.0115-.3318-.2195-.4518-.3993-.63-.1967-.1951-.388-.3959-.59-.5849-.0781-.073-.1789-.17-.2711-.1716-.5371-.0113-1.0752.0176-1.6122.0035-.5679-.0149-1.135-.0628-1.6571-.0936.2655.1966.5759.4245.8842.6552a.8242.8242,0,0,1,.1539,1.0587c-.32.4213-.5928.8834-.95,1.2681a4.042,4.042,0,0,1-.8643.5656c-.2613.1625-.534.3082-.7854.4844-.1467.1028-.2391.3079-.3945.37a8.1647,8.1647,0,0,1-3.0065,1.0677c.1084.462.3484.6271.7788.5077.5507-.1529,1.0979-.3188,1.6437-.4886.3158-.0983.5632-.008.61.3129a1.8741,1.8741,0,0,1-.0328.979,24.965,24.965,0,0,1-1.3948,2.7012c-.2148.3534-.6609.5617-.9847.8548a11.3806,11.3806,0,0,0-.8227.8235c-.3776.42-.7321.86-1.1031,1.2859a1.5967,1.5967,0,0,0-.194,1.9607,5.4542,5.4542,0,0,1,.4259,2.6571,1.2442,1.2442,0,0,1-.5662,1.0037,4.96,4.96,0,0,0-1.7594,1.5539,12.0292,12.0292,0,0,1,.1533,1.3307c.0027.428-.3153.6542-.6881.79-.3836.1393-.5725.3424-.4651.8024a.9755.9755,0,0,1-.2329.6583c-.3386.4676-.7225.9022-1.0845,1.3531a3.1079,3.1079,0,0,1-1.8035,1.1958,14.8345,14.8345,0,0,1-2.177.1176c-.3875.0154-.6873-.17-.6718-.5554a2.97,2.97,0,0,0-.829-1.975,2.32,2.32,0,0,1-.4151-1.3071,5.8735,5.8735,0,0,0-.8136-2.5528,2.9741,2.9741,0,0,1-.2328-2.697,3.2272,3.2272,0,0,1,.29-.6741,1.0785,1.0785,0,0,0,.0755-1.08c-.2108-.5381-.297-1.1237-.485-1.6724a2.0359,2.0359,0,0,0-.4835-.8764,1.8143,1.8143,0,0,1-.5013-2.1743c.0737-.2167.1122-.4454.1784-.7157-.4272.0082-.7253-.0856-.6089-.6035-.1907,0-.3466-.0106-.5006.0022a.557.557,0,0,1-.6624-.3734.7951.7951,0,0,0-1.0182-.39,8.785,8.785,0,0,1-1.9139.536,9.8641,9.8641,0,0,0-1.6362.1942,2.0562,2.0562,0,0,1-1.9594-.65,3.15,3.15,0,0,1-.8748-1.1933,3.87,3.87,0,0,0-.9993-1.2651c-.209-.2121-.396-.3755-.3693-.7053a4.7728,4.7728,0,0,0-.0689-.602,1.1125,1.1125,0,0,1,.1816-.8843,1.1875,1.1875,0,0,0,.181-1.3216,1.66,1.66,0,0,1,.1778-1.8011,12.5907,12.5907,0,0,1,.7617-1.2794,18.22,18.22,0,0,1,1.4524-1.3847,1.0355,1.0355,0,0,0,.3979-.7579,1.3039,1.3039,0,0,1,.6667-1.0161,8.8483,8.8483,0,0,0,.9835-.8821c-.4-.1479-.6731-.2327-.9305-.3523-.106-.0493-.2513-.1731-.2516-.2635-.0013-.4066.04-.8136.0718-1.22.0309-.3908.0868-.78.1-1.1717.0111-.34.1592-.508.4943-.4784.4826.0425.9681.0784,1.4439.164.378.068.6535.0062.7983-.3743a.8291.8291,0,0,0-.3187-.9828c-.2056-.1451-.6083-.0389-.6058-.4739.0017-.2854.0691-.3981.3892-.4515a12.8984,12.8984,0,0,0,1.5177-.4324l-.0416-.1349c-.4505.0929-.9017.1828-1.3514.28-.4652.1-.81-.0567-.6785-.2821.2818-.484.0479-1.2591.8824-1.446-.25-.1549-.4237-.3487-.5362.0437-.0712.2483-.193.4815-.2777.7265-.097.2808-1.2929.6363-1.5185.4375a.29.29,0,0,1-.09-.2053,3.0865,3.0865,0,0,1,.13-1.1557c.1219-.24.528-.3685.8329-.4713a2.5749,2.5749,0,0,1,.7475-.0137c0-.1954-.0129-.3507.0027-.5031.0318-.3093.1109-.5958.49-.64a1,1,0,0,1,.8461.5365c.2079.4925.4623.9654.7013,1.4445.0194.0389.0691.09.1039.09.5279-.01.4436.3482.391.7256a8.1306,8.1306,0,0,0,.7206-.58,1.134,1.134,0,0,1,.9064-.4163c.2466.012.4242-.0674.358-.4344a3.9591,3.9591,0,0,1,.0728-1.0332,1.9663,1.9663,0,0,1-.7062-.2436,1.3922,1.3922,0,0,1-.33-1.3928c.0556-.3522.437-.49.7968-.6291a3.5271,3.5271,0,0,0,1.5758-1.1868,3.5913,3.5913,0,0,1,1.6709-1.3158,6.7576,6.7576,0,0,1,2.662-.428,3.0649,3.0649,0,0,1,.6921.0962c1.07.3014,2.14.6067,3.2007.9412.1706.0538.29.2647.438.3974.0892.08.188.1492.2342.1854.1534-.2712.2262-.5883.3845-.6391.2938-.0943.6781-.1356.8175.3644a2.828,2.828,0,0,1,1.9423-.5906,6.8348,6.8348,0,0,0,1.2466-.0077c.2494-.0279.4825-.2472.7278-.2571a9.458,9.458,0,0,1,1.263.1067c-.0752-.3668-.3817-.842.1353-1.15a1.2737,1.2737,0,0,1,1.5758.3191,2.54,2.54,0,0,0,1.6175-.6066,3.2756,3.2756,0,0,1,1.1729-.3008c.0326-.3277.2406-.508.6935-.5042a10.6992,10.6992,0,0,0,1.5805-.1751,1.051,1.051,0,0,0,.4647-.1636,1.7623,1.7623,0,0,1,1.8985-.1192,1.5962,1.5962,0,0,0,.4986.0942c.4215.0364.8442.0839,1.2662.0819.5729-.0028.7416.3126.7006.8935.5626.026,1.11.0458,1.657.0795.2168.0133.4313.0794.6476.0834.6859.0127,1.3725.0211,2.0582.0049a2.15,2.15,0,0,1,1.43.4857.8886.8886,0,0,0,1.0117.2132c.2342-.1081.5806.0284.8765.0516.2641.0207.5168.0694.6458-.288a.5624.5624,0,0,1,.4438-.2551,7.4637,7.4637,0,0,1,3.2981.5693,1.0946,1.0946,0,0,0,.452.0824c.6064.009,1.2144-.02,1.8191.0137a3.3273,3.3273,0,0,1,.8941.2174,2.0272,2.0272,0,0,0,1.114.1822,9.2008,9.2008,0,0,1,1.3593.0452c.3317-.0095.6657-.1789.99-.1563a11.95,11.95,0,0,1,3.7186.6414,3.0886,3.0886,0,0,0,.8688.157,12.0439,12.0439,0,0,0,1.8934.3777c.33-.018.729.3782,1.0145.6678.21.2126-.0071.5519-.333.5154-.658-.0737-1.31-.2019-1.9568-.3064.0116.2481.0131.2437.5222.4228.2412.0849.5765.1233.4591.5055-.0414.1347-.2154.3248-.3281.3243a1.0315,1.0315,0,0,0-.9877.5014.9669.9669,0,0,1-.6423.2677c-.4155.0509-.8389.0362-1.2591.0489l-.0659.18c.1179.1183.215.2811.3572.3475a1.6333,1.6333,0,0,1,.9486,1.8452,6.9161,6.9161,0,0,0,.0715.6939c-.0055.1694-.0868.4747-.1524.48a1.5074,1.5074,0,0,1-.8468-.1,4.5281,4.5281,0,0,1-.8368-.8023c-.33-.3473-.65-.7047-.971-1.0605a.9805.9805,0,0,1-.1051-1.1359,8.9576,8.9576,0,0,0,.2932-1.1737c-.2647.1992-.389.3607-.5375.3874a.9715.9715,0,0,1-.5846-.0817c-.6075-.3183-.7037-.28-.733.3709-.0211.4678-.4917.7063-1.0927.4533-.6969-.2934-1.3771.0094-2.0653-.0375-.4155-.0283-1.0021.9315-.8148,1.3018a.895.895,0,0,0,.7209.3339c.4668-.0266.9011-.1055,1.2618.299.0624.07.2362.0684.354.0562a.786.786,0,0,1,.8653.3876,2.9813,2.9813,0,0,0,.9273.8212.7435.7435,0,0,1,.413.8118.3637.3637,0,0,0,.071.2722,1.4507,1.4507,0,0,1,.4213.9377c.0281.2526.5507.4633.87.6639.1241.078.3057.0578.4478.1151a.3964.3964,0,0,1,.0772.7456,6.1072,6.1072,0,0,1-.9478.3541c-.04-.0386-.0087.0194.0313.0258a1.1091,1.1091,0,0,1,1.044,1.2063c.0171.3525.1421.6985.1772,1.0516.05.5036-.0749.7478-.7731.7982-.2266.0164-.3956,0-.4892.3057-.1061.3461-.402.3562-.7222.084.08.5855-.3534.4458-.6662.4936-.0057.1135-.0172.2057-.0138.2975.015.407-.2674.4056-.5146.3215a1.1919,1.1919,0,0,1-.52-1.3789,1.3557,1.3557,0,0,1,1.2288-.9193c.4054-.0631.7642-.49,1.1127-.7905.0586-.0505-.0291-.29-.0719-.4349-.0735-.25-.1648-.4942-.2142-.64-.2157-.2956-.4783-.5008-.5174-.7422a9.0138,9.0138,0,0,1-.0216-1.4219c-.8469-.04-.6909-1.0036-1.2454-1.45a6.47,6.47,0,0,0,.0043.729,3.2909,3.2909,0,0,1-.404,1.8074.7851.7851,0,0,1-.4756.2968,2.4169,2.4169,0,0,1-.6093.011l-.3039,1.3473a3.5108,3.5108,0,0,1,.5255.3761,2.5261,2.5261,0,0,1,.6027.7465c.0963.2278.1164.6708-.0182.7751a2.0357,2.0357,0,0,1-1.0265.3452c-.11.01-.3083-.3246-.3735-.5307a1.5962,1.5962,0,0,0-.8947-.9652.6316.6316,0,0,1-.2611-.3139c-.1107-.2731-.2206-.4231-.5583-.2673-.5684.2622-.7723.15-.9581-.4776-.0691.05-.1278.0947-.1888.1362-.1578.1074-.3167.2134-.4751.32l.0895.1844c.2044.0468.4069.1057.6135.1375.2463.0379.5023.0274.7423.0862.1566.0383.4207.1771.4129.2454a1.1432,1.1432,0,0,1-.2586.5566,2.1612,2.1612,0,0,1-.4308.3366c.2031.2764.3737.5262.5633.7608.1441.1783.33.3242.4649.5081a4.0337,4.0337,0,0,1,.3532.6145,1.7894,1.7894,0,0,1,.271.6776,3.1663,3.1663,0,0,1-.1813,1.0045c-.1857.5673-.196,1.22-.7278,1.6339a1.7668,1.7668,0,0,1-.4636.3388c-.481.1564-.9862.24-1.4628.407a3.0591,3.0591,0,0,0-.6492.4312c.2014.385.1307,1.0366-.1436,1.1192a1.1736,1.1736,0,0,1-.7631-.05c-.2011-.0912-.0575-.7021.2031-1.0082-.2995-.4548-.3279-.4463-1.0681.3539a4.9375,4.9375,0,0,0,.6541.7522,2.9189,2.9189,0,0,1,1.07,2.6572c-.0113.2119-.2527.4286-.4233.61-.1747.1857-.4132.3117-.5866.4984-.2164.2329-.457.465-.7645.3157-.1526-.0741-.1977-.37-.3143-.5033l-1.5376-1.2782a2.0705,2.0705,0,0,0,.9892,2.52,1.5435,1.5435,0,0,1,.5656.9174,7.7173,7.7173,0,0,1,.2622,1.0335c.0191.1825-.1324.383-.2068.5753l-.2117.0152a6.1975,6.1975,0,0,0,.7527,1.0959,1.7157,1.7157,0,0,1,.3668,1.7589c.6824-.14,1.2741.27,1.9817.2382a4.0381,4.0381,0,0,1,1.6125.59c.081.0364.108.2853.0849.4234-.0122.0729-.1934.1784-.2862.1674-.7111-.0845-1.4192-.1945-2.1284-.2956-.3836-.0547-.7678-.1048-1.151-.1619-.4114-.0614-.7584-.1845-.59-.71a2.48,2.48,0,0,1-1.7293-1.4959,9.1907,9.1907,0,0,0-.6178-1.033c-.4835-.6691-1.0134-1.3053-1.4834-1.9832a1.8623,1.8623,0,0,1-.14-.6929,1.8137,1.8137,0,0,1,.7113-.0325A11.4661,11.4661,0,0,1,104.75,79.1632ZM66.16,63.5346c-.4376.0961-.5892.4631-.6913.8175a1.1334,1.1334,0,0,1-1.1575.9311c-.2045.0056-.408.05-.6568.0817a.7222.7222,0,0,0,1.06.134A3.0757,3.0757,0,0,1,66.79,64.92a3.4911,3.4911,0,0,0,1.8287-.181c.2535-.1063.694-.174.832.2828a2.3328,2.3328,0,0,1,.1.6907.7466.7466,0,0,0,.6541.8249,2.0989,2.0989,0,0,1,1.0366.4316,1.6711,1.6711,0,0,0,.932.52c.3747.0973.5384-.0117.5323-.3808-.0062-.3733.1869-.4628.5295-.5006a3.5212,3.5212,0,0,1,1.5615.4143,9.1718,9.1718,0,0,0,1.7253.3439,10.1389,10.1389,0,0,0,1.1016.0073c.2851.0065.5384-.0221.62-.357.0955-.3913.2008-.7807.2766-1.1758a1.8244,1.8244,0,0,0-.0272-.4579c-.2811.7115-.517.9694-.938.8281-.1578-.053-.2314-.3565-.3433-.5459a1.31,1.31,0,0,0-1.3751-.0517c-.2544.1078-.48.0869-.4374-.2951a.429.429,0,0,0-.0361-.197c-.1916-.4763-.3842-.9522-.5862-1.4241-.026-.0608-.1081-.0977-.1456-.13l-.5742.3644a4.5216,4.5216,0,0,1,.1685.5639.7608.7608,0,0,1-.4392.8782c-.388.07-.7-.2042-.7958-.68a.6173.6173,0,0,0-.1543-.2924c-.1884-.1943-.3952-.3706-.6206-.5781l-.4367.0518.0978.0787c-.1412.2493-.2315.6464-.4344.7163-.3851.1326-.2652.5783-.5876.7142-.0988.0416-.1131.2577-.2043.36-.0261.0293-.2652-.0528-.27-.0975a1.7543,1.7543,0,0,1,.061-.4459.8612.8612,0,0,1-.2765-.1423,3.8925,3.8925,0,0,1-.3113-.45,2.0691,2.0691,0,0,1,.4945-.2681,3.0655,3.0655,0,0,1,.6608-.0108c-.2837-.9667-1.39-.9172-1.93-1.7184,0,.54.0124.941-.0074,1.3406-.0061.1227-.0774.32-.16.3442a.5831.5831,0,0,1-.487-.0437.8177.8177,0,0,1-.1872-.5533c.0147-.3008.1609-.597.1646-.8962.004-.3293.0612-.5439.4809-.5369-.1165-.0677-.2181-.1181-.2654-.0868a2.3513,2.3513,0,0,1-1.5326.3408c-.08-.0058-.2383.0682-.2371.1008.0183.5075-.5487.5624-.7035.9285Zm12.1967-2.41c.2615.43.2349.5135-.2072.72-.5637.2638-.9749.1028-1.1569-.4244-.0745-.216-.2541-.3489-.4452-.115a4.6785,4.6785,0,0,0-.598.8828,2.0664,2.0664,0,0,0-.0826.6681,8.1337,8.1337,0,0,0,.8869.037c.143-.0082.2775-.1682.42-.1756a3.5676,3.5676,0,0,1,1.92.3092,1.5167,1.5167,0,0,0,.7175.1388c.1127-.0025.2581-.1633.3149-.2864.0239-.0518-.1251-.218-.2264-.2863a8.077,8.077,0,0,0-.7645-.45c-.5792-.3036-.6358-.4391-.4-1.026a.6892.6892,0,0,0,.0225-.1268Zm6.52,2.107a7.8068,7.8068,0,0,0-.962-.5006.7031.7031,0,0,1-.5017-.9205c.0708-.2516.3372-.4482.5246-.68-.3519-.3489-.4785-.1239-1.4.6758a5.7132,5.7132,0,0,0,.6156.7933,1.7275,1.7275,0,0,1,.5078,1.5875c-.011.1034-.0056.2723.0543.3087a5.5929,5.5929,0,0,0,.953.4833c.0965.0356.3-.086.381-.1919.0483-.0634-.0233-.2487-.0825-.3565-.0892-.1623-.2365-.2937-.32-.458C84.487,63.6574,84.3995,63.3429,84.8765,63.2316ZM70.0972,57.3732l.0308.1437c.3372-.0247.6748-.0454,1.0115-.0758.185-.0167.3682-.0691.5527-.0718.684-.01.7229-.1155.8525-.77.0685-.3458-.0334-.91.57-.9916-.758-.5108-.8216-.6652-.632-1.5339-.2323.12-.4771.2247-.6994.3655-.24.1518-.3208.34-.0549.5658.4636.3942.4392.7619-.0517,1.1147-.1107.08-.2653.1728-.29.2843A1.1014,1.1014,0,0,1,70.0972,57.3732ZM81.863,74.8a2.6159,2.6159,0,0,0-.1515-.8237c-.2964-.4558-.6638-.8647-.986-1.3047a1.8607,1.8607,0,0,1-.4132-.7092c-.1-.6491-.5987-1.0373-.9048-1.5479a4.225,4.225,0,0,0-.4372-.5238l-.1235.0882c.23.3792.4609.7577.6888,1.138.0791.1321.2286.279.2126.4017-.0924.7056.3832,1.1258.75,1.605.0464.0607.1121.1285.1162.1962C80.6613,74.0972,81.365,74.2858,81.863,74.8Zm2.19-6.5943-.1584.151c.3086.36.6085.7285.9293,1.0776.1705.1855.3917.3245.562.51.0929.1013.1237.3634.1886.3655a.9518.9518,0,0,0,.4468-.1736c.1621-.0924.31-.21.4633-.3173l-.0823-.133a1.9616,1.9616,0,0,1-2.0073-1.2348C84.35,68.341,84.17,68.286,84.0527,68.2055ZM70.6269,62.1747a3.2257,3.2257,0,0,0,1.5969,1.03,1.5337,1.5337,0,0,0-.4835-.5437A11.4271,11.4271,0,0,0,70.6269,62.1747Zm5.8347-9.0554.4122.4474.0173-.164,1.0024-.1753.0025-.0359Z"/>
    <path d="M59.7865,50.6517c.1322.1108.268.17.3027.2659.0589.1623.1338.45.0622.506a3.4516,3.4516,0,0,1-1.1.6724,19.496,19.496,0,0,0-2.4405.5313,7.9305,7.9305,0,0,1-2.1069.7829,2.0406,2.0406,0,0,0-1.44,1.18c-.65,1.182-1.4685,1.0209-2.4462.4517A.5828.5828,0,0,1,50.34,54.68a10.0163,10.0163,0,0,1-.0942-1.9348c.0239-.25.4151-.4685.6472-.6929.1677-.1621.407-.2832.4971-.4771.0394-.0848-.22-.3015-.3315-.4667a.6751.6751,0,0,1-.0978-.2518,1.3592,1.3592,0,0,0-1.5485-1.2233c-.1263.0107-.2543.0021-.3814.0021-.9769,0-.9769,0-1.0627-.9762l-3.79,1.7717a3.44,3.44,0,0,0,.7041.1549.964.964,0,0,1,.8022.2947c.17.1781.4573.2378.6672.386a1.8959,1.8959,0,0,1,.4023.422c.148.198.2238.5208.4124.6035.45.1974.4078.551.3327.8677a.5619.5619,0,0,1-.7151.3854c-.1829-.0322-.3631-.08-.5987-.1329a4.8505,4.8505,0,0,1-.005.53.6023.6023,0,0,1-.1182.3375,1.4861,1.4861,0,0,1-2.3875-.17.4832.4832,0,0,0-.6607-.2211.7679.7679,0,0,1-.4647.0275c-.14-.0479-.3593-.2227-.3427-.2972a.7483.7483,0,0,1,.32-.4326c.1168-.0707.31-.0232.4683-.0155a1.0158,1.0158,0,0,0,.8979-.2971c.1453-.1572.45-.1669.7784-.2744-.2642-.277-.4839-.6739-.8091-.8014a2.6015,2.6015,0,0,0-1.067.0373,3.2913,3.2913,0,0,1-.62,1.044,3.0249,3.0249,0,0,1-1.08.3512,1.8985,1.8985,0,0,1,.3042.6195c.0571.4243-.1167.5311-.5332.4594-.2768-.0476-.5625-.0466-.8377-.1a4.9207,4.9207,0,0,1-.5247-.1941.6762.6762,0,0,0-.2849-.03c-.2776.0365-.553.0894-.8294.1347-.0311.0051-.0708-.0089-.0942.0057-.8424.5288-1.6834,1.06-2.5,1.5757a1.0859,1.0859,0,0,0,.9262.839,7.522,7.522,0,0,1,1.6164.6834c.0693.0327.1179.1872.1132.2822a2.0822,2.0822,0,0,1-.1031.5464c-.0637.1921-.266.4189.0317.5214.0913.0315.3963-.2353.423-.3955A1.4208,1.4208,0,0,1,39.8052,57.07a1.1519,1.1519,0,0,0,.77-1.1716c-.0044-.1562.1562-.3237.2585-.4742.0875-.1288.2492-.2249.2931-.3626a1.0663,1.0663,0,0,1,1.3348-.7476,3.7505,3.7505,0,0,1,.83.1312c.422.158.8086.3846.7046.958a2.2309,2.2309,0,0,0,.0409.4749,7.0964,7.0964,0,0,1,.7038-.443,1.4769,1.4769,0,0,1,.7174-.2122c.1036.0114.1876.37.2469.5807.1379.49.2385.9913.3934,1.4756a.4947.4947,0,0,0,.3475.2662.6114.6114,0,0,1,.4786,1.02.7483.7483,0,0,1-.3851.3435l.0449.5965c.1231.0518.2852.0681.3381.1527a1.9911,1.9911,0,0,1,.2887.68c.0121.0673-.2444.2592-.3825.2643A15.3483,15.3483,0,0,1,44.87,60.584c-.3027-.0277-.2778-.3158-.0975-.5042.2061-.2153.451-.3935.7479-.6465l-2.5255.1374c.4707.2834.4613.4314-.1229,1.2608.3285.06.6035.0976.8713.1641a2.7581,2.7581,0,0,1,.4316.1859c-.0986.1589-.16.393-.3023.4631a14.2981,14.2981,0,0,1-1.5865.6614c-.4128.1446-.6248-.0018-.7061-.4311a8.833,8.833,0,0,0-.966.4412c-.1926.1153-.3165.3394-.4938.4878a1.8161,1.8161,0,0,1-.6593.4549,4.969,4.969,0,0,0-1.9144,1.2882c-.1287.1-.1575.3285-.3127.4227.0233.7762-.461,1.2122-1.19,1.5468a5.5216,5.5216,0,0,0-1.227.8453c-.6014.5115-.4044,1.1553-.2539,1.7377a5.814,5.814,0,0,1,.74.0085c.1334.018.3577.1142.3625.187a1.1562,1.1562,0,0,1-.1351.552c-.0687.1412-.2713.2362-.2984.3744-.043.2192-.0506.4665-.3315.383-.1753-.0521-.3019-.2708-.4471-.4179-.02-.02-.0206-.0578-.0308-.0873-.6385.3457-1.01.0783-1.1074-.8063-.019-.1728.0514-.3759-.0171-.518a1.1457,1.1457,0,0,0-.4419-.52,2.4993,2.4993,0,0,0-.85-.2015c-.1767-.0195-.4667-.0139-.5282.0878-.3934.65-.9408.3948-1.4037.2168a1.0574,1.0574,0,0,0-.8163.0669c-1.3094.4085-1.4954,1.5706-1.8363,2.6283a1.8113,1.8113,0,0,0,.7821,1.6835,1.2349,1.2349,0,0,0,1.4265-.67c.23-.4911,1.2248-.8548,1.6228-.5305.1356.11.1438.5033.07.7195-.1891.5562-.4565,1.0857-.71,1.6663.3893-.0191.7366-.05,1.0838-.05.681,0,.81.1371.7482.805a5.4646,5.4646,0,0,1-.1507.8262,1.0082,1.0082,0,0,0,.2651,1.0769,1.1954,1.1954,0,0,0,.6152.2187,11.66,11.66,0,0,0,1.3093.0842.5013.5013,0,0,0,.387-.1605,1.4476,1.4476,0,0,1,.99-.8269c.2956-.0726.5407-.5739.9241-.3877.5378.2612,1.151.1073,1.6958.5455a1.9059,1.9059,0,0,0,1.9993.1488c.0921-.0438.2012-.0521.1591-.0942a4.1377,4.1377,0,0,1,.034-.5787,1.3419,1.3419,0,0,1,.1758-.3728c.3625-.6517.226-.98-.5006-1.1964-.2727-.0811-.6023-.89-.4087-1.0938a.5951.5951,0,0,1,.4789.0052c.1.3581.3652.2574.5848.2433.2366-.0152.3911,0,.42.2988.0319.3314.145.6546.1827.986a1.0057,1.0057,0,0,1-.0882.51c-.1387.3-.3188.581-.4841.874.2255.1521.69.2192.1734.59-.0731.0525-.0518.3777.0365.4874.2621.3252.586.6.8738.9052a1.4722,1.4722,0,0,0,1.1687.4971,1.5514,1.5514,0,0,1,1.77,1.3563c.1.3509.2395.6907.3486,1.0007a5.0781,5.0781,0,0,0,.6061.4116,1.2071,1.2071,0,0,0,.4859.0832,1.0985,1.0985,0,0,1,1.0841.7367,12.1629,12.1629,0,0,1,1.4059.139,3.5423,3.5423,0,0,1,.9037.4036,4.0092,4.0092,0,0,0,.9547.5479c.585.1147.6623.5049.6762.9492a2.0132,2.0132,0,0,1-.49,1.5109,11.2173,11.2173,0,0,0-.9835,1.3614.717.717,0,0,0-.0453.39A7.6965,7.6965,0,0,1,49.36,90.58a.8952.8952,0,0,1-.8794.569,2.7808,2.7808,0,0,0-1.6969.8764c-.0461.0413-.0328.1607-.03.2431a3.46,3.46,0,0,1-.3369,1.5273,13.6884,13.6884,0,0,1-.7,1.439c-.3328.5831-.6381,1.156-1.4722.9327.2537,1.4514.1356,1.6026-1.3738,1.7772-.1074.3844.2018,1.04-.601,1.0218a1.4393,1.4393,0,0,1-.2931,1.7224c.1242.1313.314.246.3672.4062.104.3131.2782.7239.16.9638a1.2627,1.2627,0,0,0-.1111,1.247c.6138.3525,1.19.6754,1.754,1.0172a.35.35,0,0,1,.109.2824.26.26,0,0,1-.1995.1561,4.4139,4.4139,0,0,1-1.761-.0363.66.66,0,0,1-.5-.7783,3.017,3.017,0,0,1-.8675-.1463,2.3955,2.3955,0,0,1-.7617-.6347,3.6855,3.6855,0,0,1-.53-.92,1.63,1.63,0,0,0-.6494-.9318c-.2965-.17-.1832-.576.2427-.8888-.3218-.4637-.2444-1.1417-.823-1.4844a.3616.3616,0,0,1-.1315-.2361,7.1554,7.1554,0,0,1-.2346-2.4341,6.6172,6.6172,0,0,0-.1793-1.8564c-.0486-.4029-.1214-.8033-.1585-1.2071-.046-.5012-.0734-1.0044-.0947-1.5074a2.5142,2.5142,0,0,1,.0284-.7092A2.132,2.132,0,0,0,36.8179,88.7c-.3666-.3055-.8259-.4971-1.2194-.7742a2.523,2.523,0,0,1-.587-.582,13.0951,13.0951,0,0,1-.877-1.3639c-.2365-.4348-.3918-.9131-.6107-1.3585a2.4845,2.4845,0,0,0-.426-.6091,1.2638,1.2638,0,0,1-.27-1.6357c.0262-.0572.0851-.1343.0667-.1719-.4948-1.0148.2382-1.6389.7508-2.317.3591-.475.6927-.9292.4525-1.57-.108-.2881-.1934-.5846-.3036-.9217a.673.673,0,0,0-.24.1018c-.1129.1074-.1895.3437-.2939.3512a1.5112,1.5112,0,0,1-.7739-.1165c-.419-.2175-.7852-.5348-1.1973-.7681a.7445.7445,0,0,1-.3881-.5823c-.0538-.2526-.3646-.4471-.4307-.7014-.1184-.4558-.4577-.205-.6865-.2952-.4652-.1834-.9928-.2342-1.2982-.7434a.7032.7032,0,0,0-.9834-.3312,1.5242,1.5242,0,0,1-1.2983-.2576q-1.0848-.59-2.1563-1.2042a.5928.5928,0,0,1-.2635-.7451,1.141,1.141,0,0,0-.2988-1.2443,6.3478,6.3478,0,0,1-.9686-1.607c-.0245-.05-.0836-.0832-.24-.0755.1384.398.3.79.4056,1.1966.0559.2162.0987.6006-.0014.66a.4674.4674,0,0,1-.729-.2509c-.0915-.2371-.1867-.4727-.2789-.71-.0329-.0844-.0357-.207-.0964-.25-.4406-.3125-.4083-.7758-.5154-1.2378a9.2387,9.2387,0,0,1-.2728-1.5558c-.0114-.1922-.2919-.3649-.4409-.5533a1.7954,1.7954,0,0,1-.3784-.5358,7.3,7.3,0,0,1-.2635-1.3715,2.1244,2.1244,0,0,1,.3984-1.71,18.8707,18.8707,0,0,0,1.3709-2.0411c.1418-.22.2476-.464.3274-.6162a3.5025,3.5025,0,0,1-.3083-.6823c-.05-.2406.0979-.3849.2774-.5882.2311-.2618.1567-.7934.2128-1.2007-.5037-.1523-.73-.9325-.5218-1.593-.526-.73-1.3834-.6451-2.109-.8395-.2895-.0775-.67.1857-1.0091.2915a.5125.5125,0,0,1-.2259.05,1.7016,1.7016,0,0,0-1.4747.4579.93.93,0,0,1-1.24.6359c-.2451-.1525-.3555-.0313-.5382.0232-.6061.1808-1.2148.3567-1.8312.4961-.1191.0269-.2774-.1195-.4176-.1859.102-.1248.1791-.3.3107-.3647.3882-.19.798-.3366,1.1843-.4941-.097-.2131-.2588-.4029-.2365-.5677.0213-.1576.2407-.284.36-.4342a.7727.7727,0,0,0,.1812-.3115c.11-.6354.2377-.7669.9171-.8647.3062-.044.614-.0769.9925-.1236a3.0828,3.0828,0,0,1-.4022-.17c-.1264-.0783-.3363-.1852-.3332-.2736a.58.58,0,0,1,.2316-.4534,4.2955,4.2955,0,0,1,.9927-.2173,5.3533,5.3533,0,0,1,.707-.006.8818.8818,0,0,0,.0453-.1649c.0245-.7429.0473-.7338.8228-.8019a6.3623,6.3623,0,0,0,1.0668-.3067,9.2479,9.2479,0,0,1,4.58-.2209,22.0975,22.0975,0,0,0,2.7942.5142,7.1884,7.1884,0,0,0,1.51-.2594,3.6226,3.6226,0,0,1,2.0216-.0314,5.5512,5.5512,0,0,0,1.35.13,5.6288,5.6288,0,0,1,.79.2181l.2584-.6392a7.0276,7.0276,0,0,1-1.0835.204.576.576,0,0,1-.4409-.3036.423.423,0,0,1,.2373-.5781,3.5783,3.5783,0,0,1,2.1811-.7119,2.1164,2.1164,0,0,1,1.3351.4631.6631.6631,0,0,0,.4546.1179c.4863-.02.9709-.084,1.4571-.0983.1022-.003.3066.15.2975.2028a1.5968,1.5968,0,0,0,.2751,1.1463l1.2771-.2628a3.1725,3.1725,0,0,1-.5937-.32,3.1848,3.1848,0,0,1-.3564-.4817c.1726-.0677.3491-.1272.5168-.2054s.3223-.2379.4912-.2511c.37-.0288.7476.0374,1.12.0185.4009-.02.7984-.1188,1.199-.1307.1493-.0044.3031.1395.411.3177l.36-.149c-.0907-.1609-.3051-.3764-.2611-.5a.8352.8352,0,0,1,.4858-.5112,4.1932,4.1932,0,0,1,1.0735.0852c-.0287-.5423.4088-.3859.7544-.4022a4.9077,4.9077,0,0,0,.5439-.0971c-.6388-.04-1.1318-.0587-1.6211-.1119-.0792-.0086-.1947-.1659-.1991-.259-.0059-.1225.0586-.3412.1325-.36a6.5677,6.5677,0,0,1,1.5428-.2868c.3648-.0006.3465.372.24.7707.1505-.0762.3235-.1076.3469-.1845a1.07,1.07,0,0,1,1.06-.8037c1.0523-.0682,2.1058-.1194,3.1573-.197.5613-.0414,1.1184-.1432,1.68-.18.445-.03.4466-.0043.5674.491a6.3142,6.3142,0,0,1,.913-.1078c.6132.0127,1.2258.106,1.838.1.6152-.0064,1.23-.0924,1.8442-.1454.8561-.0738,1.7124-.1452,2.5678-.2266.2406-.0229.4785-.1122.7171-.11a6.603,6.603,0,0,1,2.668.4133c.2887.1259.672.0187,1.0044.0686.1439.0216.2687.1709.4021.2622-.1292.13-.2359.3158-.392.3782-.363.1451-.7735.1846-1.1165.3608-.1588.0815-.25.3731-.293.5854a2.7014,2.7014,0,0,1-1.5581,1.3567C59.9411,50.6029,59.8888,50.6215,59.7865,50.6517ZM40.1872,51.727c.34-.0046.6582-.0141.5761.4231l.5051-.3769-.1763-.0321-.1961-.982-.7088.2627Zm-5.8646,8.75,1.1459.278C35.2606,60.1426,35.1334,60.1178,34.3226,60.4771Z"/>
    <path d="M115.8955,87.12a1.2089,1.2089,0,0,1,.8387-.9084,2.5481,2.5481,0,0,1,1.7563-.2259c.6221.1743.7439.4695.391,1.02-.0664.1036-.13.2091-.2252.3632.4042.2932.8019.5876,1.2083.8693.051.0353.1955.0335.2161,0a6.5083,6.5083,0,0,0,.5973-1.07c.1335-.358.1173-.7711.2449-1.1325a.6273.6273,0,0,1,.4736-.3123c.1205-.0071.2817.2046.3775.35a3.39,3.39,0,0,1,.4852.8759c.1559.5444.23,1.1124.3325,1.6716.0153.0833-.0389.2187.0022.2521.63.5106.7027,1.369,1.1869,1.9406,1.0132,1.196.63,2.3453.0652,3.5406a2.5993,2.5993,0,0,1-1.2328,1.3037.7567.7567,0,0,0-.2053.197c-.44.5006-.8646,1.0162-1.3255,1.4968a1.5449,1.5449,0,0,1-.5605.2651q-.4209.1636-.8514.3022a1.7146,1.7146,0,0,1-.65.16,11.8388,11.8388,0,0,1-1.3041-.2706.7249.7249,0,0,1-.65-.8709.6874.6874,0,0,0-.6673-.7692.9985.9985,0,0,1-.4946-.3269c-.2588-.26-.4393-.6581-.7442-.7965a1.8452,1.8452,0,0,0-1.1225-.0458c-.5977.1463-1.1626.4217-1.7511.6122-.292.0945-.6089.1092-.9095.1809-.5417.1293-1.0751.2975-1.621.4034a2.2578,2.2578,0,0,1-.9128.0121c-.5466-.1268-.6287-.5039-.2628-.9314a1.53,1.53,0,0,0,.3277-1.1519,29.51,29.51,0,0,1,.1225-3.2031c.0538-.7566.7888-.7667,1.2711-1.0034.4355-.2137.9805-.2081,1.4093-.43a3.8976,3.8976,0,0,0,1.0356-.8981c.1607-.18.2222-.3676.5243-.4447.253-.0646.4642-.3907.64-.6392a1.3628,1.3628,0,0,1,1.2727-.65A2.7463,2.7463,0,0,1,115.8955,87.12Z"/>
    <path d="M118.6991,82.0495a3.94,3.94,0,0,1,.72-.4275,1.3133,1.3133,0,0,1,.8174-.0876c.8892.3613,1.7631.7678,2.6149,1.2109a1.4294,1.4294,0,0,1,.9277,1.2873c.0225.52.5226.9056.99,1.1732.2695.1542.4082.38.2691.6025-.0775.1242-.41.1447-.6177.1222a2.3966,2.3966,0,0,1-1.6434-1.0378c-.3595-.4562-.4322-.407-.7338.059a.608.608,0,0,1-.425.2525,1.5493,1.5493,0,0,1-1.3-.3839c-.0734-.0807-.2616-.0666-.3984-.0779-.3528-.0292-.5322-.3089-.3064-.5657.3135-.3566.1045-.5414-.1739-.6693-.5463-.251-1.1208-.4408-1.6675-.691a.5126.5126,0,0,1-.2157-.3912.5134.5134,0,0,0-.3075-.5216.5227.5227,0,0,1-.2531-.4128.57.57,0,0,1,.3568-.3525c.6237-.1813.9487.01,1.173.6227A1.7963,1.7963,0,0,0,118.6991,82.0495Z"/>
    <path d="M108.1507,80.7041c.0032-.4075.1555-.5439.5693-.671a3.8287,3.8287,0,0,0,1.0983-.8393c.1935-.16.3725-.3368.5632-.5a5.0408,5.0408,0,0,0,.47-.3845.8784.8784,0,0,1,1.1264-.227.8083.8083,0,0,1,.1881,1.29c-.1641.1949-.19.3139-.0165.52a.7571.7571,0,0,1-.07,1.1445,4.7984,4.7984,0,0,0-.6381,1.3274.67.67,0,0,1-.8927.4574,12.5073,12.5073,0,0,0-1.4116-.2663.6571.6571,0,0,1-.65-.4992C108.3669,81.6077,108.2621,81.155,108.1507,80.7041Z"/>
    <path d="M81.6984,90.7069a2.7793,2.7793,0,0,1,.2907-.7533,1.8574,1.8574,0,0,0,.2551-1.3043.845.845,0,0,1,.6625-.9975c.4669-.16.798-.7116,1.1949-1.0836.1484-.1391.3122-.2617.469-.3919a2.3628,2.3628,0,0,1,.3384.4953c.346.96-.1748,1.79-.43,2.6588-.2005.6815-.4361,1.3539-.6076,2.0424-.173.6949-1.2965,1.1447-1.8017.6352-.2139-.2157-.2106-.6507-.2948-.9888a1.2113,1.2113,0,0,1-.0034-.2849Z"/>
    <path d="M128.8792,98.6626c.09-.2332.2092-.39.195-.5331a.5834.5834,0,0,1,.4492-.6794.5436.5436,0,0,0,.4255-.6683,1.4045,1.4045,0,0,1,.01-.5668c.0379-.1232.2-.2854.31-.2877s.323.1706.3229.2665c-.0005.49.011.927.6509,1.0142.03.0041.1008.5639-.0188.6678a12.6829,12.6829,0,0,1-1.6212,1.1735,2.0632,2.0632,0,0,1-.7356.1224,5.4791,5.4791,0,0,1-.4892.4231c-.5663.3949-1.1352.7874-1.7191,1.1554a2.2627,2.2627,0,0,1-1.3325.5052c-.1663-.0083-.3357.14-.5112.1906a.6991.6991,0,0,1-.389.0233c-.05-.0169-.0533-.2062-.0589-.3181-.0381-.7573.5281-1.0188,1.0828-1.2272a7.6661,7.6661,0,0,0,2.3829-1.3429A.6916.6916,0,0,1,128.8792,98.6626Z"/>
    <path d="M114.7067,76.5367c.3768.0138.7154.5284.7346,1.2757a.8315.8315,0,0,1-.929.9119c-.1128-.0145-.2771-.0746-.3137-.1588-.1451-.3343-.25-.6766-.7263-.649a.7328.7328,0,0,1-.1128-.4085c.0306-.3712.13-.7427-.3172-.9589-.0544-.0263-.0382-.176-.081-.2541a2.9372,2.9372,0,0,0-.2423-.3552c-.0373-.0491-.1367-.088-.1336-.1255.0589-.7111-.7123-1.1716-.5727-1.9007a7.2122,7.2122,0,0,1,.22-.9475c.0818-.243.737-.23.8485.0473a2.2588,2.2588,0,0,1,.2056,1.11c-.058.3824.1624.587.3661.5756.6071-.0342.5758.3342.5488.757.4326.0242.8083.17.8353.6334C115.0464,76.2461,114.8,76.4175,114.7067,76.5367Z"/>
    <path d="M114.1862,81.2423c-.0133.1557.017.405-.0452.4308-.4272.177-.2443.493-.229.7833.0433.8208-.054.89-.8261.6194-.06.499-.2211.63-.6561.5114-.08-.0219-.2039-.1-.2068-.158-.03-.5919-.4966-1.201.0747-1.7788.09-.0908.0862-.2932.0912-.4451.0267-.7984.4178-1.0926,1.2013-.9266a3.5448,3.5448,0,0,0,.6258-.0179c.243.0055.64-.0463.6985.0672a.5819.5819,0,0,1-.3258.7807A2.1042,2.1042,0,0,1,114.1862,81.2423Z"/>
    <path d="M36.347,72.3614c-.6027.3622-1.2317.1081-1.8347.027-.224-.03-.4055-.3627-.61-.5535A.9808.9808,0,0,0,32.7541,71.6c-.4744.1966-.71.0708-.68-.2844.0358-.4235.4169-.4627.6929-.4847a3.4653,3.4653,0,0,1,2.7513.654.4.4,0,0,0,.1192.063,2.2784,2.2784,0,0,1,.4922-.3361.3919.3919,0,0,1,.3634.11c.0466.1106-.038.2749-.0617.4171-.0353.2121-.0664.4248-.0992.6373Z"/>
    <path d="M61.2656,52.8322c.3158.06.6747-.01.7512.43s-.2333.6288-.5677.7495a2.9361,2.9361,0,0,1-1.0747.2706,4.0117,4.0117,0,0,1-1.3182-.3457c-.2329-.0982-.0542-.7.2351-.7586C59.9459,53.0455,60.6071,52.9455,61.2656,52.8322Z"/>
    <path d="M127.6406,85.0285c-.6238.1807-.6639.1461-.86-.4413-.0342-.1027-.2227-.1564-.343-.2275-.1322-.0781-.3575-.1269-.3844-.23a4.1562,4.1562,0,0,1-.0624-.817,1.9241,1.9241,0,0,1,.5082.0848c.2234.1022.4171.2674.631.3928.2775.1627.5765.292.8413.4723.6248.4255.64.4268.8746,1.0855.06.1692-.0548.4011-.0894.6042-.18-.0677-.3635-.1294-.54-.2061-.0681-.03-.1248-.1383-.181-.1342C127.6119,85.6435,127.6581,85.329,127.6406,85.0285Z"/>
    <path d="M36.3322,72.3762a2.195,2.195,0,0,1,2.1056.2754.4538.4538,0,0,0,.349.0657.8235.8235,0,0,1,.8276.3751.356.356,0,0,1-.0388.3476c-.1829.1622-1.0448-.14-1.1585-.4152a3.8243,3.8243,0,0,1-2.4342.253c-.1351-.0123-.2526-.2173-.3782-.3333a3.2214,3.2214,0,0,1,.4037-.2146,1.1778,1.1778,0,0,1,.34-.0056c0-.1322,0-.2483-.0007-.3637Z"/>
    <path d="M125.0933,82.8426a.843.843,0,0,0-.0657-.0966c-.2016-.171-.6015-.3012-.3645-.62.0955-.1285.5513-.093.7851.0056.5877.2478.6324.6344.2531,1.1876-.3175.4632-.66.8685-1.2857.74-.176-.0361-.32-.2269-.479-.3467a4.6145,4.6145,0,0,1,.4259-.3971C124.596,83.1446,124.8481,82.9993,125.0933,82.8426Z"/>
    <path d="M118.2153,99.9926c-.4168.0873-.5361-.1276-.4764-.4772a3.7043,3.7043,0,0,1,.2307-.888c.0429-.0961.3023-.1578.4464-.1342.3782.0618.7472.1791,1.12.2744-.0717.2443-.07.5717-.231.715a5.9526,5.9526,0,0,1-1.0441.6209Z"/>
    <path d="M113.7184,85.0313l-.686.113.06.088c-.1694.1219-.3464.35-.5064.3387-.2-.0141-.3863-.2251-.5784-.3512l.0718-.1012a5.2918,5.2918,0,0,1-.7819-.0134.3635.3635,0,0,1-.2231-.2777c.0034-.1233.1077-.332.1969-.3482a1.85,1.85,0,0,1,.7986.0024c.1366.0377.2177.2763.3679.4856-.0345-.6178.3379-.69.7687-.5926.2837.0641.7182.028.6185.5506Z"/>
    <path d="M128.6327,89.5151l.2716-.4727a2.3929,2.3929,0,0,1,.5275.3218,3.4874,3.4874,0,0,1,.62.8069,2.0958,2.0958,0,0,1,.0869.7112c-.2285-.033-.5261.0129-.6719-.1146C129.1032,90.45,128.6481,90.1514,128.6327,89.5151Z"/>
    <path d="M113.7184,85.0313l.1063-.1059a1.4546,1.4546,0,0,1,1.5217-.4511.47.47,0,0,1,.2618.2923c.0146.0666-.1436.1941-.2464.2589a5.6628,5.6628,0,0,1-.8422.4759.8877.8877,0,0,1-.6214.0555C113.7831,85.5057,113.7746,85.215,113.7184,85.0313Z"/>
    <path d="M112.6307,70.4851a3.82,3.82,0,0,1-.1553.6932c-.0675.15-.2081.363-.3288.3715a.6725.6725,0,0,1-.4963-.24,1.1053,1.1053,0,0,1,.15-1.2587.5763.5763,0,0,1,.52-.0544C112.4814,70.1086,112.5518,70.35,112.6307,70.4851Z"/>
    <path d="M112.5794,76.3961c.0007.5841-.345,1.0549-.7289,1.0838-.1543.0117-.4028-.0282-.4535-.1255a.66.66,0,0,1,.0174-.5284,1.743,1.743,0,0,1,.4728-.5714.786.786,0,0,1,.5362-.1538C112.5109,76.1128,112.5653,76.3668,112.5794,76.3961Z"/>
    <path d="M115.9015,81.2976c-.3476.0574-.4973-.0821-.4563-.4169.0322-.2623.0469-.5287.1045-.7854a.41.41,0,0,1,.5916-.29c.1215.0447.217.2905.2345.4549.0223.2091-.0731.4284-.07.6425C116.3112,81.2106,116.2048,81.3584,115.9015,81.2976Z"/>
    <path d="M134.6732,89.2156c-.1133-.1363-.2916-.2584-.3252-.412-.0557-.2556-.0643-.5006.3574-.5555.28-.0365.51-.3319.8652-.2669.3255.06.375.2808.2258.4642a4.5122,4.5122,0,0,1-.7858.667c-.0516.04-.153.0142-.2315.0188Z"/>
    <path d="M56.6444,74.1385c.0739.3077.0348.5084-.3175.49-.2531-.0134-.5793.0859-.47-.3986.0208-.0922-.2022-.2479-.3246-.3616-.1168-.1085-.249-.2-.3745-.3.0706-.089.1562-.2615.209-.252a1.9873,1.9873,0,0,1,.5454.2067c.111.0574.236.2482.2924.2253C56.6929,73.5507,56.7007,73.82,56.6444,74.1385Z"/>
    <path d="M131.5282,87.9128a3.4154,3.4154,0,0,1-.61.8079c-.1542.1087-.4982-.5032-.4964-.9339.0016-.3939.2194-.6394.603-.5331C131.2136,87.3061,131.3262,87.6338,131.5282,87.9128Z"/>
    <path d="M116.3357,82.784a2.0743,2.0743,0,0,1-.4947-.1935.3619.3619,0,0,1-.0873-.3293.3845.3845,0,0,1,.2768-.1794,1.1927,1.1927,0,0,1,.5591.0134c.1463.054.25.2246.3718.3437-.14.0992-.2756.2059-.4226.2934-.0464.0277-.1232.0043-.1861.0043Z"/>
    <path d="M34.683,73.5793c-.23-.2376-.4676-.3682-.4941-.5327-.0665-.4132.2875-.3064.521-.3213.2823-.018.6068.0018.5721.3627C35.2672,73.2406,34.9576,73.3648,34.683,73.5793Z"/>
    <path d="M94.2578,78.8541c-.068.3353-.0822.5609-.4675.5514-.2876-.0071-.4659-.1315-.3654-.3873a3.02,3.02,0,0,1,.4933-.6609Z"/>
    <path d="M82.3759,87.03a7.3122,7.3122,0,0,1-.5888-.6959c-.0376-.0574.0415-.2439.119-.3122.1225-.1081.9482.3677.8957.5149C82.75,86.6821,82.5919,86.79,82.3759,87.03Z"/>
    <path d="M68.493,80.1838l-.5378.7391c-.1-.09-.2985-.24-.286-.26a5.0875,5.0875,0,0,1,.5081-.6756A2.3147,2.3147,0,0,1,68.493,80.1838Z"/>
    <path d="M138.89,87.38c-.0879-.14-.2525-.2869-.24-.4175.01-.113.2071-.26.3471-.2983.2278-.0625.4379.0367.3763.3174-.0326.1483-.1851.27-.2835.4041Z"/>
    <path d="M35.6546,70.5673l.2608-.4137a2.1869,2.1869,0,0,1,.2487.4579.8567.8567,0,0,1-.0306.4462c-.0094.0321-.2541.0555-.291.0071A2.001,2.001,0,0,1,35.6546,70.5673Z"/>
    <path d="M137.218,89.45c.0862.128.2525.2667.2373.3812a.4909.4909,0,0,1-.3156.3244c-.08.02-.2883-.1638-.3061-.277-.02-.1264.1107-.2764.1758-.4162Z"/>
    <path d="M137.8044,89.0919c-.0759-.1338-.23-.2842-.2066-.3969a.4953.4953,0,0,1,.337-.3032c.08-.0153.2753.1832.2854.2974.0112.127-.1292.2673-.2036.4019Z"/>
    <path d="M118.1992,78.1036c-.0593-.1322-.1843-.2785-.16-.3929.0255-.1195.1949-.2082.3013-.31.0827.11.2267.2175.2317.3311.0054.1237-.1181.2531-.1854.38Z"/>
    <path d="M135.8794,84.7814c.13.2307.2647.3638.242.46a.4285.4285,0,0,1-.3053.242c-.0641.0106-.2276-.1737-.2242-.2655C135.5961,85.1051,135.7282,84.9975,135.8794,84.7814Z"/>
    <path d="M133.72,77.7743c-.2233.143-.3478.2848-.4447.268a.4241.4241,0,0,1-.2581-.2893c-.014-.0648.1587-.2378.25-.24C133.38,77.51,133.4947,77.6354,133.72,77.7743Z"/>
    <path d="M87.7387,83.2779c-.2125.1572-.3271.3069-.4255.297a.42.42,0,0,1-.2756-.2713c-.018-.0657.1421-.25.2325-.2577C87.3825,83.0363,87.5056,83.1542,87.7387,83.2779Z"/>
    <path d="M42.428,75.3124c-.2287.1336-.3593.2706-.4554.25a.4273.4273,0,0,1-.2467-.3007c-.0116-.0641.1691-.23.2611-.2287C42.0988,75.0345,42.2085,75.1645,42.428,75.3124Z"/>
    <path d="M88.0264,89.6894c-.22.1474-.3416.2917-.439.277a.4227.4227,0,0,1-.2635-.2837c-.0152-.065.1535-.2416.2447-.2455C87.6806,89.4323,87.7981,89.5552,88.0264,89.6894Z"/>
    <path d="M134.4834,80.4443c-.2229.1435-.347.2855-.4441.269a.4237.4237,0,0,1-.2586-.2886c-.0141-.0648.1582-.2386.2493-.2407C134.1425,80.1814,134.2579,80.3062,134.4834,80.4443Z"/>
    <path d="M131.3883,80.7744c.1336.2287.2706.3593.25.4554a.4273.4273,0,0,1-.3007.2467c-.0642.0116-.23-.1691-.2287-.2611C131.11,81.1036,131.24,80.9939,131.3883,80.7744Z"/>
    <path d="M127.9893,77.8052c-.2117.1309-.3166.248-.413.2413-.1035-.0072-.199-.1306-.298-.2033.0875-.0841.1663-.221.2651-.2373S127.7591,77.6951,127.9893,77.8052Z"/>
    <path d="M138.3053,87.4589c.1128.2277.22.344.2049.4416-.0152.0995-.15.1806-.233.27-.0741-.0977-.1992-.1911-.2076-.2942C138.0617,87.78,138.1772,87.6729,138.3053,87.4589Z"/>
    <path d="M74.7278,66.174a3.1426,3.1426,0,0,1-.6263-.1426c-.1083-.0476-.1657-.2113-.246-.3227.1133-.078.2186-.2025.3417-.2238a5.0059,5.0059,0,0,1,.66-.0122c.2873-.0106.5149.0685.5118.3986-.0033.35-.2887.2486-.4919.2665-.0469.0041-.0945.0006-.1418.0006Z"/>
    <path d="M66.1452,63.5494a6.7137,6.7137,0,0,1,.689-.0558.9952.9952,0,0,1,.3208.1245c-.0463.1043-.0641.2568-.1441.3042a6.8143,6.8143,0,0,1-.9046.4473.3725.3725,0,0,1-.3142-.0755c-.0395-.0335-.0022-.2.0433-.2824a5.5958,5.5958,0,0,1,.3237-.4765Z"/>
  </g>
</svg>
