<?xml version="1.0" encoding="UTF-8"?>
<svg width="50px" height="50px" viewBox="0 0 50 50" version="1.1" xmlns="http://www.w3.org/2000/svg" xmlns:xlink="http://www.w3.org/1999/xlink">
    <!-- Generator: sketchtool 49.1 (51147) - http://www.bohemiancoding.com/sketch -->
    <title>icons/icongrid-chat</title>
    <desc>Created with sketchtool.</desc>
    <defs></defs>
    <g id="Page-1" stroke="none" stroke-width="1" fill="none" fill-rule="evenodd">
        <g id="Artboard" transform="translate(-85.000000, -447.000000)" fill="#000000">
            <path d="M119.796875,460.976562 C121.265632,462.820322 122,464.828114 122,467 C122,469.171886 121.265632,471.179678 119.796875,473.023438 C118.328118,474.867197 116.324231,476.324213 113.785156,477.394531 C111.246081,478.464849 108.48439,479 105.5,479 C104.156243,479 102.781257,478.875001 101.375,478.625 C99.4374903,480.000007 97.265637,480.999997 94.859375,481.625 C94.2968722,481.765626 93.6250039,481.890624 92.84375,482 L92.7734375,482 C92.6015616,482 92.441407,481.937501 92.2929688,481.8125 C92.1445305,481.687499 92.0546877,481.523439 92.0234375,481.320312 C92.0078124,481.273437 92,481.222657 92,481.167969 C92,481.113281 92.0039062,481.0625 92.0117187,481.015625 C92.0195313,480.96875 92.0351561,480.921875 92.0585938,480.875 L92.1171875,480.757813 C92.1328126,480.726562 92.1601561,480.683594 92.1992188,480.628906 C92.2382814,480.574218 92.2695311,480.535156 92.2929688,480.511719 C92.3164064,480.488281 92.3515623,480.449219 92.3984375,480.394531 C92.4453127,480.339843 92.4765624,480.304688 92.4921875,480.289063 C92.5703129,480.195312 92.7499986,480.000001 93.03125,479.703125 C93.3125014,479.406249 93.5156244,479.175782 93.640625,479.011719 C93.7656256,478.847655 93.9414051,478.621095 94.1679687,478.332031 C94.3945324,478.042967 94.5898429,477.742189 94.7539063,477.429688 C94.9179696,477.117186 95.0781242,476.773439 95.234375,476.398437 C93.2968653,475.273432 91.773443,473.890633 90.6640625,472.25 C89.554682,470.609367 89,468.859384 89,467 C89,464.828114 89.7343677,462.820322 91.203125,460.976562 C92.6718823,459.132803 94.6757686,457.675787 97.2148438,456.605469 C99.7539189,455.535151 102.51561,455 105.5,455 C108.48439,455 111.246081,455.535151 113.785156,456.605469 C116.324231,457.675787 118.328118,459.132803 119.796875,460.976562 Z M131,472.731793 C131,474.639997 130.436514,476.424936 129.309524,478.086664 C128.182534,479.748392 126.63493,481.151696 124.666667,482.296618 C124.825398,482.678259 124.988094,483.028091 125.154762,483.346125 C125.321429,483.664159 125.51984,483.970262 125.75,484.264444 C125.98016,484.558625 126.15873,484.789197 126.285714,484.956164 C126.412699,485.123132 126.619046,485.357679 126.904762,485.659811 C127.190478,485.961944 127.373015,486.160712 127.452381,486.256122 C127.468254,486.272024 127.5,486.307802 127.547619,486.363458 C127.595238,486.419114 127.630952,486.458868 127.654762,486.48272 C127.678572,486.506573 127.710317,486.546326 127.75,486.601982 C127.789683,486.657638 127.81746,486.701367 127.833333,486.733171 L127.892857,486.852433 C127.916667,486.900138 127.93254,486.947842 127.940476,486.995548 C127.948413,487.043253 127.952381,487.094932 127.952381,487.150588 C127.952381,487.206244 127.944445,487.257924 127.928571,487.305629 C127.880952,487.528253 127.777779,487.703169 127.619048,487.830383 C127.460317,487.957596 127.285715,488.013251 127.095238,487.99735 C126.301583,487.886038 125.61905,487.758826 125.047619,487.615711 C122.603162,486.979643 120.396835,485.961949 118.428571,484.562599 C116.999993,484.817027 115.603181,484.944238 114.238095,484.944238 C109.936486,484.944238 106.190492,483.894742 103,481.795717 C103.92064,481.859324 104.619045,481.891127 105.095238,481.891127 C107.650806,481.891127 110.103163,481.533344 112.452381,480.817767 C114.801599,480.102191 116.896816,479.076546 118.738095,477.740804 C120.722232,476.277847 122.246026,474.592292 123.309524,472.684088 C124.373021,470.775884 124.904762,468.756398 124.904762,466.62557 C124.904762,465.401139 124.722224,464.192628 124.357143,463 C126.404772,464.129021 128.023804,465.544251 129.214286,467.245733 C130.404768,468.947215 131,470.775883 131,472.731793 Z" id=""></path>
        </g>
    </g>
</svg>