<?xml version="1.0" encoding="UTF-8"?>
<svg width="50px" height="50px" viewBox="0 0 50 50" version="1.1" xmlns="http://www.w3.org/2000/svg" xmlns:xlink="http://www.w3.org/1999/xlink">
    <!-- Generator: sketchtool 49.1 (51147) - http://www.bohemiancoding.com/sketch -->
    <title>icons/icongrid-email</title>
    <desc>Created with sketchtool.</desc>
    <defs></defs>
    <g id="Page-1" stroke="none" stroke-width="1" fill="none" fill-rule="evenodd">
        <g id="Artboard" transform="translate(-85.000000, -185.000000)" fill="#000000">
            <path d="M131,204 L131,222.310273 C131,223.324953 130.641559,224.193567 129.924665,224.916143 C129.207772,225.638718 128.345987,226 127.339286,226 L93.6607143,226 C92.6540128,226 91.7922283,225.638718 91.0753348,224.916143 C90.3584414,224.193567 90,223.324953 90,222.310273 L90,204 C90.6711343,204.753323 91.4414019,205.42208 92.3108259,206.006289 C97.8324309,209.788279 101.622758,212.440244 103.68192,213.962264 C104.551344,214.60797 105.256787,215.111459 105.79827,215.472746 C106.339753,215.834034 107.060449,216.203003 107.960379,216.579665 C108.86031,216.956326 109.699215,217.144654 110.477121,217.144654 L110.522879,217.144654 C111.300785,217.144654 112.13969,216.956326 113.039621,216.579665 C113.939551,216.203003 114.660247,215.834034 115.20173,215.472746 C115.743213,215.111459 116.448656,214.60797 117.31808,213.962264 C119.911099,212.071269 123.709052,209.419304 128.712054,206.006289 C129.581478,205.406706 130.344119,204.737949 131,204 Z M131,197.571429 C131,198.74703 130.626306,199.87053 129.878906,200.941964 C129.131507,202.013398 128.201084,202.928568 127.087612,203.6875 C121.352464,207.571448 117.783303,209.989579 116.380022,210.941964 C116.227492,211.046131 115.903369,211.273064 115.407645,211.622768 C114.911921,211.972472 114.500095,212.255207 114.172154,212.470982 C113.844213,212.686757 113.44764,212.92857 112.982422,213.196429 C112.517204,213.464287 112.078685,213.665178 111.666853,213.799107 C111.25502,213.933036 110.8737,214 110.522879,214 L110.477121,214 C110.1263,214 109.74498,213.933036 109.333147,213.799107 C108.921315,213.665178 108.482796,213.464287 108.017578,213.196429 C107.55236,212.92857 107.155787,212.686757 106.827846,212.470982 C106.499905,212.255207 106.088079,211.972472 105.592355,211.622768 C105.096631,211.273064 104.772508,211.046131 104.619978,210.941964 C103.23195,209.989579 101.23383,208.631705 98.625558,206.868304 C96.0172861,205.104902 94.4538716,204.044645 93.9352679,203.6875 C92.9895786,203.062497 92.0972884,202.20313 91.2583705,201.109375 C90.4194527,200.01562 90,199.000005 90,198.0625 C90,196.90178 90.3164961,195.934528 90.9494978,195.160714 C91.5824994,194.386901 92.4862292,194 93.6607143,194 L127.339286,194 C128.330734,194 129.188705,194.349699 129.913225,195.049107 C130.637745,195.748515 131,196.589281 131,197.571429 Z" id=""></path>
        </g>
    </g>
</svg>