<?xml version="1.0" encoding="UTF-8"?>
<svg width="49px" height="50px" viewBox="0 0 49 50" version="1.1" xmlns="http://www.w3.org/2000/svg" xmlns:xlink="http://www.w3.org/1999/xlink">
    <!-- Generator: sketchtool 49.1 (51147) - http://www.bohemiancoding.com/sketch -->
    <title>icons/icongrid-twitter</title>
    <desc>Created with sketchtool.</desc>
    <defs></defs>
    <g id="Page-1" stroke="none" stroke-width="1" fill="none" fill-rule="evenodd">
        <g id="Artboard" transform="translate(-85.000000, -357.000000)" fill="#000000">
            <path d="M130,369.877551 C128.866323,371.544226 127.495778,372.96428 125.888325,374.137755 C125.905245,374.375852 125.913706,374.732991 125.913706,375.209184 C125.913706,377.420079 125.59222,379.62669 124.949239,381.829082 C124.306257,384.031474 123.32911,386.144548 122.017766,388.168367 C120.706423,390.192187 119.145525,391.982135 117.335025,393.538265 C115.524526,395.094396 113.341806,396.33588 110.786802,397.262755 C108.231798,398.18963 105.499169,398.653061 102.588832,398.653061 C98.0033612,398.653061 93.8071256,397.42008 90,394.954082 C90.5922195,395.022109 91.2521114,395.056122 91.9796954,395.056122 C95.7868211,395.056122 99.1793421,393.882665 102.15736,391.535714 C100.380702,391.501701 98.7901931,390.953237 97.3857868,389.890306 C95.9813805,388.827376 95.0169231,387.471097 94.4923858,385.821429 C95.0507642,385.906463 95.5668335,385.94898 96.0406091,385.94898 C96.7681931,385.94898 97.4873061,385.855443 98.1979695,385.668367 C96.302867,385.277209 94.7335088,384.329089 93.4898477,382.82398 C92.2461867,381.31887 91.6243655,379.571439 91.6243655,377.581633 L91.6243655,377.479592 C92.7749635,378.125854 94.0101457,378.47449 95.3299492,378.52551 C94.2131924,377.777207 93.3248764,376.799326 92.6649746,375.591837 C92.0050728,374.384348 91.6751269,373.074837 91.6751269,371.663265 C91.6751269,370.166659 92.0473736,368.780619 92.7918782,367.505102 C94.8392657,370.039128 97.3307806,372.067169 100.266497,373.589286 C103.202214,375.111402 106.345161,375.957482 109.695431,376.127551 C109.560067,375.481289 109.492386,374.852044 109.492386,374.239796 C109.492386,371.960873 110.29187,370.017865 111.890863,368.410714 C113.489856,366.803563 115.423001,366 117.690355,366 C120.059234,366 122.055829,366.867338 123.680203,368.602041 C125.524544,368.244896 127.258875,367.581638 128.883249,366.612245 C128.257188,368.568037 127.055846,370.081627 125.279188,371.153061 C126.8528,370.982992 128.426388,370.557827 130,369.877551 Z" id=""></path>
        </g>
    </g>
</svg>