<svg id="Layer_1" data-name="Layer 1" xmlns="http://www.w3.org/2000/svg" width="34" height="34" viewBox="0 0 34 34">
  <title>icon-open-website</title>
  <path d="M26.1426,19.8574v5.7139A5.1514,5.1514,0,0,1,21,30.7144H6.1426a4.9527,4.9527,0,0,1-3.6338-1.5088A4.9538,4.9538,0,0,1,1,25.5713V10.7144A4.9534,4.9534,0,0,1,2.5088,7.0806,4.9531,4.9531,0,0,1,6.1426,5.5713H18.7139a.5515.5515,0,0,1,.5723.5718V7.2856a.5515.5515,0,0,1-.5723.5718H6.1426a2.7529,2.7529,0,0,0-2.0176.8389,2.7521,2.7521,0,0,0-.8389,2.0181V25.5713a2.7505,2.7505,0,0,0,.8389,2.0181,2.7515,2.7515,0,0,0,2.0176.8394H21a2.8666,2.8666,0,0,0,2.8574-2.8574V19.8574a.5493.5493,0,0,1,.5713-.5718h1.1426a.5493.5493,0,0,1,.5713.5718ZM33,4.4287v9.1426a1.1363,1.1363,0,0,1-1.9463.8037l-3.1426-3.1426L16.2676,22.875a.5611.5611,0,0,1-.8213,0l-2.0352-2.0356a.5611.5611,0,0,1,0-.8213L25.0537,8.375,21.9111,5.2324a1.12,1.12,0,0,1,0-1.6074,1.0959,1.0959,0,0,1,.8027-.3394h9.1436A1.1581,1.1581,0,0,1,33,4.4287Z"/>
</svg>
