<svg class="icon-domestic" xmlns="http://www.w3.org/2000/svg" width="152" height="152" viewBox="0 0 152 152">
  <path class="bg" d="M76,151A75,75,0,1,1,151,76,75.0845,75.0845,0,0,1,76,151Z" style="fill: none"/>
  <circle class="ring" cx="76" cy="76" r="72.4836" style="fill: none;stroke-miterlimit: 10;stroke-width: 5.032698506262987px"/>
  <g class="icon">
    <path d="M88.2066,62.95a10.4451,10.4451,0,0,0-9.2782,5.6505,10.45,10.45,0,0,0-19.7329,4.8028c0,14.8787,19.7329,25.86,19.7329,25.86s19.7322-12.371,19.7322-25.86A10.4536,10.4536,0,0,0,88.2066,62.95Z"/>
    <path d="M118.4134,40.6532,96.4478,28.9249a13.5714,13.5714,0,0,0-6.3948-1.5995H73.8837a13.5736,13.5736,0,0,0-9.814,4.1953L51.9591,44.1944,39.9358,60.6974s4.0075,4.48,10.1376-.9427A87.3038,87.3038,0,0,0,60.9177,47.9658l11.9393-6.765a5.0091,5.0091,0,0,1,.6558-2.1219,4.8892,4.8892,0,0,1,1.91-1.8675,4.76,4.76,0,0,1,2.5837-.56l4.7193.3745,9.4146.8305.0432.0034.033.02,1.9089,1.1237,4.8,2.8276L94.9688,39.31l7.9727,4.8864-.084.14-.0027-.0009-9.52-5.4218L92.0814,38.2,85.13,37.9786l-2.4565-.0778-4.7117-.2a3.6331,3.6331,0,0,0-1.9437.5475,3.6376,3.6376,0,0,0-1.0361,5.1786,3.2971,3.2971,0,0,0,.6694.6841,3.0729,3.0729,0,0,0,.3685.2493c.1.0682.3789.1833.4654.2283l2.19.8831c2.9159,1.1912,5.856,2.3233,8.7407,3.588l.1617.0718.1152.1143c1.7126,1.7022,3.3231,3.5169,5.106,5.0082a34.009,34.009,0,0,0,5.8621,3.9072,32.6052,32.6052,0,0,0,10.1583,3.1917l3.5828.507A33.69,33.69,0,0,0,126.603,60.053c9.1971-3.3386,11.4581-8.6827,14.2906-10.1638a69.9038,69.9038,0,0,0-8.1464-14.7443l-8.087,3.4617A39.8349,39.8349,0,0,1,118.4134,40.6532Z"/>
    <path d="M33.5868,111.3459l21.9655,11.7292a13.582,13.582,0,0,0,6.3949,1.5995H78.1162a13.5783,13.5783,0,0,0,9.8141-4.1953l12.1108-12.6738,12.0233-16.5031s-4.0074-4.48-10.1378.9428a87.3092,87.3092,0,0,0-10.8444,11.7889l-11.9393,6.765a5,5,0,0,1-.6556,2.121,4.89,4.89,0,0,1-1.91,1.8684,4.7674,4.7674,0,0,1-2.5837.56l-4.7184-.3754-9.4146-.83-.0441-.0043-.0328-.0189-1.9083-1.1246-4.8024-2.8276,3.9581,2.5222-7.97-4.8854-.0024-.0018.0847-.14,9.5218,5.4227,1.2533.7145,6.9528.2205,2.4559.0787,4.7114.2a3.6355,3.6355,0,0,0,1.9437-.5483,3.6367,3.6367,0,0,0,1.0364-5.1788,3.3,3.3,0,0,0-.67-.6833,3.0367,3.0367,0,0,0-.3685-.2491c-.0994-.0693-.3787-.1842-.4653-.2285l-2.19-.884c-2.9158-1.19-5.8551-2.3224-8.74-3.5871l-.1627-.0717-.1149-.1143c-1.7127-1.7023-3.3234-3.5178-5.1061-5.0091A33.9655,33.9655,0,0,0,53.34,93.8386,32.6419,32.6419,0,0,0,43.1812,90.646L39.5983,90.14A33.681,33.681,0,0,0,25.3969,91.947C16.2,95.2857,13.9388,100.629,11.1062,102.1109a69.9023,69.9023,0,0,0,8.1465,14.7442l8.087-3.4617A39.9572,39.9572,0,0,1,33.5868,111.3459Z"/>
  </g>
</svg>
