<svg class="icon-domestic" xmlns="http://www.w3.org/2000/svg" width="152" height="152" viewBox="0 0 152 152">
  <path class="bg" d="M76,151A75,75,0,1,1,151,76,75.0845,75.0845,0,0,1,76,151Z" style="fill: none"/>
  <circle class="ring" cx="76" cy="76" r="72.4836" style="fill: none;stroke-miterlimit: 10;stroke-width: 5.032698506262987px"/>
  <path class="icon" d="M71.4843,108.2172c.1692-.3063.124-.4668-.2393-.6806-.3082-.1814-.4847-.58-.7353-.8682-.1508-.1737-.3319-.3211-.4995-.48-.0461-.0438-.1144-.0785-.1355-.132-.1752-.4436-.34-.8911-.5113-1.3363a4.2187,4.2187,0,0,0-.3976-.9708,11.76,11.76,0,0,0-1.121-1.2608.63.63,0,0,0-.3771-.1,2.5307,2.5307,0,0,1-1.3727-.2215c-.2157-.1437-.9286.3136-1.0557.5581a13.634,13.634,0,0,1-.7716,1.2877.3706.3706,0,0,1-.3561.04c-.355-.224-.6852-.4868-1.0284-.73-.2546-.18-.5206-.3453-.7722-.53a2.3879,2.3879,0,0,1-.9509-1.8643,1.7908,1.7908,0,0,0-1.0138-1.5452.7477.7477,0,0,1-.247-.2025c-.3087-.3845-.608-.7765-.9128-1.1641a.29.29,0,0,0-.1184-.1006.6629.6629,0,0,1-.5322-.6015.5223.5223,0,0,0-.3587-.321c-1.04-.1954-2.0865-.36-3.1311-.5322-.0227-.0037-.0494.0168-.1006.0359-.0276.1573-.0471.331-.09.4988-.1443.5692-.1507.5909-.726.5081-1.4635-.2105-2.9191-.4846-4.387-.654a8.0528,8.0528,0,0,1-3.0276-1.4309c-1.46-.8322-2.9015-1.6976-4.3558-2.54-.3054-.177-.2887-.38-.0728-.6687-.5593-.0771-1.0845-.1568-1.6117-.2205-.9485-.1147-1.899-.2138-2.8462-.3386a.3772.3772,0,0,1-.2387-.2447,1.4645,1.4645,0,0,1-.01-.5249,2.366,2.366,0,0,0-.7146-1.9376c-.2522-.2909-.4-.6274-.8638-.56a.3428.3428,0,0,1-.1022-.243c.0809-.2948-.0463-.4156-.3139-.4833a1.2245,1.2245,0,0,1-.9751-.9482.5887.5887,0,0,0-.5-.4793,10.0493,10.0493,0,0,1-1.5528-.538c-.1324-.0571-.23-.2926-.26-.4612a.9327.9327,0,0,1,.0873-.508c.264-.5988-.05-1.0611-.3095-1.555A5.0751,5.0751,0,0,1,31.45,82.09a2.5919,2.5919,0,0,0-.5832-1.2531c-.2771-.2855-.1507-.6478.1784-.885.1449-.1044.1894-.348.28-.5287a1.603,1.603,0,0,1-.8144-1.8842.9829.9829,0,0,0-.2763-1.1159,1.0242,1.0242,0,0,1-.1638-.496c-.0515-.264-.0513-.5408-.1252-.797a2.07,2.07,0,0,0-.3069-.61,1.9763,1.9763,0,0,1-.0591-2.0356A1.9767,1.9767,0,0,0,29.31,70.824a1.0943,1.0943,0,0,1,.1305-1.2561c.2274-.26.4019-.5657.6265-.8284a2.6432,2.6432,0,0,0,.4416-1.9592c-.0251-.4859.0353-.9559.02-1.4307a1.9362,1.9362,0,0,1,.4167-1.2619,19.4964,19.4964,0,0,0,2.5326-5.6323c.1191-.37.2847-.7241.4684-1.1847-.1969-.4552-.1969-.4552.2916-.8332l-.2959-.7553H34.57a1.6011,1.6011,0,0,1-.4972-1.6573c.04-.31.1193-.6009-.1191-.8743-.0479-.0549-.0183-.1954.0039-.29a6.0182,6.0182,0,0,1,.1787-.6133c.0283-.0808.0857-.1918.15-.208s.1684.0548.229.1141a1.9752,1.9752,0,0,0,1.3935.7845c.1457-.0006.2919.1258.5371.24l.1582-.9512c.7141-.1893.8257-.14.7034.3723l.4088.3051a.5583.5583,0,0,0-.0919-.7955c-.1045-.0946-.1068-.302-.1557-.458a1.331,1.331,0,0,1,.5125-.068c1.0659.3176,2.1108.7131,3.1869.9876q3.096.79,6.22,1.47,3.2445.7025,6.5133,1.2912c1.6656.2984,3.3447.5269,5.0226.7493,1.9887.2637,3.98.5177,5.9753.7182,1.3691.1376,2.747.2073,4.1227.2542,3.4067.1161,6.8144.2017,10.2218.2992a1.8973,1.8973,0,0,1,.2838.0048c.4138.0759.5525-.1421.5743-.51a2.0382,2.0382,0,0,1,.0752-.3356c.6277.0758.5639.0937.73.7892a2.3839,2.3839,0,0,0,.1428.5785.6319.6319,0,0,0,.37.222c.3219.0912.6585.1323.977.2327.1782.0561.2817.1563.4893-.0218.32-.2744.7067-.1266,1.0521.0352a2.6,2.6,0,0,1,.3395.2191c.2685.1819.5394.324.7639.0957a4.3377,4.3377,0,0,0,.89.5751c.1952.0673.469-.0649.6989-.1359.1943-.06.3806-.3476.5576.0194.0095.02.05.044.0654.0382.7558-.2821,1.467.3114,2.2494.0891a2.5444,2.5444,0,0,0,1.1144-.38c.0533-.0464.1668-.0237.2706.0067-.363.4067-.5188.9983-1.2875.94a5.0753,5.0753,0,0,0-2.5548.7835.7829.7829,0,0,0-.2893.4151,1.19,1.19,0,0,1-.6079.7152,1.0613,1.0613,0,0,0-.2206.1768c-.2123.1817-.4237.3644-.6637.5711a.3805.3805,0,0,0,.49.1191,1.7888,1.7888,0,0,0,1.0248-.5731c.1051-.1493.273-.38.5353-.1755s.1782.4111.0129.6267a1.2011,1.2011,0,0,0-.105.2334c.6325.1363,1.1542.098,1.4636-.55a.3389.3389,0,0,1,.2994-.1312,1.1279,1.1279,0,0,0,1.3333-.6441,2.8385,2.8385,0,0,1,1.5357-1.0732c.0867-.038.2372.0692.3581.1093-.0559.0956-.0885.2361-.1716.2793a1.5532,1.5532,0,0,0-.8764,1.3219l.395-.3761a1.48,1.48,0,0,1,1.2217.7489c.0284.052.1275.1239.1528.11.3535-.19.6775.0785.997.0532.2407-.0191.46-.2784.6942-.4215.1264-.0772.298-.2212.3917-.1853.3172.1216.526-.04.7751-.1715a7.7621,7.7621,0,0,1,.883-.3339l-.0826.81,1.6086-.2974v.8616a5.5011,5.5011,0,0,1,.8028.0114c.1223.019.2259.1576.338.242-.0828.1077-.1534.2935-.2505.3086a6.8606,6.8606,0,0,1-.95.0413c-.1472.0021-.2946-.0156-.4421-.0185-.3946-.0078-.79-.0271-1.1837-.0121a2.1551,2.1551,0,0,0-.5743.1288c-.1354.0443-.2623.193-.3848.184-.46-.0337-.8436.0163-.9075.4874l-1.0777.1223L92.1641,67.097l.0371.0341,1.4226-1.7262.1295.0289a2.2918,2.2918,0,0,1-.0451.5359c-.0987.3048-.2432.5947-.3659.892-.1334.3231-.3848.6209-.1637,1.0138a.3491.3491,0,0,1-.0875.3274c-.3045.2176-.1968.4752-.1524.759a1.8744,1.8744,0,0,1-.0534.69,1.3389,1.3389,0,0,0-.0823.8656,9.1178,9.1178,0,0,1,.2835,1.8473c.0263.225-.012.4435.2241.6057a.6416.6416,0,0,1,.1819.3918c.11.6028.4122.6831.9484.4093.9544-.4873,1.0721-1.3811,1.2469-2.2651a.5256.5256,0,0,0-.0667-.2687,7.4265,7.4265,0,0,0-.3871-.8835,3.5535,3.5535,0,0,1-.1963-2.8468,2.0506,2.0506,0,0,0,.0043-.57c-.0014-.0523-.0551-.122-.0357-.1533.1756-.2838.356-.5651.5479-.838.1046-.1487.2358-.2785.352-.4192.0824-.1.16-.2036.2394-.3056l.1325.0715-.1293.9162c.2813-.003.4058-.0948.3433-.3592-.0062-.0263-.0175-.0516-.0219-.0782-.11-.6718-.0434-.7774.6565-.9926a.8489.8489,0,0,1-.1495-.0753c-.0993-.0827-.274-.1751-.27-.257a.4833.4833,0,0,1,.2336-.3214,1.6331,1.6331,0,0,1,1.296.0006,9.0988,9.0988,0,0,1,1.4857.655c.3513.1707.4293.3944.0048.6483a1.1461,1.1461,0,0,1,.3168,1.4066c-.1119.3557-.0724.8644-.5648,1.0919-.1052.0486-.0561.4394-.0626.673,0,.0142.1769.07.2027.0425.2326-.2493.4353-.5274.6761-.7676.1877-.1873.45-.4929.62-.4579a1.02,1.02,0,0,1,.6041.5764,9.715,9.715,0,0,1,.51,1.7673,3.7629,3.7629,0,0,1-.0369,1.1445c-.0066.053-.2776.073-.5274.1322-.1349.139.2123.6484-.3317.6694.0464.322.1544.6151-.2458.8065a.275.275,0,0,0,.024.5138,1.177,1.177,0,0,0,.5638.1835c.397-.0219.7213.0479.8553.3475.4726-.1616.8944-.2971,1.3085-.4529a.9449.9449,0,0,0,.3256-.2281,7.0548,7.0548,0,0,1,1.8123-1.31,9.4575,9.4575,0,0,0,1.7776-1.5009,4.5087,4.5087,0,0,0,.4732-.6018c.1742-.225.1289-.3387-.1462-.4541a.6313.6313,0,0,1-.2991-.4443c-.021-.1664.0644-.4743.17-.5075a11.5724,11.5724,0,0,1,1.7888-.4241c.2036-.03.4392.16.6327.1419.3013-.08.6092-.1415.9015-.2465a1.4222,1.4222,0,0,0,.4608-.2942c.2153-.1974.4056-.4222.6475-.6789a.4665.4665,0,0,1,.0642-.7242c-.2265-.1337-.6287-.0733-.5089-.4553a2.0587,2.0587,0,0,1,.3539-.5961c.4074-.5346.8427-1.0482,1.2407-1.59a1.25,1.25,0,0,1,1.0076-.5892,7.9772,7.9772,0,0,0,2.2419-.4455c.7271-.1827,1.44-.42,2.16-.6342.1984-.059.3635-.1134.3545-.3971-.015-.4755.4695-.3108.6988-.4817a.1985.1985,0,0,1,.1475-.015l.5585-1.6795c-.3411-.3847-.3628-.6117-.091-1.1431a.5423.5423,0,0,0,.0612-.3011c-.1282-.9122.4386-1.6323.6746-2.4427.0188-.0645.1759-.1272.2643-.1214a.3667.3667,0,0,1,.22.1694,1.8174,1.8174,0,0,1,.1332.3636c.2282-.206.4347-.3689.6122-.5588a.5233.5233,0,0,1,.6768-.1114,1.4024,1.4024,0,0,1,.9192,1.1015c.1586.7041.3847,1.393.5783,2.0894a.4276.4276,0,0,0,.4626.36c.3966-.0116.48.0877.4091.4786-.0749.412-.0809.3891.3355.28a.554.554,0,0,1,.4475.1523,4.608,4.608,0,0,1,.4574.7c-.5316.5059-1.0975,1.0408-1.6572,1.5822a.7791.7791,0,0,0-.1348.24c-.1207.2633-.1191.2641-.3615.0767l-.4011.8371c-.472-.12-.6754.24-.9262.5778a.83.83,0,0,1-.8094.432c-.3376-.0582-.3924.0553-.3758.3962a7.0473,7.0473,0,0,1-.1737,1.1514c-.0536.4362-.2894.8655.0147,1.3218.0807.1211-.0691.3816-.0728.5789-.0021.1116.0711.3185.1219.3222.412.03.5582.3191.71.6327.1363.2824.3469.4221.6448.1943.0656-.05.1534-.1462.1424-.2042a.5148.5148,0,0,0-.1742-.244,2.54,2.54,0,0,0-.2936-.2037c.0562-.0667.1184-.1935.1673-.1886.1378.014.3279.0421.3933.1367a6.2662,6.2662,0,0,1,.4029.7588,12.6438,12.6438,0,0,1-1.1741.8388c-.3088.1732-.7064.1906-1.01.3694a2.41,2.41,0,0,0-.9134.7776,4.5872,4.5872,0,0,1-2.3125,2.1244c-.1972.0817-.4053.1372-.585.197a2.5749,2.5749,0,0,0-.1081.9409c.2987,1.0407-.2957,1.824-.65,2.691-.2385.5841-.5982,1.1746-.251,1.8592a.6362.6362,0,0,1-.0436.43c-.1611.45-.344.8912-.5163,1.3368a1.6276,1.6276,0,0,0-.0663.2266c-.087.3833-.06.8577-.2823,1.13-.3755.4616-.0522.6989.1346,1.0164.1662.2824.3132.5764.4857.8548a7.8082,7.8082,0,0,0,.6835,1.022,1.6053,1.6053,0,0,1,.2851,1.5377.4139.4139,0,0,1-.1855.1844,1.96,1.96,0,0,0-1.1083,1.0762.8949.8949,0,0,1-.7341.5731,2.0317,2.0317,0,0,0-1.7257,1.6033.7375.7375,0,0,1-.8632.7027c-.3-.013-.44.1445-.6122.3628a2.1845,2.1845,0,0,0-.6661,1.5857c.0145.1739-.2482.466-.4441.5373-.2225.0809-.2388.2335-.3455.37-.2539.3255-.5971.586-.8246.926-.1534.2292-.5606.2615-.5019.671.0114.0793-.2249.2052-.3586.2915-.1963.1268-.4041.234-.3394.5285a.2059.2059,0,0,1-.0361.153,4.6537,4.6537,0,0,0-.6665,2.4686,4.2765,4.2765,0,0,0,.6217,2.3037,6.8842,6.8842,0,0,0,1.9165,2.7147.5076.5076,0,0,1,.1242.44,1.0957,1.0957,0,0,0,.3538,1.1808,1.0542,1.0542,0,0,1,.3018.3118,7.3387,7.3387,0,0,1,1.161,3.4332,10.2485,10.2485,0,0,1,0,1.8249c-.1187.6346-.3147.7948-.96.8646a1.5847,1.5847,0,0,0-.4771.1306c-.3478.158-.5653.0518-.6256-.3273-.0852-.5354-.4886-1.1174-.8441-1.0508-.41.0768-.509-.1813-.6875-.3918a.5776.5776,0,0,1-.0851-.1786c-.1048-.29-.2069-.5813-.3347-.942-.4137.4189-.6042.1942-.726-.1161a3.8024,3.8024,0,0,0-1.3077-1.8293l.1533-.3249a1.4549,1.4549,0,0,1-.5382-1.2868c.0586-.3995.11-.8007.1445-1.2029a1.1537,1.1537,0,0,0-.8836-1.1067,1.8556,1.8556,0,0,1-.9261-.7418,1.963,1.963,0,0,0-1.4395-.9217c-.1584-.0105-.3181-.0016-.5184-.0016.0633.3075.0242.5135-.3309.475-.0743-.0081-.1667.0737-.2381.13a1.2154,1.2154,0,0,1-.9051.3656c-.1363-.0138-.2865.11-.4258.1691a2.27,2.27,0,0,0-1.8323-1.2267,5.6652,5.6652,0,0,0-3.22.47,1.7754,1.7754,0,0,1-.41.0362c.3139-.4325.2793-.61-.1593-1.0135-.05.0573-.1333.1082-.1445.1719-.0905.5117-.54.5833-.9077.7539-.0556.0258-.1527.0488-.1873.02-.4648-.3822-.95.0544-1.4217-.0391-.055-.0109-.1433.05-.1888.1022-.2387.2725-.4686.5528-.7274.861l.3019.1949.5135-.7893.2877.75c-.14.1715-.3246.3974-.51.6227-.0586.0714-.1194.1411-.1791.2115.1.0786.2129.236.2983.2223a1.3172,1.3172,0,0,1,.9717.3324c.1819.12.185.1839.063.3344-.2857.3526-.5143.3513-.8654.0317a2.8085,2.8085,0,0,0-.4973-.25,4.5926,4.5926,0,0,0-.391-.2735,1.1966,1.1966,0,0,0-.3736-.0408c.0734.2254.1859.3852.1514.5013-.0844.2838-.4054.4222-.79.4051.0491-.1351.0977-.27.174-.4828-.2266.091-.4009.1074-.484.203-.5887.678-1.1358.2263-1.6833-.05a3.466,3.466,0,0,1-.4159-.322c-.1391-.1-.26-.3218-.47-.0964a.0816.0816,0,0,1-.0726.0186c-.8027-.3719-1.7379-.0019-2.5424-.519-.6141-.3947-1.3131-.0638-1.9542.1039a4.22,4.22,0,0,0-1.5923.8853,26.3352,26.3352,0,0,1-2.6123,1.7149c-.4415.2787-1.0544.4287-1.3161.82a6.2007,6.2007,0,0,0-1.4147,2.6743,3.1291,3.1291,0,0,0,.2933,1.1135c.0549.18.1409.35.2052.5272.1751.483-.1663.7388-.4506,1.023-.2686.2685-.4883.0341-.7337-.0473-.3508-.1163-.7118-.202-1.0688-.3-.0256-.007-.0578.0039-.08-.0071-.6477-.3155-1.3091-.6076-1.9309-.968-.1479-.0857-.1457-.4091-.2424-.6087A3.4269,3.4269,0,0,1,71.4843,108.2172Z"/>
</svg>
