<?xml version="1.0" encoding="UTF-8"?>
<svg width="50px" height="50px" viewBox="0 0 50 50" version="1.1" xmlns="http://www.w3.org/2000/svg" xmlns:xlink="http://www.w3.org/1999/xlink">
    <!-- Generator: sketchtool 49.1 (51147) - http://www.bohemiancoding.com/sketch -->
    <title>icons/icongrid-phone</title>
    <desc>Created with sketchtool.</desc>
    <defs></defs>
    <g id="Page-1" stroke="none" stroke-width="1" fill="none" fill-rule="evenodd">
        <g id="Artboard" transform="translate(-85.000000, -100.000000)" fill="#000000">
            <path d="M130,136.590909 C130,137.102275 129.905304,137.769882 129.715909,138.59375 C129.526514,139.417618 129.327653,140.066286 129.119318,140.539773 C128.721589,141.486747 127.566297,142.490525 125.653409,143.551136 C123.873097,144.51705 122.111751,145 120.369318,145 C119.857952,145 119.356063,144.966856 118.863636,144.900568 C118.37121,144.83428 117.826708,144.71591 117.230114,144.545455 C116.63352,144.374999 116.188448,144.23769 115.894886,144.133523 C115.601324,144.029356 115.075761,143.835229 114.318182,143.551136 C113.560602,143.267044 113.096592,143.096591 112.926136,143.039773 C111.070066,142.376891 109.412886,141.590914 107.954545,140.681818 C105.54923,139.185599 103.049255,137.140164 100.454545,134.545455 C97.8598355,131.950745 95.8144014,129.45077 94.3181818,127.045455 C93.4090864,125.587114 92.6231094,123.929934 91.9602273,122.073864 C91.9034088,121.903408 91.732956,121.439398 91.4488636,120.681818 C91.1647713,119.924239 90.9706445,119.398676 90.8664773,119.105114 C90.7623101,118.811552 90.6250009,118.36648 90.4545455,117.769886 C90.2840901,117.173292 90.16572,116.62879 90.0994318,116.136364 C90.0331436,115.643937 90,115.142048 90,114.630682 C90,112.888249 90.4829497,111.126903 91.4488636,109.346591 C92.509475,107.433703 93.5132528,106.278411 94.4602273,105.880682 C94.9337145,105.672347 95.5823822,105.473486 96.40625,105.284091 C97.2301178,105.094696 97.8977247,105 98.4090909,105 C98.6742438,105 98.8731054,105.028409 99.0056818,105.085227 C99.3465926,105.198864 99.8484815,105.918554 100.511364,107.244318 C100.719698,107.604168 101.003786,108.115527 101.363636,108.778409 C101.723487,109.441291 102.054923,110.042611 102.357955,110.582386 C102.660986,111.122162 102.954544,111.628786 103.238636,112.102273 C103.295455,112.178031 103.461173,112.414771 103.735795,112.8125 C104.010418,113.210229 104.214014,113.5464 104.346591,113.821023 C104.479167,114.095645 104.545455,114.365529 104.545455,114.630682 C104.545455,115.009472 104.275571,115.482952 103.735795,116.051136 C103.19602,116.619321 102.608905,117.140149 101.974432,117.613636 C101.339959,118.087124 100.752844,118.589012 100.213068,119.119318 C99.6732928,119.649624 99.4034091,120.085226 99.4034091,120.426136 C99.4034091,120.596592 99.4507571,120.809658 99.5454545,121.065341 C99.640152,121.321024 99.7206436,121.515151 99.7869318,121.647727 C99.85322,121.780304 99.9857945,122.007574 100.184659,122.329545 C100.383524,122.651517 100.492424,122.831439 100.511364,122.869318 C101.950765,125.464028 103.598476,127.689385 105.454545,129.545455 C107.310615,131.401524 109.535972,133.049235 112.130682,134.488636 C112.168561,134.507576 112.348483,134.616476 112.670455,134.815341 C112.992426,135.014206 113.219696,135.14678 113.352273,135.213068 C113.484849,135.279356 113.678976,135.359848 113.934659,135.454545 C114.190342,135.549243 114.403408,135.596591 114.573864,135.596591 C114.914774,135.596591 115.350376,135.326707 115.880682,134.786932 C116.410988,134.247156 116.912876,133.660041 117.386364,133.025568 C117.859851,132.391095 118.380679,131.80398 118.948864,131.264205 C119.517048,130.724429 119.990528,130.454545 120.369318,130.454545 C120.634471,130.454545 120.904355,130.520833 121.178977,130.653409 C121.4536,130.785986 121.789771,130.989582 122.1875,131.264205 C122.585229,131.538827 122.821969,131.704545 122.897727,131.761364 C123.371214,132.045456 123.877838,132.339014 124.417614,132.642045 C124.957389,132.945077 125.558709,133.276513 126.221591,133.636364 C126.884473,133.996214 127.395832,134.280302 127.755682,134.488636 C129.081446,135.151518 129.801136,135.653407 129.914773,135.994318 C129.971591,136.126895 130,136.325756 130,136.590909 Z" id=""></path>
        </g>
    </g>
</svg>