<svg class="nav-icons" xmlns="http://www.w3.org/2000/svg" width="152" height="152" viewBox="0 0 152 152">
  <path class="bg" d="M76,151A75,75,0,1,1,151,76,75.0845,75.0845,0,0,1,76,151Z" style="fill: none"/>
  <circle class="ring" cx="76" cy="76" r="72.4836" style="fill: none;stroke-miterlimit: 10;stroke-width: 5.03269850626299px"/>
  <path class="icon" d="M118.3748,96.028c-.1149-.2326.1524-.4022.0731-.6548-.0746-.2377-.322-.3723-.3688-.5924-.0515-.2415.0868-.3862-.0641-.634a1.2151,1.2151,0,0,1-.2376-.6853,4.6708,4.6708,0,0,0-.4905-1.5576,4.8428,4.8428,0,0,0-.2359-.5585c-.0951-.1793-.2538-.2871-.34-.4634-.14-.2866.4253-.9058-.174-1.0841-.3135-.0933-.562-.9652-.4118-1.199.056-.087.1517-.15.2112-.24.0579-.0885-.04-.1623-.0611-.2465-.0574-.2255-.0918-.3317-.3573-.4181a1.3636,1.3636,0,0,1-.5112-.3076c-.0769-.0642-.1176-.06-.1864-.1471-.0788-.1-.0464-.1806-.1767-.2511-.3182-.1719-.5089-.5214-.8016-.7359-.1682-.1233-.0956-.3233-.3439-.4022-.244-.0774-.4483.0812-.4918-.2652a.89.89,0,0,0-.2264-.6188c-.1777-.1461-.4033.0485-.6363-.0652-.28-.1369-.286-.2069-.5812-.1443-.1005.0213-.2064-.033-.3046.0306-.103.0665-.122.2029-.2359.2694a1.0081,1.0081,0,0,1,.1253-.6934,5.3894,5.3894,0,0,1,.5538-.51c.386-.357.774-.7114,1.16-1.0684a7.0526,7.0526,0,0,1,1.0836-.9964c.1816-.1024.335-.0741.4767-.25a6.722,6.722,0,0,0,.51-.6832c.3738-.6044-.4874-.56-.6394-.9541a5.8586,5.8586,0,0,0-.6383-1.46c-.3053-.404-.8706.0773-1.0446-.5113a2.4549,2.4549,0,0,0-.1318-.5921,1.6431,1.6431,0,0,1-.3163-.6594,4.3928,4.3928,0,0,0-.2693-1.08c-.0568-.2127-.262-.2807-.3477-.4723a2.7366,2.7366,0,0,1-.1316-.6052.7881.7881,0,0,1,.1-.5434c.1261-.227-.0508-.2988-.0849-.5172-.0358-.23.0974-.1332-.0822-.3046-.1446-.1379-.03-.3459-.263-.4574v.05a.2882.2882,0,0,1-.1443-.3992c.0154-.0494.0839-.0936.102-.1632.0312-.12-.0038-.263.0277-.3924a10.4019,10.4019,0,0,1,.249-1.2363.7455.7455,0,0,0-.0228-.3637.799.799,0,0,1,.0008-.6171,1.6434,1.6434,0,0,0,.0842-.6871c-.0074-.1678.1631-.1638.0079-.3472-.3056-.3608.0292-.6655-.0935-1.0637-.0654-.2121-.2079-.3722-.158-.6079a1.0755,1.0755,0,0,1,.4207-.6471c.083-.069.12-.0116.1848-.0519.048-.03.0963-.0976.1427-.1224a4.3576,4.3576,0,0,0,.4867-.3278c.1755-.1237.1846-.1966.2884-.4022.1273-.252.0685-.1264-.0423-.3671a1.9516,1.9516,0,0,1,.0018-1.3089,3.9034,3.9034,0,0,1,.8549-1.086,1.4181,1.4181,0,0,1,.5729-.4173.3546.3546,0,0,0,.0419-.5408c-.45-.3195-.5876-.7882-.1253-1.1332a.8589.8589,0,0,1-.62-.2967,1.1694,1.1694,0,0,0-.6271-.2782,6.2388,6.2388,0,0,0-1.4542-.2607c-.1932.0043-.2421.2623-.456.2557-.1871-.0058-.1859.2475-.3452.338a2.6189,2.6189,0,0,1-1.4967.06c-.48-.0453-.8891.3353-1.3595.3353a6.1278,6.1278,0,0,1-.68-.1426,2.5479,2.5479,0,0,0-.727.1688c-.2176.04-.42-.0346-.5977.12-.244.2123-.3969.1293-.671.0015a3.111,3.111,0,0,0-1.3925-.2023c-.216.0116-.39-.1634-.6073-.1015-.2034.0578-.4151-.2345-.6664-.1234-.4445.1966-.7451.662-1.1742.9031-.2278.1281-.355-.118-.5047-.29-.18-.2067-.3327-.1994-.5724-.0877-.15.07-.4119.2417-.5386.0817q-.2714-.343-.5435-.6857-1.9461-2.4537-3.8945-4.9057c-.3262-.4121-.5716-.6245-1.1169-.4905-.2211.0543-.3839.2559-.615.247a2.2181,2.2181,0,0,1-.7765-.3218,1.8044,1.8044,0,0,0-.3657-.19c-.28-.0555-.356.0408-.5605-.2165-.1775-.2234-.2181-.3836-.5067-.2936a.6561.6561,0,0,1-.6109-.1084c-.2062-.177-1.0436.0847-1.2886.1672-.0849.0286-.1578-.0009-.2356.052-.0527.0358-.0712.1455-.1337.1895a1.57,1.57,0,0,1-.6688.3376,3.0617,3.0617,0,0,1-.7477.0031c-.211-.0229-.3206.2456-.5165.19-.073-.0208-.1181-.0962-.2-.0982a1.0669,1.0669,0,0,1-.3773-.0285c-.2264-.0961.0013-.3858-.3888-.3121-.3041.0573-.584-.11-.8694.0208-.2087.0955-.1767-.0153-.3679-.0631-.1227-.0307-.2032.0268-.2934.0214s-.1306-.0995-.1772-.1c-.0992,0-.1585.1015-.2622.08-.142-.0294-.1346-.1569-.3089-.1632-.1309-.0047-.3315-.0142-.2346.1807a2.3044,2.3044,0,0,0-.7547-.0087c.0712.21-.1818.1243-.3119.231a.6961.6961,0,0,1-.6254.0386,2.9986,2.9986,0,0,1-.7369-.1983,2.6558,2.6558,0,0,1-.5689-.3668,3.0323,3.0323,0,0,1-.636-1.3058c-.0264-.157.0943-.48.0474-.5915a.8017.8017,0,0,0-.4557-.41c-.43-.1212-.9665.09-1.37-.2015-.1811-.1307-.4181-.3-.4511-.5429-.0334-.2455.14-.4374.0981-.6849a2.6593,2.6593,0,0,1-.0129-1.3683,1.686,1.686,0,0,0,.0977-.7125c-.0111-.1857-.3-.3779-.2556-.5208.037-.1186.3134-.2076.408-.3171.1542-.1787.0674-.3717.3249-.43.0812-.0185.2348.0883.295.0016a.3762.3762,0,0,0,.09-.3218,1.6689,1.6689,0,0,0-.1894-.6518,1.2212,1.2212,0,0,1-.2422-.6744c.0239-.2757.1222-.4235-.0429-.6812-.1053-.1642-.2924-.1553-.4194-.2908q-.2313-.2469-.46-.4959a13.9,13.9,0,0,1-.9655-1.041,3.6563,3.6563,0,0,1-.4106-1.2608q-.1964-.7509-.3929-1.5017c-.0274-.1043-.0454-.2166-.083-.3176-.0233-.0623-.1562-.2415-.1595-.28-.01-.1213.1293-.11.0647-.2506-.0241-.0527-.2117-.15-.2579-.2024-.0827.0948-.27.035-.4006.09-.21.0887-.404.3572-.5953.0947-.1545-.2121-.0666-.4408-.1073-.6839-.0136-.0808-.0651-.1-.1076-.1663-.0288-.0448.013-.1579-.0114-.229-.1077-.3142-.2428-.2458-.4593-.042a4.2059,4.2059,0,0,1-.6.3432c-.1838.1279-.2975.3314-.542.3657a7.3119,7.3119,0,0,1-.8507.0521c-.1537.0037-.5656.0477-.3883-.2461.1308-.2167.3884-.2968.5267-.5207.1247-.2021.1618-.4528.2729-.6621a8.3089,8.3089,0,0,1,.4981-.7331c.1127-.166.1506-.38.2975-.5151.1891-.1734.3807-.2237.51-.4624.102-.1885.1278-.4082.2451-.59a7.0168,7.0168,0,0,0,.43-.7145.9078.9078,0,0,0,.16-.595,1.3665,1.3665,0,0,1-.0657-.6571c.04-.1881.0175-.367.0723-.5537l.2949-1.004a8.3275,8.3275,0,0,0,.1638-1.5584,1.9361,1.9361,0,0,1,.0328-.4745c.0865-.2319.32-.3592.4-.59.1653-.4771.6107-.7509.7772-1.2259a3.3824,3.3824,0,0,1,.6778-1.4577,2.8209,2.8209,0,0,0,.5156-.4393c.1512-.2112.1814-.4836.3149-.703.1106-.1821.2657-.2549.2754-.4824.0107-.2533.4308-.2173.597-.2243.211-.0089.3981-.2.618-.1768.2108.0219.4552.18.5863-.0633q.3363-.6248.6713-1.2505.341-.6358.6829-1.2708c.1842-.3434.3857-1.0057.7973-1.1119q1.4867-.3836,2.9724-.7712c.2338-.0611.48-.1076.7095-.1853a3.7417,3.7417,0,0,0,.6327-.388c.0768-.0428.2328.0343.2729-.0419a2.639,2.639,0,0,0,.1286-.3457c.0745-.208.31-.1789.4593-.3441.2122-.2354.5914-.2722.7889-.5286.2984-.3872.1365-.5728-.11-.9365-.0665-.0981-.08-.2538-.1456-.3653q-.1734-.2942-.3464-.5884c-.1686-.2863-.1942-.4187-.5321-.59a3.4244,3.4244,0,0,0-.3951-.09c-.1512-.0544-.2453-.18-.411-.1766-.3454.0079-.4679-.27-.7839-.3693-.3434-.1081-.6736.0121-1.0149-.1473-.1943-.0906-.777.1356-.6008.3644a1.3591,1.3591,0,0,1,.351-.3016.5839.5839,0,0,0-.0553.201.2594.2594,0,0,1,.2506-.0962c-.0913.0436-.212.1564-.0715.1967.0533.0153.2037-.0972.2754-.1005-.1082.157-.3357.165-.4778.2885.0664.0215.1207.1543.0233.169-.1.0151-.2077-.261-.1456-.357a.2314.2314,0,0,0-.2536.1909c.0125-.04.0485.0987.0335.1487-.0358.1193-.1783.1609-.2724.2184a1.39,1.39,0,0,1-.1545.05c-.0107.0041-.0447.102-.1426.083-.2992-.058-.05-.3289.0991-.3846-.2437-.17-.5407.2375-.6969.3716-.0721.0619-.5267.313-.3449.3874.0931.0381.2529-.17.4357-.0641.1767.1023.067.2153.1559.3329.1829.242-.1365.14-.2462.1828-.1661.065-.1341.2575-.2668.3186-.3641.1673-.2424-.1262-.5288-.2165.1223-.1283.2843-.24.3218-.4162.0267-.1255-.3642-.0717-.44-.0583a1.3439,1.3439,0,0,1-.6624.057.2635.2635,0,0,0-.36.2164c.4148.0812.267.8533.0918,1.0868-.1285.1712-.1869.4086-.3066.5975-.1048.1658-.1185.4351-.251.5675a2.03,2.03,0,0,1-.5731.3679,3.1008,3.1008,0,0,0-.296.216c-.1057.0771-.2376.0551-.3466.1467a.8359.8359,0,0,1-.6025.1881c-.2784.01-.3986.1744-.6462.25-.1473.0452-.126-.06-.29.0584a.6758.6758,0,0,1-.26.124,2.3369,2.3369,0,0,0-.735.23,11.7678,11.7678,0,0,0-1.2756,1.0335c-.3856.3146-.8493.4329-1.22.7863-.1588.1515-.3524.1809-.4853.3683-.0579.0817-.1192.0836-.1923.1361s-.0893.1827-.1582.2521c-.816.8219-2.3042.4937-3.3649.577a6.4509,6.4509,0,0,1-.956-.0395c-.2709-.019-.4586-.2-.7083-.2531-.2808-.06-.4242-.2627-.6887-.33-.1779-.0451-.363.1187-.4393.0248-.0823.28-.2335.0716-.3409-.0451.0087.0484-.0092.1018,0,.15-.0262-.0186-.0665-.018-.0976-.0452-.02.0563-.0741.0925-.0948.1457a.6959.6959,0,0,1-.05-.1457h-.0532c.1138.3063-.1307.1179-.2477.1952-.0958.0632-.0557.2444-.1431.2988a.5375.5375,0,0,0-.1985.2964c-.0179.0952.0949.1082-.0058.2s.0239.1907.0448.3c.023.1212-.0812.2251-.0324.346.0432.1067.1928.187.106.3135q-.1909.278-.3818.5559c-.1551.2259-.1958.4952-.3318.7312-.0862.15-.0527.27-.0889.4226a1.462,1.462,0,0,1-.2179.4356.5738.5738,0,0,1-.6432.2776c-.3079-.0452.0157-.734-.4393-.7147.0153.0384-.2159.7032.1035.459a.1965.1965,0,0,1-.2954.17c-.1067-.0474-.0736-.2614-.0558-.3715a.1244.1244,0,0,1-.1478-.1588c-.1.0889-.0784.298-.1978.3417-.1524.0557-.1088-.28-.0981-.3635.0111-.0868.039-.3135.1159-.37a.44.44,0,0,1,.3824.0918c.106-.1843.2654.1024.3949.1558a1.242,1.242,0,0,1-.228-.6512c.0091-.1228.0834-.3313.2749-.2775a1.3734,1.3734,0,0,0,1.3416-.2266,2.953,2.953,0,0,1-2.3234-.1757c-.3957-.1545-.7922-.3725-1.1858-.512a4.7194,4.7194,0,0,0-.5259-.1195c-.0725-.0154.0053-.1375-.1123-.0554a1.56,1.56,0,0,0-.22.2346,4.427,4.427,0,0,1-.7318.762c-.1935.12-.222.119-.2794.3482-.0458.1829-.0677.34-.2968.396a1.6687,1.6687,0,0,0-.5874.2857,3.2124,3.2124,0,0,1-.44.1677c-.0895.0442-.1.136-.2064.1726-.1037.0356-.215.0518-.2279.1858-.0249.26.2281.2033.3337.07-.0074.0634.0655.2068.054.2447a.5383.5383,0,0,1-.2485.2041c-.03-.0576.0083-.21-.0306-.231-.1767-.0955-.1467.0622-.2651.1537-.1654.1276-.39.1039-.5766.1907a.894.894,0,0,0-.3232.2638c-.0523.0523.0066.1074-.0991.1a.3332.3332,0,0,0-.17.0633c-.0869.1019.1029.1953-.1662.2863-.061.0206-.4705.1809-.2357.239.1391.0344.07.2977.03.3883.2562-.026.1779.3454.1347.4972-.0418.1464-.2356.1209-.2014-.0414.0222-.1061.0953-.1972.1213-.3057a1.37,1.37,0,0,0-.5486.6526c.0911-.01.1522-.1724.1974-.153.0325.014.0384.176.0685.2171.0433.0591.1231-.0859.1336.03.0193.212.1064.3915-.0287.5554-.1029.1247-.4441.3129-.4691.05a.1817.1817,0,0,0,0,.2492c-.2518-.0874-.1486.2545-.2812.4036-.1625.1827-.4478.2031-.5756.456.2355.15.4945-.208.637-.3557a.7291.7291,0,0,1,.6641-.2985c-.1082.2278-.0783.4546-.239.6827-.0511.0726-.162.0375-.2054.12-.0655.1249.07.3241.0867.4429a2.328,2.328,0,0,1-.2121.9482,4.5874,4.5874,0,0,1-.1832.481c-.0558.148.0081.3136-.0532.4672A5.6471,5.6471,0,0,1,54.5,35.01c.0348.038.3111-.0627.396-.058a.5217.5217,0,0,1,.3551.1945,1.6113,1.6113,0,0,1-.3322,1.8851l-.05-.05c-.1185.226-.3325.0429-.5172.05a1.04,1.04,0,0,0-.526.2491c-.033-.2255-.174-.0345-.2958-.15a.2992.2992,0,0,1,.3941-.0452c.0494-.3434-.6934-.0457-.9047-.0955-.16-.0379-.2772.1826-.3919.2666a1.8957,1.8957,0,0,1-.5386.312c-.1773.0562-.3541.1-.4283.2906-.0769.1972.0475.259-.154.381-.1608.0973-.2875.047-.3173.2605a1.4443,1.4443,0,0,1-.1872.7368c-.1133.1418-.3324.231-.396.4128-.0566.1615.0538.4318-.0763.5252-.1561.112-.2637.2867-.4106.3849a2.2856,2.2856,0,0,1-.6065.19c-.28.0688-.0639.15-.2313.2971-.1454.1274-.3376.2092-.472.3453a1.442,1.442,0,0,1-.4656.3981c-.1363.0507-.5194.1316-.5668.2364.034.011-.0227.2946-.0933.3817-.1247.1538-.6168.2134-.8.2506a8.7373,8.7373,0,0,0-.8769.2331c-.1375.043-.4414.5422-.3157.6295.0333-.2368.728.2774.8225.3779.1014.108.0474.3418.1942.4.18.0713.18.1812.18.355a3.4753,3.4753,0,0,0,.1,1.2651c.0977.2533-.173.7839.0879.9355a.3743.3743,0,0,1,0-.1981c.2223.2994.0409.7012-.0361.9936-.0282.1072.0509.182-.0331.2806-.1213.142-.3317.1171-.4972.1129a1.9989,1.9989,0,0,1-.5916-.1214c-.2489-.0786-.1886-.3411-.1346-.5094.04-.1236-.0271-.2482.108-.3278.1465-.0863.42.0542.5471.1223-.0461-.1177-.1616-.1675-.2477-.252a.221.221,0,0,1,.1981.0524c.0225-.1179-.1532-.1326-.153-.153.0015-.1342.2352-.0619.2514-.1981-.0517.04-.1.0343-.1516.0539a.3973.3973,0,0,1,.1027-.2972h-.3043c-.214,0-.0633.1161-.1546.14-.2845.0737-.343-.1084-.3854-.3424.0448.0282.1024.0228.1479.05-.0021-.1276.0769-.1841.05-.303-.027.0393-.071.0669-.1.1049.0107-.0471-.0078-.1007,0-.1486-.2017.1882-.2718-.1556-.2506-.2987.0358.0328.0644.0257.0976.0451.03-.12-.0113-.1609-.0976-.1923.0753.0274-.2145.0665-.2448.0663-.2471-.0018-.3437-.1195-.4644-.3173l-.47-.77c-.1252-.2053-.3589-.2224-.5552-.3248a1.0748,1.0748,0,0,1-.5167-.4335,2.4417,2.4417,0,0,0-.2621-.655c-.1078-.1464-.1951-.4616-.3306-.5424-.0749-.0447-.0461.0636-.0766.082-.0267.0161-.01.0944-.0542.1253a.5723.5723,0,0,1-.2138.0524c-.3035.0684-.0686.1913-.1548.3738-.1153.2439-.3348.3738-.4078.6372-.09.3265.1711.1877.3646.2518.16.0528.3151.3956.3338.5521a2.2037,2.2037,0,0,0,.1191.7363c.1226.2161.345.1268.4579.3651a8.1492,8.1492,0,0,1,.6578,1.3032,1.8074,1.8074,0,0,0,.208.6309c.1974.2706.2666.2321-.1048.2709a1.8468,1.8468,0,0,0-.6485.2251c-.23.12-.2517.3839-.3728.5865-.14.2344-.3231.2926-.14.5712.1463.2223.2888.2749-.0279.4713a6.8374,6.8374,0,0,0-1.3232.9422c-.1529.1536-.39.2847-.46-.0007a1.9551,1.9551,0,0,0-.3392-.6494c-.05-.08-.6572-.9193-.7464-.384a1.3316,1.3316,0,0,0,.0688.706c.0931.2362.2675.4006.1217.66a.5114.5114,0,0,1-.2462.2171c-.0626.0225-.31-.03-.3322-.0132-.1322.1-.197.628-.2491.7941q-.15.4786-.3.9573c.1528.0434.1815.237.3591.268l-.05.0467c.1506.0258.1616.175.2761.252.0971.0652.1854.033.2813.1351.117.1244.4727.643.6381.66a.6826.6826,0,0,0-.1027-.1982c.1781.0639.4174.6318.3.8035-.1073.157-.2091.0779-.278.2958a1.62,1.62,0,0,0,.0261.5325c.1331-.09.0325-.1819.2141-.2.1635-.016.4.2237.5111.3318a2.0043,2.0043,0,0,1,.3542.62c.1166.25.0515.3261.0665.5925a.654.654,0,0,0,.1982-.0539c-.0943-.13.0383-.2113.141-.29.1563-.1192.3135-.0374.4527.07.1175.09.1755.09.13.2793-.0428.1763,0,.2112.1194.3341.102.1051.2628.1784.3267.31.1087.2232-.0234.3058-.082.4874-.0174.0541-.1517.421-.1486.45.0158.1494.2536.1744.1486.3949-.0609-.0868-.2188-.15-.27-.0131-.0223.06.1651.3769.1473.5245a.89.89,0,0,1-.2354.5544c-.0989.0706-.34-.4557-.4815-.419.0055-.0014-.0422.4484-.05.5217a.68.68,0,0,0,.1326.56,6.8235,6.8235,0,0,1,.4578.5732c.0849.13.1962.4764.3.5263-.0166-.0612.0157-.1353,0-.1967.17.0544.2763.5935.3409.78a.8181.8181,0,0,0,.09.2348,3.8264,3.8264,0,0,1,.2978.4852.8186.8186,0,0,1-.0084.8521,3.0112,3.0112,0,0,1-.2747.2506c-.0335.0295-.14-.0025-.1468.0394-.0226.1447-.0323.4574-.2945.3715-.1044-.0342-.212-.138-.3251-.1369-.1626.0016-.2182.1645-.3607.2032-.15.0408-.2246-.01-.3258.1228-.0962.1263-.1209.2991-.2231.4213-.0579.0692-.2707.0541-.1833.1982.07.1159.2208-.0531.3264.0918.07-.4179.4524.0664.5667.1056.1291.0442.1509.0178.223.1231.08.1163-.0066.2745.1493.3614a.1445.1445,0,0,1-.1974,0c-.0341.1482.0395.286.1974.2024.0091.1271-.0139.3669.0925.46.1137.0991.039.2827.056.419.0158.1255.1379-.0183.0573.1676a2.2382,2.2382,0,0,0-.1.3028,1.3434,1.3434,0,0,0-.0416.42,13.9444,13.9444,0,0,0,.2326,2.2874c.0452-.03.1081-.0234.153-.0538.0687.3368.3229.5215.4407.8421-.1665-.1045-.2183-.358-.491-.35.0252.1441-.0018.2829.1374.3541.1354.0692.1324.2159.0571.3452a.3337.3337,0,0,1-.1442-.2024c-.0027.5279-.0656,1.0137-.1034,1.5313a1.0265,1.0265,0,0,0,.1479-.0481c-.0754.155-.2209.1638-.2624.39a6.2237,6.2237,0,0,1-.267.5689c.0829.138.2034.47.3566.5515a1.9243,1.9243,0,0,0,.727.0248c-.1015.1277-.3435.5148-.5558.4794-.1118-.0187-.1305-.1869-.2543-.1866-.1793,0-.1221.1673-.2127.223-.0971.06-.2113-.0253-.3137.0605a.3712.3712,0,0,0-.1031.3263.9519.9519,0,0,0,.1938.6811c-.2671-.0573-.2014.2338-.0631.3414a1.4271,1.4271,0,0,1,.3159.2457c.0358.0565-.1108.2239.0816.2609.2014.0388.3594-.7225.3125-.9018.052.0279.0944.016.1442.0538.0015-.1212.0641-.2917.2514-.1559a.2992.2992,0,0,0,0-.2959c.2254.1172.322.2718.5442.2959-.1075.2283-.3246.4121-.3963.6484l.2485-.05c-.0438.1293-.3161.1222-.4495.1441.1494-.104.05-.1975-.0947-.1441-.1313.0482-.12.181-.1479.2957-.0186.0774-.0891.162-.048.2491.0344.0728.2681.0766.2907.1661.0339.1346-.2964.104-.0471.23a.5914.5914,0,0,0,.4849.0406,1.0951,1.0951,0,0,0,.428-.156c.2427-.1379.2077-.15.1854-.4327a.53.53,0,0,0,.3409.054c-.0672.0324-.0655.0644-.0983.0948l.4458-.0948c-.0735.1268-.198.3685-.3556.42-.1408.0462-.2543.0254-.2315.18.0186.1271.0929.2052-.0561.2853.0472-.24-.2632-.2206-.2265-.0088.0181.1045.2135.1043.1555.2a.2927.2927,0,0,1-.3253.1042c.0693.1611.2586.0489.3576.1777-.2006.053-.35-.0665-.5055-.1777-.2239.4867.2161.3159.499.2942-.0628.1253-.3232.11-.3511.1778-.0722.1767.3314.0664.4108.1063-.1436.0708-.3779.2546-.5136.1108-.04.1521-.402.576-.1478.59a.79.79,0,0,1-.2834.0655.3977.3977,0,0,0,.0349-.1108,1.5178,1.5178,0,0,0-.2957.0452c.0226.03.0257.0708.05.1019-.0587.0074-.0988.0471-.1537.0555a1.5588,1.5588,0,0,0,.1537.0933c-.1365-.0041-.3378-.1027-.3482.0976.1182-.0414.4245-.1032.3482.1034-.111-.0518-.0868-.0377-.1537.0452a1.4127,1.4127,0,0,1,.1982.05c-.0351.0119-.0608.0386-.0947.0525a.1952.1952,0,0,1,.1478.1938c-.1284-.1588-.5585-.0008-.3511-.2959a.375.375,0,0,0-.1479,0c.1058.1747-.0234.2754-.0661.437-.0379.143.0786.195.0465.3162-.04-.0581-.099-.0867-.1232-.1631-.2951.3008.1438.531.2463.7912-.2565-.0561-.3349-.2761-.4495-.4867-.22.2278-.5265.1032-.6913.389.1337.0936.398.0287.4654.1961a.2881.2881,0,0,1-.2085.3725c-.1568.0251-.2082.268-.3571.2321-.138-.0335-.0942.1392-.1519.23-.0307.0485-.1643.06-.1755.0969-.0239.0791.0788.1544.09.2214.0345.214-.0987.3662-.2084.5686-.1328.2447-.8344.1407-1.0453.0535.0267.2734-.1707.4055-.1981.6469a1.1846,1.1846,0,0,0,.2528-.1952c.0339.1857.2561.0928.2462-.0538.1222.1612.2334.0239.1537.24-.0376.1017-.0445.05-.0291.1422.0031.018.2429.0771.1066.1836-.2509.196-.0669.1846-.366.0509-.2782-.1245-.3921.16-.2594.4212.1355-.1057.6724-.2143.4889.1019-.1123-.2445-.59-.0358-.6782.172.1521.0383.3084.0335.3373.2214-.0845-.0185-.0764-.1235-.1479-.1486-.014-.005-.39-.0269-.4007-.0233-.4483.155.2155.2021.2244.2127-.15.0733-.4232.2627-.57.1559.0052.1116-.01.1159.1.1473-.0746.0867-.0746.1773.0451.1966-.0721.1011-.03.1976.1028.1966v.054c-.049-.004-.099.0041-.1479,0,.2426.2681.5865.6256-.0284.7912a1.4062,1.4062,0,0,1-.55.0045c-.2974-.0305-.1848-.2759-.0688-.4562-.1881.1047-.2733-.0464-.3476-.1966-.0884.1393.0212.2519-.0583.3627-.038.0528-.18.036-.2127.1063-.0773.1646.102.0769.126.1821.0247.1081-.1909.3515-.3527.3294-.2159-.03-.23-.2914-.4458-.2069-.103.04-.0926.1123-.1413.1791-.0108.0149.0048.0931-.0015.1174-.0091.0348-.191.0921-.2367.122-.265.1734-.6867-.5067-.7358-.1446a.365.365,0,0,1-.1-.2521c-.3973.1316-.5236.6614-.9069.7882-.0665-.1993-.234-.2977-.392-.4227-.2349-.1862-.3266.01-.3281.2193-.0021.2927-.2349.2412-.4718.2282-.1931-.0106-.2091.27-.2528.4109a.6217.6217,0,0,1,0-.4866c-.2089.1625-.1727.6692-.3511.7415v-.0976c-.1044.1881-.3853.526-.1982.7372-.1592.0276-.2187.1433-.2957.2681-.1278.207-.1327.2118.0663.3817-.0456.0172-.0765.0718-.1217.09.0679.1091.17.0987.2484,0-.0083.1146-.1.1907-.11.2944-.0115.1223.0771.194.0816.3.0046.11-.164.46-.0713.5361.14.1146.2265-.3923.4705-.1588.1823.1744-.0567.3931.07.5713.1.1405.283.0168.31.2447a1.6254,1.6254,0,0,1-.1544.526c-.054.1156-.1473.4212-.2543.4473-.1446.0353-.1667-.0778-.1931-.1952s-.0609-.0432-.1377-.06a1.4778,1.4778,0,0,0-.7105-.0018c-.0361.01-.1568-.1283-.2263-.1582a1.2222,1.2222,0,0,0-.4209-.03,1.5858,1.5858,0,0,0-1.031.6168,2.2648,2.2648,0,0,1-.3266.49c-.1582.1577-.338.3743-.0785.5463.206.1365.4437.0393.6667.1042a3.2187,3.2187,0,0,1,.4436.2447c.1153.0547.0987-.1266.1915.0788.0358.0792-.032.1928-.0167.2724.0261.1349.4611.4661.196.5115a3.2824,3.2824,0,0,1,.93.95.7147.7147,0,0,0,.2506.2551c.1218.0581.3113-.0365.3862.0015a1.843,1.843,0,0,1,.2993.5085c.4556-.3535.9914.3949,1.2338.6622a1.5307,1.5307,0,0,0,.468.3941c.1981.0962.44.08.6224.2168.3009.2259.8467.8336,1.2572.8488a2.0629,2.0629,0,0,1,.7.0954c.1392.0523.425.0637.5085.1677.144.1791-.004.2987.3242.37a1.1265,1.1265,0,0,0,.6943-.1108c.2941-.1114.406-.1569.6616.0436.1175.0921.0538.5126.17.6812a1.5458,1.5458,0,0,0,.53.4058c.2538.1329.5053.0688.7783.1365.1928.0479.2253,1.2462.2565,1.4618.0835.5754.802.5848,1.2591.6764.1935.039.3777.2072.5835.13a.9845.9845,0,0,1,.694-.0951c.2281.0573.25.3855.5478.39a.7609.7609,0,0,1,.623.192.6076.6076,0,0,0,.6259.18,1.1638,1.1638,0,0,1,.3841-.0355c.139.0269.2195.127.3693.1121-.0061-.0954-.0816-.3594.0961-.312a3.6128,3.6128,0,0,0,.5517.0964c.3228.036.4169.459.7743.2777.1294-.0657.9618-.0758.9365-.2369a8.0317,8.0317,0,0,1-.0565-1.0387.4462.4462,0,0,0,.4852-.1744c.1069-.1265.2581-.282.4261-.2235.1923.0669.285.3175.5233.3723.1463.0337.5364-.0358.6142.1012.1139.2008.0315.3416.3234.2493s.266.032.4209.2265a3.9589,3.9589,0,0,1,.4567.6185,1.01,1.01,0,0,0,.406.4879c.379.2326.7042.671,1.1824.71a3.0523,3.0523,0,0,0,.6339-.08c.2485-.0292.3455.1559.5249.2868a5.2179,5.2179,0,0,0,1.2057.7634c.2336.0817.4823.1037.72.19.2606.0951.3636.1717.5693-.0725.1547-.1838.0429-.3816.3734-.3449a1.2114,1.2114,0,0,1,.6177.2486c.1615.1278.234.4357.4353.5079.232.0832.2586.0553.45.2614a.9257.9257,0,0,0,.6154.3208c.2734.0329.2857-.0438.4413-.2919.1041-.1661.3443.2153.3855.298q.104.209.208.4182c.0124.0249-.2171.1958-.248.2648.1525.06.48.0337.5854.142.15.1541.1729.1106.3508.1043.093-.0033.1431-.1043.22.0231a2.13,2.13,0,0,0,.2537.3857,3.299,3.299,0,0,0,.758.5983,1.1123,1.1123,0,0,1,.2708.2211c.096.106.1606.0923.2427.1646.0559.0492.0329.1661.0568.2346.0594.17.1559.334.2319.497.047.1009.1157.189.096.2942-.0262.1393-.2019.1314-.1043.332a.7187.7187,0,0,0,.5712.4037c-.1173.1464.0258.1933.0791.32.0794.1887-.197.0981-.2852.1136-.2271.04.0357.2165.1014.26.1292.086.1521.279.1955.4159.1043.3289.4909.3621.7705.4133.3552.0647.5628.3538.7734-.0452.1834.1273.1674.4233.27.6083.1309.2353.2173.0111.3505-.0008.0463-.0041.0455-.1306.1208-.0145.0475.0731-.0679.1426-.0539.2156.0357.1859.4067-.074.5033.1724.1185.302.64,1.0621.9748.5343.1663-.2619.2434.06.4313.164.1523.0839.5146.0954.61.2536a.8255.8255,0,0,1,.0954.2628c.0178.1366.1054.0066.145.0655.0777.1157.038.2873.14.406.0794.092.1794.0551.0694.1872-.0657.0789-.1167.1628.0111.2227.1623.0761.4978.2676.5357.4626a2.7579,2.7579,0,0,1,.0866.6078c-.0043.0887-.1495.0923-.193.1674a.85.85,0,0,0-.1314.3474c-.0159.3036.0721.3925.3268.5475.1927.1172.2766.2594.4316.3094.1493.0482.2555-.0183.3877.1017.1955.1775.1913.147.3623-.02.1286-.1256.3025.0769.4308-.0048.1376-.0875-.025-.3324.2282-.0507.0829.0925.2282.1337.2906.2328.0821.13-.0937.2853.0281.4273.1128.1314.1852.1971.1781.3669-.0076.1818-.1316.2452-.0305.4415a1.828,1.828,0,0,1,.2093.41,2.7968,2.7968,0,0,0,.1723.3832c-.0907.1493-.1659.349-.2694.4862-.0944.1251-.27.1913-.3409.3371-.1058.2174.208.3893.24.5764.0628.3713.5461.1661.5806.5376a.54.54,0,0,0,.1975-.3264,2.9618,2.9618,0,0,1,.5495.3371c.1554.1359.1318.4782.3269.5663.2051.0926.4938-.1578.6629-.2171.2911-.102.3254-.1379.5945.051.0137-.1927.1621-.3.27-.1355.1007.1534.0287.4443.2987.153.1339-.1445.13-.5315.38-.4935.2315.035.3688.3.5907.3688a5.5349,5.5349,0,0,0,.7626.1252c.1306.0206.25.28.44.3223a1.443,1.443,0,0,0,.6545-.0986c.1633-.1273.0074-.2557.3-.2855.2132-.0216.4478.1659.65.0685s.31-.4187.5187-.5392a1.0034,1.0034,0,0,1,.6672-.05.7832.7832,0,0,0,.32.0094c.1509-.0368.0882-.1674.1564-.2571.1342-.1768.3522-.2544.4778-.4445a1.2441,1.2441,0,0,1,.497-.4836c.1849-.1167.4313-.3426.4174,0-.0155.3849.2572.0845.4393.0644.2323-.0256.4025.2217.6.2987.2155.084.525.0026.5343.314.0028.0966.1438.6792.2366.321.08-.31.1674-.44.3523-.1162.0961.1681.3068.2721.1167.44a.1467.1467,0,0,0,.0277.2285c.066.039.2845-.0707.3556-.105q.1966-.0946.3933-.19c-.0406.02.1541.0664.2041.06.1063-.0134.1821-.1382.2985-.1123.1192.0264.1489.1009.2813.0816.2529-.0368.3877-.3249.4677-.5239.086-.2143.4917-.125.6259-.0439.284.1714.2127-.0855.1993-.235-.0305-.3431.2977-.2067.5-.1212.2485.1053.3776-.02.6087.1218.2122.13.3449.3761.5607.516a1.48,1.48,0,0,0,.6259.2014c.1592.02.084.282.213.3885.2184.18.1806.7009.59.4844.1025-.0542-.0444-.3036.1734-.31.0776-.0023.1288.1309.1836.1616a1.1963,1.1963,0,0,0,.27.0824.4983.4983,0,0,1,.374.2856c.0784.2224.2278.0916.3832.06.107-.0216.424-.0743.4808.0655.0844.208-.2079.1529-.2273.2594-.0168.0925.0764.213.1671.1886.2023-.0547.3287-.21.5329-.111.3429.1653.088.72.6023.5732.3589-.1027.1889.6087.4877.1455.2529-.3925.3383.4251.57.512-1.616,2.5839-3.2993,5.1286-4.9508,7.69.6333.0705,1.1232.5372,1.7387.6911.3218.08.4554-.18.6857-.3312.331-.2173.6041-.0436.8906.1631a1.5441,1.5441,0,0,1,.51.7357c.0986.2767.0476.5769.3589.7347a2.5637,2.5637,0,0,1,1.3842,1.2834,5.5262,5.5262,0,0,0,.3578-1.5087q.1305-.7135.2614-1.4268.2863-1.5637.5727-3.1271.55-3.0009,1.0986-6.0019.5709-3.1135,1.14-6.2272a8.6482,8.6482,0,0,0,.2827-1.446c-.0018-.2087.1349-.4029.13-.6145a4.1339,4.1339,0,0,1,.105-.849,2.7593,2.7593,0,0,1,.084-.63c.1066-.2719-.0738-.4648-.22-.6966-.12-.1909.0059-.3159-.0238-.5222-.0381-.2643-.0229-.1851-.1922-.3215-.08-.0642-.1052-.1831-.1815-.2483-.0745-.0637-.18-.0713-.2549-.1334-.126-.1048-.0593-.3233-.1588-.4626-.0469-.0655-.1286-.08-.1661-.1719-.0424-.1039.0289-.2084-.0249-.3074-.1108-.2046-.4337-.36-.34-.6219.0689-.1918.3256-.36.2766-.5874-.0172-.0794-.0811-.1247-.1181-.1945-.0542-.1025-.0213-.21-.0386-.32-.0976-.6228-.5688-.5462-1.0081-.8187-.1722-.1068-.26-.3081-.4453-.3944-.2432-.1133-.2485-.3352-.4552-.4666-.1677-.1068-.4209-.0385-.5487-.226a6.2647,6.2647,0,0,0-.53-.5656,1.2209,1.2209,0,0,1-.3761-.6185,3.8181,3.8181,0,0,1,.003-.7083c.0131-.5389.03-1.0776.0449-1.6165q.0406-1.4458.0786-2.8915c.1118.1795.487-.0332.69.0084a3.3441,3.3441,0,0,0,.8192-.0842,2.0451,2.0451,0,0,0,.8174-.29c.1068-.068.2032-.208.3328-.2186a2.0394,2.0394,0,0,1,.4544.1266c.1351.0281.1433-.2165.2166-.2709.0921-.0685.2169-.0367.3041-.0928.2521-.1623.5006-.3094.7808-.12.19.1285.37.512.5921.5607.1415.031.6682-.3224.4765.1648.1955-.0236.3812.0678.5624-.0117.0794-.0348.0629-.1415.172-.1435.0959-.002.1773.0789.2741.0475.234-.0755.1227-.3281-.0149-.4621-.0806-.0786-.1961-.0489-.225-.1785-.0259-.1164.1309-.14.1654-.244.0675-.2041-.1484-.4374-.054-.6366.02-.0419.1626-.02.1661-.07.0089-.1311-.06-.18-.1772-.225-.0675-.0259-.25-.0908-.2353-.1851.0276-.175.0723-.2107-.0811-.3048-.08-.0494-.0543-.1349-.0791-.2161-.03-.0986-.146-.1159-.2059-.19a1.4946,1.4946,0,0,0-.5508-.3781c-.2842-.1454-.4088.2779-.6325.2381-.15-.0267-.199-.1742-.3286-.215-.1956-.0616-.4293.0816-.6352.0111a1.208,1.208,0,0,0-.64-.0807l-.4625.068c-.1922.0282-.0528-.1025-.14-.1673-.1834-.1359-.4172-.0168-.5813.0882-.36.23-.3167-.0391-.3147-.349.0043-.6847.01-1.37.0117-2.0544a11.51,11.51,0,0,0-.0424-2.1781,1.1918,1.1918,0,0,0,.64-.1182,1.2293,1.2293,0,0,1,.5926-.0855,2.1286,2.1286,0,0,0,.7477-.2387c.2155-.0971.5442.0257.7547.07.2161.0454.4022.1885.6144.2444a2.7283,2.7283,0,0,0,.6883.0378q.8262-.0012,1.6524-.0021c2.0128-.0023,4.0254,0,6.0382-.0051l.5264-.0013c-.2531-.0816-.1268-.3348-.3708-.3452-.209-.0089-.2006-.0512-.18-.2538.0165-.1611-.1976-.126-.2947-.1777a3.16,3.16,0,0,0,.3061-.62c.0859-.2125.15-.5655.3307-.7162.0776.1354-.0054.2912.2009.3328a.559.559,0,0,1,.4824.3933c.1281.3713.3211,1.0641.76,1.1919,1.1244.3274,1.7755-.8706,2.3356-1.6114a3.8521,3.8521,0,0,1,1.0679-.9138.6931.6931,0,0,1,.3178-.0873c.1078-.0144.1283-.1295.2158-.1636a.76.76,0,0,1,.6033.1383c.3883.264.4973.898.7187,1.29.2387.423.6446.7463.8613,1.1833a4.8578,4.8578,0,0,1,.5013,1.427,7.3478,7.3478,0,0,1-.09,1.677c-.0215.2488-.1965,1.1427.145,1.196a1.9626,1.9626,0,0,0,.67-.1672c.2486-.0685.4932-.1346.7459-.1851l-.1486-.3074Z" style="fill-rule: evenodd"/>
</svg>
