<?xml version="1.0" encoding="UTF-8"?>
<svg width="50px" height="50px" viewBox="0 0 50 50" version="1.1" xmlns="http://www.w3.org/2000/svg" xmlns:xlink="http://www.w3.org/1999/xlink">
    <!-- Generator: sketchtool 49.1 (51147) - http://www.bohemiancoding.com/sketch -->
    <title>icons/icongrid-gavel</title>
    <desc>Created with sketchtool.</desc>
    <defs></defs>
    <g id="Page-1" stroke="none" stroke-width="1" fill="none" fill-rule="evenodd">
        <g id="Artboard" transform="translate(-85.000000, -17.000000)" fill="#000000">
            <path d="M103.824311,45.4372157 C103.860256,45.4727586 103.954635,45.5632988 104.107452,45.7088388 C104.269209,45.8628931 104.365492,45.9630269 104.396303,46.0092432 C104.427114,46.0554595 104.50414,46.1440394 104.627383,46.2749856 C104.750626,46.4059317 104.827652,46.5099168 104.858463,46.586944 C104.889274,46.6639711 104.93549,46.7679562 104.997111,46.8989024 C105.058733,47.0298485 105.101098,47.1569414 105.124206,47.2801849 C105.147314,47.4034283 105.158868,47.5420751 105.158868,47.6961294 C105.158868,48.2815358 104.943195,48.8053125 104.511843,49.2674754 C104.465627,49.3136917 104.338534,49.4523385 104.13056,49.68342 C103.922587,49.9145014 103.776238,50.0724047 103.691508,50.1571346 C103.606778,50.2418645 103.46428,50.3689574 103.264009,50.5384171 C103.063739,50.7078768 102.894281,50.8272671 102.755633,50.8965916 C102.616984,50.965916 102.447527,51.0352394 102.247256,51.1045638 C102.046985,51.1738883 101.846718,51.20855 101.646447,51.20855 C101.03023,51.20855 100.506453,50.9928772 100.075101,50.5615251 L90.6470248,41.1334489 C90.2156728,40.7020968 90,40.17832 90,39.5621028 C90,39.3618322 90.0346617,39.1615646 90.1039861,38.961294 C90.1733106,38.7610235 90.242634,38.5915663 90.3119584,38.4529174 C90.3812828,38.3142685 90.5006731,38.1448113 90.6701329,37.9445407 C90.8395926,37.7442701 90.9666855,37.601772 91.0514154,37.5170422 C91.1361452,37.4323123 91.2940485,37.2859629 91.52513,37.0779896 C91.7562114,36.8700163 91.8948582,36.7429234 91.9410745,36.6967071 C92.4032374,36.2653551 92.9270142,36.0496823 93.5124206,36.0496823 C93.6664749,36.0496823 93.8051217,36.0612362 93.9283651,36.0843443 C94.0516085,36.1074525 94.1787014,36.1498168 94.3096476,36.2114385 C94.4405938,36.2730602 94.5445789,36.3192758 94.621606,36.3500867 C94.6986332,36.3808975 94.8026183,36.4579235 94.9335644,36.581167 C95.0645106,36.7044104 95.1530905,36.7814364 95.1993068,36.8122473 C95.2455231,36.8430581 95.3456568,36.9393406 95.4997111,37.1010976 C95.6451891,37.2538495 95.7357142,37.348214 95.7712888,37.3841935 C95.559243,37.1691707 95.4534951,36.9093854 95.4534951,36.604275 C95.4534951,36.2961664 95.5613315,36.034278 95.7770075,35.818602 L103.818602,27.7770075 C104.034278,27.5613315 104.296166,27.4534951 104.604275,27.4534951 C104.909607,27.4534951 105.169548,27.5593966 105.384106,27.7712027 C105.348294,27.7357914 105.253915,27.6452511 105.101098,27.4997111 C104.939341,27.3456568 104.843058,27.2455231 104.812247,27.1993068 C104.781436,27.1530905 104.70441,27.0645106 104.581167,26.9335644 C104.457924,26.8026183 104.380898,26.6986332 104.350087,26.621606 C104.319276,26.5445789 104.27306,26.4405938 104.211438,26.3096476 C104.149817,26.1787014 104.107452,26.0516085 104.084344,25.9283651 C104.061236,25.8051217 104.049682,25.6664749 104.049682,25.5124206 C104.049682,24.9270142 104.265355,24.4032374 104.696707,23.9410745 C104.742923,23.8948582 104.870016,23.7562114 105.07799,23.52513 C105.285963,23.2940485 105.432312,23.1361452 105.517042,23.0514154 C105.601772,22.9666855 105.74427,22.8395926 105.944541,22.6701329 C106.144811,22.5006731 106.314269,22.3812828 106.452917,22.3119584 C106.591566,22.242634 106.761023,22.1733106 106.961294,22.1039861 C107.161565,22.0346617 107.361832,22 107.562103,22 C108.17832,22 108.702097,22.2156728 109.133449,22.6470248 L118.561525,32.0751011 C118.992877,32.5064531 119.20855,33.0302299 119.20855,33.6464471 C119.20855,33.8467177 119.173888,34.0469853 119.104564,34.2472559 C119.035239,34.4475265 118.965916,34.6169837 118.896592,34.7556326 C118.827267,34.8942815 118.707877,35.0637386 118.538417,35.2640092 C118.368957,35.4642798 118.241864,35.6067779 118.157135,35.6915078 C118.072405,35.7762377 117.914501,35.9225871 117.68342,36.1305604 C117.452339,36.3385337 117.313692,36.4656266 117.267475,36.5118429 C116.805313,36.9431949 116.281536,37.1588677 115.696129,37.1588677 C115.542075,37.1588677 115.403428,37.1473138 115.280185,37.1242057 C115.156941,37.1010975 115.029849,37.0587332 114.898902,36.9971115 C114.767956,36.9354898 114.663971,36.8892742 114.586944,36.8584633 C114.509917,36.8276525 114.405932,36.7506265 114.274986,36.627383 C114.144039,36.5041396 114.05546,36.4271136 114.009243,36.3963027 C113.963027,36.3654919 113.862893,36.2692094 113.708839,36.1074523 C113.563361,35.9547005 113.472836,35.860336 113.437261,35.8243565 C113.649307,36.0393793 113.755055,36.2991646 113.755055,36.604275 C113.755055,36.9123836 113.647218,37.174272 113.431542,37.389948 L110.519931,40.3015598 L116.435586,46.2172155 C117.09802,45.554782 117.837469,45.2235702 118.653957,45.2235702 C119.45504,45.2235702 120.155976,45.5085664 120.756788,46.0785673 L129.145003,54.4667822 C129.715004,55.067594 130,55.7685306 130,56.5696129 C130,57.3861008 129.715004,58.0793347 129.145003,58.6493356 L126.672444,61.1450029 C126.071632,61.7150038 125.370695,62 124.569613,62 C123.753125,62 123.059891,61.7150038 122.48989,61.1450029 L114.101675,52.73368 C113.516269,52.1790845 113.22357,51.4858505 113.22357,50.6539573 C113.22357,49.8374694 113.554782,49.0980199 114.217215,48.4355864 L108.30156,42.5199307 L105.389948,45.4315425 C105.174272,45.6472185 104.912384,45.7550549 104.604275,45.7550549 C104.298943,45.7550549 104.039002,45.6491534 103.824444,45.4373472 L103.824311,45.4372157 Z" id=""></path>
        </g>
    </g>
</svg>