<svg class="nav-icons" xmlns="http://www.w3.org/2000/svg" width="152" height="152" viewBox="0 0 152 152">
  <path class="bg" d="M76,151A75,75,0,1,1,151,76,75.0845,75.0845,0,0,1,76,151Z" style="fill: none"/>
  <circle class="ring" cx="76" cy="76" r="72.4836" style="fill: none;stroke-miterlimit: 10;stroke-width: 5.03269850626299px"/>
  <path class="icon" d="M106.8666,29.893a6.8854,6.8854,0,0,0,3.1865-.9054V28.567c-.8949-.3929-2.6231-.7855-3.0447-1.0071a.5322.5322,0,0,0-.0706-.4658c0,.21,0,.21-.2394.21,0-.4208.479-.6311.7189-1.0519-1.4377-.8415-.7189-1.2624-.4795-2.1038l-.7188.4206c-.4792,0-.7191,0-.9585-.21-.24,0-1.1983.21-1.6773.21,0-.21-.24-.6312-.24-.8415v-.4208h-.2394c-.24.21-.24.4208-.4795.6311h-.2394a1.535,1.535,0,0,0-1.2367-.9179.6736.6736,0,0,1-.2012-.3444H99.27a2.7456,2.7456,0,0,1-.4793-1.2623,4.0648,4.0648,0,0,1-2.1568-.6312l-.24-.4207s.4792,0,.4792-.6311c-1.6773-2.5247-7.9079-.8417-8.1472,1.683-.24-.21-.7191-.4207-.9587-.21,1.1819.2964.9363.28.6879.3916-.1947-.0383-.7524-.068-.9277.24.24.21.7191.8414.9587,1.0519,0,0-.24-.6312.24-.4208.083.0732.1658.146.2394.21h.24c-.0428.0376-.0817.0708-.1207.1043l.1207.1062-.24.4207c.17.5985-.1434.2391-.3391-.17a6.2356,6.2356,0,0,1-1.8177.59v.6311a21.2587,21.2587,0,0,1-3.3547.4208v-.21l-.4792-.21s0,.4208-.24.4208a2.5914,2.5914,0,0,1-1.6776.21v.8415a7.9517,7.9517,0,0,0-2.3962.4208c-.24,0-.4795-.21-.7189-.21a.7147.7147,0,0,0-.24.6312,2.7829,2.7829,0,0,0-2.78,1.683h-.3356c0,.4109-.0016.6209-.2241.8266.0516.0981.2241.8565.2241.8565s-.2394-.6312-.2394-.4208c-.4795,1.052-1.1983,1.2624-2.3964,1.8935v1.2624a12.54,12.54,0,0,0-.9585,1.2623c-.24,0-.24,0-.4792-.21-.9587,1.2624-1.4377,2.735-.4793,3.7871H69.316a18.9962,18.9962,0,0,0-2.1566,2.3143l-.6455-.1891a1.599,1.599,0,0,0-.3132.1891v.8415a6.1309,6.1309,0,0,0-3.3547,2.3144c-.24,1.2623-.7189,1.8935-.7189,3.1558a1.3037,1.3037,0,0,1-.7191.21q-.3594.9468-.7188,1.8935h-.9585c-.9587.21-.4792.6312-.4792,1.052-.24.6312-.24,1.0518-1.1983.8414v.8415a8.2238,8.2238,0,0,1-1.4379,1.4729v.4206c-.2394.21-.2394,0-.479.4208-.24,0-.24-.4208-.4792-.4208a5.043,5.043,0,0,1-.4795,1.052v-.8416c0,.21-.4793.8416-.7189.8416a15.0038,15.0038,0,0,0,1.4377.8414,6.0575,6.0575,0,0,1-.9582.21l-.24-.4207a3.18,3.18,0,0,0-.24,1.4726h.4795c0,.21-.4795.6312-.4795,1.0519a.8775.8775,0,0,0,.4795-.21.7152.7152,0,0,0,.2394.6311c-.15,0-.8611-.2466-1.1981-.3287v-.3024a1.9746,1.9746,0,0,1-.025.2969c-.1677-.0386-.2183-.0257-.0171.0976a4.1238,4.1238,0,0,1-2.5937,2.5508,1.42,1.42,0,0,0,1.1981.4208s0,.8415-.24.6312l-.9582-.4208c-.24.8417,0,1.4729-.24.4208v.6312c.09.0789.2394.21.479.4208a8.1792,8.1792,0,0,0-1.9169,2.3143c-.24.21-.24-.2106-.479-.2106-.48,1.0519-.24,1.6831.2394,2.1041l.24-.21a2.7375,2.7375,0,0,1-1.1981,1.0518V68.12q-1.7971.6311-3.5945,1.2623c-.24,0,0,.6312,0,.6312-.4792-.21-.9585-.21-1.1981-.421,0,1.0521-.24,1.8935.4791,2.7352-.7189,1.2623-.24,2.5246-1.6773,3.3663-.2395.42.4794.21.4794.42l-.7189-.21s-.719.4211.4791.8418c0,1.0517.4792,1.4729.24,2.735.2395.21.4791,0,.7188,0l-.4793.8412c-.7189-.21-1.4377-.21-1.917-.42l-.24,1.0519a2.9363,2.9363,0,0,1,1.6046.3872c-.7673,2.0328,1.197,3.85-1.3649,4.8726a3.5746,3.5746,0,0,0,.2369.528c-.0156,1.002-.2369,1.8228-.2369,2.8382-1.4378,0-2.8756,3.9972-2.6358,5.47h-.24l1.1982,1.0517-.719.421a6.3149,6.3149,0,0,0,.9985.3048c-.0133-.0287-.0266-.0594-.04-.0946h.4793a.7779.7779,0,0,1-.0309.1781,1.9092,1.9092,0,0,0,.27.0324,1.0027,1.0027,0,0,0-.3078.1157c-.0461.1871-.0756.3893.0682.5156.4793.21.9585-.21,1.1982,0,.4791.4207.24.6312.9585.8417.24-.21,0-.421.24-.6312v.8415a.9605.9605,0,0,1,.7188.21c-.2174.7642-.04.8363.1742,1.4729h.0656a4.66,4.66,0,0,1,1.1981,2.9453h-.24c-.22,1.1576.368,1.2536,1.39,1.4241-.1057.0359-.3229.4557.0261,1.26-.0927-.059-.458.2616-.458.2616.4792.21.4792.4209,1.1983.6312a5.1922,5.1922,0,0,0,.2394,2.1041,2.9862,2.9862,0,0,0-.7189.8417,5.0462,5.0462,0,0,0,.7189.8014v.25c-.2394-.21-.479-.6312-.7189-.8417a9.0234,9.0234,0,0,0,.24,2.5248c.24-.21.479-.21.9585-.4207,1.1979.21,1.4377.21,1.9169.8417.24-.21.7189.21.7189.4207-.7189,0-.7189.21-1.4379.21a13.7916,13.7916,0,0,1,3.1578,1.9465,2.3911,2.3911,0,0,0,.4367-.2637c0,.21,0,.21-.2394.4207a3.6275,3.6275,0,0,0,.9582.421l.7191.21c-.1335-.117-.0437-.2334.1441-.1328a4.7185,4.7185,0,0,0,.4788.57c.0322.0594.0641.1233.096.1936h.102a7.1689,7.1689,0,0,0,4.2833,1.9089c.0629-.0717.18-.115.4075-.0153v.631c0-.1619-.1422.4247-.2075.606.2285-.1841.4469-.204.4469-.606a3.5874,3.5874,0,0,0,.4795,1.6833v-.2826a1.4547,1.4547,0,0,0,1.1981.7034c-.24.6312.24,1.4729.24,1.6831l.1064.0932a45.3715,45.3715,0,0,0,1.7366,5.2219c-.2806.1906-.8.3652.074.3652h-.479c.3109.2732.3078.3884.2625.4316a1.6594,1.6594,0,0,1,.2165-.01c-.479.42-.479.8412-1.1979,1.0517-.24-.21-.24,1.0519-.24,1.0519,1.57-.1966.621.1593.69.5507a.3712.3712,0,0,1,.269-.13c-.24.8415.479,1.2624.7189,1.4724v1.2624c0,.21.7188.4209.7188.6312a2.21,2.21,0,0,0,.7189-1.2624h-.24a1.8838,1.8838,0,0,1,.24-.8412v.21a.2161.2161,0,0,0,.2394-.21,5.7657,5.7657,0,0,0,2.6363,1.8933c-.24-.6312.2394-1.0521-.7189-1.2622.2394-.21.2394-1.4729.2394-1.0521h.24l0-.034c.2435-.0493.5445-.1193.7191.034-.1906,0,.3749.1328.4947.1873a18.3734,18.3734,0,0,0,1.6621-2.9224c0,.1846-.7385-.7653-.9189-1,.1478.0481.6791-.2618.6791-.2618a1.5975,1.5975,0,0,0-.9582-.21.6073.6073,0,0,1,.2394-.8417c-.2394-.6312,0-.8414-.2394-1.2624a4.12,4.12,0,0,1,.4792-3.366c-.24-.6312-.24-1.0521-.4792-1.6833.4792-.4207.2394-.8414.4792-1.4726h-.24c.4795-.4209.7189-.21.9587-1.2622h-.24v-.6312a13.0555,13.0555,0,0,0,1.9174-3.5769,1.6736,1.6736,0,0,0,.7188-.6309v-.21c0-.421-.24-.6312-.24-1.0521a1.4549,1.4549,0,0,0,0,1.0521s-.479.21-.479.4207c.2394-1.2624.7188-2.1041.9582-3.156.24,0,.4795.4207.7188.21.4795-.4209.4795-.8417,1.1986-1.4726-.24-1.0519.479-.6312.9582-1.2624l-.4792.21a2.5477,2.5477,0,0,1,1.9169-.421c.24-.8414.9587-1.0519,1.4377-1.6831v-.21c1.4379,0,.4795,0,1.6776-.6312,0,0-.24.21,0,.21.24-.21.24-.21.24-.42s0-.21-.24-.4212c-.24,0-.479.2107-.7188.2107a7.3517,7.3517,0,0,0,0-2.3143.6162.6162,0,0,1,.1029-.2854l-.1029-.1355a1.0769,1.0769,0,0,1,.1376.0733.6107.6107,0,0,0,.1022-.2836.657.657,0,0,1,.2308.5019c.0786.003.1383-.1161.2482-.5019.24,0,0,.4207.24.6312a12.682,12.682,0,0,1,1.6771-1.6833c.4795-.4207.7188-.8412,1.1985-1.2622a1.43,1.43,0,0,0,.479-1.2624,4.3043,4.3043,0,0,1,.24.8417h.2394c0-.6312.24-1.4729,0-1.8936.7189-1.0519.9585-1.4729,2.1566-1.8934a4.24,4.24,0,0,1,1.0783-2.91l-.5988.1751c-.24-.21.2394-.21,1.4379-.8414-.7191-.421-.24-.8417-1.4379-1.2622a9.2576,9.2576,0,0,0,3.115-4.6286h.4795v-.6312h-.7189v-.4207s.4792-1.6833.4792-1.8936a1.9535,1.9535,0,0,1-.24-.6312c.9587-.21.4795-.6309.7189-1.0521v-.42c0,.21-.2394-.21.24-1.2624A1.9366,1.9366,0,0,0,92.56,77.1663H92.32a5.812,5.812,0,0,1,1.4379-3.7869c0-.21-.24-1.0518-.24-1.2623.24-.21.24.21.7188,0a10.8264,10.8264,0,0,1-.46-2.6511,1.7387,1.7387,0,0,0,.7-.0838,5.5105,5.5105,0,0,1,.4793-1.8935,2.5836,2.5836,0,0,0,0-1.8935c.24-1.0521.24-1.2623.7188-1.0521v-.21s.24-.2106.7189.21a1.1468,1.1468,0,0,1,.24-.8413c0-.6312-.24-.421-.4795-.8417,0-.21.4795-.4208.4795-.6312-.4795-.21-.7189,0-1.1983,0a13.3808,13.3808,0,0,0-.7188-1.6831q.36-.3155.7188-.6312s.24.4208.4795.4208l.15-.5275c.0634-.018.1436-.0393.2378-.06l-.1482-.0434-.0715.0416.0715-.2519c.0909.08.1823.1595.2732.2278a3.2835,3.2835,0,0,1,1.1648-.0176c.24-1.0519.24-.8414-.2394-1.4726a1.9545,1.9545,0,0,0,.2394-.6312h-.9585c0-.8415.4792-.8415.9585-1.2623l-.2394.4207A5.3081,5.3081,0,0,1,99.03,55.2861h.9587c.479-.4208.24-.8414,1.4377-1.0519v-.21c0-.21-.4792-.4208-.4792-.4208a6.9706,6.9706,0,0,1,.2394-2.3142l-.2394.4207c.2394-.4207-.24-.8416.7191-1.0519V49.6057s-.48,0-.48.21c0-1.6831,1.4379-2.3142,2.8756-3.1559a1.5279,1.5279,0,0,1,.4795.8417,3.4372,3.4372,0,0,0,.238-1.2628l-.717-.21-.24.21c-.24-.4208,0-.21-.4795-.6311a3.1244,3.1244,0,0,0,1.6776-3.787,1.0219,1.0219,0,0,1-.5512.1922,1.9785,1.9785,0,0,0-1.1264.0182c.24-1.052,0-.8416.4795-1.4726,0-.6312-.24-1.4729-.24-2.1041-.08.0175-.1462.031-.2068.043a.9324.9324,0,0,1-.5123.1675c0,.0887.1288.0634.2764.0065-.2514.1352-.516.3036-.516.4142v-.8414a.7185.7185,0,0,0,.4795-.3159v-.3152l-.0678-.6633-.1721.453a6.57,6.57,0,0,1-.2713-2.6991c.0819-.1131.1261-.2438.1811-.3249l-.0692-.68.1163.63c.0881-.0692.22-.0146.5223.3392,0-.6312.24-1.2624.24-1.8935,0-.204.6737-.6033.4954-.0509a1.4808,1.4808,0,0,1,.4631.0509c.2394-.21,0-.6312.2394-.8415a1.8736,1.8736,0,0,0,.7189.4208,4.0382,4.0382,0,0,1,.4894-.9609c.01.02.0273-.0075.0481-.0639a3.099,3.099,0,0,1,.4212-.4479l-.3872.34a5.3257,5.3257,0,0,0,.1422-.69C106.4286,30.2928,106.7311,30.0148,106.8666,29.893ZM41.5188,86.7459a.6769.6769,0,0,0,.0692.0983h-.0692Zm.2638.0983c.064-.081.1211-.21.2153-.21l.24.21Zm1.8929-5.8908.0458-.04C43.81,80.8845,43.8205,80.89,43.6755,80.9535Zm2.3962,23.774a.0557.0557,0,0,0-.0146-.0432c.0823.0136.1668.0278.2542.0432Zm6.911,10.7944a2.7185,2.7185,0,0,1,.5179-.0648,2.9628,2.9628,0,0,0,.1411.3072A2.2133,2.2133,0,0,0,52.9827,115.5218Zm8.4255,7.2989c.02.1237.05.2669.0851.4228A1.0444,1.0444,0,0,1,61.4081,122.8207Zm.1591.56.08.071C61.7891,123.5761,61.68,123.5495,61.5673,123.3809Zm41.05-88.91c.0042-.0272.0074-.036.0074-.0133Z"/>
</svg>
