<?xml version="1.0" encoding="UTF-8"?>
<svg width="16px" height="16px" viewBox="0 0 16 16" version="1.1" xmlns="http://www.w3.org/2000/svg" xmlns:xlink="http://www.w3.org/1999/xlink">
    <!-- Generator: sketchtool 49.1 (51147) - http://www.bohemiancoding.com/sketch -->
    <title>icons/instagram</title>
    <desc>Created with sketchtool.</desc>
    <defs></defs>
    <g id="Page-1" stroke="none" stroke-width="1" fill="none" fill-rule="evenodd">
        <g id="icons/instagram" transform="translate(-1.000000, -1.000000)" fill="#000000">
            <path d="M7.3359375,9 C7.3359375,8.078125 8.078125,7.3359375 9,7.3359375 C9.921875,7.3359375 10.6640625,8.078125 10.6640625,9 C10.6640625,9.921875 9.921875,10.6640625 9,10.6640625 C8.078125,10.6640625 7.3359375,9.921875 7.3359375,9 Z M12.6640625,5.6640625 L12.6640625,6.6640625 C12.6640625,6.8515625 12.515625,7 12.3359375,7 L11.3359375,7 C11.1484375,7 11,6.8515625 11,6.6640625 L11,5.6640625 C11,5.484375 11.1484375,5.3359375 11.3359375,5.3359375 L12.3359375,5.3359375 C12.515625,5.3359375 12.6640625,5.484375 12.6640625,5.6640625 Z M11.5859375,8.3359375 L12.6640625,8.3359375 L12.6640625,12.3359375 C12.6640625,12.515625 12.515625,12.6640625 12.3359375,12.6640625 L5.6640625,12.6640625 C5.484375,12.6640625 5.3359375,12.515625 5.3359375,12.3359375 L5.3359375,8.3359375 L6.4140625,8.3359375 C6.359375,8.546875 6.3359375,8.7734375 6.3359375,9 C6.3359375,10.46875 7.5234375,11.6640625 9,11.6640625 C10.4765625,11.6640625 11.6640625,10.46875 11.6640625,9 C11.6640625,8.7734375 11.640625,8.546875 11.5859375,8.3359375 Z M9,1 C13.4140625,1 17,4.5859375 17,9 C17,13.4140625 13.4140625,17 9,17 C4.5859375,17 1,13.4140625 1,9 C1,4.5859375 4.5859375,1 9,1 Z M13.6640625,12.3359375 L13.6640625,5.6640625 C13.6640625,4.9296875 13.0703125,4.3359375 12.3359375,4.3359375 L5.6640625,4.3359375 C4.9296875,4.3359375 4.3359375,4.9296875 4.3359375,5.6640625 L4.3359375,12.3359375 C4.3359375,13.0703125 4.9296875,13.6640625 5.6640625,13.6640625 L12.3359375,13.6640625 C13.0703125,13.6640625 13.6640625,13.0703125 13.6640625,12.3359375 Z" id="instagram"></path>
        </g>
    </g>
</svg>