<?xml version="1.0" encoding="UTF-8"?>
<svg width="16px" height="16px" viewBox="0 0 16 16" version="1.1" xmlns="http://www.w3.org/2000/svg" xmlns:xlink="http://www.w3.org/1999/xlink">
    <!-- Generator: sketchtool 49.1 (51147) - http://www.bohemiancoding.com/sketch -->
    <title>icons/left-circle</title>
    <desc>Created with sketchtool.</desc>
    <defs></defs>
    <g id="Page-1" stroke="none" stroke-width="1" fill="none" fill-rule="evenodd">
        <g id="icons/left-circle" transform="translate(-1.000000, -1.000000)" fill="#000000">
            <path d="M8.46875,14.1979167 L13.1979167,9.46875 C13.3298618,9.3368049 13.3958333,9.18055646 13.3958333,9 C13.3958333,8.81944354 13.3298618,8.6631951 13.1979167,8.53125 L8.46875,3.80208333 C8.3368049,3.67013823 8.18055646,3.60416667 8,3.60416667 C7.81944354,3.60416667 7.6631951,3.67013823 7.53125,3.80208333 L6.46875,4.86458333 C6.3368049,4.99652844 6.27083333,5.15277688 6.27083333,5.33333333 C6.27083333,5.51388979 6.3368049,5.67013823 6.46875,5.80208333 L9.66666667,9 L6.46875,12.1979167 C6.3368049,12.3298618 6.27083333,12.4861102 6.27083333,12.6666667 C6.27083333,12.8472231 6.3368049,13.0034716 6.46875,13.1354167 L7.53125,14.1979167 C7.6631951,14.3298618 7.81944354,14.3958333 8,14.3958333 C8.18055646,14.3958333 8.3368049,14.3298618 8.46875,14.1979167 Z M17,9 C17,10.4513961 16.6423647,11.7899244 15.9270833,13.015625 C15.211802,14.2413256 14.2413256,15.211802 13.015625,15.9270833 C11.7899244,16.6423647 10.4513961,17 9,17 C7.54860385,17 6.21007557,16.6423647 4.984375,15.9270833 C3.75867443,15.211802 2.78819802,14.2413256 2.07291667,13.015625 C1.35763531,11.7899244 1,10.4513961 1,9 C1,7.54860385 1.35763531,6.21007557 2.07291667,4.984375 C2.78819802,3.75867443 3.75867443,2.78819802 4.984375,2.07291667 C6.21007557,1.35763531 7.54860385,1 9,1 C10.4513961,1 11.7899244,1.35763531 13.015625,2.07291667 C14.2413256,2.78819802 15.211802,3.75867443 15.9270833,4.984375 C16.6423647,6.21007557 17,7.54860385 17,9 Z" id="" transform="translate(9.000000, 9.000000) scale(-1, 1) translate(-9.000000, -9.000000) "></path>
        </g>
    </g>
</svg>