<?xml version="1.0" encoding="UTF-8"?>
<svg width="16px" height="16px" viewBox="0 0 16 16" version="1.1" xmlns="http://www.w3.org/2000/svg" xmlns:xlink="http://www.w3.org/1999/xlink">
    <!-- Generator: sketchtool 49.1 (51147) - http://www.bohemiancoding.com/sketch -->
    <title>icons/linkedin</title>
    <desc>Created with sketchtool.</desc>
    <defs></defs>
    <g id="Page-1" stroke="none" stroke-width="1" fill="none" fill-rule="evenodd">
        <g id="icons/linkedin" transform="translate(-1.000000, -1.000000)" fill="#000000">
            <path d="M9,1 C13.4296875,1 17,4.5703125 17,9 C17,13.4296875 13.4296875,17 9,17 C4.5703125,17 1,13.4296875 1,9 C1,4.5703125 4.5703125,1 9,1 Z M6.6640625,13 L6.6640625,7.3359375 L4.6640625,7.3359375 L4.6640625,13 L6.6640625,13 Z M5.6640625,6.3359375 C6.484375,6.3359375 7,5.8125 7,5.1640625 C6.984375,4.5 6.484375,4 5.6640625,4 C4.8671875,4 4.3359375,4.5 4.3359375,5.1640625 C4.3359375,5.8125 4.8515625,6.3359375 5.6484375,6.3359375 L5.6640625,6.3359375 Z M14,13 L14,10 C14,8.1640625 13.09375,7 11.6640625,7 C10.8515625,7 10.2578125,7.484375 10,8.203125 L9.9296875,7.3359375 L7.9453125,7.3359375 C7.9609375,7.5546875 8,8.6640625 8,8.6640625 L8,13 L10,13 L10,10 C10,9.1875 10.3671875,8.6640625 10.984375,8.6640625 C11.59375,8.6640625 12,8.984375 12,10 L12,13 L14,13 Z" id="linkedin"></path>
        </g>
    </g>
</svg>