<?xml version="1.0" encoding="UTF-8"?>
<svg width="18px" height="16px" viewBox="0 0 18 16" version="1.1" xmlns="http://www.w3.org/2000/svg" xmlns:xlink="http://www.w3.org/1999/xlink">
    <!-- Generator: sketchtool 49.1 (51147) - http://www.bohemiancoding.com/sketch -->
    <title>icons/new-window</title>
    <desc>Created with sketchtool.</desc>
    <defs></defs>
    <g id="Page-1" stroke="none" stroke-width="1" fill="none" fill-rule="evenodd">
        <g id="icons/new-window" transform="translate(0.000000, -2.000000)" fill="#000000">
            <path d="M14.1428571,11.3214286 L14.1428571,14.5357143 C14.1428571,15.3325933 13.8599359,16.0139481 13.2940848,16.5797991 C12.7282338,17.1456502 12.046879,17.4285714 11.25,17.4285714 L2.89285714,17.4285714 C2.09597816,17.4285714 1.41462336,17.1456502 0.848772321,16.5797991 C0.282921278,16.0139481 0,15.3325933 0,14.5357143 L0,6.17857143 C0,5.38169244 0.282921278,4.70033765 0.848772321,4.13448661 C1.41462336,3.56863556 2.09597816,3.28571429 2.89285714,3.28571429 L9.96428571,3.28571429 C10.0580362,3.28571429 10.1350443,3.31584791 10.1953125,3.37611607 C10.2555807,3.43638423 10.2857143,3.51339239 10.2857143,3.60714286 L10.2857143,4.25 C10.2857143,4.34375047 10.2555807,4.42075863 10.1953125,4.48102679 C10.1350443,4.54129494 10.0580362,4.57142857 9.96428571,4.57142857 L2.89285714,4.57142857 C2.45089065,4.57142857 2.07254622,4.72879307 1.7578125,5.04352679 C1.44307878,5.3582605 1.28571429,5.73660493 1.28571429,6.17857143 L1.28571429,14.5357143 C1.28571429,14.9776808 1.44307878,15.3560252 1.7578125,15.6707589 C2.07254622,15.9854926 2.45089065,16.1428571 2.89285714,16.1428571 L11.25,16.1428571 C11.6919665,16.1428571 12.0703109,15.9854926 12.3850446,15.6707589 C12.6997784,15.3560252 12.8571429,14.9776808 12.8571429,14.5357143 L12.8571429,11.3214286 C12.8571429,11.2276781 12.8872765,11.1506699 12.9475446,11.0904018 C13.0078128,11.0301336 13.084821,11 13.1785714,11 L13.8214286,11 C13.915179,11 13.9921872,11.0301336 14.0524554,11.0904018 C14.1127235,11.1506699 14.1428571,11.2276781 14.1428571,11.3214286 Z M18,2.64285714 L18,7.78571429 C18,7.9598223 17.9363846,8.11049044 17.8091518,8.23772321 C17.681919,8.36495599 17.5312509,8.42857143 17.3571429,8.42857143 C17.1830348,8.42857143 17.0323667,8.36495599 16.9051339,8.23772321 L15.1372768,6.46986607 L8.58816964,13.0189732 C8.52120502,13.0859378 8.44419686,13.1194196 8.35714286,13.1194196 C8.27008885,13.1194196 8.19308069,13.0859378 8.12611607,13.0189732 L6.98102679,11.8738839 C6.91406217,11.8069193 6.88058036,11.7299111 6.88058036,11.6428571 C6.88058036,11.5558031 6.91406217,11.478795 6.98102679,11.4118304 L13.5301339,4.86272321 L11.7622768,3.09486607 C11.635044,2.96763329 11.5714286,2.81696516 11.5714286,2.64285714 C11.5714286,2.46874913 11.635044,2.31808099 11.7622768,2.19084821 C11.8895096,2.06361544 12.0401777,2 12.2142857,2 L17.3571429,2 C17.5312509,2 17.681919,2.06361544 17.8091518,2.19084821 C17.9363846,2.31808099 18,2.46874913 18,2.64285714 Z" id=""></path>
        </g>
    </g>
</svg>