<?xml version="1.0" encoding="UTF-8"?>
<svg width="14px" height="16px" viewBox="0 0 14 16" version="1.1" xmlns="http://www.w3.org/2000/svg" xmlns:xlink="http://www.w3.org/1999/xlink">
    <!-- Generator: sketchtool 49.1 (51147) - http://www.bohemiancoding.com/sketch -->
    <title>icons/person</title>
    <desc>Created with sketchtool.</desc>
    <defs></defs>
    <g id="Page-1" stroke="none" stroke-width="1" fill="none" fill-rule="evenodd">
        <g id="icons/person" transform="translate(-2.000000, -1.000000)" fill="#000000">
            <path d="M16,14.2395833 C16,14.9965316 15.7721377,15.6458306 15.3164063,16.1875 C14.8606748,16.7291694 14.3119824,17 13.6703125,17 L4.3296875,17 C3.68801762,17 3.1393252,16.7291694 2.68359375,16.1875 C2.2278623,15.6458306 2,14.9965316 2,14.2395833 C2,13.6493026 2.03098927,13.0920165 2.09296875,12.5677083 C2.15494823,12.0434002 2.26979083,11.5156277 2.4375,10.984375 C2.60520917,10.4531223 2.81848829,9.99826578 3.07734375,9.61979167 C3.33619921,9.24131755 3.67890412,8.93229286 4.10546875,8.69270833 C4.53203338,8.4531238 5.02239306,8.33333333 5.5765625,8.33333333 C6.53177561,9.22222667 7.67291003,9.66666667 9,9.66666667 C10.32709,9.66666667 11.4682244,9.22222667 12.4234375,8.33333333 C12.9776069,8.33333333 13.4679666,8.4531238 13.8945313,8.69270833 C14.3210959,8.93229286 14.6638008,9.24131755 14.9226563,9.61979167 C15.1815117,9.99826578 15.3947908,10.4531223 15.5625,10.984375 C15.7302092,11.5156277 15.8450518,12.0434002 15.9070313,12.5677083 C15.9690107,13.0920165 16,13.6493026 16,14.2395833 Z M13.2,5 C13.2,6.10417219 12.7898479,7.04687109 11.9695312,7.828125 C11.1492146,8.60937891 10.1593808,9 9,9 C7.8406192,9 6.85078535,8.60937891 6.03046875,7.828125 C5.21015215,7.04687109 4.8,6.10417219 4.8,5 C4.8,3.89582781 5.21015215,2.95312891 6.03046875,2.171875 C6.85078535,1.39062109 7.8406192,1 9,1 C10.1593808,1 11.1492146,1.39062109 11.9695312,2.171875 C12.7898479,2.95312891 13.2,3.89582781 13.2,5 Z" id=""></path>
        </g>
    </g>
</svg>