<?xml version="1.0" encoding="UTF-8"?>
<svg width="16px" height="16px" viewBox="0 0 16 16" version="1.1" xmlns="http://www.w3.org/2000/svg" xmlns:xlink="http://www.w3.org/1999/xlink">
    <!-- Generator: sketchtool 49.1 (51147) - http://www.bohemiancoding.com/sketch -->
    <title>icons/pinterest</title>
    <desc>Created with sketchtool.</desc>
    <defs></defs>
    <g id="Page-1" stroke="none" stroke-width="1" fill="none" fill-rule="evenodd">
        <g id="icons/pinterest" transform="translate(-1.000000, -1.000000)" fill="#000000">
            <path d="M8.09375,12.7578125 C8.09375,12.7578125 8.0937464,12.757827 8.09373922,12.7578558 L8.09375,12.7578125 Z M8.09373922,12.7578558 L8.09375,12.7578125 C8.3671875,13.296875 9.1875,13.7578125 10.0546875,13.7578125 C12.6328125,13.7578125 14.3671875,11.40625 14.3671875,8.28125 C14.3671875,5.90625 12.3515625,3.6875 9.3125,3.6875 C5.5,3.6875 3.59375,6.40625 3.59375,8.6875 C3.59375,10.0703125 4.109375,11.296875 5.21875,11.7421875 C5.40625,11.8125 5.5703125,11.7421875 5.6328125,11.5390625 C5.6640625,11.40625 5.7578125,11.0546875 5.796875,10.90625 C5.8515625,10.703125 5.8125,10.6328125 5.6640625,10.4609375 C5.3515625,10.0703125 5.1484375,9.59375 5.1484375,8.890625 C5.1484375,6.8671875 6.6640625,5.0546875 9.09375,5.0546875 C11.2421875,5.0546875 12.40625,6.3671875 12.40625,8.1328125 C12.40625,10.4296875 11.390625,12.3671875 9.8671875,12.3671875 C9.0390625,12.3671875 8.40625,11.6875 8.609375,10.8359375 C8.8515625,9.8125 9.3125,8.71875 9.3125,8 C9.3125,7.3359375 8.9609375,6.796875 8.2421875,6.796875 C7.390625,6.796875 6.703125,7.6875 6.703125,8.8671875 C6.703125,9.6328125 6.9609375,10.1328125 6.9609375,10.1328125 C6.9609375,10.1328125 6.0703125,13.8359375 5.9296875,14.5 C5.78125,15.09375 5.7578125,15.78125 5.796875,16.3359375 C2.9609375,15.09375 1,12.28125 1,9 C1,4.5703125 4.5703125,1 9,1 C13.4296875,1 17,4.5703125 17,9 C17,13.4296875 13.4296875,17 9,17 C8.203125,17 7.4453125,16.890625 6.71875,16.6640625 C7.0390625,16.1875 7.3671875,15.5703125 7.5390625,14.9609375 C7.63255053,14.6103574 8.09117682,12.7681486 8.09373922,12.7578558 Z" id="pinterest"></path>
        </g>
    </g>
</svg>