<?xml version="1.0" encoding="UTF-8"?>
<svg width="164px" height="162px" viewBox="0 0 164 162" version="1.1" xmlns="http://www.w3.org/2000/svg" xmlns:xlink="http://www.w3.org/1999/xlink">
    <!-- Generator: sketchtool 49.1 (51147) - http://www.bohemiancoding.com/sketch -->
    <title>icons/play-button</title>
    <desc>Created with sketchtool.</desc>
    <defs></defs>
    <g id="Page-1" stroke="none" stroke-width="1" fill="none" fill-rule="evenodd">
        <g id="icons/play-butotn" transform="translate(0.000000, -1.000000)" fill="#FFFFFF" fill-rule="nonzero">
            <g id="Page-1" transform="translate(2.000000, 2.000000)">
                <path d="M158.357091,80.1561818 C158.357091,36.863965 123.311759,1.81890909 80.1561818,1.81890909 C36.9998333,1.81890909 1.95436364,36.8638265 1.95436364,80.1561818 C1.95436364,123.447944 37.0001502,158.493455 80.1561818,158.493455 C123.311442,158.493455 158.357091,123.447806 158.357091,80.1561818 Z M161.357091,80.1561818 C161.357091,124.899103 125.035467,161.220727 80.1561818,161.220727 C35.276131,161.220727 -1.04563636,124.899246 -1.04563636,80.1561818 C-1.04563636,35.4125203 35.2758199,-0.908363636 80.1561818,-0.908363636 C125.035778,-0.908363636 161.357091,35.412663 161.357091,80.1561818 Z" id="Stroke-1"></path>
                <path d="M64.8376364,105.022961 L107.908785,80.1561627 L64.8376364,55.2885382 L64.8376364,105.022961 Z M64.1418083,51.6559838 L111.510899,79.0050748 C112.438678,79.5407386 112.438668,80.7716487 111.51088,81.3072999 L64.1417893,108.655482 C63.1431419,109.232043 61.8376364,108.579833 61.8376364,107.504364 L61.8376364,52.8070909 C61.8376364,51.731612 63.1431619,51.0794038 64.1418083,51.6559838 Z" id="Stroke-3"></path>
            </g>
        </g>
    </g>
</svg>