<?xml version="1.0" encoding="UTF-8"?>
<svg width="16px" height="16px" viewBox="0 0 16 16" version="1.1" xmlns="http://www.w3.org/2000/svg" xmlns:xlink="http://www.w3.org/1999/xlink">
    <!-- Generator: sketchtool 49.1 (51147) - http://www.bohemiancoding.com/sketch -->
    <title>icons/twitter</title>
    <desc>Created with sketchtool.</desc>
    <defs></defs>
    <g id="Page-1" stroke="none" stroke-width="1" fill="none" fill-rule="evenodd">
        <g id="icons/twitter" transform="translate(-1.000000, -1.000000)" fill="#000000">
            <path d="M9,1 C13.4296875,1 17,4.5703125 17,9 C17,13.4296875 13.4296875,17 9,17 C4.5703125,17 1,13.4296875 1,9 C1,4.5703125 4.5703125,1 9,1 Z M13.8671875,7.2421875 C14.3125,6.9296875 14.6875,6.515625 15,6.0703125 C14.59375,6.2421875 14.1484375,6.3671875 13.6875,6.4296875 C14.1640625,6.1484375 14.5,5.703125 14.6640625,5.1640625 C14.21875,5.4296875 13.7578125,5.609375 13.2421875,5.71875 C12.8359375,5.28125 12.2421875,5 11.59375,5 C10.3359375,5 9.3359375,6.015625 9.3359375,7.28125 C9.3359375,7.4453125 9.3515625,7.6328125 9.390625,7.796875 C7.5,7.703125 5.8125,6.796875 4.6875,5.40625 C4.5,5.7578125 4.390625,6.1484375 4.390625,6.5546875 C4.390625,7.3515625 4.78125,8.0390625 5.390625,8.4453125 C5.015625,8.4453125 4.6640625,8.3359375 4.3671875,8.1640625 L4.3671875,8.1875 C4.3671875,9.296875 5.1484375,10.203125 6.1875,10.4296875 C6,10.484375 5.796875,10.5 5.59375,10.5 C5.4453125,10.5 5.296875,10.484375 5.1640625,10.4609375 C5.4453125,11.3671875 6.296875,11.984375 7.28125,12 C6.5,12.609375 5.5390625,13.0390625 4.4609375,13.0390625 C4.28125,13.0390625 4.09375,13.015625 3.9296875,13 C4.9296875,13.6484375 6.1328125,14 7.40625,14 C11.59375,14 13.8671875,10.5390625 13.8671875,7.5390625 L13.8671875,7.2421875 Z" id="twitter"></path>
        </g>
    </g>
</svg>