<?xml version="1.0" encoding="UTF-8"?>
<svg width="480px" height="113px" viewBox="0 0 480 113" version="1.1" xmlns="http://www.w3.org/2000/svg" xmlns:xlink="http://www.w3.org/1999/xlink">
    <!-- Generator: sketchtool 43.2 (39069) - http://www.bohemiancoding.com/sketch -->
    <title>branding/branding</title>
    <desc>Created with sketchtool.</desc>
    <defs>
        <polygon id="path-1" points="91.73925 0.3075 0.000166301639 0.3075 0.000166301639 87.5760795 91.73925 87.5760795 91.73925 0.3075"></polygon>
        <polygon id="path-3" points="43.3333333 45.5888333 43.3333333 0.621333333 0.806166667 0.621333333 0.806166667 45.5888333"></polygon>
    </defs>
    <g id="Page-1" stroke="none" stroke-width="1" fill="none" fill-rule="evenodd">
        <g id="branding">
            <g id="Page-1">
                <g id="Group-3" transform="translate(0.000000, 0.525833)">
                    <mask id="mask-2" fill="white">
                        <use xlink:href="#path-1"></use>
                    </mask>
                    <g id="Clip-2"></g>
                    <path d="M22.84425,50.4126667 C22.55675,50.1268333 22.25675,49.8043333 21.9359167,49.4285 C19.70675,55.191 21.1084167,61.931 25.47425,66.2993333 C28.0025833,68.8285 31.3509167,70.426 34.91675,70.8118333 C35.24925,69.741 35.4184167,68.6385 35.4184167,67.5326667 C35.41425,66.3901667 34.6484167,65.3543333 33.5534167,65.0135 C31.95925,64.5218333 30.4934167,63.636 29.3159167,62.4568333 C27.10425,60.2468333 26.0059167,57.0685 26.36675,53.9393333 L22.84425,50.4126667 Z M55.1100833,20.881 C52.6300833,20.881 50.2450833,21.4501667 48.0209167,22.5701667 C47.7584167,22.7026667 47.48925,22.851 47.1959167,23.0251667 L47.0159167,23.1285 C46.8025833,23.2493333 46.5925833,23.3718333 46.3909167,23.506 C45.53175,24.076 44.7134167,24.746 43.95925,25.4976667 L43.6000833,25.856 C43.5850833,25.871 43.5684167,25.8826667 43.5500833,25.8918333 L32.6409167,36.7651667 C31.61175,37.796 31.61175,39.4751667 32.6409167,40.506 L34.61175,42.476 L47.7934167,29.3435 C48.7809167,28.3585 49.92675,27.5968333 51.2000833,27.0785 C51.5484167,26.9368333 51.90675,26.8151667 52.2659167,26.716 C52.62675,26.611 53.0075833,26.5268333 53.42675,26.4618333 C54.0175833,26.3618333 54.56925,26.3135 55.1100833,26.3135 C57.8759167,26.3135 60.47425,27.3901667 62.4275833,29.346 C64.6409167,31.5568333 65.7384167,34.736 65.37675,37.8643333 L68.88175,41.3693333 C69.1684167,41.6543333 69.47425,41.986 69.8100833,42.3751667 C72.0400833,36.6135 70.6384167,29.8743333 66.2709167,25.5043333 C63.2909167,22.5235 59.3275833,20.881 55.1100833,20.881 L55.1100833,20.881 Z M77.6159167,13.0985 C68.5175833,4.36183333 56.5709167,-0.159 43.96425,0.345166667 C32.6375833,0.806833333 21.9009167,5.486 13.73175,13.5235 C5.56258333,21.561 0.710916667,32.221 0.0734166667,43.536 C-0.956583333,61.7993333 8.94675,78.9243333 25.3025833,87.1651667 C25.9625833,87.4968333 26.7109167,87.621 27.4059167,87.516 C31.6809167,86.8635 35.5575833,84.8993333 38.61925,81.8376667 C41.34925,79.1068333 43.2284167,75.6526667 44.05425,71.8518333 C44.06925,71.7776667 44.0884167,71.7001667 44.1100833,71.6243333 C44.1325833,71.5335 44.14175,71.5018333 44.14675,71.4693333 C44.1759167,71.3268333 44.1950833,71.1868333 44.2150833,71.0451667 L44.2684167,70.6585 C44.28425,70.5651667 44.29675,70.4826667 44.3059167,70.4001667 L44.3459167,70.1351667 C44.3734167,69.9601667 44.3934167,69.8393333 44.40675,69.7151667 L44.4175833,69.6151667 C44.42925,69.5043333 44.4409167,69.401 44.4484167,69.296 C44.4600833,69.1801667 44.4634167,69.0743333 44.4659167,68.9701667 L44.4859167,68.5501667 C44.49925,68.336 44.5100833,68.1343333 44.5150833,67.9376667 C44.5200833,67.6668333 44.5200833,67.396 44.5150833,67.1251667 C44.4884167,65.8176667 44.33425,64.501 44.05425,63.2135 C43.9034167,62.521 43.7059167,61.8135 43.4500833,61.0485 L43.3809167,60.8401667 C43.30175,60.6026667 43.2225833,60.3668333 43.1309167,60.1318333 C43.0559167,59.9418333 42.9709167,59.7518333 42.8859167,59.5585 L42.7600833,59.2818333 C41.86175,57.2668333 40.6375833,55.4193333 39.1209167,53.786 L38.2759167,52.9485 C38.21175,52.9101667 38.11425,52.8051667 38.0459167,52.6935 L29.3159167,43.981 C29.09675,43.7626667 28.8800833,43.5218333 28.6525833,43.2485 L28.4559167,42.9951667 C28.3234167,42.8226667 28.1934167,42.6468333 28.0725833,42.4718333 C28.02925,42.406 27.9909167,42.3476667 27.95425,42.2885 L27.8759167,42.166 C27.76425,41.9843333 27.6650833,41.816 27.56925,41.6468333 C27.5034167,41.5251667 27.4475833,41.4185 27.3934167,41.311 C27.3025833,41.1268333 27.2200833,40.9493333 27.1425833,40.7701667 L27.0100833,40.4568333 C26.9275833,40.2443333 26.86175,40.0468333 26.7959167,39.8485 L26.7650833,39.7468333 C26.7450833,39.6918333 26.7200833,39.6218333 26.7009167,39.5526667 C26.6034167,39.2051667 26.5325833,38.9151667 26.4784167,38.6385 C26.4675833,38.5893333 26.4584167,38.5251667 26.4500833,38.4585 L26.43175,38.3276667 C26.3425833,37.776 26.2975833,37.2593333 26.29425,36.7493333 C26.28675,35.9518333 26.3559167,35.2693333 26.51925,34.5326667 C26.8675833,32.9685 27.4850833,31.5943333 28.35675,30.4476667 C30.3509167,27.821 33.3675833,26.3135 36.6334167,26.3135 C37.0209167,26.3135 37.41675,26.3385 37.8409167,26.3926667 L41.33925,22.8935 C41.6525833,22.5776667 41.98675,22.2701667 42.3534167,21.9576667 C39.55425,20.8585 36.5659167,20.6001667 33.46675,21.1835 C32.19675,21.4235 30.97925,21.8276667 29.84675,22.3851667 C23.78675,25.3726667 20.2909167,31.586 20.9375833,38.2143333 C20.9575833,38.4126667 20.9884167,38.6076667 21.0209167,38.8051667 L21.06425,39.0776667 C21.1084167,39.376 21.15425,39.6601667 21.21425,39.9451667 L21.23175,40.0735 C21.2975833,40.3818333 21.38925,40.7426667 21.4950833,41.1035 L21.5709167,41.3326667 C21.68175,41.6901667 21.8084167,42.0526667 21.9484167,42.4118333 C21.9975833,42.5435 22.0484167,42.6651667 22.1000833,42.7885 C22.23425,43.1076667 22.38425,43.4326667 22.5450833,43.7526667 L22.70175,44.0668333 C22.70425,44.0735 22.70675,44.0785 22.70925,44.0851667 C22.7584167,44.1793333 22.81425,44.2726667 22.86925,44.3668333 L22.9984167,44.5918333 C23.1284167,44.8135 23.2575833,45.0343333 23.3984167,45.2493333 L23.5925833,45.5335 C23.8175833,45.8601667 24.03925,46.1601667 24.24925,46.4251667 L24.5125833,46.7618333 C24.8584167,47.1735 25.17425,47.521 25.47675,47.8251667 L34.71675,57.0618333 C34.7875833,57.1035 34.8525833,57.1551667 34.9100833,57.2135 C34.99675,57.3035 35.0834167,57.3993333 35.1700833,57.4943333 L35.36425,57.7143333 C36.4075833,58.8843333 37.24925,60.1893333 37.86175,61.591 C37.9759167,61.8493333 38.0775833,62.1085 38.17425,62.3735 L38.2009167,62.4401667 C38.3100833,62.7351667 38.4159167,63.0243333 38.5009167,63.316 C38.52675,63.4026667 38.5500833,63.4935 38.56925,63.5868333 L38.60175,63.7201667 C38.64925,63.8926667 38.69675,64.0776667 38.7400833,64.2685 C38.9859167,65.3626667 39.1109167,66.4618333 39.1109167,67.5326667 C39.1109167,69.076 38.86675,70.6126667 38.38425,72.101 C38.2625833,72.4843333 38.1500833,72.7993333 38.0309167,73.0951667 C37.8859167,73.4493333 37.7209167,73.7868333 37.57425,74.0851667 C36.84675,75.5535 35.9059167,76.8693333 34.7775833,77.9951667 C32.6934167,80.081 30.0700833,81.4801667 27.19175,82.046 L27.1059167,82.0601667 C26.8675833,82.1143333 26.6234167,82.0851667 26.4150833,81.9668333 C13.2850833,74.8051667 5.12675,61.0901667 5.12675,46.1751667 C5.12675,23.7093333 23.4034167,5.43266667 45.8684167,5.43266667 C68.33425,5.43266667 86.6109167,23.7093333 86.6109167,46.1751667 C86.6109167,60.9901667 78.5259167,74.6626667 65.5109167,81.8535 L65.33925,81.9576667 C65.2050833,82.026 65.10425,82.0318333 65.0550833,82.036 C65.0084167,82.0501667 64.8759167,82.0876667 64.70425,82.0601667 C61.7909167,81.4968333 59.1475833,80.091 57.0525833,77.9951667 C55.92425,76.8693333 54.9850833,75.5576667 54.2600833,74.0951667 C54.1384167,73.8518333 53.95925,73.4835 53.80175,73.101 C53.6875833,72.8193333 53.57425,72.5043333 53.44675,72.1051667 C52.9634167,70.6118333 52.7184167,69.0743333 52.7184167,67.5326667 C52.7184167,66.4643333 52.8425833,65.3685 53.08675,64.2793333 C53.1384167,64.0485 53.1975833,63.8168333 53.2609167,63.5868333 L53.27925,63.5076667 C53.29675,63.4301667 53.31175,63.3743333 53.3275833,63.3218333 C53.4175833,63.0151667 53.5300833,62.7101667 53.6459167,62.3985 C53.7700833,62.0618333 53.9025833,61.7401667 54.04925,61.416 C54.7909167,59.7818333 55.8025833,58.3185 57.0525833,57.0693333 C57.0775833,57.0293333 57.1084167,56.9893333 57.1425833,56.951 L61.31675,52.7743333 C61.20425,52.4718333 61.07175,52.1801667 60.9200833,51.9076667 L60.8734167,51.8293333 C60.7375833,51.5976667 60.6184167,51.4143333 60.47425,51.2151667 L60.34675,51.0401667 C60.16675,50.811 59.99175,50.6101667 59.8175833,50.4351667 L57.89675,48.516 L53.2125833,53.226 C52.5909167,53.846 51.9900833,54.551 51.3175833,55.446 C50.4059167,56.6635 49.6384167,57.9685 49.0350833,59.3235 C48.90675,59.6101667 48.7850833,59.8993333 48.6709167,60.1918333 C48.5534167,60.4918333 48.4475833,60.7951667 48.34675,61.1001667 C48.10675,61.811 47.9109167,62.5151667 47.7634167,63.196 C47.48425,64.4826667 47.3309167,65.8051667 47.3050833,67.1268333 L47.3109167,67.2493333 C47.3134167,67.346 47.3150833,67.4376667 47.3150833,67.5326667 C47.3150833,67.626 47.3134167,67.7168333 47.3109167,67.8093333 L47.3050833,67.9785 C47.3084167,68.0643333 47.3150833,68.1893333 47.3225833,68.3176667 L47.35175,68.9018333 C47.35925,69.1093333 47.3634167,69.2201667 47.37425,69.3335 L47.4034167,69.6826667 C47.4184167,69.8235 47.4425833,69.9718333 47.4659167,70.1176667 L47.5425833,70.611 C47.5584167,70.7201667 47.5725833,70.8276667 47.58675,70.9343333 C47.6184167,71.176 47.63925,71.3401667 47.67175,71.501 C47.68175,71.5476667 47.6950833,71.5993333 47.7084167,71.6468333 L47.72425,71.7076667 C47.7425833,71.7768333 47.7550833,71.8251667 47.7650833,71.8751667 C48.6025833,75.7301667 50.4534167,79.176 53.1184167,81.8351667 C56.2325833,84.951 60.1759167,86.926 64.52175,87.5468333 C65.1009167,87.6335 65.71425,87.5251667 66.25675,87.2535 C81.9750833,79.421 91.73925,63.6818333 91.73925,46.1776667 C91.73925,33.5901667 86.7234167,21.8426667 77.6159167,13.0985 L77.6159167,13.0985 Z M70.87675,55.291 L70.8800833,55.036 C70.87675,54.6093333 70.8559167,54.1701667 70.81675,53.7335 L70.78925,53.4751667 C70.73675,52.971 70.6734167,52.531 70.59675,52.1268333 C70.5125833,51.7043333 70.4084167,51.2785 70.2709167,50.791 L70.1984167,50.5385 C70.0750833,50.126 69.9284167,49.7093333 69.76675,49.301 L69.69425,49.1293333 C69.5284167,48.7276667 69.37175,48.3835 69.2034167,48.0501667 L69.13925,47.916 C69.1150833,47.8635 69.1009167,47.8343333 69.08675,47.8068333 C68.9759167,47.5985 68.86425,47.4068333 68.7525833,47.216 C68.62925,47.0026667 68.5009167,46.7968333 68.36675,46.5885 L68.2200833,46.3593333 C67.9709167,45.9876667 67.7009167,45.6201667 67.41675,45.2685 L67.2425833,45.0585 C66.8825833,44.6285 66.57425,44.286 66.2700833,43.981 L54.8850833,32.6918333 C54.3875833,32.1943333 53.72425,31.9201667 53.0184167,31.9201667 C52.3084167,31.9201667 51.6450833,32.1951667 51.1459167,32.6926667 L49.1750833,34.6635 L62.4275833,47.8218333 C62.70425,48.0976667 62.9825833,48.4151667 63.2759167,48.7943333 C63.3275833,48.8601667 63.37925,48.9293333 63.4284167,48.9993333 L63.4934167,49.0885 C63.6775833,49.3443333 63.8534167,49.6135 64.01675,49.8918333 L64.05925,49.9593333 C64.1025833,50.031 64.14675,50.1051667 64.18675,50.1785 C64.3700833,50.5135 64.53925,50.8693333 64.6884167,51.2326667 L64.7784167,51.471 C64.8934167,51.7743333 64.9859167,52.0918333 65.0459167,52.3026667 L65.0909167,52.4443333 C65.12925,52.5868333 65.15675,52.7035 65.1834167,52.8218333 C65.22675,53.0118333 65.2584167,53.2035 65.2900833,53.4001667 L65.3175833,53.5576667 C65.32175,53.5785 65.3284167,53.6168333 65.3350833,53.6568333 L65.3625833,53.831 C65.3650833,53.8485 65.3650833,53.866 65.3634167,53.8818333 C65.4500833,54.6043333 65.4600833,55.3435 65.3925833,56.0801667 C65.3175833,56.8743333 65.16175,57.6243333 64.9150833,58.3768333 L64.88425,58.4718333 C64.6575833,59.141 64.3484167,59.8051667 63.96175,60.4518333 C63.9109167,60.5368333 63.8575833,60.621 63.80425,60.7051667 C63.36925,61.3876667 62.91675,61.9618333 62.42175,62.4568333 C61.8434167,63.0376667 61.1859167,63.5526667 60.4684167,63.986 C60.3950833,64.031 60.31425,64.0643333 60.23425,64.0976667 C60.19675,64.111 60.1650833,64.1243333 60.1359167,64.1401667 C59.3859167,64.5593333 58.7834167,64.8293333 58.18425,65.0135 C57.08925,65.3543333 56.3225833,66.391 56.31925,67.5343333 C56.31925,68.6368333 56.4884167,69.7393333 56.8200833,70.811 C57.31175,70.7485 57.80675,70.6401667 58.2859167,70.5351667 L58.4650833,70.4976667 C58.58425,70.4701667 58.7050833,70.4526667 58.82675,70.4343333 C58.9784167,70.4118333 59.0909167,70.3951667 59.2000833,70.3651667 C59.8709167,70.1876667 60.5384167,69.9126667 61.1259167,69.6685 C61.2375833,69.6243333 61.34925,69.5868333 61.4600833,69.5501667 C61.5675833,69.5143333 61.6750833,69.4793333 61.7784167,69.4326667 C63.45675,68.6543333 64.9684167,67.5993333 66.2709167,66.2993333 C66.7609167,65.8076667 67.2425833,65.2426667 67.74175,64.5718333 C67.81175,64.4776667 67.87425,64.381 67.93675,64.2843333 C68.0009167,64.1843333 68.04925,64.1093333 68.1000833,64.0335 C68.4475833,63.5251667 68.70925,63.1026667 68.9259167,62.7026667 C69.0409167,62.4926667 69.14175,62.2793333 69.2434167,62.0643333 L69.2984167,61.9535 C69.5159167,61.4935 69.6934167,61.0776667 69.8409167,60.6826667 C69.94425,60.4076667 70.0384167,60.1326667 70.1250833,59.8535 C70.15425,59.7635 70.18675,59.6743333 70.2200833,59.5868333 C70.25425,59.4951667 70.2884167,59.4018333 70.31425,59.3068333 C70.3925833,59.021 70.46425,58.7343333 70.5259167,58.4451667 C70.5400833,58.376 70.55175,58.3035 70.56425,58.2301667 L70.67675,57.5818333 C70.68925,57.5135 70.70675,57.4526667 70.72675,57.3968333 C70.7550833,57.1776667 70.7859167,56.9226667 70.8109167,56.6626667 C70.8334167,56.4168333 70.84175,56.1576667 70.84925,55.896 L70.8559167,55.7326667 C70.85675,55.7151667 70.85925,55.7001667 70.8634167,55.6835 C70.8600833,55.6693333 70.85925,55.6535 70.8600833,55.6376667 L70.8675833,55.4701667 C70.8725833,55.4093333 70.8759167,55.3535 70.87675,55.291 L70.87675,55.291 Z" id="Fill-1" fill="#37A87F" mask="url(#mask-2)"></path>
                </g>
                <path d="M120.26775,44.5925 L120.26775,44.465 C120.26775,32.1308333 129.32525,21.2091667 142.816083,21.2091667 C150.396083,21.2091667 155.086083,23.3941667 159.581917,27.1841667 L156.306917,31.0375 C152.836917,28.0191667 148.98275,25.8983333 142.623583,25.8983333 C132.666083,25.8983333 125.53525,34.3141667 125.53525,44.335 L125.53525,44.465 C125.53525,55.1925 132.408583,63.1575 143.329417,63.1575 C148.468583,63.1575 153.22275,61.1666667 156.306917,58.6616667 L156.306917,47.4833333 L142.623583,47.4833333 L142.623583,42.9225 L161.18775,42.9225 L161.18775,60.845 C157.01275,64.5708333 150.716917,67.7191667 143.136083,67.7191667 C129.004417,67.7191667 120.26775,57.4408333 120.26775,44.5925" id="Fill-4" fill="#454546"></path>
                <polygon id="Fill-6" fill="#454546" points="177.75475 21.9801667 182.830583 21.9801667 182.830583 62.2585 208.140583 62.2585 208.140583 66.9476667 177.75475 66.9476667"></polygon>
                <path d="M252.587917,50.5023333 L242.37375,27.5681667 L232.095417,50.5023333 L252.587917,50.5023333 Z M240.062083,21.6598333 L244.815417,21.6598333 L265.307917,66.9473333 L259.847083,66.9473333 L254.579583,55.064 L230.104583,55.064 L224.772917,66.9473333 L219.56875,66.9473333 L240.062083,21.6598333 Z" id="Fill-8" fill="#454546"></path>
                <path d="M295.531417,62.2585 C306.901417,62.2585 314.160583,54.5501667 314.160583,44.5926667 L314.160583,44.4643333 C314.160583,34.5068333 306.901417,26.6701667 295.531417,26.6701667 L284.995583,26.6701667 L284.995583,62.2585 L295.531417,62.2585 Z M279.921417,21.9801667 L295.531417,21.9801667 C309.663917,21.9801667 319.428083,31.6801667 319.428083,44.3351667 L319.428083,44.4643333 C319.428083,57.1193333 309.663917,66.9476667 295.531417,66.9476667 L279.921417,66.9476667 L279.921417,21.9801667 Z" id="Fill-10" fill="#454546"></path>
                <polygon id="Fill-12" fill="#454546" points="336.271167 21.9801667 341.0245 21.9801667 369.3545 58.0185 369.3545 21.9801667 374.301167 21.9801667 374.301167 66.9476667 370.252833 66.9476667 341.217833 30.0751667 341.217833 66.9476667 336.271167 66.9476667"></polygon>
                <polygon id="Fill-14" fill="#454546" points="393.54 21.9801667 426.045 21.9801667 426.045 26.606 398.615 26.606 398.615 41.9585 423.154167 41.9585 423.154167 46.5835 398.615 46.5835 398.615 62.3226667 426.366667 62.3226667 426.366667 66.9476667 393.54 66.9476667"></polygon>
                <g id="Group-18" transform="translate(436.666667, 21.359167)">
                    <mask id="mask-4" fill="white">
                        <use xlink:href="#path-3"></use>
                    </mask>
                    <g id="Clip-17"></g>
                    <polygon id="Fill-16" fill="#454546" mask="url(#mask-4)" points="19.5003333 27.7938333 0.806166667 0.621333333 6.97366667 0.621333333 22.1345 23.1055 37.4245 0.621333333 43.3336667 0.621333333 24.6395 27.7296667 24.6395 45.5888333 19.5003333 45.5888333"></polygon>
                </g>
                <path d="M123.245417,101.354333 C123.245417,95.1935 127.767083,89.541 133.475417,89.541 C135.70875,89.541 137.46125,90.3326667 138.50625,91.8301667 L139.580417,89.6268333 L141.077917,89.6268333 L139.382083,96.5218333 L138.082917,96.5218333 C137.884583,92.4518333 136.019583,91.0668333 133.39125,91.0668333 C128.417917,91.0668333 125.78875,96.8043333 125.78875,101.382667 C125.78875,105.141833 127.654583,107.261 130.707083,107.261 C134.04125,107.261 135.934583,104.491833 137.375417,101.326 L138.732083,101.891833 C137.234583,105.649333 134.719583,108.8435 130.39625,108.8435 C125.50625,108.8435 123.245417,105.481 123.245417,101.354333" id="Fill-19" fill="#37A87F"></path>
                <path d="M143.5775,102.173833 C148.381667,101.524667 149.850833,99.8855 149.850833,98.1321667 C149.850833,97.228 149.285833,96.6063333 148.325,96.6063333 C146.063333,96.6063333 144.226667,99.5463333 143.5775,102.173833 M143.379167,103.219667 C143.3225,103.503 143.3225,103.7855 143.3225,104.038833 C143.3225,106.328 144.425,107.3455 145.979167,107.3455 C147.533333,107.3455 148.918333,106.299667 150.161667,104.491333 L151.0375,105.056333 C149.680833,107.1205 148.014167,108.673833 145.385833,108.673833 C142.841667,108.673833 141.061667,106.8655 141.061667,103.927167 C141.061667,99.6021667 145.018333,95.4763333 148.748333,95.4763333 C150.783333,95.4763333 151.885,96.6063333 151.885,98.0763333 C151.885,100.563 149.200833,102.598833 143.379167,103.219667" id="Fill-21" fill="#37A87F"></path>
                <path d="M165.273417,107.00625 C165.95175,107.00625 166.658417,105.819583 167.365083,103.869583 L168.35425,104.180417 C167.13925,107.71375 165.895917,108.67375 164.65175,108.67375 C163.493417,108.67375 162.58925,107.82625 162.58925,106.187917 C162.617583,103.55875 164.595917,100.675417 164.595917,98.3870833 C164.595917,97.7654167 164.340917,97.22875 163.605917,97.22875 C161.995083,97.22875 159.310917,100.22375 157.078417,108.419583 L154.78925,108.419583 L157.163417,99.5179167 C157.755917,97.3420833 157.47425,96.9179167 156.93675,96.9179167 C156.145917,96.9179167 155.382583,98.3304167 154.50675,100.11125 L153.545083,99.6870833 C154.703417,97.0579167 155.863417,95.5329167 157.41675,95.5329167 C158.547583,95.5329167 159.197583,96.3520833 159.197583,97.8504167 C159.197583,98.8395833 158.915083,100.11125 158.575917,101.15625 L158.773417,101.242083 C160.582583,97.4829167 162.53175,95.47625 164.45425,95.47625 C165.86675,95.47625 166.800083,96.6070833 166.800083,98.3029167 C166.800083,100.704583 164.680083,104.32125 164.680083,106.299583 C164.680083,106.639583 164.792583,107.00625 165.273417,107.00625" id="Fill-23" fill="#37A87F"></path>
                <path d="M174.995917,97.17225 L173.158417,103.841417 C172.875917,104.943083 172.790917,105.481417 172.790917,105.848083 C172.790917,106.638917 173.242583,106.94975 173.835917,106.94975 C174.995917,106.94975 175.900083,105.481417 176.747583,103.643917 L177.73675,103.95475 C176.238417,107.938917 174.430083,108.673917 173.21425,108.673917 C171.490917,108.673917 170.58675,107.656417 170.58675,106.216417 C170.58675,105.423917 170.897583,104.238083 171.095917,103.445583 L172.81925,97.17225 L170.247583,97.17225 L170.558417,95.9289167 L173.130083,95.9289167 L174.09175,92.3955833 L176.35175,92.1130833 L175.30675,95.9289167 L179.178417,95.9289167 L178.838417,97.17225 L174.995917,97.17225 Z" id="Fill-25" fill="#37A87F"></path>
                <path d="M182.4715,102.173833 C187.275667,101.524667 188.744833,99.8855 188.744833,98.1321667 C188.744833,97.228 188.179833,96.6063333 187.218167,96.6063333 C184.957333,96.6063333 183.120667,99.5463333 182.4715,102.173833 M182.273167,103.219667 C182.215667,103.503 182.215667,103.7855 182.215667,104.038833 C182.215667,106.328 183.319,107.3455 184.873167,107.3455 C186.427333,107.3455 187.8115,106.299667 189.055667,104.491333 L189.9315,105.056333 C188.574833,107.1205 186.907333,108.673833 184.279833,108.673833 C181.735667,108.673833 179.954833,106.8655 179.954833,103.927167 C179.954833,99.6021667 183.912333,95.4763333 187.642333,95.4763333 C189.677333,95.4763333 190.779,96.6063333 190.779,98.0763333 C190.779,100.563 188.094833,102.598833 182.273167,103.219667" id="Fill-27" fill="#37A87F"></path>
                <path d="M196.056333,99.5175833 C196.649667,97.3425833 196.367167,96.9175833 195.8305,96.9175833 C195.038833,96.9175833 194.2755,98.3300833 193.399667,100.110917 L192.438833,99.68675 C193.597167,97.0584167 194.756333,95.5334167 196.3105,95.5334167 C197.4405,95.5334167 198.089667,96.35175 198.089667,97.8500833 C198.089667,98.8400833 197.808,100.110917 197.468833,101.15675 L197.6955,101.24175 C199.418833,97.6250833 200.803,95.4759167 202.498833,95.4759167 C203.432167,95.4759167 204.1105,96.12675 204.1105,97.1150833 C204.1105,98.2175833 203.403,99.12175 202.556333,99.12175 C201.793,99.12175 201.283833,98.5284167 201.369667,97.5109167 C200.209667,98.0475833 197.808,101.552583 195.971333,108.420083 L193.682167,108.420083 L196.056333,99.5175833 Z" id="Fill-29" fill="#37A87F"></path>
                <path d="M206.879917,111.472333 C206.879917,110.652333 207.444917,109.889 208.32075,109.889 C209.084917,109.889 209.451583,110.454 209.451583,110.9915 C209.451583,111.3865 209.309917,111.8115 209.084917,112.065667 C210.044917,112.065667 210.497417,111.358167 211.401583,107.0915 L213.49325,97.1723333 L210.72325,97.1723333 L211.062417,95.929 L213.747417,95.929 C214.736583,91.0956667 216.94075,88.8915 219.597417,88.8631667 C221.489917,88.8348333 222.42325,89.8806667 222.42325,90.9548333 C222.42325,92.029 221.74575,92.9615 220.841583,92.9615 C220.134083,92.9615 219.654083,92.509 219.654083,91.7181667 C219.654083,91.209 219.879917,90.5873333 220.332417,90.1915 C220.162417,90.0506667 219.85075,89.9648333 219.511583,89.9648333 C217.561583,89.9648333 216.799083,91.8306667 216.121583,94.9673333 L215.894083,95.929 L219.484917,95.929 L219.14575,97.1723333 L215.64075,97.1723333 L213.719083,106.299833 C212.644917,111.444 210.779917,113.025667 208.802417,113.025667 C207.47325,113.025667 206.879917,112.290667 206.879917,111.472333" id="Fill-31" fill="#37A87F"></path>
                <path d="M226.182417,96.6066667 C223.299917,96.6066667 221.604083,101.241667 221.604083,104.35 C221.604083,106.555 222.649917,107.515833 224.06325,107.515833 C226.94575,107.515833 228.64075,102.880833 228.64075,99.7716667 C228.64075,97.5675 227.594917,96.6066667 226.182417,96.6066667 M230.874083,100.704167 C230.874083,104.943333 227.736583,108.673333 224.09075,108.673333 C221.09575,108.673333 219.399917,106.47 219.399917,103.445833 C219.399917,99.2066667 222.536583,95.4766667 226.182417,95.4766667 C229.149917,95.4766667 230.874083,97.68 230.874083,100.704167" id="Fill-33" fill="#37A87F"></path>
                <path d="M236.388333,99.5175833 C236.981667,97.3425833 236.699167,96.9175833 236.161667,96.9175833 C235.370833,96.9175833 234.6075,98.3300833 233.731667,100.110917 L232.770833,99.68675 C233.929167,97.0584167 235.088333,95.5334167 236.6425,95.5334167 C237.773333,95.5334167 238.423333,96.35175 238.423333,97.8500833 C238.423333,98.8400833 238.14,100.110917 237.801667,101.15675 L238.0275,101.24175 C239.751667,97.6250833 241.135833,95.4759167 242.830833,95.4759167 C243.764167,95.4759167 244.4425,96.12675 244.4425,97.1150833 C244.4425,98.2175833 243.735833,99.12175 242.888333,99.12175 C242.125,99.12175 241.615833,98.5284167 241.701667,97.5109167 C240.541667,98.0475833 238.14,101.552583 236.303333,108.420083 L234.014167,108.420083 L236.388333,99.5175833 Z" id="Fill-35" fill="#37A87F"></path>
                <path d="M262.13375,100.45025 L261.314583,92.4235833 L261.229583,92.4235833 L256.424583,100.45025 L262.13375,100.45025 Z M262.84125,106.95025 L262.274583,101.778583 L255.632917,101.778583 L252.55375,106.95025 L255.039583,106.95025 L254.672917,108.419417 L248.28625,108.419417 L248.65375,106.95025 L250.632083,106.95025 L261.20125,89.8519167 L263.26375,89.8519167 L265.242083,106.95025 L267.61625,106.95025 L267.277083,108.419417 L259.562083,108.419417 L259.929583,106.95025 L262.84125,106.95025 Z" id="Fill-37" fill="#37A87F"></path>
                <path d="M278.680833,99.3475 C278.680833,97.85 278.115,96.7475 276.674167,96.7475 C273.933333,96.7475 272.010833,101.2975 272.010833,104.2375 C272.010833,106.074167 272.745833,107.035 273.933333,107.035 C276.42,107.035 278.680833,102.1175 278.680833,99.3475 L278.680833,99.3475 Z M283.1175,104.180833 C281.93,107.713333 280.715,108.673333 279.415833,108.673333 C278.341667,108.673333 277.465833,107.939167 277.465833,106.385 C277.465833,106.130833 277.494167,105.876667 277.521667,105.678333 L277.324167,105.593333 C276.165,107.5725 274.695833,108.673333 273.1425,108.673333 C271.163333,108.673333 269.778333,107.005833 269.778333,104.406667 C269.778333,101.636667 270.909167,99.0933333 272.52,97.4833333 C273.735,96.2683333 275.176667,95.4758333 276.59,95.4758333 C277.945833,95.4758333 278.935,96.2108333 279.274167,97.7083333 L281.225,90.5308333 L278.568333,90.5308333 L278.963333,89.005 L283.7675,89.005 L279.755,103.841667 C279.444167,105 279.33,105.649167 279.33,106.159167 C279.33,106.526667 279.444167,107.005833 280.009167,107.005833 C280.7725,107.005833 281.4225,105.82 282.1575,103.87 L283.1175,104.180833 Z" id="Fill-39" fill="#37A87F"></path>
                <path d="M291.825333,96.6066667 C288.942,96.6066667 287.247,101.241667 287.247,104.35 C287.247,106.555 288.292,107.515833 289.705333,107.515833 C292.587833,107.515833 294.282833,102.880833 294.282833,99.7716667 C294.282833,97.5675 293.237,96.6066667 291.825333,96.6066667 M296.516167,100.704167 C296.516167,104.943333 293.378667,108.673333 289.732833,108.673333 C286.737833,108.673333 285.042,106.47 285.042,103.445833 C285.042,99.2066667 288.1795,95.4766667 291.825333,95.4766667 C294.792833,95.4766667 296.516167,97.68 296.516167,100.704167" id="Fill-41" fill="#37A87F"></path>
                <path d="M302.878417,104.5485 C302.878417,105.931833 303.55675,107.176 305.11175,107.176 C307.795917,107.176 309.575917,102.570167 309.575917,99.7435 C309.575917,97.9635 308.897583,97.0585 307.73925,97.0585 C305.223417,97.0585 302.878417,101.891833 302.878417,104.5485 M301.71925,97.1718333 C300.955917,97.1718333 300.420083,98.0193333 299.37425,100.111 L298.413417,99.6868333 C299.685083,96.8043333 300.84425,95.5335 302.312583,95.5335 C303.500083,95.5335 304.093417,96.4085 304.093417,97.7368333 C304.093417,98.0193333 304.065917,98.3301667 304.037583,98.5001667 L304.23425,98.5851667 C305.42175,96.6068333 306.890917,95.476 308.417583,95.476 C310.452583,95.476 311.83675,97.1718333 311.83675,99.8001667 C311.83675,104.3785 308.558417,108.4485 305.308417,108.4485 C303.923417,108.4485 302.708417,107.7135 302.312583,106.470167 L301.04175,111.190167 L303.867583,111.190167 L303.44425,112.6585 L296.435083,112.6585 L296.830917,111.190167 L298.922583,111.190167 L302.00175,99.631 C302.45425,97.9635 302.340917,97.1718333 301.71925,97.1718333" id="Fill-43" fill="#37A87F"></path>
                <path d="M318.786583,97.17225 L316.949917,103.841417 C316.667417,104.943083 316.581583,105.481417 316.581583,105.848083 C316.581583,106.638917 317.03325,106.94975 317.627417,106.94975 C318.786583,106.94975 319.69075,105.481417 320.539083,103.643917 L321.527417,103.95475 C320.029083,107.938917 318.22075,108.673917 317.004917,108.673917 C315.282417,108.673917 314.377417,107.656417 314.377417,106.216417 C314.377417,105.423917 314.68825,104.238083 314.886583,103.445583 L316.61075,97.17225 L314.03825,97.17225 L314.349083,95.9289167 L316.921583,95.9289167 L317.882417,92.3955833 L320.14325,92.1130833 L319.097417,95.9289167 L322.969083,95.9289167 L322.629083,97.17225 L318.786583,97.17225 Z" id="Fill-45" fill="#37A87F"></path>
                <path d="M329.48325,93.1585833 C328.804917,93.1585833 328.211583,92.6785833 328.211583,91.8019167 C328.211583,90.89775 328.861583,89.8235833 329.93575,89.8235833 C330.726583,89.8235833 331.264083,90.3619167 331.264083,91.2085833 C331.264083,92.0844167 330.58575,93.1585833 329.48325,93.1585833 M327.392417,106.271083 C327.392417,106.639417 327.561583,107.006083 328.041583,107.006083 C328.74825,107.006083 329.426583,105.931917 330.21825,103.87025 L331.179083,104.181083 C329.991583,107.656083 328.719917,108.673583 327.392417,108.673583 C326.14825,108.673583 325.244083,107.826917 325.272417,106.24275 C325.30075,103.58775 327.731583,99.9694167 327.731583,97.7085833 C327.731583,97.3135833 327.61825,96.91775 327.194083,96.91775 C326.289917,96.91775 325.469917,98.3585833 324.56575,100.111083 L323.604917,99.6869167 C324.791583,97.11525 326.007417,95.4760833 327.646583,95.4760833 C328.91825,95.4760833 329.76575,96.46525 329.76575,98.1894167 C329.76575,100.53525 327.392417,104.406917 327.392417,106.271083" id="Fill-47" fill="#37A87F"></path>
                <path d="M340.057,96.6066667 C337.173667,96.6066667 335.477833,101.241667 335.477833,104.35 C335.477833,106.555 336.523667,107.515833 337.937,107.515833 C340.8195,107.515833 342.5145,102.880833 342.5145,99.7716667 C342.5145,97.5675 341.468667,96.6066667 340.057,96.6066667 M344.747,100.704167 C344.747,104.943333 341.610333,108.673333 337.965333,108.673333 C334.9695,108.673333 333.273667,106.47 333.273667,103.445833 C333.273667,99.2066667 336.411167,95.4766667 340.057,95.4766667 C343.0245,95.4766667 344.747,97.68 344.747,100.704167" id="Fill-49" fill="#37A87F"></path>
                <path d="M358.371583,107.00625 C359.049917,107.00625 359.756583,105.819583 360.46325,103.869583 L361.452417,104.180417 C360.237417,107.71375 358.99325,108.67375 357.749917,108.67375 C356.591583,108.67375 355.686583,107.82625 355.686583,106.187917 C355.714917,103.55875 357.694083,100.675417 357.694083,98.3870833 C357.694083,97.7654167 357.439083,97.22875 356.704083,97.22875 C355.09325,97.22875 352.409083,100.22375 350.176583,108.419583 L347.887417,108.419583 L350.261583,99.5179167 C350.854083,97.3420833 350.572417,96.9179167 350.034917,96.9179167 C349.244083,96.9179167 348.48075,98.3304167 347.604917,100.11125 L346.644083,99.6870833 C347.801583,97.0579167 348.961583,95.5329167 350.514917,95.5329167 C351.646583,95.5329167 352.296583,96.3520833 352.296583,97.8504167 C352.296583,98.8395833 352.01325,100.11125 351.674917,101.15625 L351.871583,101.242083 C353.679917,97.4829167 355.63075,95.47625 357.55325,95.47625 C358.964917,95.47625 359.89825,96.6070833 359.89825,98.3029167 C359.89825,100.704583 357.77825,104.32125 357.77825,106.299583 C357.77825,106.639583 357.891583,107.00625 358.371583,107.00625" id="Fill-51" fill="#37A87F"></path>
            </g>
        </g>
    </g>
</svg>