<?xml version="1.0" encoding="UTF-8"?>
<svg width="111px" height="109px" viewBox="0 0 111 109" version="1.1" xmlns="http://www.w3.org/2000/svg" xmlns:xlink="http://www.w3.org/1999/xlink">
    <!-- Generator: sketchtool 49.1 (51147) - http://www.bohemiancoding.com/sketch -->
    <title>branding/gladney-icon-white</title>
    <desc>Created with sketchtool.</desc>
    <defs>
        <polygon id="path-1" points="0.000199561967 104.722 110.087 104.722 110.087 -1.42108547e-14 0.000199561967 -1.42108547e-14 0.000199561967 104.722"></polygon>
    </defs>
    <g id="Page-1" stroke="none" stroke-width="1" fill="none" fill-rule="evenodd">
        <g id="gladney-icon-white">
            <g id="Page-1" transform="translate(0.000000, 2.000000)">
                <mask id="mask-2" fill="white">
                    <use xlink:href="#path-1"></use>
                </mask>
                <g id="Clip-2"></g>
                <path d="M27.4131,60.1261 C27.0681,59.7831 26.7081,59.3961 26.3231,58.9451 C23.6481,65.8601 25.3301,73.9481 30.5691,79.1901 C33.6031,82.2251 37.6211,84.1421 41.9001,84.6051 C42.2991,83.3201 42.5021,81.9971 42.5021,80.6701 C42.4971,79.2991 41.5781,78.0561 40.2641,77.6471 C38.3511,77.0571 36.5921,75.9941 35.1791,74.5791 C32.5251,71.9271 31.2071,68.1131 31.6401,64.3581 L27.4131,60.1261 Z M66.1321,24.6881 C63.1561,24.6881 60.2941,25.3711 57.6251,26.7151 C57.3101,26.8741 56.9871,27.0521 56.6351,27.2611 L56.4191,27.3851 C56.1631,27.5301 55.9111,27.6771 55.6691,27.8381 C54.6381,28.5221 53.6561,29.3261 52.7511,30.2281 L52.3201,30.6581 C52.3021,30.6761 52.2821,30.6901 52.2601,30.7011 L39.1691,43.7491 C37.9341,44.9861 37.9341,47.0011 39.1691,48.2381 L41.5341,50.6021 L57.3521,34.8431 C58.5371,33.6611 59.9121,32.7471 61.4401,32.1251 C61.8581,31.9551 62.2881,31.8091 62.7191,31.6901 C63.1521,31.5641 63.6091,31.4631 64.1121,31.3851 C64.8211,31.2651 65.4831,31.2071 66.1321,31.2071 C69.4511,31.2071 72.5691,32.4991 74.9131,34.8461 C77.5691,37.4991 78.8861,41.3141 78.4521,45.0681 L82.6581,49.2741 C83.0021,49.6161 83.3691,50.0141 83.7721,50.4811 C86.4481,43.5671 84.7661,35.4801 79.5251,30.2361 C75.9491,26.6591 71.1931,24.6881 66.1321,24.6881 L66.1321,24.6881 Z M93.1391,15.3491 C82.2211,4.8651 67.8851,-0.5599 52.7571,0.0451 C39.1651,0.5991 26.2811,6.2141 16.4781,15.8591 C6.6751,25.5041 0.8531,38.2961 0.0881,51.8741 C-1.1479,73.7901 10.7361,94.3401 30.3631,104.2291 C31.1551,104.6271 32.0531,104.7761 32.8871,104.6501 C38.0171,103.8671 42.6691,101.5101 46.3431,97.8361 C49.6191,94.5591 51.8741,90.4141 52.8651,85.8531 C52.8831,85.7641 52.9061,85.6711 52.9321,85.5801 C52.9591,85.4711 52.9701,85.4331 52.9761,85.3941 C53.0111,85.2231 53.0341,85.0551 53.0581,84.8851 L53.1221,84.4211 C53.1411,84.3091 53.1561,84.2101 53.1671,84.1111 L53.2151,83.7931 C53.2481,83.5831 53.2721,83.4381 53.2881,83.2891 L53.3011,83.1691 C53.3151,83.0361 53.3291,82.9121 53.3381,82.7861 C53.3521,82.6471 53.3561,82.5201 53.3591,82.3951 L53.3831,81.8911 C53.3991,81.6341 53.4121,81.3921 53.4181,81.1561 C53.4241,80.8311 53.4241,80.5061 53.4181,80.1811 C53.3861,78.6121 53.2011,77.0321 52.8651,75.4871 C52.6841,74.6561 52.4471,73.8071 52.1401,72.8891 L52.0571,72.6391 C51.9621,72.3541 51.8671,72.0711 51.7571,71.7891 C51.6671,71.5611 51.5651,71.3331 51.4631,71.1011 L51.3121,70.7691 C50.2341,68.3511 48.7651,66.1341 46.9451,64.1741 L45.9311,63.1691 C45.8541,63.1231 45.7371,62.9971 45.6551,62.8631 L35.1791,52.4081 C34.9161,52.1461 34.6561,51.8571 34.3831,51.5291 L34.1471,51.2251 C33.9881,51.0181 33.8321,50.8071 33.6871,50.5971 C33.6351,50.5181 33.5891,50.4481 33.5451,50.3771 L33.4511,50.2301 C33.3171,50.0121 33.1981,49.8101 33.0831,49.6071 C33.0041,49.4611 32.9371,49.3331 32.8721,49.2041 C32.7631,48.9831 32.6641,48.7701 32.5711,48.5551 L32.4121,48.1791 C32.3131,47.9241 32.2341,47.6871 32.1551,47.4491 L32.1181,47.3271 C32.0941,47.2611 32.0641,47.1771 32.0411,47.0941 C31.9241,46.6771 31.8391,46.3291 31.7741,45.9971 C31.7611,45.9381 31.7501,45.8611 31.7401,45.7811 L31.7181,45.6241 C31.6111,44.9621 31.5571,44.3421 31.5531,43.7301 C31.5441,42.7731 31.6271,41.9541 31.8231,41.0701 C32.2411,39.1931 32.9821,37.5441 34.0281,36.1681 C36.4211,33.0161 40.0411,31.2071 43.9601,31.2071 C44.4251,31.2071 44.9001,31.2371 45.4091,31.3021 L49.6071,27.1031 C49.9831,26.7241 50.3841,26.3551 50.8241,25.9801 C47.4651,24.6611 43.8791,24.3511 40.1601,25.0511 C38.6361,25.3391 37.1751,25.8241 35.8161,26.4931 C28.5441,30.0781 24.3491,37.5341 25.1251,45.4881 C25.1491,45.7261 25.1861,45.9601 25.2251,46.1971 L25.2771,46.5241 C25.3301,46.8821 25.3851,47.2231 25.4571,47.5651 L25.4781,47.7191 C25.5571,48.0891 25.6671,48.5221 25.7941,48.9551 L25.8851,49.2301 C26.0181,49.6591 26.1701,50.0941 26.3381,50.5251 C26.3971,50.6831 26.4581,50.8291 26.5201,50.9771 C26.6811,51.3601 26.8611,51.7501 27.0541,52.1341 L27.2421,52.5111 C27.2451,52.5191 27.2481,52.5251 27.2511,52.5331 C27.3101,52.6461 27.3771,52.7581 27.4431,52.8711 L27.5981,53.1411 C27.7541,53.4071 27.9091,53.6721 28.0781,53.9301 L28.3111,54.2711 C28.5811,54.6631 28.8471,55.0231 29.0991,55.3411 L29.4151,55.7451 C29.8301,56.2391 30.2091,56.6561 30.5721,57.0211 L41.6601,68.1051 C41.7451,68.1551 41.8231,68.2171 41.8921,68.2871 C41.9961,68.3951 42.1001,68.5101 42.2041,68.6241 L42.4371,68.8881 C43.6891,70.2921 44.6991,71.8581 45.4341,73.5401 C45.5711,73.8501 45.6931,74.1611 45.8091,74.4791 L45.8411,74.5591 C45.9721,74.9131 46.0991,75.2601 46.2011,75.6101 C46.2321,75.7141 46.2601,75.8231 46.2831,75.9351 L46.3221,76.0951 C46.3791,76.3021 46.4361,76.5241 46.4881,76.7531 C46.7831,78.0661 46.9331,79.3851 46.9331,80.6701 C46.9331,82.5221 46.6401,84.3661 46.0611,86.1521 C45.9151,86.6121 45.7801,86.9901 45.6371,87.3451 C45.4631,87.7701 45.2651,88.1751 45.0891,88.5331 C44.2161,90.2951 43.0871,91.8741 41.7331,93.2251 C39.2321,95.7281 36.0841,97.4071 32.6301,98.0861 L32.5271,98.1031 C32.2411,98.1681 31.9481,98.1331 31.6981,97.9911 C15.9421,89.3971 6.1521,72.9391 6.1521,55.0411 C6.1521,28.0821 28.0841,6.1501 55.0421,6.1501 C82.0011,6.1501 103.9331,28.0821 103.9331,55.0411 C103.9331,72.8191 94.2311,89.2261 78.6131,97.8561 L78.4071,97.9801 C78.2461,98.0621 78.1251,98.0691 78.0661,98.0741 C78.0101,98.0911 77.8511,98.1361 77.6451,98.1031 C74.1491,97.4271 70.9771,95.7401 68.4631,93.2251 C67.1091,91.8741 65.9821,90.3001 65.1121,88.5451 C64.9661,88.2531 64.7511,87.8111 64.5621,87.3521 C64.4251,87.0141 64.2891,86.6361 64.1361,86.1571 C63.5561,84.3651 63.2621,82.5201 63.2621,80.6701 C63.2621,79.3881 63.4111,78.0731 63.7041,76.7661 C63.7661,76.4891 63.8371,76.2111 63.9131,75.9351 L63.9351,75.8401 C63.9561,75.7471 63.9741,75.6801 63.9931,75.6171 C64.1011,75.2491 64.2361,74.8831 64.3751,74.5091 C64.5241,74.1051 64.6831,73.7191 64.8591,73.3301 C65.7491,71.3691 66.9631,69.6131 68.4631,68.1141 C68.4931,68.0661 68.5301,68.0181 68.5711,67.9721 L73.5801,62.9601 C73.4451,62.5971 73.2861,62.2471 73.1041,61.9201 L73.0481,61.8261 C72.8851,61.5481 72.7421,61.3281 72.5691,61.0891 L72.4161,60.8791 C72.2001,60.6041 71.9901,60.3631 71.7811,60.1531 L69.4761,57.8501 L63.8551,63.5021 C63.1091,64.2461 62.3881,65.0921 61.5811,66.1661 C60.4871,67.6271 59.5661,69.1931 58.8421,70.8191 C58.6881,71.1631 58.5421,71.5101 58.4051,71.8611 C58.2641,72.2211 58.1371,72.5851 58.0161,72.9511 C57.7281,73.8041 57.4931,74.6491 57.3161,75.4661 C56.9811,77.0101 56.7971,78.5971 56.7661,80.1831 L56.7731,80.3301 C56.7761,80.4461 56.7781,80.5561 56.7781,80.6701 C56.7781,80.7821 56.7761,80.8911 56.7731,81.0021 L56.7661,81.2051 C56.7701,81.3081 56.7781,81.4581 56.7871,81.6121 L56.8221,82.3131 C56.8311,82.5621 56.8361,82.6951 56.8491,82.8311 L56.8841,83.2501 C56.9021,83.4191 56.9311,83.5971 56.9591,83.7721 L57.0511,84.3641 C57.0701,84.4951 57.0871,84.6241 57.1041,84.7521 C57.1421,85.0421 57.1671,85.2391 57.2061,85.4321 C57.2181,85.4881 57.2341,85.5501 57.2501,85.6071 L57.2691,85.6801 C57.2911,85.7631 57.3061,85.8211 57.3181,85.8811 C58.3231,90.5071 60.5441,94.6421 63.7421,97.8331 C67.4791,101.5721 72.2111,103.9421 77.4261,104.6871 C78.1211,104.7911 78.8571,104.6611 79.5081,104.3351 C98.3701,94.9361 110.0871,76.0491 110.0871,55.0441 C110.0871,39.9391 104.0681,25.8421 93.1391,15.3491 L93.1391,15.3491 Z M85.0521,65.9801 L85.0561,65.6741 C85.0521,65.1621 85.0271,64.6351 84.9801,64.1111 L84.9471,63.8011 C84.8841,63.1961 84.8081,62.6681 84.7161,62.1831 C84.6151,61.6761 84.4901,61.1651 84.3251,60.5801 L84.2381,60.2771 C84.0901,59.7821 83.9141,59.2821 83.7201,58.7921 L83.6331,58.5861 C83.4341,58.1041 83.2461,57.6911 83.0441,57.2911 L82.9671,57.1301 C82.9381,57.0671 82.9211,57.0321 82.9041,56.9991 C82.7711,56.7491 82.6371,56.5191 82.5031,56.2901 C82.3551,56.0341 82.2011,55.7871 82.0401,55.5371 L81.8641,55.2621 C81.5651,54.8161 81.2411,54.3751 80.9001,53.9531 L80.6911,53.7011 C80.2591,53.1851 79.8891,52.7741 79.5241,52.4081 L65.8621,38.8611 C65.2651,38.2641 64.4691,37.9351 63.6221,37.9351 C62.7701,37.9351 61.9741,38.2651 61.3751,38.8621 L59.0101,41.2271 L74.9131,57.0171 C75.2451,57.3481 75.5791,57.7291 75.9311,58.1841 C75.9931,58.2631 76.0551,58.3461 76.1141,58.4301 L76.1921,58.5371 C76.4131,58.8441 76.6241,59.1671 76.8201,59.5011 L76.8711,59.5821 C76.9231,59.6681 76.9761,59.7571 77.0241,59.8451 C77.2441,60.2471 77.4471,60.6741 77.6261,61.1101 L77.7341,61.3961 C77.8721,61.7601 77.9831,62.1411 78.0551,62.3941 L78.1091,62.5641 C78.1551,62.7351 78.1881,62.8751 78.2201,63.0171 C78.2721,63.2451 78.3101,63.4751 78.3481,63.7111 L78.3811,63.9001 C78.3861,63.9251 78.3941,63.9711 78.4021,64.0191 L78.4351,64.2281 C78.4381,64.2491 78.4381,64.2701 78.4361,64.2891 C78.5401,65.1561 78.5521,66.0431 78.4711,66.9271 C78.3811,67.8801 78.1941,68.7801 77.8981,69.6831 L77.8611,69.7971 C77.5891,70.6001 77.2181,71.3971 76.7541,72.1731 C76.6931,72.2751 76.6291,72.3761 76.5651,72.4771 C76.0431,73.2961 75.5001,73.9851 74.9061,74.5791 C74.2121,75.2761 73.4231,75.8941 72.5621,76.4141 C72.4741,76.4681 72.3771,76.5081 72.2811,76.5481 C72.2361,76.5641 72.1981,76.5801 72.1631,76.5991 C71.2631,77.1021 70.5401,77.4261 69.8211,77.6471 C68.5071,78.0561 67.5871,79.3001 67.5831,80.6721 C67.5831,81.9951 67.7861,83.3181 68.1841,84.6041 C68.7741,84.5291 69.3681,84.3991 69.9431,84.2731 L70.1581,84.2281 C70.3011,84.1951 70.4461,84.1741 70.5921,84.1521 C70.7741,84.1251 70.9091,84.1051 71.0401,84.0691 C71.8451,83.8561 72.6461,83.5261 73.3511,83.2331 C73.4851,83.1801 73.6191,83.1351 73.7521,83.0911 C73.8811,83.0481 74.0101,83.0061 74.1341,82.9501 C76.1481,82.0161 77.9621,80.7501 79.5251,79.1901 C80.1131,78.6001 80.6911,77.9221 81.2901,77.1171 C81.3741,77.0041 81.4491,76.8881 81.5241,76.7721 C81.6011,76.6521 81.6591,76.5621 81.7201,76.4711 C82.1371,75.8611 82.4511,75.3541 82.7111,74.8741 C82.8491,74.6221 82.9701,74.3661 83.0921,74.1081 L83.1581,73.9751 C83.4191,73.4231 83.6321,72.9241 83.8091,72.4501 C83.9331,72.1201 84.0461,71.7901 84.1501,71.4551 C84.1851,71.3471 84.2241,71.2401 84.2641,71.1351 C84.3051,71.0251 84.3461,70.9131 84.3771,70.7991 C84.4711,70.4561 84.5571,70.1121 84.6311,69.7651 C84.6481,69.6821 84.6621,69.5951 84.6771,69.5071 L84.8121,68.7291 C84.8271,68.6471 84.8481,68.5741 84.8721,68.5071 C84.9061,68.2441 84.9431,67.9381 84.9731,67.6261 C85.0001,67.3311 85.0101,67.0201 85.0191,66.7061 L85.0271,66.5101 C85.0281,66.4891 85.0311,66.4711 85.0361,66.4511 C85.0321,66.4341 85.0311,66.4151 85.0321,66.3961 L85.0411,66.1951 C85.0471,66.1221 85.0511,66.0551 85.0521,65.9801 L85.0521,65.9801 Z" id="Fill-1" fill="#FFFFFF" mask="url(#mask-2)"></path>
            </g>
        </g>
    </g>
</svg>