<?xml version="1.0" encoding="UTF-8"?>
<svg width="184px" height="171px" viewBox="0 0 184 171" version="1.1" xmlns="http://www.w3.org/2000/svg" xmlns:xlink="http://www.w3.org/1999/xlink">
    <!-- Generator: sketchtool 49.1 (51147) - http://www.bohemiancoding.com/sketch -->
    <title>building</title>
    <desc>Created with sketchtool.</desc>
    <defs></defs>
    <g id="Page-1" stroke="none" stroke-width="1" fill="none" fill-rule="evenodd">
        <g id="Artboard-2" transform="translate(-87.000000, -42.000000)" fill="#FC8766">
            <path d="M87.986,78.47 L87.986,90.63 L100.15,90.63 C100.145246,92.2722341 100.856514,93.8349796 102.098,94.91 C103.339924,96.0882209 104.993277,96.7342023 106.705,96.71 L251.684,96.71 C253.395951,96.7338256 255.049479,96.0879162 256.292,94.91 C257.53272,93.8344075 258.24382,92.2720328 258.24,90.63 L270.401,90.63 L270.401,78.47 L179.193,41.99 L87.986,78.47 Z M112.308,175.76 L106.702,175.76 C104.988213,175.734839 103.333341,176.385005 102.095,177.57 C100.855616,178.64233 100.144491,180.201111 100.147,181.84 L100.146993,187.92 L258.240003,187.92 L258.24,181.84 C258.241577,180.201313 257.530621,178.642901 256.292,177.57 C255.053116,176.385223 253.398034,175.735114 251.684,175.76 L246.079,175.76 L246.079,102.8 L221.757,102.8 L221.757,175.76 L209.596,175.76 L209.596,102.8 L185.274,102.8 L185.274,175.76 L173.113,175.76 L173.113,102.8 L148.791,102.8 L148.791,175.76 L136.63,175.76 L136.63,102.8 L112.308,102.8 L112.308,175.76 Z M94.541,194 C92.8272127,193.974839 91.1723407,194.625005 89.934,195.81 C88.6946164,196.88233 87.9834911,198.441111 87.986,200.08 L87.9859934,212.24 L270.401003,212.24 L270.401,200.08 C270.402577,198.441313 269.691621,196.882901 268.453,195.81 C267.214116,194.625223 265.559034,193.975114 263.845,194 L94.545,194 L94.541,194 Z" id="_"></path>
        </g>
    </g>
</svg>