<?xml version="1.0" encoding="utf-8"?>
<!-- Generator: Adobe Illustrator 21.1.0, SVG Export Plug-In . SVG Version: 6.00 Build 0)  -->
<svg version="1.1" id="Layer_1" xmlns="http://www.w3.org/2000/svg" xmlns:xlink="http://www.w3.org/1999/xlink" x="0px" y="0px"
	 viewBox="0 0 141.3 134.8" style="enable-background:new 0 0 141.3 134.8;" xml:space="preserve">
<style type="text/css">
	.st0{fill:#2BB36B;}
	.st1{fill:#C3DB6A;}
	.st2{fill:#FFFFFF;}
</style>
<g id="XMLID_6269_">
	<path id="XMLID_6274_" class="st0" d="M139.6,20.4c-1.9-0.8-5.3-1.1-10.2-0.9l-60.6,3c-5,0.3-8.4-0.1-10.2-0.9l5.7,20.1L130.8,24
		C135,22.8,138,21.6,139.6,20.4z"/>
	<path id="XMLID_6273_" class="st0" d="M58.7,17.7c1.9,0.8,5.3,1.1,10.1,0.9l36.5-1.8V4L67.5,14.1C63.2,15.3,60.3,16.5,58.7,17.7z"
		/>
	<path id="XMLID_6272_" class="st0" d="M130.8,28L3.2,62.2C1.3,62.7,0,64.4,0,66.3v46.1c0.4-1.7,3.8-3.7,10.5-5.5l127.6-34.2
		c1.9-0.5,3.2-2.2,3.2-4.1v-46C140.8,24.2,137.4,26.2,130.8,28z"/>
	<path id="XMLID_6271_" class="st0" d="M82.6,117.1c-1.9-0.8-5.3-1.1-10.1-0.9L36,118.1v12.7l37.8-10.1
		C78,119.6,80.9,118.3,82.6,117.1z"/>
	<path id="XMLID_6270_" class="st0" d="M1.7,114.4c1.9,0.8,5.3,1.1,10.2,0.9l60.6-3c5-0.3,8.4,0.1,10.3,0.9L77.1,93l-66.6,17.9
		C6.3,112,3.3,113.3,1.7,114.4z"/>
</g>
<g id="XMLID_6262_">
	<path id="XMLID_6268_" class="st1" d="M58.7,17.7c1.7-1.2,4.6-2.4,8.8-3.6L105.3,4V0L67.5,10.1c-7.9,2.1-11.3,4.7-10.3,6.4L57,16
		l0.2,0.6C57.4,17,57.9,17.4,58.7,17.7z"/>
	<path id="XMLID_6267_" class="st1" d="M129.4,15.5l-24.2,1.2l-36.5,1.8c-4.9,0.3-8.3-0.1-10.1-0.9c-0.8-0.3-1.3-0.7-1.5-1.1
		l1.4,5.1c1.8,0.8,5.3,1.2,10.2,0.9l60.6-3c4.9-0.3,8.3,0.1,10.2,0.9c0.9-0.7,1.5-1.3,1.6-1.9v-0.7
		C140.8,16.2,136.8,15.1,129.4,15.5z"/>
	<path id="XMLID_6266_" class="st1" d="M139.6,20.4c-1.7,1.2-4.6,2.4-8.8,3.6L3.2,58.2C1.3,58.7,0,60.4,0,62.3v4
		c0-1.9,1.3-3.6,3.2-4.1L130.8,28c6.6-1.8,10-3.8,10.5-5.5v-4C141.1,19.1,140.6,19.7,139.6,20.4z"/>
	<path id="XMLID_6265_" class="st1" d="M138.1,72.7L10.5,106.9c-6.7,1.8-10.1,3.9-10.5,5.5v4c0.1-0.6,0.7-1.3,1.7-2
		c1.7-1.2,4.6-2.4,8.8-3.6l127.6-34.2c1.9-0.5,3.2-2.2,3.2-4.1v-4C141.3,70.5,140,72.2,138.1,72.7z"/>
	<path id="XMLID_6264_" class="st1" d="M82.6,117.1c-1.7,1.2-4.6,2.4-8.8,3.6L36,130.8v4l37.8-10.1c7.9-2.1,11.3-4.7,10.3-6.4
		l0.2,0.6l-0.2-0.6C83.9,117.9,83.4,117.5,82.6,117.1z"/>
	<path id="XMLID_6263_" class="st1" d="M82.7,113.2c-1.8-0.8-5.3-1.2-10.3-0.9l-60.6,3c-4.9,0.3-8.3-0.1-10.2-0.9
		c-1,0.7-1.5,1.3-1.7,2v0.6c0.4,1.7,4.4,2.7,11.8,2.3l24.2-1.2l36.5-1.8c4.9-0.3,8.3,0.1,10.1,0.9c0.8,0.3,1.3,0.7,1.5,1.1
		L82.7,113.2z"/>
</g>
<g id="XMLID_6238_">
	<path id="XMLID_6260_" class="st2" d="M13.1,95.1l-2.3,0.6c-0.1,0-0.3-0.1-0.3-0.2V71.4c0-0.1,0.1-0.2,0.2-0.2l2.3-0.6
		c0.1,0,0.3,0.1,0.3,0.2v24.1C13.3,95,13.2,95.1,13.1,95.1z"/>
	<path id="XMLID_6257_" class="st2" d="M28.3,90.8l-0.5-3.5c0-0.1-0.1-0.2-0.3-0.2l-4,1.1c-0.1,0-0.1,0.1-0.2,0.2l-0.5,4
		c0,0.1-0.1,0.2-0.2,0.2l-2.1,0.6c-0.1,0-0.3-0.1-0.3-0.2l3.6-25.1c0-0.1,0.1-0.2,0.2-0.2l3.1-0.8c0.1,0,0.2,0,0.3,0.2L31,90.1
		c0,0.1-0.1,0.2-0.2,0.2L28.6,91C28.4,91,28.3,90.9,28.3,90.8z M24,85.5l3.2-0.9c0.1,0,0.2-0.1,0.2-0.2l-1.6-11.3
		c0-0.2-0.4-0.2-0.4,0l-1.6,12.2C23.7,85.5,23.9,85.6,24,85.5z"/>
	<path id="XMLID_6255_" class="st2" d="M47.5,61.7v24.1c0,0.1-0.1,0.2-0.2,0.2l-2.2,0.6c-0.1,0-0.3-0.1-0.3-0.2V69.1
		c0-0.3-0.4-0.3-0.4,0l-2.8,18.2c0,0.1-0.1,0.2-0.2,0.2l-2.4,0.6c-0.1,0-0.2,0-0.3-0.2L36,71.4c0-0.3-0.4-0.2-0.4,0v17.5
		c0,0.1-0.1,0.2-0.2,0.2l-2.1,0.6c-0.1,0-0.3-0.1-0.3-0.2V65.4c0-0.1,0.1-0.2,0.2-0.2l3.9-1c0.1,0,0.2,0,0.3,0.2l2.7,16.9
		c0,0.2,0.4,0.2,0.4,0l2.8-18.6c0-0.1,0.1-0.2,0.2-0.2l3.8-1C47.4,61.4,47.5,61.5,47.5,61.7z"/>
	<path id="XMLID_6253_" class="st2" d="M60,71.8v-2.1c0-0.1,0.1-0.2,0.2-0.2l4.4-1.2c0.1,0,0.3,0.1,0.3,0.2v8.2
		c0,2.8-1.9,5.2-4.6,5.9l-0.6,0.2c-2.6,0.7-4.7-0.9-4.7-3.6V63.9c0-2.8,1.9-5.2,4.6-5.9l0.9-0.2c2.9-0.8,4.3,0.3,4.3,3.3v3.2
		c0,0.1-0.1,0.2-0.2,0.2L62.4,65c-0.1,0-0.3-0.1-0.3-0.2v-2.9c0-1.2-0.9-1.9-2.1-1.6l-0.4,0.1c-1.2,0.3-2,1.4-2,2.5v15.7
		c0,1.2,0.9,1.9,2.1,1.6l0.4-0.1c1.2-0.3,2-1.4,2-2.5v-5.8c0-0.1-0.1-0.2-0.3-0.2L60.3,72C60.2,72,60,71.9,60,71.8z"/>
	<path id="XMLID_6251_" class="st2" d="M70.2,55.6v21.4c0,0.1,0.1,0.2,0.3,0.2l3.9-1.1c0.1,0,0.3,0.1,0.3,0.2v2.1
		c0,0.1-0.1,0.2-0.2,0.2l-6.7,1.8c-0.1,0-0.3-0.1-0.3-0.2V56.2c0-0.1,0.1-0.2,0.2-0.2l2.3-0.6C70,55.3,70.2,55.4,70.2,55.6z"/>
	<path id="XMLID_6248_" class="st2" d="M83.4,76l-0.5-3.5c0-0.1-0.1-0.2-0.3-0.2l-4,1.1c-0.1,0-0.1,0.1-0.2,0.2l-0.5,4
		c0,0.1-0.1,0.2-0.2,0.2l-2.1,0.6c-0.1,0-0.3-0.1-0.3-0.2L79,53c0-0.1,0.1-0.2,0.2-0.2l3.1-0.8c0.1,0,0.2,0,0.3,0.2l3.6,23.2
		c0,0.1-0.1,0.2-0.2,0.2l-2.3,0.6C83.6,76.2,83.5,76.1,83.4,76z M79.2,70.8l3.2-0.9c0.1,0,0.2-0.1,0.2-0.2l-1.6-11.3
		c0-0.2-0.4-0.2-0.4,0l-1.6,12.2C78.9,70.7,79,70.8,79.2,70.8z"/>
	<path id="XMLID_6245_" class="st2" d="M87.7,50.6l4-1.1c3-0.8,5.5,1.1,5.5,4.2V67c0,3.3-2.2,6.2-5.4,7l-4,1.1
		c-0.1,0-0.3-0.1-0.3-0.2V50.8C87.5,50.7,87.6,50.6,87.7,50.6z M90.5,71.8l1.1-0.3c1.7-0.5,2.9-2,2.9-3.8V54.4
		c0-1.7-1.3-2.7-2.9-2.3l-1.2,0.3c-0.1,0-0.2,0.1-0.2,0.2v18.9C90.2,71.7,90.3,71.8,90.5,71.8z"/>
	<path id="XMLID_6243_" class="st2" d="M101.8,54v17.2c0,0.1-0.1,0.2-0.2,0.2l-2.1,0.6c-0.1,0-0.3-0.1-0.3-0.2V47.7
		c0-0.1,0.1-0.2,0.2-0.2l3.3-0.9c0.1,0,0.2,0,0.3,0.2l3.4,14.6c0.1,0.2,0.4,0.2,0.4,0V45.6c0-0.1,0.1-0.2,0.2-0.2l2.1-0.6
		c0.1,0,0.3,0.1,0.3,0.2v24.1c0,0.1-0.1,0.2-0.2,0.2l-3,0.8c-0.1,0-0.2,0-0.3-0.2l-3.8-16C102.2,53.7,101.8,53.7,101.8,54z"/>
	<path id="XMLID_6241_" class="st2" d="M119.6,42.3v2.1c0,0.1-0.1,0.2-0.2,0.2l-4.4,1.2c-0.1,0-0.2,0.1-0.2,0.2v7.7
		c0,0.1,0.1,0.2,0.3,0.2l4-1.1c0.1,0,0.3,0.1,0.3,0.2v2.1c0,0.1-0.1,0.2-0.2,0.2l-4.2,1.1c-0.1,0-0.2,0.1-0.2,0.2V65
		c0,0.1,0.1,0.2,0.3,0.2l4.3-1.1c0.1,0,0.3,0.1,0.3,0.2v2.1c0,0.1-0.1,0.2-0.2,0.2l-7.1,1.9c-0.1,0-0.3-0.1-0.3-0.2V44.2
		c0-0.1,0.1-0.2,0.2-0.2l7-1.9C119.5,42.1,119.6,42.2,119.6,42.3z"/>
	<path id="XMLID_6239_" class="st2" d="M126.9,56v8.4c0,0.1-0.1,0.2-0.2,0.2l-2.3,0.6c-0.1,0-0.3-0.1-0.3-0.2V57c0,0,0,0,0-0.1
		L120.5,42c0-0.1,0-0.2,0.2-0.3l2.3-0.6c0.1,0,0.2,0,0.3,0.2l2.1,10.1c0,0.2,0.4,0.2,0.4,0l2.3-11.5c0-0.1,0.1-0.1,0.2-0.2l2.2-0.6
		c0.2,0,0.3,0.1,0.3,0.3L126.9,56C126.9,56,126.9,56,126.9,56z"/>
</g>
</svg>
