<?xml version="1.0" encoding="UTF-8"?>
<svg width="62px" height="92px" viewBox="0 0 62 92" version="1.1" xmlns="http://www.w3.org/2000/svg" xmlns:xlink="http://www.w3.org/1999/xlink">
    <!-- Generator: sketchtool 49.1 (51147) - http://www.bohemiancoding.com/sketch -->
    <title>map-marker</title>
    <desc>Created with sketchtool.</desc>
    <defs>
        <polygon id="path-1" points="0.000112359551 0.126292135 59.8408989 0.126292135 59.8408989 89.8875281 0.000112359551 89.8875281 0.000112359551 0.126292135"></polygon>
    </defs>
    <g id="Page-1" stroke="none" stroke-width="1" fill="none" fill-rule="evenodd">
        <g id="map-marker">
            <g id="Page-1" transform="translate(1.000000, 1.000000)">
                <g id="Group-3" transform="translate(0.000000, 0.098427)">
                    <mask id="mask-2" fill="white">
                        <use xlink:href="#path-1"></use>
                    </mask>
                    <g id="Clip-2"></g>
                    <path d="M59.8410112,30.0466292 C59.8410112,34.2933708 59.1980899,37.7805618 57.9124719,40.5070787 L36.6410112,85.7385393 C36.017191,87.0241573 35.0924719,88.0367416 33.8648315,88.7774157 C32.6376404,89.5169663 31.3232584,89.8875281 29.9205618,89.8875281 C28.5180899,89.8875281 27.2032584,89.5169663 25.9760674,88.7774157 C24.7488764,88.0367416 23.8430337,87.0241573 23.2583146,85.7385393 L1.92865169,40.5070787 C0.642808989,37.7805618 0.000112359551,34.2933708 0.000112359551,30.0466292 C0.000112359551,21.7877528 2.92191011,14.7358427 8.76573034,8.89179775 C14.6097753,3.04797753 21.6607865,0.126179775 29.9205618,0.126179775 C38.1792135,0.126179775 45.2311236,3.04797753 51.0751685,8.89179775 C56.9192135,14.7358427 59.8410112,21.7877528 59.8410112,30.0466292" id="Fill-1" fill="#37A87F" mask="url(#mask-2)"></path>
                </g>
                <path d="M21.3896854,31.1646292 C21.2829438,31.0590112 21.1721573,30.939236 21.0530562,30.8003596 C20.2272135,32.9354157 20.746764,35.4324944 22.3640674,37.0509213 C23.3009213,37.9875506 24.5411461,38.5796854 25.8624944,38.7226067 C25.9856404,38.3259775 26.0481124,37.9174382 26.0481124,37.5077753 C26.0469888,37.0844045 25.7629438,36.7005843 25.3573258,36.5745169 C24.7665393,36.3920449 24.2233933,36.0641798 23.7874382,35.6271011 C22.9678876,34.8082247 22.5611461,33.6309213 22.6948539,32.4715955 L21.3896854,31.1646292 Z M33.3440674,20.2235056 C32.425191,20.2235056 31.5415955,20.4342921 30.7177753,20.8493483 C30.6202472,20.8983371 30.5204719,20.9533933 30.4117079,21.0178876 L30.345191,21.0560899 C30.2660899,21.1010337 30.1883371,21.1462022 30.1137303,21.1958652 C29.7950787,21.4068764 29.4921573,21.6554157 29.2128315,21.9338427 L29.079573,22.0668764 C29.0739551,22.0720449 29.0676629,22.076764 29.0611461,22.0799101 L25.0193483,26.1084494 C24.638,26.4902472 24.638,27.1124944 25.0193483,27.4945169 L25.749236,28.2241798 L30.6335056,23.3585618 C30.9991236,22.9940674 31.423618,22.7115955 31.8953034,22.5196854 C32.0242921,22.4668764 32.1573258,22.4219326 32.2903596,22.3855281 C32.4240674,22.3466517 32.5649663,22.3154157 32.7204719,22.2909213 C32.9393483,22.2540674 33.1438427,22.2363146 33.3440674,22.2363146 C34.3687865,22.2363146 35.3314831,22.635191 36.0553034,23.3596854 C36.8750787,24.1787865 37.2820449,25.3565393 37.1476629,26.5156404 L38.4463146,27.8145169 C38.5526067,27.9201348 38.6658652,28.042382 38.7903596,28.1871011 C39.616427,26.0522697 39.0971011,23.555191 37.4791236,21.9365393 C36.3753034,20.8318202 34.9065393,20.2235056 33.3440674,20.2235056 L33.3440674,20.2235056 Z M41.6824944,17.3401348 C38.3114831,14.1030562 33.885191,12.4282247 29.2144045,12.615191 C25.018,12.7859775 21.0400225,14.5199101 18.0135056,17.4974382 C14.986764,20.4754157 13.1894607,24.4246292 12.9530562,28.6172135 C12.5717079,35.3835056 16.2406966,41.7282247 22.3004719,44.7812584 C22.5449663,44.9044045 22.8220449,44.9504719 23.0797978,44.9115955 C24.663618,44.669573 26.1000225,43.9419326 27.2341798,42.8077753 C28.2456404,41.7956404 28.9418202,40.5163146 29.2478876,39.108 C29.2532809,39.0803596 29.2604719,39.0515955 29.2685618,39.0237303 C29.2771011,38.9897978 29.2802472,38.9783371 29.2822697,38.9659775 C29.2928315,38.9133933 29.3000225,38.8612584 29.3072135,38.8091236 L29.3274382,38.6659775 C29.3330562,38.6311461 29.3375506,38.600809 29.3413708,38.5702472 L29.3559775,38.4720449 C29.3663146,38.4071011 29.3735056,38.3621573 29.3784494,38.3163146 L29.3822697,38.279236 C29.3869888,38.2383371 29.390809,38.1999101 29.3939551,38.1610337 C29.3982247,38.1178876 29.399573,38.0787865 29.4004719,38.0403596 L29.4078876,37.8846292 C29.4126067,37.8053034 29.4166517,37.7304719 29.4186742,37.6578876 C29.4204719,37.5574382 29.4204719,37.4569888 29.4186742,37.3565393 C29.4087865,36.8724944 29.3514831,36.3846292 29.2478876,35.9073258 C29.1921573,35.6511461 29.1188989,35.3886742 29.0240674,35.1053034 L28.9982247,35.028 C28.9690112,34.9401348 28.9397978,34.8529438 28.9056404,34.7657528 C28.878,34.695191 28.846764,34.6248539 28.8148539,34.5531685 L28.7685618,34.4506966 C28.4355281,33.7041798 27.9818202,33.0196854 27.4200225,32.4147416 L27.1069888,32.1044045 C27.0833933,32.0902472 27.0472135,32.0513708 27.0218202,32.0097978 L23.7874382,28.7819326 C23.7063146,28.700809 23.6258652,28.6120449 23.5415955,28.5104719 L23.4687865,28.4165393 C23.4197978,28.3524944 23.3712584,28.2873258 23.3265393,28.2226067 C23.3105843,28.1981124 23.2962022,28.176764 23.2829438,28.1547416 L23.2539551,28.1093483 C23.212382,28.0421573 23.1755281,27.9796854 23.1404719,27.9169888 C23.1162022,27.8720449 23.0953034,27.8324944 23.0753034,27.7927191 C23.0413708,27.7246292 23.0110337,27.6583371 22.9820449,27.5922697 L22.9330562,27.4760899 C22.9022697,27.3974382 22.878,27.3239551 22.8537303,27.2509213 L22.8422697,27.2131685 C22.8350787,27.1927191 22.8258652,27.1666517 22.8184494,27.1410337 C22.7822697,27.0122697 22.7562022,26.9050787 22.7362022,26.8026067 C22.7319326,26.7846292 22.7285618,26.7605843 22.7256404,26.7358652 L22.7186742,26.6875506 C22.6858652,26.4830562 22.6690112,26.2913708 22.6676629,26.1026067 C22.665191,25.8073258 22.690809,25.5542921 22.7514831,25.2814831 C22.8804719,24.7019326 23.1090112,24.1927191 23.4319326,23.7677753 C24.170809,22.7945169 25.2887865,22.2363146 26.4984494,22.2363146 C26.6420449,22.2363146 26.7887865,22.2455281 26.9458652,22.2653034 L28.2418202,20.9686742 C28.3582247,20.8518202 28.4820449,20.7381124 28.6177753,20.6226067 C27.5806966,20.2149663 26.4735056,20.119236 25.325191,20.3356404 C24.8548539,20.4244045 24.403618,20.5742921 23.9840674,20.780809 C21.7388989,21.8877753 20.4433933,24.189573 20.6833933,26.6453034 C20.690809,26.7187865 20.7020449,26.7911461 20.7139551,26.8641798 L20.7301348,26.9653034 C20.746764,27.0758652 20.7633933,27.180809 20.7856404,27.2868764 L20.792382,27.3342921 C20.8166517,27.4484494 20.850809,27.5821573 20.8896854,27.7156404 L20.9177753,27.8010337 C20.9588989,27.9331685 21.0060899,28.0675506 21.0575506,28.2005843 C21.0759775,28.2491236 21.0948539,28.2942921 21.1137303,28.3401348 C21.163618,28.4585618 21.2191236,28.5787865 21.2788989,28.6972135 L21.3368764,28.813618 C21.3377753,28.8158652 21.3386742,28.8183371 21.339573,28.8205843 C21.3577753,28.855191 21.3784494,28.8900225 21.3988989,28.9248539 L21.446764,29.0082247 C21.4950787,29.0904719 21.5429438,29.1720449 21.5948539,29.2518202 L21.666764,29.3572135 C21.7503596,29.4781124 21.832382,29.5893483 21.9099101,29.6875506 L22.0078876,29.8122697 C22.1357528,29.9646292 22.2530562,30.093618 22.3649663,30.2057528 L25.7881124,33.6284494 C25.8144045,33.6437303 25.8386742,33.6628315 25.8600225,33.6844045 C25.8921573,33.7176629 25.9242921,33.7533933 25.9559775,33.7884494 L26.0283371,33.8697978 C26.4148539,34.3035056 26.7265393,34.7871011 26.9537303,35.306427 C26.9957528,35.4019326 27.0337303,35.4981124 27.0694607,35.5960899 L27.0791236,35.620809 C27.119573,35.7302472 27.1588989,35.8372135 27.1903596,35.9455281 C27.1997978,35.9774382 27.2085618,36.0111461 27.2157528,36.0457528 L27.2276629,36.0949663 C27.2454157,36.1590112 27.2631685,36.2277753 27.2788989,36.2985618 C27.3699101,36.7039551 27.416427,37.1106966 27.416427,37.5077753 C27.416427,38.0794607 27.3258652,38.6488989 27.1472135,39.2003596 C27.1022697,39.342382 27.0602472,39.459236 27.0162022,39.5684494 C26.9627191,39.6996854 26.9013708,39.8248539 26.8469888,39.9354157 C26.5775506,40.4794607 26.2290112,40.9668764 25.8110337,41.3839551 C25.0386742,42.156764 24.0669888,42.6754157 23.0004719,42.8846292 L22.9685618,42.8900225 C22.8804719,42.9100225 22.7896854,42.899236 22.7126067,42.8554157 C17.8478876,40.202382 14.8254157,35.120809 14.8254157,29.5947416 C14.8254157,21.2713708 21.5968764,14.5001348 29.9202472,14.5001348 C38.243618,14.5001348 45.0148539,21.2713708 45.0148539,29.5947416 C45.0148539,35.0839551 42.019573,40.1493483 37.1977753,42.813618 L37.1339551,42.8518202 C37.0845169,42.8772135 37.0469888,42.8796854 37.0287865,42.8810337 C37.0114831,42.886427 36.9622697,42.9001348 36.8988989,42.8900225 C35.8193483,42.6814831 34.8400225,42.1605843 34.063618,41.3839551 C33.6456404,40.9668764 33.2977753,40.480809 33.029236,39.9390112 C32.9840674,39.8488989 32.9175506,39.7122697 32.8593483,39.5706966 C32.8168764,39.466427 32.7750787,39.349573 32.7276629,39.2017079 C32.5485618,38.6484494 32.4577753,38.0787865 32.4577753,37.5077753 C32.4577753,37.1118202 32.5038427,36.7059775 32.5944045,36.3021573 C32.6135056,36.216764 32.6355281,36.1309213 32.6588989,36.0457528 L32.6658652,36.0163146 C32.672382,35.9877753 32.6775506,35.9671011 32.683618,35.9475506 C32.7168764,35.8340674 32.7586742,35.720809 32.8015955,35.6053034 C32.8474382,35.4805843 32.896427,35.3614831 32.9510337,35.2417079 C33.2260899,34.6360899 33.6004719,34.0940674 34.063618,33.6311461 C34.0728315,33.6163146 34.0842921,33.6012584 34.0973258,33.5871011 L35.6438427,32.0399101 C35.6020449,31.9275506 35.5526067,31.8196854 35.4966517,31.7185618 L35.4791236,31.689573 C35.4290112,31.6037303 35.3847416,31.5358652 35.3314831,31.4621573 L35.2842921,31.3974382 C35.2175506,31.3120449 35.1526067,31.2381124 35.0883371,31.1731685 L34.3766517,30.4619326 L32.6411461,32.2071011 C32.410809,32.436764 32.1878876,32.6981124 31.9388989,33.029573 C31.6009213,33.480809 31.3166517,33.9641798 31.0932809,34.4662022 C31.0458652,34.5724944 31.0009213,34.6794607 30.9582247,34.7882247 C30.9148539,34.8990112 30.8757528,35.0115955 30.8382247,35.1244045 C30.749236,35.3877753 30.6768764,35.6488989 30.6222697,35.900809 C30.5188989,36.3774382 30.4618202,36.8675506 30.452382,37.3572135 L30.4544045,37.4026067 C30.4553034,37.4385618 30.4559775,37.4724944 30.4559775,37.5077753 C30.4559775,37.5421573 30.4553034,37.5758652 30.4544045,37.6100225 L30.452382,37.6729438 C30.4537303,37.7046292 30.4559775,37.7509213 30.4584494,37.7985618 L30.4694607,38.015191 C30.472382,38.0915955 30.4741798,38.1329438 30.4775506,38.1747416 L30.4885618,38.3041798 C30.4941798,38.3565393 30.5031685,38.4111461 30.5119326,38.4650787 L30.5402472,38.6482247 C30.5460899,38.6886742 30.5514831,38.7284494 30.5566517,38.768 C30.5683371,38.8574382 30.5762022,38.9183371 30.5883371,38.9778876 C30.5919326,38.9954157 30.5968764,39.0145169 30.6018202,39.0322697 L30.6078876,39.0542921 C30.6144045,39.0799101 30.6188989,39.0981124 30.6229438,39.1165393 C30.9330562,40.5448539 31.6188989,41.8212584 32.6063146,42.8068764 C33.7597978,43.9612584 35.2209213,44.6929438 36.8310337,44.9228315 C37.0456404,44.9549663 37.2730562,44.9147416 37.4737303,44.8140674 C43.2973258,41.9122697 46.9148539,36.080809 46.9148539,29.5956404 C46.9148539,24.9322697 45.0566517,20.5796854 41.6824944,17.3401348 L41.6824944,17.3401348 Z M39.1854157,32.9722697 L39.1865393,32.8778876 C39.1854157,32.7196854 39.1775506,32.5569888 39.1631685,32.3954157 L39.1530562,32.2994607 C39.1335056,32.1129438 39.1101348,31.949573 39.0818202,31.7999101 C39.0505843,31.6432809 39.0121573,31.4855281 38.9611461,31.3048539 L38.9341798,31.2113708 C38.8883371,31.0585618 38.8344045,30.9044045 38.7741798,30.7529438 L38.7474382,30.6893483 C38.6860899,30.5403596 38.6281124,30.4131685 38.5656404,30.2893483 L38.5418202,30.2399101 C38.5328315,30.2203596 38.5276629,30.209573 38.5222697,30.1994607 C38.4813708,30.122382 38.4397978,30.0509213 38.3984494,29.9803596 C38.3528315,29.9014831 38.3049663,29.8250787 38.2557528,29.748 L38.2013708,29.6628315 C38.1090112,29.5255281 38.0090112,29.3893483 37.903618,29.2590112 L37.8391236,29.1812584 C37.7056404,29.0217079 37.5912584,28.8949663 37.4786742,28.7819326 L33.2604719,24.5994607 C33.0762022,24.4147416 32.8305843,24.3131685 32.5690112,24.3131685 C32.3060899,24.3131685 32.0600225,24.415191 31.8753034,24.5999101 L31.145191,25.3297978 L36.0553034,30.2048539 C36.1575506,30.3068764 36.2606966,30.4244045 36.3694607,30.5650787 C36.3885618,30.589573 36.4076629,30.6149663 36.4258652,30.6410337 L36.4503596,30.6742921 C36.5182247,30.7691236 36.5833933,30.8688989 36.6440674,30.9718202 L36.659573,30.996764 C36.6755281,31.0235056 36.6921573,31.0506966 36.706764,31.0781124 C36.7746292,31.2021573 36.8375506,31.3338427 36.8928315,31.4688989 L36.9260899,31.556764 C36.9687865,31.6693483 37.0029438,31.7868764 37.025191,31.8650787 L37.0418202,31.9176629 C37.0562022,31.9702472 37.0663146,32.0133933 37.0762022,32.0572135 C37.092382,32.1277753 37.1042921,32.1987865 37.1155281,32.2715955 L37.1258652,32.3302472 C37.1274382,32.3376629 37.1299101,32.3518202 37.1326067,32.3666517 L37.1427191,32.4311461 C37.143618,32.4378876 37.143618,32.4439551 37.1431685,32.4502472 C37.1748539,32.7178876 37.1786742,32.9915955 37.1535056,33.2646292 C37.1258652,33.5587865 37.0683371,33.8369888 36.9766517,34.1154157 L36.9654157,34.1506966 C36.8813708,34.3983371 36.766764,34.6448539 36.623618,34.8841798 C36.6049663,34.9158652 36.585191,34.9471011 36.5654157,34.9778876 C36.4040674,35.2311461 36.236427,35.4437303 36.0528315,35.6271011 C35.8386742,35.8421573 35.5950787,36.0329438 35.3294607,36.1938427 C35.3020449,36.2102472 35.2721573,36.2228315 35.2427191,36.2349663 C35.2287865,36.2401348 35.2168764,36.2448539 35.2058652,36.2506966 C34.9283371,36.4062022 34.705191,36.5062022 34.4829438,36.5745169 C34.0775506,36.7005843 33.7932809,37.0848539 33.7919326,37.5082247 C33.7919326,37.916764 33.8546292,38.3253034 33.9777753,38.7221573 C34.1597978,38.699236 34.3431685,38.6590112 34.5209213,38.6201348 L34.5869888,38.6059775 C34.6310337,38.5960899 34.6757528,38.589573 34.7209213,38.5830562 C34.7771011,38.5745169 34.8191236,38.5682247 34.8593483,38.5572135 C35.1078876,38.4913708 35.3550787,38.3893483 35.5730562,38.299236 C35.6141798,38.282382 35.6555281,38.2686742 35.6968764,38.255191 C35.7366517,38.2419326 35.776427,38.2288989 35.8146292,38.2115955 C36.436427,37.9230562 36.996427,37.5322697 37.4791236,37.0509213 C37.6606966,36.8684494 37.8391236,36.659236 38.0240674,36.4106966 C38.0501348,36.3758652 38.0730562,36.3399101 38.0962022,36.3044045 C38.1197978,36.2673258 38.138,36.239236 38.1566517,36.2113708 C38.2854157,36.0230562 38.3824944,35.8662022 38.4629438,35.7181124 C38.505191,35.6405843 38.5427191,35.5614831 38.5802472,35.4819326 L38.6006966,35.4403596 C38.6813708,35.2702472 38.7472135,35.1160899 38.8018202,34.9697978 C38.8400225,34.868 38.8750787,34.7659775 38.9072135,34.6626067 C38.918,34.6291236 38.9299101,34.5963146 38.9420449,34.5635056 C38.9548539,34.5300225 38.9674382,34.495191 38.9773258,34.4599101 C39.0063146,34.3542921 39.0326067,34.248 39.0555281,34.140809 C39.0609213,34.1149663 39.0649663,34.0884494 39.0696854,34.0610337 L39.1114831,33.820809 C39.1162022,33.7956404 39.1222697,33.7729438 39.1299101,33.7522697 C39.1404719,33.6713708 39.1519326,33.5765393 39.1611461,33.4803596 C39.1694607,33.3891236 39.172382,33.2931685 39.1753034,33.1965393 L39.1775506,33.1358652 C39.178,33.129573 39.1788989,33.1237303 39.1806966,33.1176629 C39.1793483,33.1122697 39.1788989,33.1066517 39.1793483,33.1005843 L39.1822697,33.0387865 C39.1840674,33.0160899 39.185191,32.995191 39.1854157,32.9722697 L39.1854157,32.9722697 Z" id="Fill-4" fill="#FEFEFE"></path>
            </g>
        </g>
    </g>
</svg>