<?xml version="1.0" encoding="UTF-8"?>
<svg width="172px" height="146px" viewBox="0 0 172 146" version="1.1" xmlns="http://www.w3.org/2000/svg" xmlns:xlink="http://www.w3.org/1999/xlink">
    <!-- Generator: sketchtool 49.1 (51147) - http://www.bohemiancoding.com/sketch -->
    <title>megaphone</title>
    <desc>Created with sketchtool.</desc>
    <defs></defs>
    <g id="Page-1" stroke="none" stroke-width="1" fill="none" fill-rule="evenodd">
        <g id="Artboard-2" transform="translate(-98.000000, -286.000000)" fill="#88CCBA">
            <g id="mega" transform="translate(98.000000, 285.000000)">
                <path d="M159.08,13.15 C158.989075,6.4722424 153.597758,1.08092498 146.92,0.99 C117.72,25.31 89.3433333,37.47 61.79,37.47 L16.19,37.47 C7.80163902,37.4947387 1.00922189,44.2916246 0.99,52.68 L0.99,70.92 C1.01471286,79.3044705 7.80552954,86.0952871 16.19,86.12 L27.78,86.12 C26.6998057,89.532616 25.9989102,93.0538617 25.69,96.62 C25.3854934,99.7267599 25.275279,102.849503 25.36,105.97 C25.5354717,109.207024 26.0108416,112.420792 26.78,115.57 C27.64,119.31 28.36,122.13 28.97,124.03 C29.58,125.93 30.58,128.92 32.01,133 C33.44,137.08 34.36,139.86 34.81,141.32 C37.72,143.98 41.9,145.736667 47.35,146.59 C52.6999105,147.453406 58.1764798,147.080547 63.36,145.5 C68.58,143.91 72.11,141.28 73.95,137.61 C71.54,135.71 69.6,134.11 68.11,132.81 C66.4629234,131.353758 64.9378297,129.765119 63.55,128.06 C62.1938888,126.518621 61.1176883,124.752028 60.37,122.84 C59.7828077,121.066372 59.5883144,119.18627 59.8,117.33 C60.0398854,115.116884 60.785796,112.988644 61.98,111.11 C59.632436,108.776095 58.2719325,105.629036 58.18,102.32 C58.0639768,98.8958451 59.1030152,95.5321786 61.13,92.77 C63.2344439,89.7791498 66.2740293,87.5733396 69.77,86.5 C94.79,88.59 120.506667,100.623333 146.92,122.6 C153.597758,122.509075 158.989075,117.117758 159.08,110.44 L159.08,73.96 C165.795783,73.96 171.24,68.5157826 171.24,61.8 C171.24,55.0842174 165.795783,49.64 159.08,49.64 L159.08,13.15 Z M73.95,74.62 L73.95,48.97 C97.64,46.37 121.963333,35.5066667 146.92,16.38 L146.92,107.02 C122.15,88.08 97.8266667,77.28 73.95,74.62 Z" id="_"></path>
            </g>
        </g>
    </g>
</svg>