<svg id="Layer_1" xmlns="http://www.w3.org/2000/svg" viewBox="0 0 133.2 54.4"><style>.st0{fill:#58595b}</style><path class="st0" d="M4 44c-2.2 0-4 1.8-4 3.9 0 2.1 1.8 3.9 3.9 3.9 1.1 0 2.1-.5 2.8-1.3.7-.8.8-1.6.8-2.7H4.3v.8h2.3C6.6 50 5.2 51 3.9 51c-.8 0-1.6-.4-2.2-1-.6-.6-.9-1.3-.9-2.1 0-1.7 1.4-3.2 3.1-3.2 1.1 0 2 .5 2.6 1.4l.6-.6C6.4 44.6 5.3 44 4 44M8.9 43.4h.8v8.3h-.8zM13.4 46.9c-1.4 0-2.3 1.2-2.3 2.5s.9 2.5 2.3 2.5c.7 0 1.2-.3 1.6-.8v.7h.8V47H15v.7c-.4-.5-1-.8-1.6-.8m.1 4.2c-1 0-1.5-.9-1.5-1.8s.6-1.7 1.5-1.7c1 0 1.6.8 1.6 1.7-.1 1-.6 1.8-1.6 1.8M21.9 43.4H21v4.2c-.4-.5-1-.8-1.6-.8-1.4 0-2.3 1.2-2.3 2.5s.9 2.5 2.3 2.5c.6 0 1.2-.3 1.6-.8v.7h.8v-8.3zm-2.4 7.7c-1 0-1.5-.9-1.5-1.8s.6-1.7 1.5-1.7c1 0 1.6.8 1.6 1.7 0 1-.6 1.8-1.6 1.8M25.8 46.9c-.6 0-1 .3-1.3.7V47h-.8v4.7h.8v-2.2c0-.8.1-1.9 1.2-1.9.9 0 1 .7 1 1.4v2.7h.8v-2.8c-.1-1.1-.4-2-1.7-2M31 46.9c-1.5 0-2.3 1.2-2.3 2.6 0 1.4.9 2.4 2.3 2.4 1 0 1.7-.5 2.2-1.3l-.7-.4c-.3.6-.8 1-1.4 1-.9 0-1.5-.7-1.5-1.6h3.7c0-1.5-.8-2.7-2.3-2.7m-1.4 1.9c.1-.7.7-1.2 1.4-1.2s1.3.6 1.4 1.2h-2.8zM38 47l-1.6 3.4-1.6-3.4h-1l2.2 4.3-1.5 3.1h.9l3.5-7.4zM46.7 44c-2.2 0-4 1.8-4 4s1.8 3.9 4 3.9c.8 0 1.6-.3 2.3-.7v-1c-.6.6-1.4 1-2.3 1-1.7 0-3.1-1.5-3.1-3.1 0-1.7 1.4-3.1 3.1-3.1.9 0 1.7.4 2.3 1v-1c-.7-.8-1.4-1-2.3-1M52.6 46.9c-1.5 0-2.3 1.2-2.3 2.6 0 1.4.9 2.4 2.3 2.4 1 0 1.7-.5 2.2-1.3l-.7-.4c-.3.6-.8 1-1.4 1-.9 0-1.5-.7-1.5-1.6h3.7c0-1.5-.8-2.7-2.3-2.7m-1.5 1.9c.1-.7.7-1.2 1.4-1.2s1.3.6 1.4 1.2h-2.8zM58.3 46.9c-.6 0-1 .3-1.3.7V47h-.8v4.7h.8v-2.2c0-.8.1-1.9 1.2-1.9.9 0 1 .7 1 1.4v2.7h.8v-2.8c-.1-1.1-.4-2-1.7-2M62.6 45.3h-.8V47h-.5v.7h.5v4h.8v-4h.8V47h-.8zM66.2 46.9c-1.5 0-2.3 1.2-2.3 2.6 0 1.4.9 2.4 2.3 2.4 1 0 1.7-.5 2.2-1.3l-.7-.4c-.3.6-.8 1-1.4 1-.9 0-1.5-.7-1.5-1.6h3.7c.1-1.5-.7-2.7-2.3-2.7m-1.4 1.9c.1-.7.7-1.2 1.4-1.2s1.3.6 1.4 1.2h-2.8zM71.7 46.9c-.5 0-.8.3-1 .6V47h-.8v4.7h.8v-2.4c0-.6 0-1.8.9-1.8.2 0 .3.1.5.2l.4-.7c-.3-.1-.5-.1-.8-.1M79.7 43.3c-.5 0-1 .2-1.3.6-.3.3-.3.8-.4 1.2l-.4 1.9h-.4l-.1.7h.4l-.6 4h.8l.6-4h1.2l.1-.7h-1.2l.3-1.6c.1-.8.2-1.3.9-1.3.2 0 .4.1.5.1l.1-.8c-.2-.1-.4-.1-.5-.1M82.7 46.9c-1.4 0-2.7 1.1-2.9 2.5-.2 1.4.7 2.5 2.1 2.5s2.7-1.1 2.9-2.5c.2-1.4-.7-2.5-2.1-2.5m-.7 4.2c-1 0-1.6-.8-1.4-1.8.2-1 1-1.8 2-1.8s1.6.8 1.4 1.8c-.2 1-1 1.8-2 1.8M88.3 46.9c-.5 0-.8.3-1.1.6l.1-.5h-.8l-.7 4.7h.8l.4-2.4c.1-.6.3-1.8 1.2-1.8.2 0 .3.1.4.2l.5-.7c-.3-.1-.5-.1-.8-.1M95.5 43.8L92 51.7h.9l.9-2.2H97l.9 2.2h.9l-3.3-7.9zm-1.3 5l1.3-3 1.3 3h-2.6zM104.3 43.4h-.8v4.2c-.4-.5-1-.8-1.6-.8-1.4 0-2.3 1.2-2.3 2.5s.9 2.5 2.3 2.5c.6 0 1.2-.3 1.6-.8v.7h.8v-8.3zm-2.3 7.7c-1 0-1.5-.9-1.5-1.8s.6-1.7 1.5-1.7c1 0 1.6.8 1.6 1.7-.1 1-.6 1.8-1.6 1.8M108.1 46.9c-1.4 0-2.5 1.1-2.5 2.5s1.1 2.5 2.5 2.5 2.5-1.1 2.5-2.5-1.1-2.5-2.5-2.5m0 4.2c-1 0-1.7-.8-1.7-1.8s.7-1.8 1.7-1.8 1.7.8 1.7 1.8-.7 1.8-1.7 1.8M114.3 46.9c-.7 0-1.2.3-1.6.8V47h-.8v7.4h.8V51c.4.5 1 .8 1.6.8 1.4 0 2.3-1.1 2.3-2.5 0-1.2-.9-2.4-2.3-2.4m-.1 4.2c-1 0-1.5-.9-1.5-1.8s.6-1.7 1.5-1.7c1 0 1.6.8 1.6 1.7 0 1-.6 1.8-1.6 1.8M118.8 45.3h-.8V47h-.5v.7h.5v4h.8v-4h.9V47h-.9zM121.2 44.6c-.3 0-.6.3-.6.6s.3.6.6.6.6-.3.6-.6-.3-.6-.6-.6m.4 2.4h-.8v4.7h.8V47zM125.6 46.9c-1.4 0-2.5 1.1-2.5 2.5s1.1 2.5 2.5 2.5 2.5-1.1 2.5-2.5-1.1-2.5-2.5-2.5m0 4.2c-1 0-1.7-.8-1.7-1.8s.7-1.8 1.7-1.8 1.7.8 1.7 1.8-.7 1.8-1.7 1.8M131.6 46.9c-.6 0-1 .3-1.3.7V47h-.8v4.7h.8v-2.2c0-.8.1-1.9 1.2-1.9.9 0 1 .7 1 1.4v2.7h.8v-2.8c-.1-1.1-.4-2-1.7-2M66.5 0L51.2 11.7h1.4v16.1h27.9V11.7H82L66.5 0zM55 25.6V11.7l11.4-8.6L78 11.7v13.9h-7.4v-.5s4.2-1.4 3.7-6.4c0 0 2.6-1.3.8-3.5 0 0-.8 1.2-1.1 1.3 0 0-.3-1-.3-1.2-.3.4-.6.9-.8 1.4-.6 1.3-.4 2.7-1.2 4-.7 1.1-1.8 1.7-3 1.7h-.4s.3-.8 1.1-1.7h-.1c.4-.6.6-1.3.6-2.1 0-2-1.5-3.6-3.4-3.6s-3.4 1.6-3.4 3.6c0 .8.2 1.5.6 2.1h-.1c.8.9 1.1 1.7 1.1 1.7h-.4c-1.2 0-2.3-.6-3-1.7-.8-1.3-.6-2.7-1.2-4-.2-.5-.5-.9-.8-1.4 0 .2-.3 1.2-.3 1.2-.4 0-1.1-1.3-1.1-1.3-1.9 2.3.8 3.5.8 3.5-.5 5 3.7 6.4 3.7 6.4v.5H55z"/></svg>