<svg id="Layer_1" xmlns="http://www.w3.org/2000/svg" xmlns:xlink="http://www.w3.org/1999/xlink" viewBox="0 0 45 45"><style>.st0{clip-path:url(#SVGID_2_)}.st0,.st1,.st2,.st3{fill:#fc8766}.st2,.st3{clip-path:url(#SVGID_4_)}.st3{clip-path:url(#SVGID_6_)}</style><defs><path id="SVGID_1_" d="M0 0h45v45H0z"/></defs><clipPath id="SVGID_2_"><use xlink:href="#SVGID_1_" overflow="visible"/></clipPath><path class="st0" d="M22.5 2.1c-11.2 0-20.4 9.1-20.4 20.4s9.1 20.4 20.4 20.4 20.4-9.1 20.4-20.4S33.7 2.1 22.5 2.1m0 42.9C10.1 45 0 34.9 0 22.5S10.1 0 22.5 0 45 10.1 45 22.5 34.9 45 22.5 45M11.8 4.6"/><path class="st0" d="M10.5 5.5c.1-.1.2-.2.4-.2-.2 0-.3.1-.4.2M11.3 5c0-.1 0-.1 0 0 0-.1 0-.1 0 0M20.4 44.9c-3.2-.3-6.2-1.3-8.9-2.8 2.7 1.5 5.7 2.5 8.9 2.8M10.4 3.6c.2-.1.4-.2.5-.3-.2 0-.4.1-.5.3M10 5.8c.1-.1.3-.2.4-.3-.1.1-.2.2-.4.3M34.1 5.2c.1.1.2.2.4.3-.1-.1-.2-.2-.4-.3M21.7 45h-.5.5M38.9 9.7c-1.3-1.6-2.7-3-4.4-4.2 1.7 1.2 3.2 2.6 4.4 4.2M9.9 3.9c.1-.1.2-.1.3-.2-.1.1-.2.1-.3.2M24 0h.6c-.3.1-.5.1-.6 0M24.6.1c3.4.3 6.6 1.4 9.5 3.1C31.3 1.5 28 .4 24.6.1M23.3 0h.5-.5M22.5 0h.6-.6M34.1 3.2c.2.1.4.2.5.3-.1-.1-.3-.2-.5-.3M34.9 3.7c.1.1.2.1.3.2-.2-.1-.3-.1-.3-.2M20.5.1h.6-.6M21.9 0h.6-.6M10.9 3.2l.6-.3-.6.3M11.5 2.9C14.2 1.4 17.3.4 20.4.1c-3.2.3-6.2 1.3-8.9 2.8M35.5 4.1s.1 0 .1.1c-.1 0-.1-.1-.1-.1M21.2 0h.5-.5M9.5 40.9l-.1-.1c.1 0 .1.1.1.1M34.5 39.5c-.1.1-.2.2-.4.3.2-.1.3-.2.4-.3M11.5 42.1l-.6-.3.6.3M10.9 39.8c-.1-.1-.2-.2-.4-.2.1 0 .2.1.4.2M10.9 41.8c-.2-.1-.4-.2-.5-.3.1.1.3.2.5.3M33.7 40c0 .1 0 .1 0 0 0 .1 0 .1 0 0M10.4 39.5c-.1-.1-.3-.2-.4-.3.2.1.3.2.4.3M9.4 4.2l.1-.1s0 .1-.1.1M10.1 41.3c-.1-.1-.2-.1-.3-.2.2.1.3.1.3.2M21 45h-.6c.3-.1.5-.1.6 0M23.8 45h-.5.5M.8 21.7h.9c.2-3.9 1.4-7.5 3.4-10.5-.2-.1-.4-.1-.6-.2-.2-.1-.4-.3-.5-.5-.2-.3-.1-.5 0-.7-2.5 3.6-4 8-4 12.7 0-.5.4-.8.8-.8M35.6 40.8c-.1 0-.1.1 0 0-.1.1-.1 0 0 0M34.6 41.4c-.2.1-.4.2-.5.3.2 0 .4-.1.5-.3M10 5.8C8.5 6.9 7.2 8.2 6 9.7c1.2-1.5 2.5-2.8 4-3.9M35.1 41.1c-.1.1-.2.1-.2.2l.2-.2M6.1 35.3c1.2 1.5 2.5 2.8 4 3.9-1.6-1.1-2.9-2.4-4-3.9M33.5 42.1c-2.7 1.5-5.8 2.5-8.9 2.8 3.2-.3 6.2-1.3 8.9-2.8M34.6 39.5a24.933 24.933 0 0 1 0 0M41.1 10.4c-.1.2-.3.4-.5.5-.2.1-.4.1-.6.2 2 3.1 3.2 6.7 3.4 10.5h.9c.5 0 .8.4.8.8 0-4.7-1.5-9.1-4-12.7 0 .3.1.5 0 .7M44.2 23.3h-.9c-.2 3.9-1.4 7.5-3.4 10.5.2.1.4.1.6.2.2.1.4.3.5.5.1.2 0 .4-.1.6 2.5-3.6 4-8 4-12.7.1.6-.3.9-.7.9M3.9 34.6c.1-.2.3-.4.5-.5.2-.1.4-.2.6-.2-2-3.1-3.2-6.7-3.4-10.5H.8c-.4-.1-.8-.4-.8-.9 0 4.7 1.5 9.1 4 12.7-.1-.2-.2-.4-.1-.6M34.1 41.8l-.6.3.6-.3M24.5 44.9h-.6.6M32.1 21.7h1.7c-.1-3.1-.4-6.1-1-8.8-.6.1-1.1.2-1.7.3.6 2.5.9 5.4 1 8.5M14 13.1c-.6-.1-1.1-.2-1.7-.3-.6 2.7-1 5.6-1 8.8H13c0-3 .3-5.9 1-8.5M32.3 33.7c-.6-.1-1.1-.2-1.7-.2-1.6 5.4-4.2 9.2-7.3 9.8v.1h1c.2 0 .4 0 .5-.1.9-.1 1.8-.3 2.6-.5 2.1-2.1 3.8-5.2 4.9-9.1M21.7 43.2c-3-.6-5.7-4.4-7.3-9.8-.6.1-1.1.2-1.7.2 1.1 3.9 2.8 7 4.8 9 .9.2 1.7.4 2.6.5.2 0 .4 0 .5.1h.7c.1.1.3.1.4 0zM23.3 1.8c3 .6 5.7 4.4 7.3 9.8.6-.1 1.1-.2 1.7-.2-1.1-3.9-2.8-7-4.8-9-.9-.2-1.7-.4-2.6-.5-.2 0-.4 0-.5-.1h-.6-.1c-.1-.1-.3-.1-.4 0zM12.7 11.3c.6.1 1.1.2 1.7.2 1.6-5.4 4.2-9.2 7.3-9.8h-.3-.6-.1c-.2 0-.4 0-.5.1-.9.1-1.8.3-2.6.5-2.1 2-3.8 5.1-4.9 9M31 31.9c.6.1 1.1.2 1.7.3.6-2.7 1-5.6 1-8.8H32c0 3-.3 5.9-1 8.5M12.9 23.3h-1.7c.1 3.1.4 6.1 1 8.8.6-.1 1.1-.2 1.7-.3-.6-2.5-.9-5.4-1-8.5M21.2 1.7h0M23.7 1.7h.1-.1M23.8 43.3h-.1.1M21.3 43.3h-.1.1M21.7 23.3v8h1.6v-8h-1.6zM21.7 12h1.6V1.7c-.3-.1-.6-.1-.8-.1-.3 0-.6 0-.8.1V12z"/><path class="st0" d="M23.3 33h-1.6v10.3c.3.1.6.1.8.1.3 0 .6 0 .8-.1V33zM23.3 1.7h-.1-.7.8zM21.7 1.8c.3-.1.6-.1.8-.1h-.6-.1c-.1 0-.1 0-.1.1zM21.7 43.3h.8-.8z"/><path class="st0" d="M23.3 43.2c-.3.1-.6.1-.8.1h.7c.1 0 .1 0 .1-.1zM23.2 43.3h-.1.1M21.8 1.7h0M23.1 1.7h0M21.9 43.3h-.1.1M33.8 22.5v.8h9.6v-.8-.8h-9.6v.8M11.2 22.5v-.8H1.7v1.6h9.6c-.1-.2-.1-.5-.1-.8M23.3 23.3h8.8v-.8-.8h-8.8v1.6zM21.7 21.7h-8.8v1.6h8.8v-1.6z"/><path class="st0" d="M.8 23.3h.9v-.8-.8H.8c-.4 0-.8.3-.8.8s.4.8.8.8M44.2 21.7h-.9v1.6h.9c.5 0 .8-.4.8-.8 0-.5-.4-.8-.8-.8M33.8 21.7h-1.7v1.6h1.7v-.8-.8M12.9 22.5v-.8h-1.7v1.6h1.7v-.8"/><path class="st1" d="M21.7 21.7h1.7v1.7h-1.7z"/><g><defs><path id="SVGID_3_" d="M0 0h45v45H0z"/></defs><clipPath id="SVGID_4_"><use xlink:href="#SVGID_3_" overflow="visible"/></clipPath><path class="st2" d="M10.1 3.7c.1 0 .1-.1.2-.1 0 0-.1.1-.2.1M21.7 0h.2-.2M34.6 3.6c.1 0 .1.1.2.1 0 0-.1-.1-.2-.1M33.2 4.6c-1.7-1-3.6-1.8-5.7-2.3 2 .5 3.9 1.3 5.7 2.3M12.7 11.3c-2.4-.4-4.6-.9-6.6-1.5-.4.5-.7.9-1 1.4 2.2.7 4.6 1.3 7.2 1.7.1-.6.2-1.1.4-1.6M23.8 0h0M24.5.1s.1 0 0 0c.1 0 0 0 0 0M31 13.1c-.1-.6-.3-1.1-.4-1.6-2.3.3-4.8.5-7.3.5v1.7c2.7 0 5.3-.2 7.7-.6M21.7 13.7V12c-2.5 0-4.9-.2-7.3-.5-.2.5-.3 1.1-.4 1.6 2.4.4 5 .6 7.7.6M17.5 2.3c-2 .5-3.9 1.3-5.7 2.3 1.8-1 3.7-1.8 5.7-2.3M41 9.8c0-.1 0-.1 0 0-1.6-2.2-3.4-4.1-5.5-5.6 2.2 1.5 4 3.4 5.5 5.6M9.5 4.1c.2-.1.3-.1.4-.2-.1.1-.2.1-.4.2M33.7 5c.2 0 .3.1.4.2-.1-.1-.2-.2-.4-.2M9.4 4.2C7.4 5.7 5.5 7.5 4 9.7c0 0 0 .1-.1.1 1.6-2.2 3.4-4.1 5.5-5.6M32.7 12.9c2.6-.4 5-1 7.2-1.7-.3-.5-.7-1-1-1.4-2 .6-4.3 1.2-6.6 1.5.2.5.3 1 .4 1.6M20.4.1s.1 0 0 0c.1 0 0 0 0 0M35.1 3.9c.1.1.2.1.4.2-.2-.1-.3-.1-.4-.2M21 0h0M10.4 5.5c.1 0 .1 0 0 0 .1 0 .1 0 0 0M23.1 0h0M10.9 5.2c.1-.1.2-.2.4-.2-.2 0-.3.1-.4.2M33.2 4.6c.2.1.3.2.5.3-.2-.1-.3-.2-.5-.3M11.3 4.9c.2-.1.3-.2.5-.3-.2.1-.3.2-.5.3"/><path class="st2" d="M33.2 4.6c.2.1.3.2.5.3.2.1.3.2.4.3.1.1.2.2.4.3h.1c1.6 1.2 3.1 2.6 4.4 4.2.4.5.7.9 1 1.4.2-.1.4-.1.6-.2.2-.1.4-.3.5-.5.1-.2 0-.4-.1-.6-1.5-2.2-3.3-4-5.5-5.6 0 0-.1 0-.1-.1-.1-.1-.2-.1-.3-.2-.1-.1-.2-.1-.3-.2-.1 0-.1-.1-.2-.1-.2-.1-.4-.2-.5-.3C31.2 1.6 28 .5 24.6.2h-.7-1.4c1.8 0 3.5.8 5 2.3 2 .3 4 1.1 5.7 2.1M3.9 10.4c.1.2.3.4.5.5.2.1.4.2.6.2.3-.5.7-1 1-1.4 1.2-1.5 2.5-2.8 4-3.9.1-.1.3-.2.4-.3h.1c.1-.1.2-.2.4-.2.1-.2.2-.3.4-.3.2-.1.3-.2.5-.3 1.7-1 3.6-1.8 5.7-2.3C19 .8 20.7 0 22.5 0h-1.3-.7-.1c-3.2.3-6.2 1.3-8.9 2.8l-.6.3c-.2.1-.4.2-.5.3-.1 0-.1.1-.2.1-.1.3-.2.3-.3.4-.1.1-.2.1-.4.2l-.1.1C7.3 5.7 5.5 7.6 4 9.8c-.1.2-.2.4-.1.6M14.4 11.5c-.6-.1-1.1-.2-1.7-.2-.1.5-.3 1.1-.4 1.6.6.1 1.1.2 1.7.3.1-.6.2-1.2.4-1.7M23.8 1.7h.5-.5M20.7 1.7h.5-.5M21.7 1.7h-.3.3zM24.3 1.7c.2 0 .4 0 .5.1-.1 0-.3 0-.5-.1M20.1 1.8c.2 0 .4 0 .5-.1-.1.1-.3.1-.5.1"/><path class="st2" d="M27.5 2.3c-.9-.2-1.7-.4-2.6-.5.9.1 1.8.3 2.6.5M20.1 1.8c-.9.1-1.8.3-2.6.5.8-.2 1.7-.4 2.6-.5M23.7 1.7h-.3.3M32.7 12.9c-.1-.6-.3-1.1-.4-1.6-.6.1-1.1.2-1.7.2.2.5.3 1.1.4 1.6.6 0 1.2-.1 1.7-.2"/><path class="st2" d="M20.1 1.8c.2 0 .4 0 .6-.1h1V.8c0-.4.3-.8.8-.8-1.8 0-3.5.8-5 2.3.8-.2 1.7-.4 2.6-.5"/><path class="st2" d="M23.3.8v.9h1c.2 0 .4 0 .5.1.9.1 1.8.3 2.6.5C26 .8 24.3 0 22.5 0c.5 0 .8.4.8.8M22.5 13.7h.8V12h-1.6v1.7h.8M21.9 1.7h.6-.6M22.5 1.7h.6-.6M23.3 1.7h-.1.1zM21.8 1.7h-.1.1"/><path class="st2" d="M21.7.8v.9h1.6V.8c0-.4-.3-.8-.8-.8s-.8.4-.8.8M21.2 45h-.1.1M34.9 41.3c-.1.1-.2.1-.2.2 0-.1.1-.2.2-.2M35.5 40.9c-.1.1-.2.2-.4.2.1-.1.2-.1.4-.2M20.5 44.9s-.1 0 0 0c-.1 0 0 0 0 0M10.4 41.4c-.1 0-.1-.1-.2-.1 0 0 .1.1.2.1M9.9 41.1c-.1-.1-.2-.1-.4-.2.2.1.3.1.4.2M24 45h-.1.1"/></g><path class="st1" d="M11.5 42.1z"/><g><defs><path id="SVGID_5_" d="M0 0h45v45H0z"/></defs><clipPath id="SVGID_6_"><use xlink:href="#SVGID_5_" overflow="visible"/></clipPath><path class="st3" d="M24.6 44.9s-.1 0 0 0c-.1 0 0 0 0 0M33.7 40.1c-.2.1-.3.2-.5.3.2-.1.3-.2.5-.3M23.3 31.3V33c2.5 0 4.9.2 7.3.5.2-.5.3-1.1.4-1.6-2.4-.4-5-.6-7.7-.6M12.3 32.1c-2.6.4-5 1-7.2 1.7.3.5.7 1 1 1.4 2-.6 4.3-1.2 6.6-1.5-.2-.5-.3-1-.4-1.6M14 31.9c.1.6.3 1.1.4 1.6 2.3-.3 4.8-.5 7.3-.5v-1.7c-2.7 0-5.3.2-7.7.6M11.8 40.4c1.7 1 3.6 1.8 5.7 2.3-2-.5-3.9-1.3-5.7-2.3M34.6 39.5c-.1 0-.1 0 0 0-.1 0-.1 0 0 0M4 35.2c0 .1 0 .1 0 0 1.5 2.2 3.4 4.1 5.5 5.6-2.2-1.5-4-3.4-5.5-5.6M27.5 42.7c2-.5 3.9-1.3 5.7-2.3-1.8 1-3.7 1.8-5.7 2.3M32.3 33.7c2.4.4 4.6.9 6.6 1.5.4-.5.7-.9 1-1.4-2.2-.7-4.6-1.3-7.2-1.7-.1.6-.2 1.1-.4 1.6M35.6 40.8c2.1-1.5 3.9-3.3 5.4-5.5 0 0 0-.1.1-.1-1.6 2.2-3.4 4.1-5.5 5.6M11.8 40.4c-.2-.1-.3-.2-.5-.3.2.1.3.2.5.3M11.3 40.1c-.1-.1-.3-.2-.4-.3.1.1.2.2.4.3M34.1 39.8c-.1.1-.2.2-.4.2.2 0 .3-.1.4-.2"/><path class="st3" d="M11.8 40.4c-.2-.1-.3-.2-.5-.3-.1-.1-.3-.2-.4-.3-.1-.1-.2-.2-.4-.2h-.1c-.1-.1-.3-.2-.4-.3-1.5-1.1-2.8-2.4-4-3.9-.4-.5-.7-.9-1-1.4-.2.1-.4.1-.6.2-.2.1-.4.3-.5.5-.1.2 0 .5.1.6 1.5 2.2 3.3 4 5.5 5.6l.1.1c.1 0 .2 0 .3.1.1.1.2.1.3.2.1 0 .1.1.2.1.2.1.4.2.5.3l.6.3c2.7 1.5 5.8 2.5 8.9 2.8H22.5c-1.8 0-3.5-.8-5-2.3-2-.3-3.9-1.1-5.7-2.1M41 35.2c.1-.2.1-.4.1-.6-.1-.2-.3-.4-.5-.5-.2-.1-.4-.1-.6-.2-.3.5-.7 1-1 1.4-1.3 1.6-2.7 3-4.4 4.2h-.1c-.1.1-.2.2-.4.3-.1.1-.3.2-.4.3-.2.1-.3.2-.5.3-1.7 1-3.6 1.8-5.7 2.3-1.5 1.5-3.2 2.3-5 2.3h2.1c3.2-.3 6.2-1.3 8.9-2.8l.6-.3c.2-.1.4-.2.5-.3.1-.1.2-.1.2-.2.1-.1.2-.1.2-.2.1-.1.2-.2.4-.2 0 0 .1 0 .1-.1 2.2-1.6 4-3.5 5.5-5.7M21.3 43.3h0"/><path class="st3" d="M24.9 43.2c.9-.1 1.8-.3 2.6-.5-.8.2-1.7.4-2.6.5M24.9 43.2c-.2 0-.4 0-.5.1.1-.1.3-.1.5-.1M24.3 43.3h-.5.5M23.3 43.3h0zM20.7 43.3c-.2 0-.4 0-.5-.1.1 0 .3 0 .5.1M30.6 33.5c.6.1 1.1.2 1.7.2.1-.5.3-1.1.4-1.6-.6-.1-1.1-.2-1.7-.3-.1.6-.2 1.2-.4 1.7M12.3 32.1c.1.6.3 1.1.4 1.6.6-.1 1.1-.2 1.7-.2-.2-.5-.3-1.1-.4-1.6-.6 0-1.2.1-1.7.2M21.2 43.3h-.5.5M17.5 42.7c.9.2 1.7.4 2.6.5-.9-.1-1.8-.3-2.6-.5"/><path class="st3" d="M21.7 44.2v-.9h-.3-.6-.1c-.2 0-.4 0-.5-.1-.9-.1-1.8-.3-2.6-.5 1.5 1.5 3.2 2.3 5 2.3-.6 0-.9-.4-.9-.8"/><path class="st3" d="M24.9 43.2c-.2 0-.4 0-.6.1h-.6-.4v.9c0 .5-.4.8-.8.8 1.8 0 3.5-.8 5-2.3-.8.2-1.7.4-2.6.5M22.5 31.3h-.8V33h1.6v-1.7h-.8M23.2 43.3h0M22.5 43.3h-.6.6M21.7 43.3h.1-.1zM23.1 43.3h-.6.6"/><path class="st3" d="M23.3 44.2v-.9h-.1H21.9h-.1-.1v.9c0 .5.4.8.8.8.5 0 .8-.4.8-.8M25.3 17.8c-1.5 1.4-2.7 1.9-2.7 1.9h-.1s-1.3-.5-2.8-2c-1.5-1.4-.1-3.2 1.1-3.3 1.2-.1 1.7.7 1.7.7s.6-.8 1.7-.7c1.2.2 2.6 2 1.1 3.4m-2.8-8.2c-3.7 0-6.7 3-6.7 6.7 0 4.9 6.2 11.5 6.4 11.8.1.1.2.1.3.1.1 0 .2 0 .3-.1.3-.3 6.4-6.9 6.4-11.8 0-3.7-3-6.7-6.7-6.7"/></g></svg>