<svg width="16" height="16" viewBox="0 0 16 16" xmlns="http://www.w3.org/2000/svg"><title>icons/close-circle</title><path d="M11.969 10.354a.64.64 0 0 0-.198-.469L9.885 8l1.886-1.885a.64.64 0 0 0 .198-.47.653.653 0 0 0-.198-.478l-.938-.938a.653.653 0 0 0-.479-.198.64.64 0 0 0-.469.198L8 6.115 6.115 4.229a.64.64 0 0 0-.47-.198.653.653 0 0 0-.478.198l-.938.938a.653.653 0 0 0-.198.479c0 .18.066.337.198.469L6.115 8 4.229 9.885a.64.64 0 0 0-.198.47c0 .187.066.346.198.478l.938.938a.653.653 0 0 0 .479.198.64.64 0 0 0 .469-.198L8 9.885l1.885 1.886a.64.64 0 0 0 .47.198.653.653 0 0 0 .478-.198l.938-.938a.653.653 0 0 0 .198-.479zM16 8c0 1.451-.358 2.79-1.073 4.016a7.964 7.964 0 0 1-2.911 2.911A7.826 7.826 0 0 1 8 16a7.826 7.826 0 0 1-4.016-1.073 7.964 7.964 0 0 1-2.911-2.911A7.826 7.826 0 0 1 0 8c0-1.451.358-2.79 1.073-4.016a7.964 7.964 0 0 1 2.911-2.911A7.826 7.826 0 0 1 8 0c1.451 0 2.79.358 4.016 1.073a7.964 7.964 0 0 1 2.911 2.911A7.826 7.826 0 0 1 16 8z" fill="#FFF" fill-rule="evenodd"/></svg>