<svg width="10" height="18" viewBox="0 0 10 18" xmlns="http://www.w3.org/2000/svg"><title>icons/dollar</title><path d="M9.372 11.903c0 1.024-.333 1.907-1 2.647-.666.74-1.531 1.197-2.596 1.37v1.759c0 .093-.03.17-.09.23a.313.313 0 0 1-.231.091H4.099a.309.309 0 0 1-.226-.095.309.309 0 0 1-.096-.226V15.92a6.331 6.331 0 0 1-1.28-.312 6.745 6.745 0 0 1-1.02-.447 6.762 6.762 0 0 1-.743-.482 5.735 5.735 0 0 1-.468-.376 2.555 2.555 0 0 1-.175-.181c-.114-.14-.12-.278-.02-.412l1.034-1.356c.047-.067.124-.107.231-.12.1-.014.181.016.241.09l.02.02c.757.663 1.57 1.081 2.441 1.255.248.054.496.08.744.08.542 0 1.02-.143 1.43-.431.413-.288.619-.697.619-1.226 0-.187-.05-.365-.151-.532a1.884 1.884 0 0 0-.336-.422 2.755 2.755 0 0 0-.588-.376 13.405 13.405 0 0 0-.663-.322 20.93 20.93 0 0 0-.804-.326c-.26-.108-.467-.191-.617-.251-.151-.06-.357-.15-.618-.267a7.31 7.31 0 0 1-.628-.311c-.157-.09-.346-.21-.567-.357-.221-.147-.4-.29-.538-.427a6.248 6.248 0 0 1-.437-.492 2.46 2.46 0 0 1-.356-.582 4.022 4.022 0 0 1-.211-.668 3.49 3.49 0 0 1-.086-.784c0-.924.328-1.734.985-2.43.656-.697 1.51-1.146 2.561-1.347V.321c0-.087.032-.162.096-.226A.309.309 0 0 1 4.099 0h1.356c.093 0 .17.03.23.09s.091.138.091.231V2.09c.382.04.752.117 1.11.231.358.114.65.226.874.337.224.11.437.236.638.376.2.141.331.238.391.292.06.053.11.1.151.14.114.12.13.248.05.382l-.813 1.467c-.054.1-.13.154-.231.16a.32.32 0 0 1-.272-.07c-.02-.02-.068-.06-.145-.12a5.487 5.487 0 0 0-.392-.267 4.486 4.486 0 0 0-1.336-.583 3.351 3.351 0 0 0-.859-.115c-.636 0-1.155.144-1.557.432-.401.288-.602.66-.602 1.115 0 .174.028.335.085.482.057.148.156.286.296.417.141.13.273.241.397.332.124.09.312.194.563.31a15.546 15.546 0 0 0 1.31.548c.355.134.627.24.814.317.188.077.442.194.763.351.322.158.575.3.759.427.184.127.392.295.623.502.23.208.408.42.532.638.124.218.23.474.316.769.087.294.131.61.131.944z" fill="#000" fill-rule="evenodd"/></svg>