<svg width="16" height="12" viewBox="0 0 16 12" xmlns="http://www.w3.org/2000/svg"><title>icons/email</title><path d="M14.857 10.636V4.091c-.19.204-.396.392-.616.562a124.322 124.322 0 0 0-3.803 2.881c-.304.244-.551.435-.742.571-.19.136-.447.274-.772.413-.324.14-.63.21-.915.21H7.99c-.286 0-.59-.07-.915-.21a4.182 4.182 0 0 1-.772-.413c-.19-.136-.438-.327-.742-.57-.94-.75-2.208-1.711-3.803-2.882a5.136 5.136 0 0 1-.616-.562v6.545c0 .074.028.138.085.192a.281.281 0 0 0 .2.081h13.143a.281.281 0 0 0 .201-.08.256.256 0 0 0 .085-.193zm0-8.957V1.47c0-.025-.001-.062-.004-.11a.225.225 0 0 0-.027-.107 4.95 4.95 0 0 1-.05-.077.162.162 0 0 0-.08-.064.337.337 0 0 0-.125-.021H1.43a.281.281 0 0 0-.201.08.256.256 0 0 0-.085.193c0 .954.437 1.761 1.312 2.42 1.15.864 2.343 1.764 3.58 2.702l.313.251c.173.14.31.246.41.32.102.074.235.163.398.268.164.105.314.184.451.235.137.05.265.076.384.076h.018c.119 0 .247-.025.384-.076s.287-.13.45-.235c.164-.105.297-.194.398-.268.101-.074.238-.18.41-.32a94.5 94.5 0 0 1 .313-.251c1.238-.938 2.432-1.838 3.58-2.702a4.07 4.07 0 0 0 .898-.984c.277-.412.415-.786.415-1.121zM16 1.364v9.272c0 .375-.14.696-.42.963-.28.267-.616.401-1.009.401H1.43a1.41 1.41 0 0 1-1.01-.4A1.284 1.284 0 0 1 0 10.635V1.364C0 .989.14.668.42.4.7.134 1.036 0 1.429 0H14.57c.393 0 .73.134 1.01.4.28.268.419.589.419.964z" fill="#000" fill-rule="evenodd"/></svg>