<svg width="16" height="16" viewBox="0 0 16 16" xmlns="http://www.w3.org/2000/svg"><title>icons/googleplus</title><path d="M3.367 12.016c-.758 0-1.437.148-2.054.39A8.027 8.027 0 0 1 0 8c0-.148 0-.281.016-.43.39 1.36 1.632 2.336 3.336 2.336h.406c-.125.258-.219.54-.219.852 0 .5.273.906.61 1.258h-.782zM1.516 6.594c-.204-1.54.578-2.727 1.742-2.688 1.187.04 2.297 1.281 2.5 2.813C5.96 8.258 5.164 9.484 4 9.445c-1.164-.039-2.281-1.312-2.484-2.851zm5.336 8.273c0 .375-.055.703-.204 1.024A7.985 7.985 0 0 1 1.742 13a4.009 4.009 0 0 1 2.11-.555c.406 0 .78.07 1.132.188.946.648 1.625 1.015 1.813 1.773.039.149.055.313.055.461zM8 0c4.43 0 8 3.57 8 8s-3.57 8-8 8h-.313c.22-.43.352-.867.352-1.313 0-1.32-.406-2.093-1.61-2.945-.413-.297-1.187-1-1.187-1.43 0-.476.125-.718.867-1.296.758-.586 1.282-1.422 1.282-2.383 0-1.149-.5-2.266-1.461-2.633h1.437l1.024-.742H3.836c-1.172 0-2.297.523-3.055 1.297A7.978 7.978 0 0 1 8 0zm6 6V5h-2V3h-1v2H9v1h2v2h1V6h2z" fill="#000" fill-rule="evenodd"/></svg>