<svg width="16" height="15" viewBox="0 0 16 15" xmlns="http://www.w3.org/2000/svg"><title>icons/group</title><path d="M4.942 7.467c-.9.027-1.636.383-2.209 1.066H1.617c-.456 0-.84-.112-1.15-.337C.156 7.97 0 7.642 0 7.208c0-1.96.344-2.941 1.033-2.941.034 0 .154.058.363.175.208.116.479.234.812.354.334.12.664.179.992.179.372 0 .742-.064 1.108-.192a3.67 3.67 0 0 0 .633 2.683zm8.925 5.308c0 .667-.203 1.193-.609 1.58-.405.385-.944.578-1.616.578H4.358c-.672 0-1.21-.193-1.616-.579-.406-.386-.609-.912-.609-1.579 0-.294.01-.582.03-.863.019-.28.058-.583.116-.908.059-.325.132-.626.221-.904s.208-.549.358-.813a2.93 2.93 0 0 1 .517-.675c.194-.186.432-.334.713-.445.28-.111.59-.167.929-.167.055 0 .175.06.358.18.183.119.386.252.608.4.223.146.52.28.892.4.372.119.747.178 1.125.178s.753-.06 1.125-.179c.372-.12.67-.253.892-.4l.608-.4c.183-.12.303-.179.358-.179.34 0 .649.056.93.167.28.11.518.26.712.446.194.186.367.41.517.675.15.263.27.534.358.812a8.487 8.487 0 0 1 .338 1.813c.019.28.029.568.029.862zM5.333 2.133c0 .59-.208 1.092-.625 1.509-.416.416-.92.625-1.508.625a2.055 2.055 0 0 1-1.508-.625 2.055 2.055 0 0 1-.625-1.509c0-.589.208-1.091.625-1.508C2.108.208 2.612 0 3.2 0c.589 0 1.092.208 1.508.625.417.417.625.92.625 1.508zm5.867 3.2c0 .884-.312 1.638-.938 2.263A3.083 3.083 0 0 1 8 8.533a3.083 3.083 0 0 1-2.263-.937A3.083 3.083 0 0 1 4.8 5.333c0-.883.312-1.637.938-2.262A3.083 3.083 0 0 1 8 2.133c.883 0 1.637.313 2.262.938.626.625.938 1.379.938 2.262zM16 7.208c0 .434-.156.763-.467.988-.31.225-.694.337-1.15.337h-1.116c-.573-.683-1.309-1.039-2.209-1.066a3.67 3.67 0 0 0 .634-2.684c.366.128.736.192 1.108.192.328 0 .658-.06.992-.18a5.48 5.48 0 0 0 .812-.353c.209-.117.33-.175.363-.175.689 0 1.033.98 1.033 2.941zm-1.067-5.075c0 .59-.208 1.092-.625 1.509-.416.416-.92.625-1.508.625a2.055 2.055 0 0 1-1.508-.625 2.055 2.055 0 0 1-.625-1.509c0-.589.208-1.091.625-1.508C11.708.208 12.212 0 12.8 0c.589 0 1.092.208 1.508.625.417.417.625.92.625 1.508z" fill="#000" fill-rule="evenodd"/></svg>