<svg width="16" height="14" viewBox="0 0 16 14" xmlns="http://www.w3.org/2000/svg"><title>icons/heart</title><path d="M8 13.714a.534.534 0 0 1-.393-.16L2.036 8.179a2.947 2.947 0 0 1-.246-.233 9.18 9.18 0 0 1-.495-.584 7.901 7.901 0 0 1-.607-.87A5.407 5.407 0 0 1 .21 5.41 3.911 3.911 0 0 1 0 4.179c0-1.31.378-2.334 1.134-3.072C1.89.37 2.934 0 4.268 0c.369 0 .745.064 1.13.192.383.128.74.3 1.07.518.331.217.615.421.853.611.239.19.465.393.679.608.214-.215.44-.417.679-.608.238-.19.522-.394.852-.611.33-.217.688-.39 1.072-.518.384-.128.76-.192 1.13-.192 1.332 0 2.377.369 3.133 1.107C15.622 1.845 16 2.87 16 4.18c0 1.315-.682 2.654-2.045 4.017l-5.562 5.358a.534.534 0 0 1-.393.16z" fill="#000" fill-rule="evenodd"/></svg>