<svg width="50" height="50" viewBox="0 0 50 50" xmlns="http://www.w3.org/2000/svg"><title>icons/icongrid-chat</title><path d="M34.797 13.977C36.266 15.82 37 17.828 37 20c0 2.172-.734 4.18-2.203 6.023-1.469 1.844-3.473 3.301-6.012 4.372C26.246 31.465 23.485 32 20.5 32c-1.344 0-2.719-.125-4.125-.375-1.938 1.375-4.11 2.375-6.516 3-.562.14-1.234.266-2.015.375h-.07a.732.732 0 0 1-.481-.188.774.774 0 0 1-.27-.492.479.479 0 0 1-.023-.152c0-.055.004-.105.012-.152a.497.497 0 0 1 .047-.141l.058-.117c.016-.031.043-.074.082-.13a.997.997 0 0 1 .094-.116c.023-.024.059-.063.105-.117a16.38 16.38 0 0 1 .633-.691c.282-.298.485-.528.61-.692.125-.164.3-.39.527-.68.227-.289.422-.59.586-.902.164-.313.324-.657.48-1.032-1.937-1.125-3.46-2.507-4.57-4.148C4.554 23.61 4 21.86 4 20c0-2.172.734-4.18 2.203-6.023 1.469-1.844 3.473-3.301 6.012-4.372C14.754 8.535 17.515 8 20.5 8c2.984 0 5.746.535 8.285 1.605 2.54 1.07 4.543 2.528 6.012 4.372zM46 25.732c0 1.908-.563 3.693-1.69 5.355-1.127 1.661-2.675 3.065-4.643 4.21.158.381.321.731.488 1.05.166.317.365.623.595.917.23.295.409.525.536.692.127.167.333.402.619.704a16.66 16.66 0 0 1 .643.703c.047.056.083.096.107.12.024.024.055.063.095.119.04.056.067.1.083.131l.06.12c.024.047.04.095.047.143.008.047.012.099.012.155a.488.488 0 0 1-.023.155.884.884 0 0 1-.31.524.717.717 0 0 1-.524.167 19.986 19.986 0 0 1-2.047-.381c-2.445-.636-4.651-1.654-6.62-3.053a23.875 23.875 0 0 1-4.19.381c-4.302 0-8.048-1.05-11.238-3.148.92.063 1.619.095 2.095.095 2.556 0 5.008-.358 7.357-1.073 2.35-.716 4.445-1.741 6.286-3.077 1.984-1.463 3.508-3.149 4.572-5.057 1.063-1.908 1.595-3.928 1.595-6.058 0-1.225-.183-2.433-.548-3.626 2.048 1.129 3.667 2.544 4.857 4.246 1.19 1.701 1.786 3.53 1.786 5.486z" fill="#000" fill-rule="evenodd"/></svg>