<svg data-name="Layer 1" xmlns="http://www.w3.org/2000/svg" width="34" height="34" viewBox="0 0 34 34"><title>icon-open-website</title><path d="M26.143 19.857v5.714A5.151 5.151 0 0 1 21 30.714H6.143a4.953 4.953 0 0 1-3.634-1.508A4.954 4.954 0 0 1 1 25.57V10.714a4.953 4.953 0 0 1 1.509-3.633 4.953 4.953 0 0 1 3.634-1.51h12.57a.551.551 0 0 1 .573.572v1.143a.551.551 0 0 1-.572.571H6.143a2.753 2.753 0 0 0-2.018.84 2.752 2.752 0 0 0-.839 2.017v14.857a2.75 2.75 0 0 0 .839 2.018 2.752 2.752 0 0 0 2.018.84H21a2.867 2.867 0 0 0 2.857-2.858v-5.714a.55.55 0 0 1 .572-.571h1.142a.55.55 0 0 1 .572.571zM33 4.43v9.142a1.136 1.136 0 0 1-1.946.804l-3.143-3.143-11.643 11.643a.561.561 0 0 1-.822 0l-2.035-2.036a.561.561 0 0 1 0-.82L25.054 8.374 21.91 5.232a1.12 1.12 0 0 1 0-1.607 1.096 1.096 0 0 1 .803-.34h9.143A1.158 1.158 0 0 1 33 4.43z"/></svg>