<svg width="50" height="50" viewBox="0 0 50 50" xmlns="http://www.w3.org/2000/svg"><title>icons/icongrid-phone</title><path d="M45 36.59c0 .512-.095 1.18-.284 2.004-.19.824-.388 1.472-.597 1.946-.397.947-1.553 1.95-3.466 3.011-1.78.966-3.541 1.449-5.284 1.449-.511 0-1.013-.033-1.505-.1a11.672 11.672 0 0 1-1.634-.355 24.357 24.357 0 0 1-1.335-.411c-.294-.105-.82-.299-1.577-.583a60.526 60.526 0 0 0-1.392-.511c-1.856-.663-3.513-1.45-4.971-2.358-2.406-1.496-4.906-3.542-7.5-6.137-2.595-2.594-4.64-5.094-6.137-7.5-.909-1.458-1.695-3.115-2.358-4.971-.057-.17-.227-.635-.511-1.392-.284-.758-.478-1.283-.583-1.577a24.356 24.356 0 0 1-.411-1.335 11.672 11.672 0 0 1-.356-1.634C5.033 15.644 5 15.142 5 14.631c0-1.743.483-3.504 1.449-5.284C7.509 7.434 8.513 6.278 9.46 5.88c.474-.209 1.122-.408 1.946-.597C12.23 5.094 12.898 5 13.41 5c.265 0 .464.028.597.085.34.114.842.834 1.505 2.16.209.36.493.87.853 1.533.36.663.69 1.265.994 1.804.303.54.597 1.047.88 1.52.057.076.223.313.498.71.274.398.478.734.61 1.009.133.275.2.545.2.81 0 .378-.27.852-.81 1.42a13.848 13.848 0 0 1-1.762 1.563c-.634.473-1.221.975-1.76 1.505-.54.53-.81.966-.81 1.307 0 .17.047.384.141.64.095.255.176.45.242.582.066.132.199.36.398.682.199.322.307.501.326.54 1.44 2.594 3.087 4.82 4.944 6.675 1.856 1.857 4.081 3.504 6.676 4.944.038.019.217.127.54.326.321.2.549.332.681.398.133.066.327.147.583.242.255.094.468.142.639.142.34 0 .776-.27 1.307-.81.53-.54 1.032-1.127 1.505-1.761.474-.635.995-1.222 1.563-1.762s1.042-.81 1.42-.81c.265 0 .535.067.81.2.275.132.61.336 1.008.61.398.275.635.44.71.497.474.284.98.578 1.52.881.54.303 1.142.635 1.805.994.662.36 1.174.644 1.534.853 1.325.663 2.045 1.164 2.159 1.505.057.133.085.332.085.597z" fill="#000" fill-rule="evenodd"/></svg>