<svg class="icon-domestic" xmlns="http://www.w3.org/2000/svg" width="152" height="152" viewBox="0 0 152 152"><path class="bg" d="M76 151a75 75 0 1 1 75-75 75.085 75.085 0 0 1-75 75z" fill="none"/><circle class="ring" cx="76" cy="76" r="72.484" fill="none"/><g class="icon"><path d="M104.75 79.163a1.483 1.483 0 0 0-.64-1.295.807.807 0 0 1-.382-1.004 2.15 2.15 0 0 0-.161-1.603 4.726 4.726 0 0 1-.343-1.09 6.66 6.66 0 0 1-.731.166c-.328.038-.47-.123-.507-.466a1.682 1.682 0 0 0-.861-1.454 1.225 1.225 0 0 1-.406-.55c-.127-.255-.266-.363-.555-.24-.183.078-.394.085-.586.144-.1.03-.23.084-.268.165-.481 1.018-1.453 1.577-2.186 2.357-.165.176-.287.304-.21.594a2.18 2.18 0 0 1-.068.785c-.042.325-.092.648-.137.961a1.344 1.344 0 0 1 .994 1.486c-.026.348-.266.398-.52.415-.24.017-.525.084-.539-.331-.011-.341-.084-.68-.137-1.071-.238.302-.502.595-.914.443a.856.856 0 0 1-.46-.371c-.422-.917-.78-1.863-1.216-2.773a4.963 4.963 0 0 1-.613-2.282c-.27 0-.518-.005-.767.001-.327.009-.609-.153-.619-.45-.011-.332-.22-.452-.4-.63-.196-.195-.387-.396-.59-.585-.077-.073-.178-.17-.27-.171-.537-.012-1.075.017-1.612.003-.568-.015-1.135-.063-1.657-.093.265.196.575.424.884.655a.824.824 0 0 1 .154 1.058c-.32.422-.593.884-.95 1.269a4.042 4.042 0 0 1-.865.565c-.261.163-.534.308-.785.485-.147.102-.24.307-.395.37a8.165 8.165 0 0 1-3.006 1.067c.108.462.348.627.779.508.55-.153 1.098-.319 1.643-.489.316-.098.564-.008.61.313a1.874 1.874 0 0 1-.032.98 24.965 24.965 0 0 1-1.395 2.7c-.215.354-.661.562-.985.855a11.38 11.38 0 0 0-.823.824c-.377.42-.732.86-1.103 1.286a1.597 1.597 0 0 0-.194 1.96 5.454 5.454 0 0 1 .426 2.657 1.244 1.244 0 0 1-.566 1.004 4.96 4.96 0 0 0-1.76 1.554 12.03 12.03 0 0 1 .154 1.33c.003.429-.315.655-.688.79-.384.14-.573.343-.465.803a.976.976 0 0 1-.233.658c-.339.468-.723.903-1.085 1.354a3.108 3.108 0 0 1-1.803 1.195 14.835 14.835 0 0 1-2.177.118c-.388.015-.687-.17-.672-.555a2.97 2.97 0 0 0-.829-1.975 2.32 2.32 0 0 1-.415-1.308 5.873 5.873 0 0 0-.814-2.552 2.974 2.974 0 0 1-.232-2.697 3.227 3.227 0 0 1 .29-.674 1.079 1.079 0 0 0 .075-1.08c-.21-.539-.297-1.124-.485-1.673a2.036 2.036 0 0 0-.483-.876 1.814 1.814 0 0 1-.502-2.175c.074-.216.112-.445.179-.715-.428.008-.726-.086-.61-.604-.19 0-.346-.01-.5.002a.557.557 0 0 1-.662-.373.795.795 0 0 0-1.018-.39 8.785 8.785 0 0 1-1.914.536 9.864 9.864 0 0 0-1.637.194 2.056 2.056 0 0 1-1.959-.65 3.15 3.15 0 0 1-.875-1.193 3.87 3.87 0 0 0-1-1.265c-.208-.212-.395-.376-.368-.705a4.773 4.773 0 0 0-.07-.602 1.113 1.113 0 0 1 .182-.885 1.188 1.188 0 0 0 .181-1.321 1.66 1.66 0 0 1 .178-1.801 12.59 12.59 0 0 1 .762-1.28 18.22 18.22 0 0 1 1.452-1.385 1.036 1.036 0 0 0 .398-.757 1.304 1.304 0 0 1 .667-1.017 8.848 8.848 0 0 0 .983-.882c-.4-.148-.673-.232-.93-.352-.106-.05-.251-.173-.252-.263-.001-.407.04-.814.072-1.22.03-.391.087-.78.1-1.172.011-.34.16-.508.494-.479.483.043.968.079 1.444.164.378.068.654.007.798-.374a.83.83 0 0 0-.318-.983c-.206-.145-.608-.039-.606-.474.002-.285.07-.398.39-.451a12.898 12.898 0 0 0 1.517-.432l-.042-.135c-.45.093-.901.182-1.351.28-.465.1-.81-.057-.679-.282.282-.484.048-1.26.883-1.446-.25-.155-.424-.35-.536.043-.072.249-.193.482-.278.727-.097.28-1.293.636-1.519.437a.29.29 0 0 1-.09-.205 3.087 3.087 0 0 1 .13-1.156c.122-.24.528-.368.833-.471a2.575 2.575 0 0 1 .748-.014c0-.195-.013-.35.003-.503.031-.31.11-.596.49-.64a1 1 0 0 1 .846.537c.208.492.462.965.7 1.444.02.039.07.09.105.09.528-.01.443.348.39.726a8.13 8.13 0 0 0 .721-.58 1.134 1.134 0 0 1 .907-.417c.246.012.424-.067.358-.434a3.96 3.96 0 0 1 .073-1.033 1.966 1.966 0 0 1-.707-.244 1.392 1.392 0 0 1-.33-1.393c.056-.352.437-.49.797-.629a3.527 3.527 0 0 0 1.576-1.186 3.591 3.591 0 0 1 1.67-1.316 6.758 6.758 0 0 1 2.663-.428 3.065 3.065 0 0 1 .692.096c1.07.301 2.14.607 3.2.941.171.054.29.265.439.398.089.08.188.149.234.185.153-.271.226-.588.384-.64.294-.093.679-.135.818.365a2.828 2.828 0 0 1 1.942-.59 6.835 6.835 0 0 0 1.247-.008c.25-.028.482-.247.728-.257a9.458 9.458 0 0 1 1.263.107c-.076-.367-.382-.842.135-1.15a1.274 1.274 0 0 1 1.576.319 2.54 2.54 0 0 0 1.617-.607 3.276 3.276 0 0 1 1.173-.3c.033-.328.24-.509.694-.505a10.7 10.7 0 0 0 1.58-.175 1.051 1.051 0 0 0 .465-.164 1.762 1.762 0 0 1 1.898-.119 1.596 1.596 0 0 0 .499.094c.421.037.844.084 1.266.082.573-.003.742.313.7.894.563.026 1.11.046 1.658.08.217.013.431.079.647.083.686.012 1.373.02 2.059.005a2.15 2.15 0 0 1 1.43.485.889.889 0 0 0 1.011.213c.234-.108.58.029.877.052.264.02.517.07.646-.288a.562.562 0 0 1 .443-.255 7.464 7.464 0 0 1 3.298.57 1.095 1.095 0 0 0 .452.082c.607.009 1.215-.02 1.82.013a3.327 3.327 0 0 1 .894.218 2.027 2.027 0 0 0 1.114.182 9.2 9.2 0 0 1 1.359.045c.332-.01.666-.179.99-.156a11.95 11.95 0 0 1 3.719.641 3.089 3.089 0 0 0 .868.157 12.044 12.044 0 0 0 1.894.378c.33-.018.729.378 1.014.668.21.212-.007.552-.333.515-.658-.074-1.31-.202-1.957-.306.012.248.014.243.523.423.24.084.576.123.459.505-.042.135-.216.325-.328.324a1.032 1.032 0 0 0-.988.502.967.967 0 0 1-.642.267c-.416.051-.84.037-1.26.05l-.065.18c.118.118.215.28.357.347a1.633 1.633 0 0 1 .948 1.845 6.916 6.916 0 0 0 .072.694c-.006.17-.087.475-.152.48a1.507 1.507 0 0 1-.847-.1 4.528 4.528 0 0 1-.837-.802c-.33-.348-.65-.705-.971-1.06a.98.98 0 0 1-.105-1.137 8.958 8.958 0 0 0 .293-1.174c-.265.2-.389.361-.537.388a.972.972 0 0 1-.585-.082c-.608-.318-.704-.28-.733.371-.021.468-.492.706-1.093.453-.697-.293-1.377.01-2.065-.037-.416-.028-1.002.931-.815 1.302a.895.895 0 0 0 .721.334c.467-.027.901-.106 1.262.299.062.07.236.068.354.056a.786.786 0 0 1 .865.387 2.981 2.981 0 0 0 .927.822.744.744 0 0 1 .413.811.364.364 0 0 0 .071.273 1.45 1.45 0 0 1 .422.937c.028.253.55.464.87.664.124.078.305.058.448.115a.396.396 0 0 1 .077.746 6.107 6.107 0 0 1-.948.354c-.04-.039-.009.02.031.026a1.11 1.11 0 0 1 1.044 1.206c.017.353.142.699.177 1.052.05.503-.074.747-.773.798-.226.016-.395 0-.489.306-.106.346-.402.356-.722.084.08.585-.353.445-.666.493-.006.114-.017.206-.014.298.015.407-.267.405-.515.321a1.192 1.192 0 0 1-.52-1.379 1.356 1.356 0 0 1 1.23-.919c.405-.063.763-.49 1.112-.79.058-.051-.03-.29-.072-.435-.074-.25-.165-.495-.214-.64-.216-.296-.479-.501-.518-.743a9.014 9.014 0 0 1-.021-1.422c-.847-.04-.691-1.003-1.246-1.45a6.47 6.47 0 0 0 .005.73 3.29 3.29 0 0 1-.404 1.807.785.785 0 0 1-.476.297 2.417 2.417 0 0 1-.61.01l-.303 1.348a3.51 3.51 0 0 1 .525.376 2.526 2.526 0 0 1 .603.747c.096.227.116.67-.018.775a2.036 2.036 0 0 1-1.027.345c-.11.01-.308-.325-.373-.53a1.596 1.596 0 0 0-.895-.966.632.632 0 0 1-.261-.314c-.11-.273-.22-.423-.558-.267-.569.262-.773.15-.958-.478-.07.05-.128.095-.19.136-.157.108-.316.214-.474.32l.09.185c.204.047.406.105.613.137.246.038.502.028.742.086.157.039.42.178.413.246a1.143 1.143 0 0 1-.259.556 2.161 2.161 0 0 1-.43.337c.203.276.373.526.563.76.144.18.33.325.465.509a4.034 4.034 0 0 1 .353.614 1.79 1.79 0 0 1 .27.678 3.166 3.166 0 0 1-.18 1.005c-.186.567-.196 1.22-.728 1.633a1.767 1.767 0 0 1-.464.34c-.48.156-.986.24-1.463.406a3.06 3.06 0 0 0-.649.431c.202.385.13 1.037-.143 1.12a1.174 1.174 0 0 1-.763-.05c-.202-.092-.058-.702.203-1.009-.3-.454-.328-.446-1.068.354a4.938 4.938 0 0 0 .654.753 2.919 2.919 0 0 1 1.07 2.657c-.012.212-.253.428-.424.61-.174.185-.413.311-.586.498-.217.233-.457.465-.765.316-.152-.074-.197-.37-.314-.503l-1.538-1.279a2.07 2.07 0 0 0 .99 2.52 1.544 1.544 0 0 1 .565.918 7.717 7.717 0 0 1 .262 1.033c.02.183-.132.383-.206.576l-.212.015a6.197 6.197 0 0 0 .753 1.096 1.716 1.716 0 0 1 .366 1.759c.683-.14 1.274.27 1.982.238a4.038 4.038 0 0 1 1.613.59c.08.036.108.285.084.423-.012.073-.193.179-.286.168-.71-.085-1.419-.195-2.128-.296-.384-.055-.768-.105-1.151-.162-.412-.061-.759-.184-.59-.71a2.48 2.48 0 0 1-1.73-1.496 9.19 9.19 0 0 0-.617-1.033c-.484-.669-1.014-1.305-1.484-1.983a1.862 1.862 0 0 1-.14-.693 1.814 1.814 0 0 1 .712-.032 11.466 11.466 0 0 1 1.23.644zM66.16 63.535c-.438.096-.59.463-.691.817a1.133 1.133 0 0 1-1.158.931c-.204.006-.408.05-.657.082a.722.722 0 0 0 1.06.134 3.076 3.076 0 0 1 2.076-.579 3.491 3.491 0 0 0 1.829-.181c.253-.106.694-.174.832.283a2.333 2.333 0 0 1 .1.69.747.747 0 0 0 .654.825 2.099 2.099 0 0 1 1.036.432 1.671 1.671 0 0 0 .932.52c.375.097.539-.012.533-.38-.006-.374.187-.464.53-.501a3.521 3.521 0 0 1 1.56.414 9.172 9.172 0 0 0 1.726.344 10.139 10.139 0 0 0 1.102.007c.285.007.538-.022.62-.357.095-.391.2-.78.276-1.176a1.824 1.824 0 0 0-.027-.458c-.281.712-.517.97-.938.829-.158-.053-.231-.357-.343-.546a1.31 1.31 0 0 0-1.375-.052c-.255.108-.48.087-.438-.295a.429.429 0 0 0-.036-.197 70.013 70.013 0 0 0-.586-1.424c-.026-.061-.108-.098-.146-.13l-.574.364a4.522 4.522 0 0 1 .169.564.76.76 0 0 1-.44.878c-.388.07-.7-.204-.795-.68a.617.617 0 0 0-.155-.292c-.188-.194-.395-.37-.62-.578l-.437.052.098.078c-.141.25-.232.647-.435.717-.385.132-.265.578-.587.714-.099.041-.113.257-.204.36-.027.029-.266-.053-.27-.098a1.754 1.754 0 0 1 .06-.446.861.861 0 0 1-.276-.142 3.893 3.893 0 0 1-.311-.45 2.07 2.07 0 0 1 .494-.268 3.066 3.066 0 0 1 .661-.01c-.284-.968-1.39-.918-1.93-1.72 0 .54.012.942-.007 1.341-.006.123-.078.32-.16.345a.583.583 0 0 1-.487-.044.818.818 0 0 1-.188-.553c.015-.301.161-.597.165-.897.004-.329.061-.544.48-.537-.116-.067-.217-.118-.264-.086a2.351 2.351 0 0 1-1.533.34c-.08-.005-.238.069-.237.101.018.508-.549.563-.704.929zm12.197-2.41c.261.43.235.513-.208.72-.563.263-.974.102-1.156-.425-.075-.216-.254-.349-.446-.115a4.678 4.678 0 0 0-.598.883 2.066 2.066 0 0 0-.082.668 8.134 8.134 0 0 0 .887.037c.143-.008.277-.168.42-.175a3.568 3.568 0 0 1 1.92.309 1.517 1.517 0 0 0 .717.138c.113-.002.258-.163.315-.286.024-.052-.125-.218-.226-.286a8.077 8.077 0 0 0-.765-.45c-.579-.304-.636-.44-.4-1.026a.69.69 0 0 0 .023-.127zm6.52 2.107a7.807 7.807 0 0 0-.962-.501.703.703 0 0 1-.502-.92c.07-.252.337-.449.525-.68-.352-.35-.479-.124-1.4.675a5.713 5.713 0 0 0 .615.794 1.728 1.728 0 0 1 .508 1.587c-.011.104-.006.272.054.309a5.593 5.593 0 0 0 .953.483c.097.036.3-.086.381-.192.049-.063-.023-.248-.082-.356-.09-.163-.237-.294-.32-.458-.16-.316-.248-.63.23-.741zm-14.78-5.859l.031.144c.337-.025.675-.046 1.012-.076.184-.017.368-.069.552-.072.684-.01.723-.115.853-.77.068-.346-.034-.91.57-.991-.758-.511-.822-.666-.632-1.534-.233.12-.477.224-.7.365-.24.152-.32.34-.055.566.464.394.44.762-.051 1.115-.111.08-.266.173-.29.284a1.101 1.101 0 0 1-1.29.97zM81.863 74.8a2.616 2.616 0 0 0-.151-.824c-.297-.456-.664-.864-.987-1.304a1.86 1.86 0 0 1-.413-.71c-.1-.649-.598-1.037-.905-1.548a4.225 4.225 0 0 0-.437-.523l-.123.088.689 1.138c.079.132.228.279.212.402-.092.705.383 1.125.75 1.605.047.06.112.128.116.196.047.777.751.966 1.249 1.48zm2.19-6.594l-.158.15c.308.36.608.73.929 1.078.17.186.392.325.562.51.093.102.124.364.188.366a.952.952 0 0 0 .447-.174c.162-.092.31-.21.464-.317l-.083-.133a1.962 1.962 0 0 1-2.007-1.235c-.045-.11-.225-.165-.342-.245zm-13.426-6.031a3.226 3.226 0 0 0 1.597 1.03 1.534 1.534 0 0 0-.484-.544 11.427 11.427 0 0 0-1.113-.486zm5.835-9.056l.412.448.017-.164 1.003-.176.002-.035zM59.786 50.652c.133.11.268.17.303.266.06.162.134.45.062.506a3.452 3.452 0 0 1-1.1.672 19.496 19.496 0 0 0-2.44.531 7.93 7.93 0 0 1-2.107.783 2.04 2.04 0 0 0-1.44 1.18c-.65 1.182-1.469 1.021-2.446.452a.583.583 0 0 1-.278-.362 10.016 10.016 0 0 1-.094-1.935c.024-.25.415-.468.647-.693.168-.162.407-.283.497-.477.04-.085-.22-.301-.331-.467a.675.675 0 0 1-.098-.251 1.36 1.36 0 0 0-1.549-1.224c-.126.011-.254.002-.381.002-.977 0-.977 0-1.063-.976l-3.79 1.772a3.44 3.44 0 0 0 .704.155.964.964 0 0 1 .803.295c.17.178.457.237.667.386a1.896 1.896 0 0 1 .402.422c.148.198.224.52.412.603.45.197.408.551.333.868a.562.562 0 0 1-.715.385c-.183-.032-.363-.08-.599-.133a4.85 4.85 0 0 1-.005.53.602.602 0 0 1-.118.338 1.486 1.486 0 0 1-2.387-.17.483.483 0 0 0-.661-.221.768.768 0 0 1-.465.027c-.14-.048-.36-.223-.343-.297a.748.748 0 0 1 .32-.433c.117-.07.31-.023.469-.015a1.016 1.016 0 0 0 .898-.297c.145-.157.45-.167.778-.275-.264-.277-.484-.674-.809-.801a2.602 2.602 0 0 0-1.067.037 3.291 3.291 0 0 1-.62 1.044 3.025 3.025 0 0 1-1.08.351 1.899 1.899 0 0 1 .304.62c.057.424-.117.531-.533.46-.277-.048-.563-.047-.838-.1a4.92 4.92 0 0 1-.524-.195.676.676 0 0 0-.285-.03c-.278.037-.553.09-.83.135-.03.005-.07-.009-.094.006-.842.528-1.683 1.06-2.5 1.575a1.086 1.086 0 0 0 .926.84 7.522 7.522 0 0 1 1.617.683c.069.032.118.187.113.282a2.082 2.082 0 0 1-.103.546c-.064.192-.266.42.032.522.09.031.396-.236.422-.396a1.42 1.42 0 0 1 1.003-1.108 1.152 1.152 0 0 0 .77-1.172c-.004-.156.156-.323.259-.474.087-.129.249-.225.293-.362a1.066 1.066 0 0 1 1.335-.748 3.75 3.75 0 0 1 .83.131c.422.158.808.385.704.958a2.23 2.23 0 0 0 .041.475 7.096 7.096 0 0 1 .704-.443 1.477 1.477 0 0 1 .717-.212c.104.011.188.37.247.58.138.49.239.992.394 1.476a.495.495 0 0 0 .347.266.611.611 0 0 1 .479 1.02.748.748 0 0 1-.385.344l.044.596c.124.052.286.068.339.153a1.991 1.991 0 0 1 .288.68c.012.067-.244.26-.382.264a15.348 15.348 0 0 1-1.959-.018c-.303-.028-.278-.316-.098-.504.207-.215.452-.394.748-.647l-2.525.138c.47.283.461.431-.123 1.26.329.06.604.098.871.165a2.758 2.758 0 0 1 .432.186c-.099.158-.16.392-.302.463a14.298 14.298 0 0 1-1.587.661c-.413.145-.625-.002-.706-.431a8.833 8.833 0 0 0-.966.441c-.193.115-.317.34-.494.488a1.816 1.816 0 0 1-.66.455 4.969 4.969 0 0 0-1.914 1.288c-.128.1-.157.329-.312.423.023.776-.461 1.212-1.19 1.547a5.522 5.522 0 0 0-1.227.845c-.602.511-.405 1.155-.254 1.738a5.814 5.814 0 0 1 .74.008c.133.018.358.114.362.187a1.156 1.156 0 0 1-.135.552c-.068.141-.271.236-.298.374-.043.22-.05.467-.332.383-.175-.052-.302-.27-.447-.418-.02-.02-.02-.057-.03-.087-.639.346-1.01.078-1.108-.806-.019-.173.052-.376-.017-.518a1.146 1.146 0 0 0-.442-.52 2.5 2.5 0 0 0-.85-.202c-.177-.02-.467-.013-.528.088-.393.65-.94.395-1.404.217a1.057 1.057 0 0 0-.816.067c-1.31.408-1.495 1.57-1.836 2.628a1.811 1.811 0 0 0 .782 1.684 1.235 1.235 0 0 0 1.426-.67c.23-.491 1.225-.855 1.623-.53.136.11.144.503.07.719-.19.556-.456 1.085-.71 1.666.39-.02.737-.05 1.084-.05.68 0 .81.137.748.805a5.465 5.465 0 0 1-.15.826 1.008 1.008 0 0 0 .264 1.077 1.195 1.195 0 0 0 .616.219 11.66 11.66 0 0 0 1.309.084.501.501 0 0 0 .387-.16 1.448 1.448 0 0 1 .99-.827c.296-.073.54-.574.924-.388.538.261 1.151.107 1.696.545a1.906 1.906 0 0 0 2 .15c.091-.045.2-.053.158-.095a4.138 4.138 0 0 1 .034-.579 1.342 1.342 0 0 1 .176-.372c.363-.652.226-.98-.5-1.197-.273-.081-.603-.89-.41-1.094a.595.595 0 0 1 .48.006c.1.358.365.257.584.243.237-.015.392 0 .42.299.032.331.145.654.183.986a1.006 1.006 0 0 1-.088.51c-.139.3-.319.58-.484.874.225.152.69.219.173.59-.073.052-.052.377.037.487.262.325.586.6.874.905a1.472 1.472 0 0 0 1.168.497 1.551 1.551 0 0 1 1.77 1.357c.1.35.24.69.349 1a5.078 5.078 0 0 0 .606.412 1.207 1.207 0 0 0 .486.083 1.099 1.099 0 0 1 1.084.737 12.163 12.163 0 0 1 1.406.139 3.542 3.542 0 0 1 .904.403 4.01 4.01 0 0 0 .954.548c.585.115.663.505.676.95a2.013 2.013 0 0 1-.49 1.51 11.217 11.217 0 0 0-.983 1.362.717.717 0 0 0-.045.39 7.697 7.697 0 0 1-.643 3.426.895.895 0 0 1-.88.569 2.78 2.78 0 0 0-1.696.876c-.046.042-.033.161-.03.243a3.46 3.46 0 0 1-.337 1.528 13.688 13.688 0 0 1-.7 1.439c-.333.583-.638 1.156-1.472.933.253 1.45.135 1.602-1.374 1.777-.108.384.202 1.04-.601 1.022a1.44 1.44 0 0 1-.293 1.722c.124.131.314.246.367.406.104.313.278.724.16.964a1.263 1.263 0 0 0-.111 1.247c.614.352 1.19.675 1.754 1.017a.35.35 0 0 1 .109.283.26.26 0 0 1-.2.156 4.414 4.414 0 0 1-1.76-.037.66.66 0 0 1-.5-.778 3.017 3.017 0 0 1-.868-.146 2.396 2.396 0 0 1-.762-.635 3.686 3.686 0 0 1-.53-.92 1.63 1.63 0 0 0-.65-.932c-.296-.17-.183-.576.243-.889-.321-.463-.244-1.141-.823-1.484a.362.362 0 0 1-.131-.236 7.155 7.155 0 0 1-.235-2.434 6.617 6.617 0 0 0-.179-1.857c-.049-.402-.121-.803-.159-1.207a30.71 30.71 0 0 1-.094-1.507 2.514 2.514 0 0 1 .028-.71 2.132 2.132 0 0 0-.818-2.29c-.367-.305-.826-.497-1.22-.774a2.523 2.523 0 0 1-.586-.582 13.095 13.095 0 0 1-.878-1.364c-.236-.435-.391-.913-.61-1.359a2.485 2.485 0 0 0-.426-.609 1.264 1.264 0 0 1-.27-1.635c.026-.058.085-.135.066-.172-.494-1.015.239-1.64.751-2.317.36-.475.693-.93.453-1.57-.108-.288-.194-.585-.304-.922a.673.673 0 0 0-.24.102c-.113.107-.19.344-.294.351a1.511 1.511 0 0 1-.774-.116c-.419-.218-.785-.535-1.197-.769a.745.745 0 0 1-.388-.582c-.054-.252-.365-.447-.43-.701-.12-.456-.458-.205-.687-.295-.465-.184-.993-.235-1.298-.744a.703.703 0 0 0-.984-.331 1.524 1.524 0 0 1-1.298-.258q-1.085-.59-2.156-1.204a.593.593 0 0 1-.264-.745 1.141 1.141 0 0 0-.299-1.244 6.348 6.348 0 0 1-.968-1.607c-.025-.05-.084-.083-.24-.076.138.398.3.79.405 1.197.056.216.099.6-.001.66a.467.467 0 0 1-.73-.251c-.09-.237-.186-.473-.278-.71-.033-.084-.036-.207-.096-.25-.441-.313-.409-.776-.516-1.238a9.239 9.239 0 0 1-.273-1.556c-.011-.192-.292-.365-.44-.553a1.795 1.795 0 0 1-.379-.536 7.3 7.3 0 0 1-.263-1.371 2.124 2.124 0 0 1 .398-1.71 18.87 18.87 0 0 0 1.37-2.041c.143-.22.248-.464.328-.617a3.502 3.502 0 0 1-.308-.682c-.05-.24.098-.385.277-.588.231-.262.157-.793.213-1.2-.504-.153-.73-.933-.522-1.594-.526-.73-1.383-.645-2.109-.84-.29-.077-.67.186-1.009.292a.512.512 0 0 1-.226.05 1.702 1.702 0 0 0-1.474.458.93.93 0 0 1-1.24.636c-.245-.152-.356-.031-.539.023-.606.181-1.214.357-1.83.496-.12.027-.278-.12-.418-.186.102-.124.179-.3.31-.364.389-.19.798-.337 1.185-.494-.097-.213-.26-.403-.237-.568.021-.158.24-.284.36-.434a.773.773 0 0 0 .181-.312c.11-.635.238-.767.917-.864.307-.044.614-.077.993-.124a3.083 3.083 0 0 1-.402-.17c-.127-.078-.337-.185-.333-.274a.58.58 0 0 1 .231-.453 4.295 4.295 0 0 1 .993-.217 5.353 5.353 0 0 1 .707-.006.882.882 0 0 0 .045-.165c.025-.743.047-.734.823-.802a6.362 6.362 0 0 0 1.067-.307 9.248 9.248 0 0 1 4.58-.22 22.098 22.098 0 0 0 2.794.513 7.188 7.188 0 0 0 1.51-.259 3.623 3.623 0 0 1 2.022-.031 5.551 5.551 0 0 0 1.35.13 5.629 5.629 0 0 1 .79.218l.258-.64a7.028 7.028 0 0 1-1.084.205.576.576 0 0 1-.44-.304.423.423 0 0 1 .237-.578 3.578 3.578 0 0 1 2.181-.712 2.116 2.116 0 0 1 1.335.463.663.663 0 0 0 .455.118c.486-.02.97-.084 1.457-.098.102-.003.306.15.297.202a1.597 1.597 0 0 0 .275 1.147l1.277-.263a3.172 3.172 0 0 1-.593-.32 3.185 3.185 0 0 1-.357-.482c.173-.067.35-.127.517-.205s.322-.238.491-.251c.37-.03.748.037 1.12.018.401-.02.799-.119 1.2-.13.149-.005.302.139.41.317l.36-.149c-.09-.16-.305-.376-.26-.5a.835.835 0 0 1 .485-.511 4.193 4.193 0 0 1 1.074.085c-.03-.542.408-.386.754-.402a4.908 4.908 0 0 0 .544-.097c-.639-.04-1.132-.059-1.621-.112-.08-.009-.195-.166-.2-.259-.005-.122.06-.341.133-.36a6.568 6.568 0 0 1 1.543-.287c.365 0 .346.372.24.77.15-.075.323-.107.347-.184a1.07 1.07 0 0 1 1.06-.803c1.052-.068 2.106-.12 3.157-.197.561-.042 1.119-.143 1.68-.18.445-.03.447-.005.568.49a6.314 6.314 0 0 1 .913-.107c.613.013 1.225.106 1.838.1.615-.006 1.23-.092 1.844-.145.856-.074 1.712-.146 2.568-.227.24-.023.478-.112.717-.11a6.603 6.603 0 0 1 2.668.413c.288.126.672.019 1.004.069.144.021.269.17.402.262-.129.13-.236.316-.392.378-.363.145-.773.185-1.116.361-.16.082-.25.373-.293.585a2.701 2.701 0 0 1-1.558 1.357c-.057.013-.11.031-.212.062zm-19.599 1.075c.34-.005.658-.014.576.423l.505-.377-.176-.032-.196-.982-.709.263zm-5.864 8.75l1.145.278c-.207-.612-.335-.637-1.145-.278zM115.895 87.12a1.209 1.209 0 0 1 .84-.908 2.548 2.548 0 0 1 1.756-.226c.622.174.743.47.39 1.02-.066.103-.13.209-.225.363.404.293.802.588 1.209.87.05.035.195.033.216 0a6.508 6.508 0 0 0 .597-1.07c.134-.359.117-.772.245-1.133a.627.627 0 0 1 .473-.313c.121-.007.282.205.378.35a3.39 3.39 0 0 1 .485.876c.156.545.23 1.113.333 1.672.015.083-.04.219.002.252.63.51.703 1.369 1.187 1.94 1.013 1.197.63 2.346.065 3.541a2.6 2.6 0 0 1-1.233 1.304.757.757 0 0 0-.205.197c-.44.5-.865 1.016-1.326 1.497a1.545 1.545 0 0 1-.56.265q-.421.163-.852.302a1.715 1.715 0 0 1-.65.16 11.839 11.839 0 0 1-1.304-.27.725.725 0 0 1-.65-.871.687.687 0 0 0-.667-.77.999.999 0 0 1-.495-.327c-.258-.26-.439-.658-.744-.796a1.845 1.845 0 0 0-1.122-.046c-.598.146-1.163.422-1.751.612-.292.095-.61.11-.91.181-.542.13-1.075.298-1.62.404a2.258 2.258 0 0 1-.914.012c-.546-.127-.628-.504-.262-.932a1.53 1.53 0 0 0 .327-1.152 29.51 29.51 0 0 1 .123-3.203c.054-.756.789-.766 1.27-1.003.436-.214.981-.208 1.41-.43a3.898 3.898 0 0 0 1.036-.898c.16-.18.222-.368.524-.445.253-.064.464-.39.64-.64a1.363 1.363 0 0 1 1.273-.65 2.746 2.746 0 0 1 .712.265zM118.7 82.05a3.94 3.94 0 0 1 .72-.428 1.313 1.313 0 0 1 .816-.088c.89.362 1.764.768 2.615 1.211a1.43 1.43 0 0 1 .928 1.288c.023.52.523.905.99 1.173.27.154.408.38.27.602-.078.124-.41.145-.618.122a2.397 2.397 0 0 1-1.644-1.037c-.36-.456-.432-.407-.734.059a.608.608 0 0 1-.425.252 1.55 1.55 0 0 1-1.3-.384c-.073-.08-.261-.066-.398-.078-.353-.029-.532-.309-.306-.565.313-.357.104-.542-.174-.67-.547-.25-1.121-.44-1.668-.69a.513.513 0 0 1-.216-.392.513.513 0 0 0-.307-.521.523.523 0 0 1-.253-.413.57.57 0 0 1 .357-.353c.623-.181.948.01 1.173.623a1.796 1.796 0 0 0 .173.288z"/><path d="M108.15 80.704c.004-.407.156-.544.57-.67a3.829 3.829 0 0 0 1.098-.84c.194-.16.373-.337.563-.5a5.04 5.04 0 0 0 .47-.385.878.878 0 0 1 1.127-.227.808.808 0 0 1 .188 1.29c-.164.195-.19.314-.017.52a.757.757 0 0 1-.07 1.145 4.798 4.798 0 0 0-.638 1.327.67.67 0 0 1-.892.458 12.507 12.507 0 0 0-1.412-.267.657.657 0 0 1-.65-.499c-.12-.448-.225-.901-.336-1.352zM81.698 90.707a2.78 2.78 0 0 1 .291-.753 1.857 1.857 0 0 0 .255-1.305.845.845 0 0 1 .663-.997c.467-.16.798-.712 1.195-1.084.148-.139.312-.261.469-.392a2.363 2.363 0 0 1 .338.496c.346.96-.175 1.79-.43 2.658-.2.682-.436 1.354-.608 2.043-.173.695-1.296 1.144-1.801.635-.214-.216-.21-.65-.295-.989a1.211 1.211 0 0 1-.004-.285zM128.88 98.663c.09-.234.208-.39.194-.533a.583.583 0 0 1 .45-.68.544.544 0 0 0 .425-.668 1.405 1.405 0 0 1 .01-.567c.038-.123.2-.285.31-.288s.323.17.323.267c0 .49.01.927.65 1.014.03.004.101.564-.018.668a12.683 12.683 0 0 1-1.621 1.173 2.063 2.063 0 0 1-.736.123 5.48 5.48 0 0 1-.49.423c-.565.395-1.134.787-1.718 1.155a2.263 2.263 0 0 1-1.333.505c-.166-.008-.335.14-.51.191a.7.7 0 0 1-.39.023c-.05-.017-.053-.206-.059-.318-.038-.757.528-1.019 1.083-1.227a7.666 7.666 0 0 0 2.383-1.343.692.692 0 0 1 1.046.082zM114.707 76.537c.377.013.715.528.734 1.275a.832.832 0 0 1-.929.912c-.113-.014-.277-.074-.313-.159-.145-.334-.25-.676-.727-.648a.733.733 0 0 1-.112-.409c.03-.371.13-.743-.318-.959-.054-.026-.038-.176-.08-.254a2.937 2.937 0 0 0-.243-.355c-.037-.05-.137-.088-.134-.126.06-.71-.712-1.171-.572-1.9a7.212 7.212 0 0 1 .22-.948c.082-.243.737-.23.848.047a2.259 2.259 0 0 1 .206 1.11c-.058.383.162.587.366.576.607-.034.576.334.549.757.432.024.808.17.835.633.01.157-.237.329-.33.448zM114.186 81.242c-.013.156.017.405-.045.431-.427.177-.244.493-.229.783.043.821-.054.89-.826.62-.06.499-.221.63-.656.511-.08-.022-.204-.1-.207-.158-.03-.592-.497-1.2.075-1.779.09-.09.086-.293.09-.445.028-.798.419-1.092 1.202-.926a3.545 3.545 0 0 0 .626-.018c.243.005.64-.046.699.067a.582.582 0 0 1-.326.78 2.104 2.104 0 0 1-.403.134zM36.347 72.361c-.603.363-1.232.108-1.835.027-.224-.03-.405-.362-.61-.553a.98.98 0 0 0-1.148-.235c-.474.197-.71.07-.68-.284.036-.424.417-.463.693-.485a3.465 3.465 0 0 1 2.751.654.4.4 0 0 0 .12.063 2.278 2.278 0 0 1 .492-.336.392.392 0 0 1 .363.11c.047.11-.038.275-.062.417-.035.212-.066.425-.099.637zM61.266 52.832c.315.06.674-.01.75.43s-.233.629-.567.75a2.936 2.936 0 0 1-1.075.27 4.012 4.012 0 0 1-1.318-.345c-.233-.099-.054-.7.235-.759.655-.133 1.316-.232 1.975-.346zM127.64 85.028c-.623.181-.663.147-.86-.44-.034-.103-.222-.157-.342-.228-.133-.078-.358-.127-.385-.23a4.156 4.156 0 0 1-.062-.817 1.924 1.924 0 0 1 .508.084c.223.103.417.268.631.393.278.163.577.292.841.473.625.425.64.426.875 1.085.06.17-.055.401-.09.604-.18-.067-.363-.13-.54-.206-.068-.03-.124-.138-.18-.134-.424.032-.378-.283-.395-.584z"/><path d="M36.332 72.376a2.195 2.195 0 0 1 2.106.276.454.454 0 0 0 .349.065.824.824 0 0 1 .827.375.356.356 0 0 1-.038.348c-.183.162-1.045-.14-1.159-.415a3.824 3.824 0 0 1-2.434.253c-.135-.012-.253-.217-.378-.333a3.221 3.221 0 0 1 .403-.215 1.178 1.178 0 0 1 .34-.006v-.363zM125.093 82.843a.843.843 0 0 0-.065-.097c-.202-.171-.602-.301-.365-.62.096-.129.551-.093.785.006.588.247.633.634.253 1.187-.317.463-.66.869-1.285.74-.176-.036-.32-.227-.48-.346a4.614 4.614 0 0 1 .426-.398c.234-.17.486-.316.731-.472zM118.215 99.993c-.417.087-.536-.128-.476-.478a3.704 3.704 0 0 1 .23-.888c.044-.096.303-.157.447-.134.378.062.747.18 1.12.275-.072.244-.07.571-.231.715a5.953 5.953 0 0 1-1.044.62zM113.718 85.031l-.686.113.06.088c-.169.122-.346.35-.506.339-.2-.014-.386-.225-.578-.351l.071-.101a5.292 5.292 0 0 1-.782-.014.363.363 0 0 1-.223-.278c.004-.123.108-.332.197-.348a1.85 1.85 0 0 1 .799.003c.136.037.218.276.368.485-.035-.618.338-.69.768-.592.284.064.719.028.619.55zM128.633 89.515l.271-.473a2.393 2.393 0 0 1 .528.322 3.487 3.487 0 0 1 .62.807 2.096 2.096 0 0 1 .087.711c-.229-.033-.526.013-.672-.114-.364-.318-.819-.617-.834-1.253z"/><path d="M113.718 85.031l.107-.106a1.455 1.455 0 0 1 1.521-.45.47.47 0 0 1 .262.292c.015.066-.143.194-.246.259a5.663 5.663 0 0 1-.842.475.888.888 0 0 1-.622.056c-.115-.051-.123-.342-.18-.526zM112.63 70.485a3.82 3.82 0 0 1-.155.693c-.067.15-.208.363-.328.372a.672.672 0 0 1-.497-.24 1.105 1.105 0 0 1 .15-1.259.576.576 0 0 1 .52-.054c.161.112.232.353.31.488zM112.58 76.396c0 .584-.346 1.055-.73 1.084-.154.012-.402-.028-.453-.126a.66.66 0 0 1 .017-.528 1.743 1.743 0 0 1 .473-.571.786.786 0 0 1 .536-.154c.088.012.142.266.156.295zM115.901 81.298c-.347.057-.497-.082-.456-.417.032-.263.047-.529.105-.786a.41.41 0 0 1 .591-.29c.122.045.217.29.235.455.022.21-.073.429-.07.643.005.308-.101.455-.404.395zM134.673 89.216c-.113-.137-.291-.259-.325-.412-.056-.256-.064-.501.357-.556.28-.036.51-.332.866-.267.325.06.375.281.225.464a4.512 4.512 0 0 1-.785.667c-.052.04-.153.015-.232.02zM56.644 74.138c.074.308.035.509-.317.49-.253-.013-.58.086-.47-.398.02-.092-.202-.248-.325-.362-.116-.108-.249-.2-.374-.3.07-.089.156-.261.209-.252a1.987 1.987 0 0 1 .545.207c.111.057.236.248.293.225.488-.197.496.072.44.39zM131.528 87.913a3.415 3.415 0 0 1-.61.808c-.154.108-.498-.503-.496-.934.001-.394.22-.64.603-.533.189.052.301.38.503.659zM116.336 82.784a2.074 2.074 0 0 1-.495-.194.362.362 0 0 1-.087-.329.385.385 0 0 1 .277-.18 1.193 1.193 0 0 1 .559.014c.146.054.25.225.371.344-.14.1-.275.206-.422.293-.047.028-.123.005-.186.005zM34.683 73.58c-.23-.238-.468-.369-.494-.533-.067-.414.287-.307.52-.322.283-.018.608.002.573.363-.015.153-.324.277-.599.491zM94.258 78.854c-.068.335-.082.561-.468.552-.287-.008-.466-.132-.365-.388a3.02 3.02 0 0 1 .493-.66zM82.376 87.03a7.312 7.312 0 0 1-.589-.696c-.038-.057.042-.244.12-.312.122-.108.947.368.895.515-.052.145-.21.253-.426.493zM68.493 80.184l-.538.739c-.1-.09-.298-.24-.286-.26a5.088 5.088 0 0 1 .508-.676 2.315 2.315 0 0 1 .316.197zM138.89 87.38c-.088-.14-.253-.287-.24-.417.01-.114.207-.26.347-.299.228-.062.438.037.376.318-.032.148-.185.27-.283.404zM35.655 70.567l.26-.413a2.187 2.187 0 0 1 .25.458.857.857 0 0 1-.031.446c-.01.032-.255.055-.291.007a2.001 2.001 0 0 1-.188-.498zM137.218 89.45c.086.128.253.267.237.381a.49.49 0 0 1-.315.325c-.08.02-.289-.164-.306-.277-.02-.127.11-.277.175-.417zM137.804 89.092c-.076-.134-.23-.284-.206-.397a.495.495 0 0 1 .337-.303c.08-.016.275.183.285.297.011.127-.129.267-.203.402zM118.2 78.104c-.06-.133-.185-.279-.16-.393.025-.12.194-.208.3-.31.083.11.227.217.232.33.006.125-.118.254-.185.38zM135.88 84.781c.13.231.264.364.241.46a.428.428 0 0 1-.305.242c-.064.011-.227-.173-.224-.265.004-.113.136-.22.287-.437zM133.72 77.774c-.223.143-.348.285-.445.268a.424.424 0 0 1-.258-.289c-.014-.065.159-.238.25-.24.113-.003.228.122.453.261zM87.739 83.278c-.213.157-.327.307-.426.297a.42.42 0 0 1-.275-.271c-.018-.066.142-.25.232-.258.112-.01.236.108.469.232zM42.428 75.312c-.229.134-.36.271-.455.25a.427.427 0 0 1-.247-.3c-.012-.064.169-.23.261-.229.112.001.221.132.441.28zM88.026 89.69c-.22.147-.341.291-.439.276a.423.423 0 0 1-.263-.283c-.015-.065.153-.242.245-.246.112-.005.23.118.457.252zM134.483 80.444c-.223.144-.347.286-.444.27a.424.424 0 0 1-.258-.29c-.014-.064.158-.238.249-.24.113-.003.228.122.453.26zM131.388 80.774c.134.23.27.36.25.456a.427.427 0 0 1-.3.246c-.065.012-.23-.169-.23-.26.002-.112.132-.222.28-.442zM127.99 77.805c-.212.131-.317.248-.414.241-.103-.007-.199-.13-.298-.203.088-.084.167-.22.265-.237s.216.09.446.2zM138.305 87.459c.113.228.22.344.205.441-.015.1-.15.181-.233.27-.074-.097-.199-.19-.207-.294-.008-.096.107-.203.235-.417zM74.728 66.174a3.143 3.143 0 0 1-.626-.143c-.109-.047-.166-.21-.247-.322.114-.078.22-.203.342-.224a5.006 5.006 0 0 1 .66-.012c.288-.01.515.068.512.398-.003.35-.289.249-.492.267-.047.004-.094 0-.142 0zM66.145 63.55a6.714 6.714 0 0 1 .69-.056.995.995 0 0 1 .32.124c-.046.104-.064.257-.144.304a6.814 6.814 0 0 1-.905.448.372.372 0 0 1-.314-.076c-.04-.033-.002-.2.043-.282a5.596 5.596 0 0 1 .324-.477z"/></g></svg>