<svg width="50" height="50" viewBox="0 0 50 50" xmlns="http://www.w3.org/2000/svg"><title>icons/icongrid-email</title><path d="M46 19v18.31a3.567 3.567 0 0 1-1.075 2.606C44.208 40.64 43.346 41 42.339 41H8.661c-1.007 0-1.869-.361-2.586-1.084A3.567 3.567 0 0 1 5 37.31V19a12.161 12.161 0 0 0 2.31 2.006c5.522 3.782 9.313 6.434 11.372 7.956.87.646 1.575 1.15 2.116 1.51.542.362 1.262.731 2.162 1.108.9.376 1.74.565 2.517.565h.046c.778 0 1.617-.189 2.517-.565.9-.377 1.62-.746 2.162-1.107a54.129 54.129 0 0 0 2.116-1.51c2.593-1.892 6.391-4.544 11.394-7.957A12.65 12.65 0 0 0 46 19zm0-6.429c0 1.176-.374 2.3-1.121 3.371a10.746 10.746 0 0 1-2.791 2.745c-5.736 3.884-9.305 6.303-10.708 7.255-.153.104-.477.331-.972.68-.496.35-.908.633-1.236.849-.328.216-.724.458-1.19.725a7.011 7.011 0 0 1-1.315.603c-.412.134-.793.201-1.144.201h-.046c-.35 0-.732-.067-1.144-.2a7.011 7.011 0 0 1-1.315-.604c-.466-.267-.862-.51-1.19-.725-.328-.216-.74-.499-1.236-.848-.495-.35-.82-.577-.972-.681a1134.46 1134.46 0 0 0-5.994-4.074 1055.927 1055.927 0 0 1-4.69-3.18c-.946-.626-1.839-1.485-2.678-2.579C5.42 15.016 5 14 5 13.062c0-1.16.316-2.127.95-2.901C6.581 9.387 7.485 9 8.66 9h33.68c.99 0 1.849.35 2.573 1.05.725.699 1.087 1.54 1.087 2.521z" fill="#000" fill-rule="evenodd"/></svg>