<svg class="icon-domestic" xmlns="http://www.w3.org/2000/svg" width="152" height="152" viewBox="0 0 152 152"><path class="bg" d="M76 151a75 75 0 1 1 75-75 75.085 75.085 0 0 1-75 75z" fill="none"/><circle class="ring" cx="76" cy="76" r="72.484" fill="none"/><path class="icon" d="M71.484 108.217c.17-.306.124-.467-.239-.68-.308-.182-.485-.58-.735-.869-.151-.173-.332-.32-.5-.48-.046-.043-.114-.078-.135-.132-.175-.443-.34-.89-.512-1.336a4.219 4.219 0 0 0-.397-.97 11.76 11.76 0 0 0-1.121-1.261.63.63 0 0 0-.377-.1 2.53 2.53 0 0 1-1.373-.222c-.216-.144-.929.314-1.056.558a13.634 13.634 0 0 1-.771 1.288.37.37 0 0 1-.356.04c-.355-.224-.686-.487-1.029-.73-.254-.18-.52-.345-.772-.53a2.388 2.388 0 0 1-.95-1.865 1.79 1.79 0 0 0-1.015-1.545.748.748 0 0 1-.247-.202c-.308-.385-.608-.777-.912-1.164a.29.29 0 0 0-.119-.1.663.663 0 0 1-.532-.602.522.522 0 0 0-.359-.321c-1.04-.196-2.086-.36-3.13-.533-.024-.003-.05.017-.101.036-.028.158-.048.331-.09.5-.145.568-.151.59-.726.507-1.464-.21-2.92-.484-4.387-.654a8.053 8.053 0 0 1-3.028-1.43c-1.46-.833-2.902-1.698-4.356-2.54-.305-.178-.289-.38-.073-.67-.559-.076-1.084-.156-1.611-.22-.949-.115-1.9-.214-2.847-.338a.377.377 0 0 1-.238-.245 1.464 1.464 0 0 1-.01-.525 2.366 2.366 0 0 0-.715-1.938c-.252-.29-.4-.627-.864-.56a.343.343 0 0 1-.102-.243c.081-.295-.046-.415-.314-.483a1.224 1.224 0 0 1-.975-.948.589.589 0 0 0-.5-.48 10.05 10.05 0 0 1-1.553-.537c-.132-.058-.23-.293-.26-.462a.933.933 0 0 1 .088-.508c.264-.598-.05-1.06-.31-1.555a5.075 5.075 0 0 1-.425-1.078 2.592 2.592 0 0 0-.583-1.253c-.277-.286-.15-.648.178-.885.145-.105.19-.348.28-.529a1.603 1.603 0 0 1-.814-1.884.983.983 0 0 0-.276-1.116 1.024 1.024 0 0 1-.164-.496c-.052-.264-.052-.54-.125-.797a2.07 2.07 0 0 0-.307-.61 1.976 1.976 0 0 1-.06-2.035 1.977 1.977 0 0 0-.269-1.661 1.094 1.094 0 0 1 .13-1.256c.228-.26.402-.566.627-.829a2.643 2.643 0 0 0 .442-1.959c-.025-.486.035-.956.02-1.43a1.936 1.936 0 0 1 .416-1.262 19.496 19.496 0 0 0 2.533-5.633c.119-.37.285-.724.468-1.184-.197-.456-.197-.456.292-.834l-.296-.755h.628a1.601 1.601 0 0 1-.497-1.657c.04-.31.12-.601-.12-.874-.047-.055-.018-.196.005-.29a6.018 6.018 0 0 1 .178-.614c.029-.08.086-.191.15-.208s.169.055.23.114a1.975 1.975 0 0 0 1.393.785c.146 0 .292.126.537.24l.158-.951c.714-.19.826-.14.704.372l.408.305a.558.558 0 0 0-.092-.795c-.104-.095-.106-.302-.155-.458a1.331 1.331 0 0 1 .512-.068c1.066.317 2.111.713 3.187.987q3.096.79 6.22 1.47 3.245.703 6.513 1.291c1.666.299 3.345.527 5.023.75 1.989.263 3.98.517 5.975.718 1.37.138 2.747.207 4.123.254 3.407.116 6.814.202 10.222.3a1.897 1.897 0 0 1 .284.004c.413.076.552-.142.574-.51a2.038 2.038 0 0 1 .075-.335c.628.075.564.093.73.789a2.384 2.384 0 0 0 .143.578.632.632 0 0 0 .37.222c.322.091.658.133.977.233.178.056.282.156.49-.022.32-.274.706-.126 1.051.035a2.6 2.6 0 0 1 .34.22c.268.181.54.323.764.095a4.338 4.338 0 0 0 .89.575c.195.068.469-.065.699-.136.194-.06.38-.347.557.02.01.02.05.044.066.038.755-.282 1.467.311 2.249.089a2.544 2.544 0 0 0 1.114-.38c.054-.046.167-.024.271.007-.363.406-.519.998-1.288.94a5.075 5.075 0 0 0-2.554.783.783.783 0 0 0-.29.415 1.19 1.19 0 0 1-.608.716 1.061 1.061 0 0 0-.22.176l-.664.571a.38.38 0 0 0 .49.12 1.789 1.789 0 0 0 1.025-.574c.105-.149.273-.38.535-.175s.178.411.013.627a1.201 1.201 0 0 0-.105.233c.633.136 1.154.098 1.464-.55a.339.339 0 0 1 .3-.131 1.128 1.128 0 0 0 1.332-.644 2.838 2.838 0 0 1 1.536-1.073c.087-.038.237.069.358.109-.056.095-.088.236-.171.28a1.553 1.553 0 0 0-.877 1.321l.395-.376a1.48 1.48 0 0 1 1.222.749c.028.052.127.124.153.11.353-.19.677.078.997.053.24-.02.46-.278.694-.421.126-.078.298-.222.392-.186.317.122.526-.04.775-.171a7.762 7.762 0 0 1 .883-.334l-.083.81 1.609-.298v.862a5.501 5.501 0 0 1 .803.011c.122.02.225.158.338.242-.083.108-.154.294-.25.309a6.86 6.86 0 0 1-.95.041c-.148.002-.296-.015-.443-.018-.395-.008-.79-.027-1.184-.012a2.155 2.155 0 0 0-.574.129c-.135.044-.262.193-.385.184-.46-.034-.843.016-.907.487l-1.078.122-1.407 2.785.037.034 1.423-1.726.13.029a2.292 2.292 0 0 1-.046.536c-.099.304-.243.594-.366.892-.133.323-.385.62-.163 1.013a.35.35 0 0 1-.088.328c-.304.217-.197.475-.152.759a1.874 1.874 0 0 1-.054.69 1.339 1.339 0 0 0-.082.865 9.118 9.118 0 0 1 .283 1.848c.027.225-.012.443.225.605a.642.642 0 0 1 .181.392c.11.603.413.683.949.41.954-.488 1.072-1.382 1.247-2.266a.526.526 0 0 0-.067-.268 7.426 7.426 0 0 0-.387-.884 3.554 3.554 0 0 1-.196-2.847 2.05 2.05 0 0 0 .004-.57c-.001-.052-.055-.122-.036-.153.176-.284.356-.565.548-.838.105-.149.236-.278.352-.419.083-.1.16-.204.24-.306l.132.072-.13.916c.282-.003.407-.095.344-.36-.006-.025-.017-.05-.022-.077-.11-.672-.043-.778.657-.993a.849.849 0 0 1-.15-.075c-.1-.083-.274-.175-.27-.257a.483.483 0 0 1 .234-.322 1.633 1.633 0 0 1 1.296.001 9.099 9.099 0 0 1 1.485.655c.352.17.43.394.005.648a1.146 1.146 0 0 1 .317 1.407c-.112.356-.072.864-.565 1.092-.105.048-.056.44-.062.673 0 .014.177.07.202.042.233-.249.436-.527.676-.767.188-.188.45-.493.62-.458a1.02 1.02 0 0 1 .605.576 9.715 9.715 0 0 1 .51 1.768 3.763 3.763 0 0 1-.037 1.144c-.007.053-.278.073-.528.132-.135.14.213.649-.331.67.046.322.154.615-.246.806a.275.275 0 0 0 .024.514 1.177 1.177 0 0 0 .564.183c.397-.021.72.048.855.348.472-.162.894-.297 1.308-.453a.945.945 0 0 0 .326-.228 7.055 7.055 0 0 1 1.812-1.31 9.457 9.457 0 0 0 1.778-1.501 4.509 4.509 0 0 0 .473-.602c.174-.225.129-.338-.146-.454a.631.631 0 0 1-.3-.444c-.02-.167.065-.474.17-.508a11.572 11.572 0 0 1 1.79-.424c.203-.03.439.16.632.142.302-.08.61-.141.902-.246a1.422 1.422 0 0 0 .46-.295c.216-.197.406-.422.648-.678a.467.467 0 0 1 .064-.725c-.226-.133-.628-.073-.509-.455a2.059 2.059 0 0 1 .354-.596c.408-.535.843-1.048 1.241-1.59a1.25 1.25 0 0 1 1.008-.59 7.977 7.977 0 0 0 2.241-.445c.728-.182 1.44-.42 2.16-.634.199-.059.364-.113.355-.397-.015-.476.47-.31.699-.482a.199.199 0 0 1 .147-.015l.559-1.68c-.341-.384-.363-.611-.091-1.142a.542.542 0 0 0 .061-.301c-.128-.913.439-1.633.675-2.443.018-.065.175-.127.264-.122a.367.367 0 0 1 .22.17 1.817 1.817 0 0 1 .133.363c.228-.206.435-.368.612-.558a.523.523 0 0 1 .677-.112 1.402 1.402 0 0 1 .92 1.102c.158.704.384 1.393.578 2.09a.428.428 0 0 0 .462.36c.397-.012.48.087.41.478-.076.412-.082.389.335.28a.554.554 0 0 1 .447.152 4.608 4.608 0 0 1 .458.7c-.532.506-1.098 1.04-1.658 1.582a.78.78 0 0 0-.134.24c-.121.264-.12.264-.362.077l-.4.837c-.473-.12-.676.24-.927.578a.83.83 0 0 1-.81.432c-.337-.058-.392.055-.375.396a7.047 7.047 0 0 1-.174 1.151c-.054.437-.29.866.015 1.322.08.121-.07.382-.073.58-.002.11.071.318.122.321.412.03.558.32.71.633.136.282.347.422.645.194.065-.05.153-.146.142-.204a.515.515 0 0 0-.174-.244 2.54 2.54 0 0 0-.294-.204c.056-.066.119-.193.167-.188.138.014.328.042.394.137a6.266 6.266 0 0 1 .403.758 12.644 12.644 0 0 1-1.174.84c-.31.172-.707.19-1.01.369a2.41 2.41 0 0 0-.914.777 4.587 4.587 0 0 1-2.312 2.125c-.198.081-.406.137-.585.197a2.575 2.575 0 0 0-.108.94c.298 1.041-.296 1.824-.65 2.691-.239.585-.599 1.175-.251 1.86a.636.636 0 0 1-.044.43c-.161.45-.344.89-.516 1.336a1.628 1.628 0 0 0-.067.227c-.087.383-.06.858-.282 1.13-.375.462-.052.699.135 1.016.166.283.313.577.485.855a7.808 7.808 0 0 0 .684 1.022 1.605 1.605 0 0 1 .285 1.538.414.414 0 0 1-.186.184 1.96 1.96 0 0 0-1.108 1.077.895.895 0 0 1-.734.573 2.032 2.032 0 0 0-1.726 1.603.738.738 0 0 1-.863.703c-.3-.013-.44.144-.612.362a2.184 2.184 0 0 0-.666 1.586c.014.174-.248.466-.444.537-.223.081-.239.234-.346.37-.254.326-.597.586-.824.926-.154.23-.56.262-.502.671.011.08-.225.206-.359.292-.196.127-.404.234-.34.528a.206.206 0 0 1-.035.153 4.654 4.654 0 0 0-.667 2.469 4.277 4.277 0 0 0 .622 2.304 6.884 6.884 0 0 0 1.916 2.714.508.508 0 0 1 .125.44 1.096 1.096 0 0 0 .353 1.181 1.054 1.054 0 0 1 .302.312 7.339 7.339 0 0 1 1.161 3.433 10.248 10.248 0 0 1 0 1.825c-.119.635-.315.795-.96.865a1.585 1.585 0 0 0-.477.13c-.348.158-.565.052-.626-.327-.085-.535-.488-1.117-.844-1.05-.41.076-.509-.182-.687-.393a.578.578 0 0 1-.085-.178c-.105-.29-.207-.581-.335-.942-.414.419-.604.194-.726-.116a3.802 3.802 0 0 0-1.308-1.83l.154-.324a1.455 1.455 0 0 1-.539-1.287c.06-.4.11-.801.145-1.203a1.154 1.154 0 0 0-.884-1.107 1.856 1.856 0 0 1-.926-.742 1.963 1.963 0 0 0-1.44-.921c-.158-.01-.317-.002-.518-.002.064.308.025.514-.33.475-.075-.008-.167.074-.239.13a1.215 1.215 0 0 1-.905.366c-.136-.014-.286.11-.426.169a2.27 2.27 0 0 0-1.832-1.227 5.665 5.665 0 0 0-3.22.47 1.775 1.775 0 0 1-.41.036c.314-.432.28-.61-.16-1.013-.05.057-.132.108-.144.172-.09.511-.54.583-.907.754-.056.025-.153.048-.188.02-.464-.383-.95.054-1.421-.04-.055-.01-.144.05-.19.103-.238.272-.468.552-.727.86l.302.196.514-.79.288.75-.51.623c-.059.071-.12.141-.18.211.1.079.213.236.299.223a1.317 1.317 0 0 1 .971.332c.182.12.185.184.063.335-.285.352-.514.35-.865.031a2.808 2.808 0 0 0-.497-.25 4.593 4.593 0 0 0-.391-.273 1.197 1.197 0 0 0-.374-.041c.074.225.186.385.152.501-.085.284-.406.422-.79.405l.174-.482c-.227.09-.401.107-.484.203-.59.678-1.136.226-1.684-.05a3.466 3.466 0 0 1-.416-.322c-.139-.1-.26-.322-.47-.097a.082.082 0 0 1-.072.019c-.803-.372-1.738-.002-2.543-.52-.614-.394-1.313-.063-1.954.105a4.22 4.22 0 0 0-1.592.885 26.335 26.335 0 0 1-2.612 1.715c-.442.279-1.055.429-1.317.82a6.2 6.2 0 0 0-1.414 2.674 3.13 3.13 0 0 0 .293 1.114c.055.18.141.35.205.527.175.483-.166.739-.45 1.023-.269.268-.489.034-.734-.047-.35-.117-.712-.202-1.069-.3-.025-.007-.058.003-.08-.008-.647-.315-1.309-.607-1.93-.968-.149-.085-.146-.409-.243-.608a3.427 3.427 0 0 1-.575-1.527z"/></svg>