<svg width="49" height="50" viewBox="0 0 49 50" xmlns="http://www.w3.org/2000/svg"><title>icons/icongrid-twitter</title><path d="M45 12.878a17.226 17.226 0 0 1-4.112 4.26c.017.238.026.595.026 1.071 0 2.211-.322 4.418-.965 6.62s-1.62 4.316-2.931 6.34a24.882 24.882 0 0 1-4.683 5.37c-1.81 1.555-3.993 2.797-6.548 3.724s-5.288 1.39-8.198 1.39c-4.586 0-8.782-1.233-12.589-3.699.592.068 1.252.102 1.98.102 3.807 0 7.2-1.173 10.177-3.52-1.776-.034-3.367-.583-4.771-1.646-1.405-1.063-2.37-2.419-2.894-4.069.559.085 1.075.128 1.549.128a8.44 8.44 0 0 0 2.157-.28c-1.895-.392-3.464-1.34-4.708-2.845-1.244-1.505-1.866-3.253-1.866-5.242v-.102a8.102 8.102 0 0 0 3.706 1.046 8.215 8.215 0 0 1-2.665-2.934 8.06 8.06 0 0 1-.99-3.929c0-1.496.372-2.882 1.117-4.158a23.262 23.262 0 0 0 7.474 6.084c2.936 1.522 6.08 2.368 9.43 2.539a9.197 9.197 0 0 1-.204-1.888c0-2.28.8-4.222 2.399-5.83C28.49 9.805 30.423 9 32.69 9c2.368 0 4.365.867 5.99 2.602a16.025 16.025 0 0 0 5.202-1.99c-.626 1.956-1.827 3.47-3.604 4.541 1.574-.17 3.147-.595 4.721-1.275z" fill="#000" fill-rule="evenodd"/></svg>