<svg class="nav-icons" xmlns="http://www.w3.org/2000/svg" width="152" height="152" viewBox="0 0 152 152"><path class="bg" d="M76 151a75 75 0 1 1 75-75 75.085 75.085 0 0 1-75 75z" fill="none"/><circle class="ring" cx="76" cy="76" r="72.484" fill="none"/><path class="icon" d="M106.867 29.893a6.885 6.885 0 0 0 3.186-.905v-.421c-.895-.393-2.623-.785-3.045-1.007a.532.532 0 0 0-.07-.466c0 .21 0 .21-.24.21 0-.42.48-.631.72-1.052-1.438-.841-.72-1.262-.48-2.104l-.719.421c-.48 0-.72 0-.959-.21-.24 0-1.198.21-1.677.21 0-.21-.24-.631-.24-.842v-.42h-.24c-.24.21-.24.42-.479.63h-.24a1.535 1.535 0 0 0-1.236-.917.674.674 0 0 1-.201-.344H99.27a2.746 2.746 0 0 1-.48-1.263 4.065 4.065 0 0 1-2.156-.631l-.24-.42s.48 0 .48-.632c-1.678-2.525-7.909-.842-8.148 1.683-.24-.21-.72-.42-.959-.21 1.182.297.937.28.688.392-.195-.038-.752-.068-.928.24.24.21.72.841.96 1.052 0 0-.24-.632.24-.421l.238.21h.24c-.042.038-.081.07-.12.104l.12.106-.24.421c.17.599-.143.24-.339-.17a6.236 6.236 0 0 1-1.817.59v.631a21.259 21.259 0 0 1-3.355.421v-.21l-.48-.21s0 .42-.24.42a2.591 2.591 0 0 1-1.677.21v.842a7.952 7.952 0 0 0-2.396.421c-.24 0-.48-.21-.719-.21a.715.715 0 0 0-.24.631 2.783 2.783 0 0 0-2.78 1.683h-.335c0 .411-.002.621-.225.827.052.098.225.856.225.856s-.24-.63-.24-.42c-.48 1.052-1.198 1.262-2.396 1.893v1.262a12.54 12.54 0 0 0-.959 1.263c-.24 0-.24 0-.479-.21-.959 1.262-1.438 2.735-.48 3.787h-.717a18.996 18.996 0 0 0-2.157 2.314l-.645-.189a1.599 1.599 0 0 0-.313.19v.84a6.13 6.13 0 0 0-3.355 2.315c-.24 1.262-.719 1.894-.719 3.156a1.304 1.304 0 0 1-.719.21l-.719 1.893h-.958c-.959.21-.48.632-.48 1.052-.24.632-.24 1.052-1.198.842v.841a8.224 8.224 0 0 1-1.438 1.473v.42c-.24.21-.24 0-.479.422-.24 0-.24-.421-.479-.421a5.043 5.043 0 0 1-.48 1.052v-.842c0 .21-.479.842-.718.842a15.004 15.004 0 0 0 1.437.841 6.058 6.058 0 0 1-.958.21l-.24-.42a3.18 3.18 0 0 0-.24 1.472h.48c0 .21-.48.631-.48 1.052a.877.877 0 0 0 .48-.21.715.715 0 0 0 .24.631c-.15 0-.862-.246-1.199-.329v-.302a1.975 1.975 0 0 1-.025.297c-.168-.039-.218-.026-.017.098a4.124 4.124 0 0 1-2.594 2.55 1.42 1.42 0 0 0 1.198.421s0 .842-.24.631l-.958-.42c-.24.841 0 1.472-.24.42v.632l.48.42a8.18 8.18 0 0 0-1.918 2.315c-.24.21-.24-.211-.479-.211-.48 1.052-.24 1.683.24 2.104l.24-.21a2.737 2.737 0 0 1-1.198 1.052v1.052l-3.595 1.262c-.24 0 0 .631 0 .631-.48-.21-.958-.21-1.198-.42 0 1.052-.24 1.893.479 2.735-.719 1.262-.24 2.524-1.677 3.366-.24.42.48.21.48.42l-.72-.21s-.719.421.48.842c0 1.052.479 1.473.24 2.735.239.21.478 0 .718 0l-.48.841c-.718-.21-1.437-.21-1.916-.42l-.24 1.052a2.936 2.936 0 0 1 1.604.387c-.767 2.033 1.197 3.85-1.364 4.873a3.575 3.575 0 0 0 .236.528c-.015 1.002-.236 1.823-.236 2.838-1.438 0-2.876 3.997-2.636 5.47h-.24l1.198 1.052-.72.42a6.315 6.315 0 0 0 1 .305 1.44 1.44 0 0 1-.04-.094h.479a.778.778 0 0 1-.031.178 1.91 1.91 0 0 0 .27.032 1.003 1.003 0 0 0-.308.116c-.046.187-.076.39.068.516.48.21.959-.21 1.198 0 .48.42.24.63.959.841.24-.21 0-.42.24-.63v.84a.96.96 0 0 1 .719.21c-.218.765-.04.837.174 1.474h.066a4.66 4.66 0 0 1 1.198 2.945h-.24c-.22 1.157.368 1.253 1.39 1.424-.106.036-.323.456.026 1.26-.093-.06-.458.262-.458.262.479.21.479.42 1.198.63a5.192 5.192 0 0 0 .24 2.105 2.986 2.986 0 0 0-.72.842 5.046 5.046 0 0 0 .72.8v.25c-.24-.21-.48-.63-.72-.84a9.023 9.023 0 0 0 .24 2.524c.24-.21.48-.21.959-.42 1.198.21 1.438.21 1.917.841.24-.21.719.21.719.42-.72 0-.72.21-1.438.21a13.792 13.792 0 0 1 3.158 1.947 2.391 2.391 0 0 0 .436-.263c0 .21 0 .21-.239.42a3.627 3.627 0 0 0 .958.421l.72.21c-.134-.117-.044-.233.143-.133a4.718 4.718 0 0 0 .48.57c.031.06.063.124.095.194h.102a7.169 7.169 0 0 0 4.284 1.909c.062-.072.18-.115.407-.015v.63c0-.161-.142.425-.207.607.228-.184.446-.204.446-.606a3.587 3.587 0 0 0 .48 1.683v-.283a1.455 1.455 0 0 0 1.198.704c-.24.63.24 1.473.24 1.683l.106.093a45.371 45.371 0 0 0 1.737 5.222c-.28.19-.8.365.074.365h-.479c.31.273.308.389.263.432a1.66 1.66 0 0 1 .216-.01c-.479.42-.479.84-1.198 1.051-.24-.21-.24 1.052-.24 1.052 1.57-.196.621.16.69.551a.371.371 0 0 1 .27-.13c-.24.842.478 1.262.718 1.472v1.263c0 .21.719.42.719.631a2.21 2.21 0 0 0 .719-1.262h-.24a1.884 1.884 0 0 1 .24-.842v.21a.216.216 0 0 0 .24-.21 5.766 5.766 0 0 0 2.635 1.894c-.24-.631.24-1.052-.718-1.262.239-.21.239-1.473.239-1.053h.24v-.034c.243-.049.544-.119.719.034-.19 0 .375.133.495.188a18.373 18.373 0 0 0 1.662-2.923c0 .185-.739-.765-.92-1 .149.048.68-.261.68-.261a1.597 1.597 0 0 0-.958-.21.607.607 0 0 1 .24-.842c-.24-.631 0-.842-.24-1.263a4.12 4.12 0 0 1 .479-3.366c-.24-.63-.24-1.052-.48-1.683.48-.42.24-.841.48-1.472h-.24c.48-.421.719-.21.959-1.263h-.24v-.63a13.056 13.056 0 0 0 1.917-3.578 1.674 1.674 0 0 0 .719-.63v-.21c0-.422-.24-.632-.24-1.053a1.455 1.455 0 0 0 0 1.052s-.48.21-.48.421c.24-1.262.72-2.104.96-3.156.24 0 .479.42.718.21.48-.42.48-.842 1.199-1.473-.24-1.052.479-.63.958-1.262l-.48.21a2.548 2.548 0 0 1 1.917-.421c.24-.841.96-1.052 1.438-1.683v-.21c1.438 0 .48 0 1.678-.631 0 0-.24.21 0 .21.24-.21.24-.21.24-.42s0-.21-.24-.422c-.24 0-.48.211-.72.211a7.352 7.352 0 0 0 0-2.314.616.616 0 0 1 .104-.286l-.103-.135a1.077 1.077 0 0 1 .138.073.61.61 0 0 0 .102-.283.657.657 0 0 1 .23.502c.08.003.139-.116.249-.502.24 0 0 .42.24.63a12.682 12.682 0 0 1 1.677-1.682c.48-.421.719-.842 1.198-1.263a1.43 1.43 0 0 0 .48-1.262 4.304 4.304 0 0 1 .24.842h.239c0-.632.24-1.473 0-1.894.719-1.052.958-1.473 2.156-1.893a4.24 4.24 0 0 1 1.079-2.91l-.6.175c-.24-.21.24-.21 1.439-.842-.72-.42-.24-.841-1.438-1.262a9.258 9.258 0 0 0 3.115-4.628h.48v-.632h-.72v-.42s.48-1.684.48-1.894a1.954 1.954 0 0 1-.24-.631c.958-.21.48-.631.719-1.052v-.42c0 .21-.24-.21.24-1.263a1.937 1.937 0 0 0 1.198-2.736h-.24a5.812 5.812 0 0 1 1.438-3.787c0-.21-.24-1.051-.24-1.262.24-.21.24.21.719 0a10.826 10.826 0 0 1-.46-2.651 1.739 1.739 0 0 0 .7-.084 5.51 5.51 0 0 1 .479-1.893 2.584 2.584 0 0 0 0-1.894c.24-1.052.24-1.262.719-1.052v-.21s.24-.21.719.21a1.147 1.147 0 0 1 .24-.841c0-.631-.24-.421-.48-.842 0-.21.48-.42.48-.631-.48-.21-.72 0-1.199 0a13.38 13.38 0 0 0-.718-1.683l.718-.631s.24.42.48.42l.15-.527c.063-.018.144-.04.238-.06l-.148-.043-.072.041.072-.252c.09.08.182.16.273.228a3.284 3.284 0 0 1 1.165-.018c.24-1.051.24-.841-.24-1.472a1.954 1.954 0 0 0 .24-.631h-.959c0-.842.48-.842.959-1.263l-.24.421a5.308 5.308 0 0 1 1.677-1.473h.959c.479-.42.24-.841 1.437-1.052v-.21c0-.21-.479-.42-.479-.42a6.97 6.97 0 0 1 .24-2.315l-.24.42c.24-.42-.24-.84.72-1.051v-1.052s-.48 0-.48.21c0-1.683 1.437-2.315 2.875-3.156a1.528 1.528 0 0 1 .48.842 3.437 3.437 0 0 0 .237-1.263l-.717-.21-.24.21c-.24-.421 0-.21-.48-.631a3.124 3.124 0 0 0 1.679-3.787 1.022 1.022 0 0 1-.552.192 1.978 1.978 0 0 0-1.126.018c.24-1.052 0-.842.48-1.473 0-.63-.24-1.472-.24-2.104-.08.018-.147.031-.207.043a.932.932 0 0 1-.513.168c0 .089.13.063.277.006-.252.136-.516.304-.516.415v-.842a.719.719 0 0 0 .48-.316v-.315l-.069-.663-.172.453a6.57 6.57 0 0 1-.271-2.7c.082-.112.126-.243.181-.324l-.07-.68.117.63c.088-.07.22-.015.523.339 0-.631.24-1.262.24-1.894 0-.204.673-.603.495-.05a1.48 1.48 0 0 1 .463.05c.24-.21 0-.63.24-.841a1.874 1.874 0 0 0 .718.42 4.038 4.038 0 0 1 .49-.96c.01.02.027-.008.048-.064a3.099 3.099 0 0 1 .421-.448l-.387.34a5.326 5.326 0 0 0 .142-.69c.216-.238.518-.516.654-.638zM41.519 86.746a.677.677 0 0 0 .069.098h-.07zm.264.098c.064-.08.12-.21.215-.21l.24.21zm1.893-5.89l.045-.04c.089-.03.1-.024-.045.04zm2.396 23.773a.056.056 0 0 0-.015-.043l.254.043zm6.91 10.795a2.719 2.719 0 0 1 .519-.065 2.963 2.963 0 0 0 .14.307 2.213 2.213 0 0 0-.658-.242zm8.426 7.299c.02.123.05.267.085.423a1.044 1.044 0 0 1-.085-.423zm.16.56l.08.07c.141.125.032.099-.08-.07zm41.05-88.91c.004-.027.007-.036.007-.014z"/></svg>