<svg class="icon-domestic" xmlns="http://www.w3.org/2000/svg" width="152" height="152" viewBox="0 0 152 152"><path class="bg" d="M76 151a75 75 0 1 1 75-75 75.085 75.085 0 0 1-75 75z" fill="none"/><circle class="ring" cx="76" cy="76" r="72.484" fill="none"/><g class="icon"><path d="M88.207 62.95a10.445 10.445 0 0 0-9.279 5.65 10.45 10.45 0 0 0-19.733 4.803c0 14.879 19.733 25.86 19.733 25.86s19.733-12.37 19.733-25.86A10.454 10.454 0 0 0 88.207 62.95z"/><path d="M118.413 40.653L96.448 28.925a13.571 13.571 0 0 0-6.395-1.6h-16.17a13.574 13.574 0 0 0-9.813 4.196L51.96 44.194 39.935 60.697s4.007 4.48 10.137-.942a87.304 87.304 0 0 0 10.845-11.79l11.939-6.764a5.01 5.01 0 0 1 .656-2.122 4.89 4.89 0 0 1 1.91-1.868 4.76 4.76 0 0 1 2.583-.56l4.72.375 9.414.83.044.004.033.02 1.909 1.124 4.8 2.827-3.957-2.521 7.973 4.886-.084.14h-.003l-9.52-5.422-1.254-.714-6.951-.221-2.457-.078-4.711-.2a3.633 3.633 0 0 0-1.944.547 3.638 3.638 0 0 0-1.036 5.179 3.297 3.297 0 0 0 .67.684 3.073 3.073 0 0 0 .368.25c.1.067.379.183.465.228l2.19.883c2.916 1.19 5.856 2.323 8.741 3.588l.162.071.115.115c1.712 1.702 3.323 3.517 5.106 5.008a34.009 34.009 0 0 0 5.862 3.907 32.605 32.605 0 0 0 10.158 3.192l3.583.507a33.69 33.69 0 0 0 14.201-1.807c9.197-3.339 11.458-8.683 14.29-10.164a69.904 69.904 0 0 0-8.146-14.744l-8.087 3.462a39.835 39.835 0 0 1-6.247 2.046zM33.587 111.346l21.965 11.73a13.582 13.582 0 0 0 6.395 1.599h16.17a13.578 13.578 0 0 0 9.813-4.196l12.111-12.673 12.023-16.504s-4.007-4.48-10.137.943a87.31 87.31 0 0 0-10.845 11.79l-11.94 6.764a5 5 0 0 1-.655 2.121 4.89 4.89 0 0 1-1.91 1.869 4.767 4.767 0 0 1-2.583.56l-4.719-.376-9.414-.83-.044-.004-.033-.02-1.909-1.124-4.802-2.827 3.958 2.522-7.97-4.886-.002-.001.084-.14 9.522 5.422 1.253.715 6.953.22 2.456.08 4.712.2a3.635 3.635 0 0 0 1.943-.55 3.637 3.637 0 0 0 1.037-5.178 3.3 3.3 0 0 0-.67-.683 3.037 3.037 0 0 0-.369-.25c-.1-.069-.378-.184-.465-.228l-2.19-.884c-2.916-1.19-5.855-2.322-8.74-3.587l-.163-.072-.115-.114c-1.712-1.702-3.323-3.518-5.106-5.01a33.965 33.965 0 0 0-5.861-3.905 32.642 32.642 0 0 0-10.159-3.193l-3.583-.506a33.681 33.681 0 0 0-14.201 1.807c-9.197 3.339-11.458 8.682-14.29 10.164a69.902 69.902 0 0 0 8.146 14.744l8.087-3.462a39.957 39.957 0 0 1 6.247-2.047z"/></g></svg>