<svg class="nav-icons" xmlns="http://www.w3.org/2000/svg" width="152" height="152" viewBox="0 0 152 152"><path class="bg" d="M76 151a75 75 0 1 1 75-75 75.085 75.085 0 0 1-75 75z" fill="none"/><circle class="ring" cx="76" cy="76" r="72.484" fill="none"/><path class="icon" d="M118.375 96.028c-.115-.233.152-.402.073-.655-.075-.237-.322-.372-.369-.592-.051-.242.087-.386-.064-.634a1.215 1.215 0 0 1-.238-.685 4.67 4.67 0 0 0-.49-1.558 4.843 4.843 0 0 0-.236-.559c-.095-.179-.254-.287-.34-.463-.14-.287.425-.906-.174-1.084-.314-.093-.562-.965-.412-1.2.056-.086.152-.15.211-.24.058-.088-.04-.161-.06-.246-.058-.225-.092-.331-.358-.418a1.364 1.364 0 0 1-.511-.307c-.077-.064-.118-.06-.187-.147-.078-.1-.046-.181-.176-.251-.318-.172-.51-.522-.802-.736-.168-.124-.095-.324-.344-.403-.244-.077-.448.082-.492-.265a.89.89 0 0 0-.226-.619c-.178-.146-.403.049-.636-.065-.28-.137-.286-.207-.581-.144-.101.021-.207-.033-.305.03-.103.067-.122.203-.236.27a1.008 1.008 0 0 1 .125-.693 5.39 5.39 0 0 1 .554-.51l1.16-1.069a7.053 7.053 0 0 1 1.084-.996c.181-.103.335-.074.476-.25a6.722 6.722 0 0 0 .51-.683c.374-.605-.487-.56-.639-.955a5.859 5.859 0 0 0-.638-1.46c-.306-.404-.87.078-1.045-.51a2.455 2.455 0 0 0-.132-.593 1.643 1.643 0 0 1-.316-.66 4.393 4.393 0 0 0-.27-1.08c-.056-.212-.261-.28-.347-.472a2.737 2.737 0 0 1-.132-.605.788.788 0 0 1 .1-.543c.126-.227-.05-.3-.085-.517-.035-.23.098-.134-.082-.305-.144-.138-.03-.346-.263-.457v.05a.288.288 0 0 1-.144-.4c.015-.05.084-.093.102-.163.031-.12-.004-.263.028-.392a10.402 10.402 0 0 1 .249-1.237.746.746 0 0 0-.023-.363.799.799 0 0 1 0-.617 1.643 1.643 0 0 0 .085-.687c-.008-.168.163-.164.008-.348-.306-.36.029-.665-.094-1.063-.065-.212-.208-.373-.158-.608a1.075 1.075 0 0 1 .421-.647c.083-.07.12-.012.185-.052.048-.03.096-.098.142-.123a4.358 4.358 0 0 0 .487-.327c.176-.124.185-.197.289-.403.127-.252.068-.126-.043-.367a1.952 1.952 0 0 1 .002-1.309 3.903 3.903 0 0 1 .855-1.086 1.418 1.418 0 0 1 .573-.417.355.355 0 0 0 .042-.54c-.45-.32-.588-.789-.126-1.134a.859.859 0 0 1-.62-.297 1.17 1.17 0 0 0-.627-.278 6.239 6.239 0 0 0-1.454-.26c-.193.004-.242.262-.456.255-.187-.006-.186.248-.345.338a2.619 2.619 0 0 1-1.497.06c-.48-.045-.889.335-1.36.335a6.128 6.128 0 0 1-.68-.142 2.548 2.548 0 0 0-.726.169c-.218.04-.42-.035-.598.12-.244.212-.397.129-.67.001a3.111 3.111 0 0 0-1.393-.202c-.216.011-.39-.164-.608-.102-.203.058-.415-.234-.666-.123-.445.197-.745.662-1.174.903-.228.128-.355-.118-.505-.29-.18-.207-.333-.2-.572-.088-.15.07-.412.242-.539.082l-.544-.686q-1.946-2.453-3.894-4.905c-.326-.412-.572-.625-1.117-.49-.221.053-.384.255-.615.246a2.218 2.218 0 0 1-.776-.322 1.804 1.804 0 0 0-.366-.19c-.28-.055-.356.041-.56-.216-.178-.224-.219-.384-.507-.294a.656.656 0 0 1-.611-.108c-.206-.177-1.044.085-1.289.167-.085.029-.158 0-.235.052-.053.036-.072.146-.134.19a1.57 1.57 0 0 1-.669.337 3.062 3.062 0 0 1-.748.003c-.21-.023-.32.246-.516.19-.073-.02-.118-.096-.2-.098a1.067 1.067 0 0 1-.377-.028c-.227-.097 0-.386-.39-.313-.303.058-.583-.11-.869.021-.208.096-.176-.015-.368-.063-.122-.03-.203.027-.293.022s-.13-.1-.177-.1c-.1 0-.159.101-.262.08-.142-.03-.135-.157-.31-.164-.13-.004-.33-.014-.234.181a2.304 2.304 0 0 0-.755-.009c.072.21-.181.125-.311.231a.696.696 0 0 1-.626.039 2.999 2.999 0 0 1-.737-.198 2.656 2.656 0 0 1-.569-.367 3.032 3.032 0 0 1-.636-1.306c-.026-.157.095-.48.048-.591a.802.802 0 0 0-.456-.41c-.43-.122-.966.09-1.37-.202-.181-.13-.418-.3-.451-.543-.033-.245.14-.437.098-.685a2.66 2.66 0 0 1-.013-1.368 1.686 1.686 0 0 0 .098-.713c-.011-.185-.3-.377-.256-.52.037-.119.314-.208.408-.317.154-.18.068-.372.325-.43.081-.019.235.088.295.001a.376.376 0 0 0 .09-.322 1.669 1.669 0 0 0-.19-.651 1.221 1.221 0 0 1-.241-.675c.023-.276.122-.423-.043-.681-.106-.164-.293-.155-.42-.29q-.231-.248-.46-.497a13.9 13.9 0 0 1-.965-1.04 3.656 3.656 0 0 1-.41-1.262l-.394-1.501c-.027-.105-.045-.217-.083-.318-.023-.062-.156-.241-.16-.28-.01-.121.13-.11.065-.25-.024-.053-.211-.15-.257-.203-.083.095-.27.035-.401.09-.21.089-.404.357-.595.095-.155-.212-.067-.441-.108-.684-.013-.08-.065-.1-.107-.166-.029-.045.013-.158-.012-.23-.107-.314-.242-.245-.459-.041a4.206 4.206 0 0 1-.6.343c-.184.128-.297.331-.542.366a7.312 7.312 0 0 1-.85.052c-.154.003-.566.047-.389-.246.13-.217.388-.297.527-.521.124-.202.162-.453.273-.662a8.309 8.309 0 0 1 .498-.733c.112-.166.15-.38.297-.515.19-.174.381-.224.51-.463.102-.188.128-.408.245-.59a7.017 7.017 0 0 0 .43-.714.908.908 0 0 0 .16-.595 1.367 1.367 0 0 1-.065-.657c.04-.189.017-.367.072-.554l.295-1.004a8.328 8.328 0 0 0 .164-1.559 1.936 1.936 0 0 1 .032-.474c.087-.232.32-.36.4-.59.166-.477.611-.751.778-1.226a3.382 3.382 0 0 1 .677-1.458 2.82 2.82 0 0 0 .516-.439c.151-.211.181-.484.315-.703.11-.182.266-.255.275-.482.011-.254.431-.218.597-.225.211-.009.398-.2.618-.176.211.021.456.18.587-.064l.671-1.25.683-1.271c.184-.343.386-1.006.797-1.112q1.487-.384 2.973-.771c.233-.061.48-.108.71-.185a3.742 3.742 0 0 0 .632-.388c.077-.043.233.034.273-.042a2.639 2.639 0 0 0 .128-.346c.075-.208.31-.179.46-.344.212-.236.591-.272.788-.529.299-.387.137-.573-.11-.936-.066-.098-.08-.254-.145-.366l-.347-.588c-.168-.286-.194-.419-.532-.59a3.424 3.424 0 0 0-.395-.09c-.15-.054-.245-.18-.41-.177-.346.008-.469-.27-.785-.369-.343-.108-.673.012-1.015-.147-.194-.09-.777.135-.6.364a1.36 1.36 0 0 1 .35-.301.584.584 0 0 0-.055.2.26.26 0 0 1 .251-.096c-.091.044-.212.157-.072.197.054.015.204-.097.276-.1-.108.157-.336.165-.478.288.066.022.12.154.023.17-.1.014-.207-.262-.145-.358a.231.231 0 0 0-.254.191c.013-.04.049.099.034.149-.036.119-.179.16-.273.218a1.39 1.39 0 0 1-.154.05c-.01.004-.045.102-.143.083-.299-.058-.05-.329.1-.384-.244-.17-.541.237-.698.371-.072.062-.526.313-.345.388.094.038.253-.17.436-.065.177.103.067.216.156.333.183.242-.136.14-.246.183-.166.065-.134.258-.267.319-.364.167-.242-.126-.529-.217.123-.128.285-.24.322-.416.027-.125-.364-.072-.44-.058a1.344 1.344 0 0 1-.662.057.264.264 0 0 0-.36.216c.414.081.267.853.091 1.087-.128.171-.186.409-.306.597-.105.166-.119.436-.251.568a2.03 2.03 0 0 1-.573.368 3.1 3.1 0 0 0-.296.216c-.106.077-.238.055-.347.147a.836.836 0 0 1-.602.188c-.279.01-.399.174-.647.25-.147.045-.126-.06-.29.058a.676.676 0 0 1-.26.124 2.337 2.337 0 0 0-.735.23 11.768 11.768 0 0 0-1.275 1.034c-.386.314-.85.432-1.22.786-.159.151-.353.18-.485.368-.058.082-.12.084-.193.136s-.089.183-.158.252c-.816.822-2.304.494-3.365.577a6.45 6.45 0 0 1-.956-.04c-.27-.018-.458-.2-.708-.252-.28-.06-.424-.263-.689-.33-.178-.045-.363.118-.44.025-.081.28-.233.071-.34-.046.009.049-.01.102 0 .15-.026-.018-.067-.018-.098-.045-.02.057-.074.093-.094.146a.696.696 0 0 1-.05-.146h-.054c.114.307-.13.118-.247.195-.096.064-.056.245-.143.3a.537.537 0 0 0-.199.296c-.018.095.095.108-.006.2s.024.19.045.3c.023.12-.081.225-.032.346.043.106.192.187.106.313l-.382.556c-.155.226-.196.495-.332.731-.086.15-.053.27-.089.423a1.462 1.462 0 0 1-.218.435.574.574 0 0 1-.643.278c-.308-.045.016-.734-.44-.715.016.039-.215.704.104.46a.197.197 0 0 1-.295.17c-.107-.048-.074-.262-.056-.372a.124.124 0 0 1-.148-.159c-.1.089-.078.298-.198.342-.152.055-.108-.28-.098-.364.011-.087.04-.313.116-.37a.44.44 0 0 1 .383.092c.106-.184.265.102.395.156a1.242 1.242 0 0 1-.228-.651c.009-.123.083-.332.274-.278a1.373 1.373 0 0 0 1.342-.226 2.953 2.953 0 0 1-2.323-.176c-.396-.155-.793-.373-1.186-.512a4.72 4.72 0 0 0-.526-.12c-.073-.015.005-.137-.112-.055a1.56 1.56 0 0 0-.22.235 4.427 4.427 0 0 1-.732.762c-.194.12-.222.119-.28.348-.045.183-.067.34-.296.396a1.669 1.669 0 0 0-.588.285 3.212 3.212 0 0 1-.44.168c-.09.044-.1.136-.206.173-.104.035-.215.052-.228.186-.025.26.228.203.334.07-.008.063.065.206.054.244a.538.538 0 0 1-.249.204c-.03-.057.008-.21-.03-.23-.177-.096-.147.062-.266.153-.165.128-.39.104-.576.19a.894.894 0 0 0-.323.265c-.053.052.006.107-.1.1a.333.333 0 0 0-.17.063c-.086.102.103.195-.166.286-.06.02-.47.181-.235.24.139.034.07.297.03.387.256-.026.178.346.134.498-.041.146-.235.12-.201-.042.022-.106.095-.197.121-.305a1.37 1.37 0 0 0-.548.652c.09-.01.152-.172.197-.153.033.014.038.176.069.217.043.06.123-.086.133.03.02.212.107.392-.029.556-.102.124-.444.313-.469.05a.182.182 0 0 0 0 .249c-.251-.088-.148.254-.28.403-.163.183-.449.204-.576.456.235.15.494-.208.637-.355a.73.73 0 0 1 .664-.299c-.109.228-.079.455-.24.683-.05.073-.161.037-.205.12-.065.125.07.324.087.443a2.328 2.328 0 0 1-.212.948 4.587 4.587 0 0 1-.183.481c-.056.148.008.314-.054.467a5.647 5.647 0 0 1-.557.786c.035.038.311-.063.396-.058a.522.522 0 0 1 .355.195 1.611 1.611 0 0 1-.332 1.885l-.05-.05c-.119.226-.333.043-.517.05a1.04 1.04 0 0 0-.526.249c-.033-.226-.174-.035-.296-.15a.3.3 0 0 1 .394-.046c.05-.343-.693-.045-.905-.095-.16-.038-.277.183-.392.267a1.896 1.896 0 0 1-.538.312c-.177.056-.354.1-.428.29-.077.197.047.26-.155.381-.16.097-.287.047-.317.26a1.444 1.444 0 0 1-.187.737c-.113.142-.332.231-.396.413-.057.162.054.432-.076.525-.156.112-.264.287-.41.385a2.286 2.286 0 0 1-.607.19c-.28.07-.064.15-.232.297-.145.128-.337.21-.472.346a1.442 1.442 0 0 1-.465.398c-.137.05-.52.131-.567.236.034.011-.023.295-.093.382-.125.154-.617.213-.8.25a8.737 8.737 0 0 0-.877.234c-.138.043-.442.542-.316.63.033-.238.728.277.822.377.102.108.048.342.195.4.18.071.18.181.18.355a3.475 3.475 0 0 0 .1 1.265c.097.253-.173.784.088.936a.374.374 0 0 1 0-.198c.222.299.04.7-.037.993-.028.107.051.182-.033.28-.12.143-.331.118-.497.114a1.999 1.999 0 0 1-.591-.122c-.25-.078-.189-.34-.135-.51.04-.123-.027-.247.108-.327.146-.086.42.054.547.122-.046-.117-.162-.167-.248-.252a.221.221 0 0 1 .198.053c.023-.118-.153-.133-.153-.153.002-.134.236-.062.252-.198-.052.04-.1.034-.152.054a.397.397 0 0 1 .103-.298h-.304c-.214 0-.064.116-.155.14-.284.074-.343-.108-.385-.342.044.028.102.023.148.05-.003-.128.076-.184.05-.303-.027.04-.071.067-.1.105.01-.047-.008-.1 0-.149-.202.188-.272-.155-.251-.298.036.032.064.025.098.045.03-.12-.012-.161-.098-.193.075.028-.215.067-.245.067-.247-.002-.344-.12-.464-.318l-.47-.77c-.125-.205-.36-.222-.555-.324a1.075 1.075 0 0 1-.517-.434 2.442 2.442 0 0 0-.262-.655c-.108-.146-.195-.462-.33-.542-.076-.045-.047.063-.077.082-.027.016-.01.094-.055.125a.572.572 0 0 1-.213.052c-.304.069-.069.192-.155.374-.115.244-.335.374-.408.637-.09.327.171.188.365.252.16.053.315.396.333.552a2.204 2.204 0 0 0 .12.737c.122.216.344.126.457.365a8.15 8.15 0 0 1 .658 1.303 1.807 1.807 0 0 0 .208.63c.198.271.267.233-.105.272a1.847 1.847 0 0 0-.648.225c-.23.12-.252.384-.373.586-.14.235-.323.293-.14.571.146.223.289.275-.028.472a6.837 6.837 0 0 0-1.323.942c-.153.154-.39.285-.46 0a1.955 1.955 0 0 0-.34-.65c-.05-.08-.656-.92-.746-.384a1.332 1.332 0 0 0 .07.706c.092.236.267.4.12.66a.511.511 0 0 1-.245.217c-.063.022-.31-.03-.332-.013-.133.1-.197.628-.25.794l-.3.957c.153.044.182.237.36.268l-.05.047c.15.026.161.175.276.252.097.065.185.033.28.135.118.124.474.643.639.66a.683.683 0 0 0-.103-.198c.178.064.418.632.3.803-.107.157-.209.078-.278.296a1.62 1.62 0 0 0 .026.533c.134-.09.033-.182.215-.2.163-.016.4.223.51.331a2.004 2.004 0 0 1 .355.62c.116.25.051.326.066.593a.654.654 0 0 0 .199-.054c-.095-.13.038-.211.14-.29.157-.12.314-.037.453.07.118.09.176.09.13.28-.043.176 0 .21.12.333.102.105.262.179.326.31.109.224-.023.306-.082.488-.017.054-.151.42-.148.45.016.15.253.174.148.395-.06-.087-.218-.15-.27-.013-.022.06.165.376.148.524a.89.89 0 0 1-.236.554c-.099.071-.34-.455-.481-.419.005 0-.042.449-.05.522a.68.68 0 0 0 .132.56 6.824 6.824 0 0 1 .458.573c.085.13.196.477.3.527-.016-.062.016-.136 0-.197.17.054.276.593.341.78a.818.818 0 0 0 .09.235 3.826 3.826 0 0 1 .298.485.819.819 0 0 1-.009.852 3.011 3.011 0 0 1-.274.25c-.034.03-.14-.002-.147.04-.023.145-.032.457-.295.372-.104-.035-.212-.138-.325-.137-.162.001-.218.164-.36.203-.15.04-.225-.01-.326.123-.096.126-.121.299-.223.421-.058.07-.271.054-.184.198.07.116.221-.053.327.092.07-.418.452.066.567.106.129.044.15.017.222.123.08.116-.006.274.15.361a.144.144 0 0 1-.198 0c-.034.148.04.286.198.202.009.128-.014.367.092.46.114.1.04.283.056.42.016.125.138-.019.058.167a2.238 2.238 0 0 0-.1.303 1.343 1.343 0 0 0-.042.42 13.944 13.944 0 0 0 .233 2.287c.045-.03.108-.023.153-.054.068.337.322.522.44.843-.166-.105-.218-.358-.49-.35.024.144-.003.282.137.354.135.069.132.216.057.345a.334.334 0 0 1-.144-.203c-.003.528-.066 1.014-.104 1.532a1.026 1.026 0 0 0 .148-.048c-.075.155-.22.164-.262.39a6.224 6.224 0 0 1-.267.569c.083.138.203.47.356.551a1.924 1.924 0 0 0 .727.025c-.101.128-.343.515-.556.48-.111-.02-.13-.188-.254-.187-.18 0-.122.167-.213.223-.097.06-.21-.026-.313.06a.371.371 0 0 0-.103.327.952.952 0 0 0 .193.68c-.267-.057-.2.234-.063.342a1.427 1.427 0 0 1 .316.246c.036.056-.11.224.082.26.201.04.36-.722.312-.901.052.028.095.016.145.054.001-.122.064-.292.251-.156a.3.3 0 0 0 0-.296c.225.117.322.272.544.296-.107.228-.324.412-.396.648l.248-.05c-.043.13-.316.122-.45.144.15-.104.05-.197-.094-.144-.131.048-.12.181-.148.296-.018.077-.089.162-.048.249.035.073.268.076.291.166.034.135-.296.104-.047.23a.591.591 0 0 0 .485.04 1.095 1.095 0 0 0 .428-.155c.242-.138.207-.15.185-.433a.53.53 0 0 0 .341.054c-.067.032-.065.064-.098.095l.446-.095c-.074.127-.198.368-.356.42-.14.046-.254.025-.232.18.02.127.093.205-.056.285.048-.24-.263-.22-.226-.009.018.105.213.105.155.2a.293.293 0 0 1-.325.105c.07.16.259.049.358.177-.2.053-.35-.066-.506-.177-.224.486.216.316.5.294-.064.125-.324.11-.352.178-.072.176.331.066.41.106-.143.07-.377.255-.513.11-.04.153-.402.577-.148.59a.79.79 0 0 1-.283.066.398.398 0 0 0 .035-.11 1.518 1.518 0 0 0-.296.045c.023.03.026.07.05.102-.058.007-.099.047-.153.055a1.559 1.559 0 0 0 .153.093c-.136-.004-.338-.102-.348.098.118-.041.425-.103.348.103-.11-.051-.087-.037-.153.046a1.413 1.413 0 0 1 .198.05c-.035.011-.061.038-.095.052a.195.195 0 0 1 .148.194c-.129-.159-.559-.001-.351-.296a.375.375 0 0 0-.148 0c.106.175-.024.275-.066.437-.038.143.078.195.046.316-.04-.058-.099-.087-.123-.163-.295.3.144.531.246.791-.256-.056-.335-.276-.45-.486-.22.227-.526.103-.69.389.133.093.398.028.465.196a.288.288 0 0 1-.209.372c-.156.025-.208.268-.357.232-.138-.033-.094.14-.152.23-.03.049-.164.06-.175.097-.024.08.079.155.09.222.034.214-.099.366-.208.568-.133.245-.835.14-1.046.054.027.273-.17.405-.198.647a1.185 1.185 0 0 0 .253-.196c.034.186.256.093.246-.053.122.16.234.023.154.24-.038.101-.045.05-.03.142.004.018.244.077.107.183-.25.196-.067.185-.366.051-.278-.124-.392.16-.259.421.136-.105.672-.214.489.102-.112-.244-.59-.035-.678.172.152.039.308.034.337.222-.084-.019-.076-.124-.148-.149a6.399 6.399 0 0 0-.4-.023c-.449.155.215.202.224.213-.15.073-.423.262-.57.155.005.112-.01.116.1.148-.075.086-.075.177.045.196-.072.101-.03.198.103.197v.054c-.05-.004-.1.004-.148 0 .242.268.586.626-.029.791a1.406 1.406 0 0 1-.55.005c-.297-.03-.184-.276-.068-.457-.188.105-.274-.046-.348-.196-.088.14.021.252-.058.363-.038.052-.18.036-.213.106-.077.164.102.077.126.182.025.108-.19.351-.353.33-.216-.03-.23-.292-.445-.208-.103.04-.093.113-.142.18-.01.014.005.093-.001.117-.01.035-.191.092-.237.122-.265.173-.687-.507-.736-.145a.365.365 0 0 1-.1-.252c-.397.132-.523.662-.907.788-.066-.199-.234-.297-.392-.422-.235-.186-.326.01-.328.219-.002.293-.235.241-.472.228-.193-.01-.209.27-.252.411a.622.622 0 0 1 0-.486c-.21.162-.173.669-.351.741v-.098c-.105.189-.386.526-.199.738-.159.027-.218.143-.295.268-.128.207-.133.212.066.381-.046.018-.077.072-.122.09.068.11.17.1.249 0-.009.115-.1.191-.11.295-.012.122.077.194.081.3.005.11-.164.46-.071.536.14.115.226-.392.47-.159.183.175-.056.393.07.571.1.14.283.017.31.245a1.625 1.625 0 0 1-.154.526c-.054.116-.147.421-.254.447-.145.036-.167-.077-.193-.195s-.061-.043-.138-.06a1.478 1.478 0 0 0-.71-.002c-.037.01-.157-.128-.227-.158a1.222 1.222 0 0 0-.42-.03 1.586 1.586 0 0 0-1.032.617 2.265 2.265 0 0 1-.326.49c-.159.158-.338.374-.079.546.206.137.444.04.667.105a3.219 3.219 0 0 1 .443.244c.116.055.1-.126.192.079.036.08-.032.193-.017.272.026.135.461.467.196.512a3.282 3.282 0 0 1 .93.95.715.715 0 0 0 .25.255c.123.058.312-.036.387.002a1.843 1.843 0 0 1 .3.508c.455-.353.99.395 1.233.662a1.53 1.53 0 0 0 .468.394c.198.097.44.08.623.217.3.226.846.834 1.257.849a2.063 2.063 0 0 1 .7.095c.139.053.425.064.508.168.144.18-.004.299.324.37a1.127 1.127 0 0 0 .695-.11c.294-.112.406-.158.661.043.118.092.054.512.17.681a1.546 1.546 0 0 0 .53.406c.254.133.506.069.779.136.192.048.225 1.247.256 1.462.084.576.802.585 1.26.677.193.039.377.207.583.13a.985.985 0 0 1 .694-.096c.228.058.25.386.548.39a.76.76 0 0 1 .623.192.608.608 0 0 0 .625.18 1.164 1.164 0 0 1 .385-.035c.139.027.219.127.369.112-.006-.095-.082-.36.096-.312a3.613 3.613 0 0 0 .552.096c.322.036.417.46.774.278.13-.066.962-.076.936-.237a8.032 8.032 0 0 1-.056-1.038.446.446 0 0 0 .485-.175c.107-.126.258-.282.426-.223.193.067.285.317.524.372.146.034.536-.036.614.101.114.2.031.342.323.25s.266.031.421.226a3.959 3.959 0 0 1 .457.618 1.01 1.01 0 0 0 .406.488c.379.233.704.671 1.182.71a3.052 3.052 0 0 0 .634-.08c.249-.029.346.156.525.287a5.218 5.218 0 0 0 1.206.764c.233.081.482.103.72.19.26.095.363.171.569-.073.155-.184.043-.382.373-.345a1.211 1.211 0 0 1 .618.249c.162.128.234.435.435.508.232.083.259.055.45.261a.926.926 0 0 0 .616.32c.273.034.285-.043.441-.291.104-.166.344.215.386.298l.208.418c.012.025-.218.196-.248.265.152.06.48.034.585.142.15.154.173.11.35.104.094-.003.144-.104.22.023a2.13 2.13 0 0 0 .254.386 3.299 3.299 0 0 0 .758.598 1.112 1.112 0 0 1 .271.221c.096.106.16.093.243.165.056.05.033.166.057.235.06.17.156.334.232.497.047.1.115.189.096.294-.027.14-.202.131-.105.332a.719.719 0 0 0 .572.403c-.118.147.025.194.079.32.079.19-.197.099-.286.114-.227.04.036.217.102.26.129.086.152.28.195.416.105.329.491.362.77.413.356.065.564.354.774-.045.184.127.168.423.27.608.131.236.217.011.35 0 .047-.004.046-.131.121-.015.048.073-.067.143-.053.216.035.186.406-.074.503.172.118.302.64 1.062.975.534.166-.262.243.06.431.164.152.084.515.096.61.254a.826.826 0 0 1 .095.263c.018.136.106.006.145.065.078.116.038.288.14.406.08.092.18.055.07.188-.066.078-.117.162.01.222.163.076.499.268.537.463a2.758 2.758 0 0 1 .086.608c-.004.088-.15.092-.193.167a.85.85 0 0 0-.131.347c-.016.304.072.393.327.548.192.117.276.26.431.31.15.047.256-.019.388.101.195.177.191.147.362-.02.129-.126.303.077.431-.005.138-.087-.025-.332.228-.05.083.092.228.133.29.232.083.13-.093.286.029.428.113.131.185.197.178.366-.008.182-.132.246-.03.442a1.828 1.828 0 0 1 .209.41 2.797 2.797 0 0 0 .172.383c-.09.15-.166.35-.27.486-.094.125-.27.192-.34.337-.106.218.208.39.24.577.063.371.546.166.58.537a.54.54 0 0 0 .198-.326 2.962 2.962 0 0 1 .55.337c.155.136.131.478.326.566.205.093.494-.157.663-.217.291-.102.326-.138.595.051.013-.192.162-.3.27-.135.1.153.028.444.298.153.134-.145.13-.532.38-.494.232.035.37.3.591.37a5.535 5.535 0 0 0 .763.124c.13.021.25.28.44.323a1.443 1.443 0 0 0 .654-.099c.163-.127.008-.256.3-.285.213-.022.448.166.65.068s.31-.419.519-.54a1.003 1.003 0 0 1 .667-.05.783.783 0 0 0 .32.01c.151-.036.088-.167.156-.257.135-.177.353-.254.478-.444a1.244 1.244 0 0 1 .497-.484c.185-.117.432-.342.418 0-.016.385.257.085.439.065.232-.026.402.221.6.298.215.084.525.003.534.314.003.097.144.68.237.321.08-.31.167-.44.352-.116.096.168.307.272.117.44a.147.147 0 0 0 .028.229c.066.038.284-.071.355-.106q.197-.094.393-.19c-.04.02.155.067.205.06.106-.013.182-.138.298-.112.12.027.149.101.281.082.253-.037.388-.325.468-.524.086-.214.492-.125.626-.044.284.171.213-.086.2-.235-.031-.343.297-.207.5-.121.248.105.377-.02.608.122.212.13.345.376.56.516a1.48 1.48 0 0 0 .627.201c.159.02.084.282.213.389.218.18.18.7.59.484.102-.054-.045-.304.173-.31.078-.002.129.13.184.161a1.196 1.196 0 0 0 .27.083.498.498 0 0 1 .374.285c.078.223.227.092.383.06.107-.021.424-.074.48.066.085.208-.207.153-.227.26-.017.092.077.212.167.188.203-.055.33-.21.533-.111.343.165.088.72.603.573.358-.103.188.609.487.146.253-.393.339.425.57.512-1.616 2.584-3.299 5.128-4.95 7.69.633.07 1.123.537 1.738.69.322.08.456-.18.686-.33.33-.218.604-.044.89.163a1.544 1.544 0 0 1 .51.735c.1.277.048.577.36.735a2.564 2.564 0 0 1 1.384 1.284 5.526 5.526 0 0 0 .357-1.51l.262-1.426.572-3.127 1.1-6.002 1.14-6.227a8.648 8.648 0 0 0 .282-1.446c-.002-.209.135-.403.13-.615a4.134 4.134 0 0 1 .105-.849 2.76 2.76 0 0 1 .084-.63c.106-.272-.074-.464-.22-.696-.12-.191.006-.316-.024-.522-.038-.265-.023-.186-.192-.322-.08-.064-.105-.183-.182-.248-.074-.064-.18-.072-.255-.134-.126-.104-.059-.323-.158-.462-.047-.066-.129-.08-.167-.172-.042-.104.03-.209-.024-.308-.111-.204-.434-.36-.34-.621.068-.192.325-.36.276-.588-.017-.08-.08-.125-.118-.194-.054-.103-.021-.21-.039-.32-.097-.623-.568-.547-1.008-.82-.172-.106-.26-.307-.445-.393-.243-.114-.248-.336-.455-.467-.168-.107-.421-.039-.549-.226a6.265 6.265 0 0 0-.53-.566 1.22 1.22 0 0 1-.376-.618 3.818 3.818 0 0 1 .003-.708c.013-.54.03-1.078.045-1.617l.079-2.891c.111.179.487-.034.69.008a3.344 3.344 0 0 0 .819-.084 2.045 2.045 0 0 0 .817-.29c.107-.068.203-.208.333-.219a2.04 2.04 0 0 1 .454.127c.135.028.144-.217.217-.271.092-.069.217-.037.304-.093.252-.162.5-.31.78-.12.19.129.37.512.593.56.141.032.668-.322.476.166.196-.024.382.067.563-.012.08-.035.063-.142.172-.144.096-.002.177.08.274.048.234-.076.123-.328-.015-.462-.08-.079-.196-.05-.225-.179-.026-.116.131-.14.165-.244.068-.204-.148-.437-.054-.636.02-.042.163-.02.167-.07.008-.131-.06-.18-.178-.225-.067-.026-.25-.091-.235-.185.028-.175.072-.211-.081-.305-.08-.05-.054-.135-.08-.216-.03-.099-.145-.116-.205-.19a1.495 1.495 0 0 0-.55-.378c-.285-.146-.41.277-.633.238-.15-.027-.2-.175-.329-.215-.196-.062-.43.081-.635.01a1.208 1.208 0 0 0-.64-.08l-.463.068c-.192.028-.052-.102-.14-.167-.183-.136-.417-.017-.58.088-.36.23-.318-.04-.316-.35.005-.684.01-1.37.012-2.053a11.51 11.51 0 0 0-.042-2.179 1.192 1.192 0 0 0 .64-.118 1.23 1.23 0 0 1 .592-.085 2.129 2.129 0 0 0 .748-.239c.215-.097.544.026.755.07.216.045.402.189.614.244a2.728 2.728 0 0 0 .688.038l1.653-.002c2.013-.002 4.025 0 6.038-.005l.526-.001c-.253-.082-.126-.335-.37-.345-.21-.01-.201-.052-.18-.254.016-.161-.198-.126-.295-.178a3.16 3.16 0 0 0 .306-.62c.086-.212.15-.566.33-.716.078.135-.005.291.202.333a.559.559 0 0 1 .482.393c.128.371.321 1.064.76 1.192 1.124.327 1.775-.87 2.336-1.612a3.852 3.852 0 0 1 1.067-.913.693.693 0 0 1 .318-.088c.108-.014.129-.13.216-.163a.76.76 0 0 1 .603.138c.389.264.498.898.72 1.29.238.423.644.746.86 1.183a4.858 4.858 0 0 1 .502 1.427 7.348 7.348 0 0 1-.09 1.677c-.022.25-.197 1.143.145 1.196a1.963 1.963 0 0 0 .67-.167c.248-.068.493-.134.746-.185l-.149-.307z" fill-rule="evenodd"/></svg>