<svg width="50" height="50" viewBox="0 0 50 50" xmlns="http://www.w3.org/2000/svg"><title>icons/icongrid-gavel</title><path d="M18.824 28.437c.036.036.13.126.283.272.162.154.258.254.29.3.03.046.107.135.23.266.124.13.2.235.231.312.031.077.077.181.14.312.06.13.103.258.126.381.023.123.035.262.035.416 0 .586-.216 1.11-.647 1.571-.046.047-.173.185-.381.416a14.54 14.54 0 0 1-.44.474 7.724 7.724 0 0 1-.427.381c-.2.17-.37.29-.508.359-.139.069-.308.138-.509.208-.2.069-.4.104-.6.104a2.14 2.14 0 0 1-1.572-.647l-9.428-9.429A2.14 2.14 0 0 1 5 22.563c0-.201.035-.401.104-.602.07-.2.139-.37.208-.508.07-.139.189-.308.358-.508.17-.2.297-.343.381-.428.085-.085.243-.231.474-.439a16.7 16.7 0 0 0 .416-.381c.462-.432.986-.647 1.571-.647.154 0 .293.011.416.034.124.023.25.066.382.127.13.062.235.108.312.14.077.03.18.107.312.23.13.123.22.2.265.231.047.031.147.127.3.29l.272.282a1.07 1.07 0 0 1-.318-.78c0-.308.108-.57.324-.785l8.042-8.042a1.07 1.07 0 0 1 .785-.324c.306 0 .566.106.78.318-.036-.035-.13-.126-.283-.271a2.68 2.68 0 0 1-.289-.3 2.718 2.718 0 0 0-.23-.266c-.124-.131-.201-.235-.232-.312a6.096 6.096 0 0 0-.139-.312 1.583 1.583 0 0 1-.127-.382 2.268 2.268 0 0 1-.034-.416c0-.585.215-1.109.647-1.57.046-.047.173-.186.381-.417.208-.231.354-.389.439-.474.085-.084.227-.211.428-.38.2-.17.37-.29.508-.359.139-.07.308-.139.508-.208.2-.07.4-.104.601-.104.616 0 1.14.216 1.571.647l9.429 9.428c.43.431.647.955.647 1.571 0 .2-.035.401-.104.601-.07.2-.14.37-.208.509-.07.138-.19.308-.359.508-.169.2-.296.343-.38.428a14.54 14.54 0 0 1-.475.439c-.23.208-.37.335-.416.38-.462.432-.985.648-1.57.648-.155 0-.294-.012-.417-.035a1.583 1.583 0 0 1-.381-.127 6.096 6.096 0 0 0-.312-.139 1.157 1.157 0 0 1-.312-.23c-.131-.124-.22-.2-.266-.232a2.68 2.68 0 0 1-.3-.289 30.404 30.404 0 0 0-.272-.283c.212.215.318.475.318.78 0 .308-.108.57-.323.786l-2.912 2.912 5.916 5.915c.662-.662 1.401-.993 2.218-.993.801 0 1.502.285 2.103.855l8.388 8.388c.57.6.855 1.302.855 2.103a2.83 2.83 0 0 1-.855 2.08l-2.473 2.495c-.6.57-1.301.855-2.102.855a2.83 2.83 0 0 1-2.08-.855l-8.388-8.411c-.586-.555-.878-1.248-.878-2.08 0-.817.33-1.556.993-2.218l-5.915-5.916-2.912 2.912a1.07 1.07 0 0 1-.786.323c-.305 0-.565-.106-.78-.318z" fill="#000" fill-rule="evenodd"/></svg>