<svg width="16" height="16" viewBox="0 0 16 16" xmlns="http://www.w3.org/2000/svg"><title>icons/instagram</title><path d="M6.336 8A1.66 1.66 0 0 1 8 6.336 1.66 1.66 0 0 1 9.664 8 1.66 1.66 0 0 1 8 9.664 1.66 1.66 0 0 1 6.336 8zm5.328-3.336v1a.332.332 0 0 1-.328.336h-1A.333.333 0 0 1 10 5.664v-1c0-.18.148-.328.336-.328h1a.33.33 0 0 1 .328.328zm-1.078 2.672h1.078v4a.33.33 0 0 1-.328.328H4.664a.33.33 0 0 1-.328-.328v-4h1.078c-.055.21-.078.437-.078.664A2.662 2.662 0 0 0 8 10.664 2.662 2.662 0 0 0 10.664 8c0-.227-.023-.453-.078-.664zM8 0c4.414 0 8 3.586 8 8s-3.586 8-8 8-8-3.586-8-8 3.586-8 8-8zm4.664 11.336V4.664c0-.734-.594-1.328-1.328-1.328H4.664c-.734 0-1.328.594-1.328 1.328v6.672c0 .734.594 1.328 1.328 1.328h6.672c.734 0 1.328-.594 1.328-1.328z" fill="#000" fill-rule="evenodd"/></svg>