<svg width="16" height="16" viewBox="0 0 16 16" xmlns="http://www.w3.org/2000/svg"><title>icons/left-circle</title><path d="M8.531 13.198l-4.729-4.73A.64.64 0 0 1 3.604 8a.64.64 0 0 1 .198-.469l4.73-4.729A.64.64 0 0 1 9 2.604a.64.64 0 0 1 .469.198l1.062 1.063a.64.64 0 0 1 .198.468.64.64 0 0 1-.198.47L7.333 8l3.198 3.198a.64.64 0 0 1 .198.469.64.64 0 0 1-.198.468L9.47 13.198a.64.64 0 0 1-.469.198.64.64 0 0 1-.469-.198zM0 8c0 1.451.358 2.79 1.073 4.016a7.964 7.964 0 0 0 2.911 2.911A7.826 7.826 0 0 0 8 16c1.451 0 2.79-.358 4.016-1.073a7.964 7.964 0 0 0 2.911-2.911A7.826 7.826 0 0 0 16 8c0-1.451-.358-2.79-1.073-4.016a7.964 7.964 0 0 0-2.911-2.911A7.826 7.826 0 0 0 8 0C6.549 0 5.21.358 3.984 1.073a7.964 7.964 0 0 0-2.911 2.911A7.826 7.826 0 0 0 0 8z" fill="#000" fill-rule="evenodd"/></svg>