<svg width="16" height="16" viewBox="0 0 16 16" xmlns="http://www.w3.org/2000/svg"><title>icons/linkedin</title><path d="M8 0c4.43 0 8 3.57 8 8s-3.57 8-8 8-8-3.57-8-8 3.57-8 8-8zM5.664 12V6.336h-2V12h2zm-1-6.664C5.484 5.336 6 4.812 6 4.164 5.984 3.5 5.484 3 4.664 3c-.797 0-1.328.5-1.328 1.164 0 .649.516 1.172 1.312 1.172h.016zM13 12V9c0-1.836-.906-3-2.336-3C9.852 6 9.258 6.484 9 7.203l-.07-.867H6.945C6.961 6.555 7 7.664 7 7.664V12h2V9c0-.813.367-1.336.984-1.336.61 0 1.016.32 1.016 1.336v3h2z" fill="#000" fill-rule="evenodd"/></svg>