<svg width="18" height="16" viewBox="0 0 18 16" xmlns="http://www.w3.org/2000/svg"><title>icons/new-window</title><path d="M14.143 9.321v3.215c0 .797-.283 1.478-.849 2.044a2.786 2.786 0 0 1-2.044.849H2.893a2.786 2.786 0 0 1-2.044-.85A2.786 2.786 0 0 1 0 12.537V4.179C0 3.382.283 2.7.849 2.134a2.786 2.786 0 0 1 2.044-.848h7.071c.094 0 .171.03.231.09s.09.137.09.231v.643c0 .094-.03.17-.09.231a.313.313 0 0 1-.23.09H2.892c-.442 0-.82.158-1.135.473a1.548 1.548 0 0 0-.472 1.135v8.357c0 .442.157.82.472 1.135.315.314.693.472 1.135.472h8.357c.442 0 .82-.158 1.135-.472.315-.315.472-.693.472-1.135V9.32c0-.093.03-.17.09-.23S13.086 9 13.18 9h.642c.094 0 .171.03.231.09s.09.138.09.231zM18 .643v5.143a.618.618 0 0 1-.19.452.618.618 0 0 1-.453.19.618.618 0 0 1-.452-.19L15.137 4.47l-6.549 6.549a.318.318 0 0 1-.462 0L6.981 9.874a.318.318 0 0 1 0-.462l6.55-6.55-1.769-1.767a.618.618 0 0 1-.19-.452c0-.174.063-.325.19-.452A.618.618 0 0 1 12.214 0h5.143c.174 0 .325.064.452.19.127.128.191.279.191.453z" fill="#000" fill-rule="evenodd"/></svg>