<svg width="14" height="16" viewBox="0 0 14 16" xmlns="http://www.w3.org/2000/svg"><title>icons/person</title><path d="M14 13.24c0 .757-.228 1.406-.684 1.947-.455.542-1.004.813-1.646.813H2.33c-.642 0-1.19-.27-1.646-.813C.228 14.646 0 13.998 0 13.24c0-.59.031-1.148.093-1.672a8.612 8.612 0 0 1 .345-1.584c.167-.53.38-.986.64-1.364a3.005 3.005 0 0 1 1.027-.927c.427-.24.917-.36 1.472-.36.955.89 2.096 1.334 3.423 1.334s2.468-.445 3.423-1.334c.555 0 1.045.12 1.472.36.426.24.769.548 1.028.927.259.378.472.833.64 1.364.167.532.282 1.06.344 1.584S14 12.649 14 13.24zM11.2 4c0 1.104-.41 2.047-1.23 2.828C9.15 7.61 8.16 8 7 8c-1.16 0-2.15-.39-2.97-1.172C3.21 6.047 2.8 5.104 2.8 4c0-1.104.41-2.047 1.23-2.828C4.85.39 5.84 0 7 0c1.16 0 2.15.39 2.97 1.172.82.781 1.23 1.724 1.23 2.828z" fill="#000" fill-rule="evenodd"/></svg>