<svg width="16" height="16" viewBox="0 0 16 16" xmlns="http://www.w3.org/2000/svg"><title>icons/pinterest</title><path d="M7.094 11.758zm0 0c.273.539 1.093 1 1.96 1 2.579 0 4.313-2.352 4.313-5.477 0-2.375-2.015-4.593-5.055-4.593-3.812 0-5.718 2.718-5.718 5 0 1.382.515 2.609 1.625 3.054.187.07.351 0 .414-.203.031-.133.125-.484.164-.633.055-.203.016-.273-.133-.445-.312-.39-.516-.867-.516-1.57 0-2.024 1.516-3.836 3.946-3.836 2.148 0 3.312 1.312 3.312 3.078 0 2.297-1.015 4.234-2.539 4.234-.828 0-1.46-.68-1.258-1.531.243-1.024.704-2.117.704-2.836 0-.664-.352-1.203-1.07-1.203-.852 0-1.54.89-1.54 2.07 0 .766.258 1.266.258 1.266S5.07 12.836 4.93 13.5c-.149.594-.172 1.281-.133 1.836A7.992 7.992 0 0 1 0 8c0-4.43 3.57-8 8-8s8 3.57 8 8-3.57 8-8 8c-.797 0-1.555-.11-2.281-.336.32-.476.648-1.094.82-1.703.094-.35.552-2.193.555-2.203z" fill="#000" fill-rule="evenodd"/></svg>