<svg width="164" height="162" viewBox="0 0 164 162" xmlns="http://www.w3.org/2000/svg"><title>icons/play-button</title><g fill="#FFF" fill-rule="nonzero"><path d="M160.357 81.156c0-43.292-35.045-78.337-78.2-78.337C39 2.819 3.953 37.864 3.953 81.156S39 159.493 82.156 159.493c43.155 0 78.201-35.045 78.201-78.337zm3 0c0 44.743-36.322 81.065-81.2 81.065-44.88 0-81.203-36.322-81.203-81.065C.954 36.413 37.276.092 82.156.092c44.88 0 81.201 36.32 81.201 81.064z"/><path d="M66.838 106.023l43.07-24.867-43.07-24.867v49.734zm-.696-53.367l47.369 27.35c.928.535.928 1.766 0 2.301l-47.37 27.348c-.998.577-2.303-.075-2.303-1.15V53.806c0-1.075 1.305-1.728 2.304-1.151z"/></g></svg>