<svg width="16" height="16" viewBox="0 0 16 16" xmlns="http://www.w3.org/2000/svg"><title>icons/right-circle</title><path d="M7.469 13.198l4.729-4.73A.64.64 0 0 0 12.396 8a.64.64 0 0 0-.198-.469l-4.73-4.729A.64.64 0 0 0 7 2.604a.64.64 0 0 0-.469.198L5.47 3.865a.64.64 0 0 0-.198.468c0 .18.066.337.198.47L8.667 8l-3.198 3.198a.64.64 0 0 0-.198.469c0 .18.066.336.198.468l1.062 1.063a.64.64 0 0 0 .469.198.64.64 0 0 0 .469-.198zM16 8c0 1.451-.358 2.79-1.073 4.016a7.964 7.964 0 0 1-2.911 2.911A7.826 7.826 0 0 1 8 16a7.826 7.826 0 0 1-4.016-1.073 7.964 7.964 0 0 1-2.911-2.911A7.826 7.826 0 0 1 0 8c0-1.451.358-2.79 1.073-4.016a7.964 7.964 0 0 1 2.911-2.911A7.826 7.826 0 0 1 8 0c1.451 0 2.79.358 4.016 1.073a7.964 7.964 0 0 1 2.911 2.911A7.826 7.826 0 0 1 16 8z" fill="#000" fill-rule="evenodd"/></svg>