<svg width="16" height="16" viewBox="0 0 16 16" xmlns="http://www.w3.org/2000/svg"><title>icons/twitter</title><path d="M8 0c4.43 0 8 3.57 8 8s-3.57 8-8 8-8-3.57-8-8 3.57-8 8-8zm4.867 6.242c.445-.312.82-.726 1.133-1.172a5.168 5.168 0 0 1-1.313.36 2.18 2.18 0 0 0 .977-1.266 4.57 4.57 0 0 1-1.422.555c-.406-.438-1-.719-1.648-.719a2.26 2.26 0 0 0-2.258 2.281c0 .164.016.352.055.516a6.454 6.454 0 0 1-4.704-2.39 2.44 2.44 0 0 0-.296 1.148c0 .797.39 1.484 1 1.89-.375 0-.727-.11-1.024-.28v.022c0 1.11.781 2.016 1.82 2.243a2.51 2.51 0 0 1-1.023.031c.281.906 1.133 1.523 2.117 1.539-.781.61-1.742 1.04-2.82 1.04-.18 0-.367-.024-.531-.04 1 .648 2.203 1 3.476 1 4.188 0 6.461-3.46 6.461-6.46v-.298z" fill="#000" fill-rule="evenodd"/></svg>